<svg width="20" height="25" viewBox="0 0 20 25" fill="none" xmlns="http://www.w3.org/2000/svg">
<path d="M0.892241 21.2568C0.634483 21.2568 0.421336 21.1683 0.252802 20.9911C0.0842674 20.814 0 20.59 0 20.319C0 20.0481 0.0842674 19.8241 0.252802 19.6469C0.421336 19.4698 0.634483 19.3812 0.892241 19.3812H2.49828V9.81565C2.49828 8.10677 2.98901 6.5594 3.97047 5.17354C4.95194 3.78768 6.24569 2.9176 7.85172 2.56332V1.65678C7.85172 1.17746 8.0153 0.781501 8.34246 0.468901C8.66961 0.1563 9.06121 0 9.51724 0C9.97328 0 10.3649 0.1563 10.692 0.468901C11.0192 0.781501 11.1828 1.17746 11.1828 1.65678V2.56332C12.7888 2.9176 14.0875 3.78768 15.0789 5.17354C16.0703 6.5594 16.5659 8.10677 16.5659 9.81565V19.3812H18.1422C18.4 19.3812 18.6131 19.4698 18.7817 19.6469C18.9502 19.8241 19.0345 20.0481 19.0345 20.319C19.0345 20.59 18.9502 20.814 18.7817 20.9911C18.6131 21.1683 18.4 21.2568 18.1422 21.2568H0.892241ZM9.51724 25.008C8.88276 25.008 8.32759 24.7632 7.85172 24.2734C7.37586 23.7837 7.13793 23.195 7.13793 22.5072H11.8966C11.8966 23.195 11.6636 23.7837 11.1976 24.2734C10.7317 24.7632 10.1716 25.008 9.51724 25.008Z" fill="#9CA3AF"/>
<circle cx="16" cy="5" r="3" fill="#4B4EFC"/>
</svg>
