<svg width="32" height="32" viewBox="0 0 32 32" fill="none" xmlns="http://www.w3.org/2000/svg">
<path d="M7.875 6.72708H8.375V6.22708V4.60805C8.375 3.99175 8.87694 3.48901 9.5 3.48901C10.1231 3.48901 10.625 3.99175 10.625 4.60805V6.22708V6.72708H11.125H20.875H21.375V6.22708V4.60805C21.375 3.99175 21.8769 3.48901 22.5 3.48901C23.1231 3.48901 23.625 3.99175 23.625 4.60805V6.22708V6.72708H24.125H25.75C27.2705 6.72708 28.5 7.95469 28.5 9.46515V25.6555C28.5 27.1659 27.2705 28.3935 25.75 28.3935H6.25C4.72948 28.3935 3.5 27.1659 3.5 25.6555V9.46515C3.5 7.95469 4.72948 6.72708 6.25 6.72708H7.875ZM9.5 10.5842C8.32813 10.5842 7.375 11.5312 7.375 12.7032C7.375 13.8753 8.32813 14.8222 9.5 14.8222H22.5C23.6719 14.8222 24.625 13.8753 24.625 12.7032C24.625 11.5312 23.6719 10.5842 22.5 10.5842H9.5Z" fill="white" stroke="black"/>
</svg>
