<svg width="20" height="23" viewBox="0 0 20 23" fill="none" xmlns="http://www.w3.org/2000/svg">
<path d="M1.87495 22.2495C1.35412 22.2495 0.911413 22.0672 0.546829 21.7026C0.182246 21.338 -4.57764e-05 20.8953 -4.57764e-05 20.3745V8.18695C-4.57764e-05 7.89528 0.0676624 7.61403 0.203079 7.3432C0.338496 7.07237 0.520787 6.85362 0.749954 6.68695L8.87495 0.593201C9.04162 0.468201 9.2187 0.374451 9.4062 0.311951C9.5937 0.249451 9.79162 0.218201 9.99995 0.218201C10.2083 0.218201 10.4062 0.249451 10.5937 0.311951C10.7812 0.374451 10.9583 0.468201 11.125 0.593201L19.25 6.68695C19.4791 6.85362 19.6614 7.07237 19.7968 7.3432C19.9322 7.61403 20 7.89528 20 8.18695V20.3745C20 20.8953 19.8177 21.338 19.4531 21.7026C19.0885 22.0672 18.6458 22.2495 18.125 22.2495H12.5V13.4995H7.49995V22.2495H1.87495Z" fill="#4B4EFC"/>
</svg>
