<svg width="58" height="36" viewBox="0 0 58 36" fill="none" xmlns="http://www.w3.org/2000/svg">
<path d="M21.7599 1.11598C21.4761 0.783913 21.0978 0.546028 20.6674 0.427078C20.1519 0.288307 19.5796 0.357693 19.0688 0.620373C18.5486 0.883053 18.4067 1.08625 16.9831 3.59904C16.2548 4.87775 15.621 6.04741 15.5643 6.20106C15.4839 6.41913 15.4649 6.58764 15.4649 7.06839C15.4649 7.5987 15.4791 7.69782 15.5879 7.96546C15.7676 8.41648 22.2423 19.4688 22.4599 19.6968C23.1078 20.3857 24.3138 20.2965 24.8672 19.5233C25.1415 19.1367 28.0738 13.8138 28.1636 13.5412C28.296 13.1199 28.2913 12.5252 28.1494 12.0989C27.9981 11.6479 22.1099 1.52734 21.7599 1.11598Z" fill="#4B4EFC"/>
<path d="M42.6973 1.01686C42.4278 0.729401 42.0021 0.491508 41.6048 0.407253C40.8623 0.243698 40.0583 0.511333 39.5617 1.08625C39.3725 1.29937 37.2111 5.1305 30.6513 16.8866C25.8887 25.4162 21.9633 32.4888 21.9302 32.5978C21.8356 32.9001 21.8072 33.4552 21.8687 33.7724C21.9964 34.4118 22.4882 35.1155 22.999 35.3881C23.4956 35.6508 23.1929 35.6409 29.871 35.6409C35.7923 35.6409 36.0666 35.6359 36.3409 35.5467C36.7429 35.4129 37.003 35.2444 37.2963 34.9074C37.4996 34.6794 38.7435 32.4541 43.2791 24.2119C46.4289 18.4924 49.049 13.6849 49.0963 13.5362C49.2193 13.1546 49.2099 12.4707 49.0774 12.0841C49.0207 11.9205 47.616 9.42258 45.9607 6.53311C43.5865 2.39468 42.8913 1.21511 42.6973 1.01686Z" fill="#4B4EFC"/>
<path d="M14.6089 13.4966C14.4244 13.2438 14.0508 12.9613 13.7529 12.8424C13.3934 12.6986 12.8117 12.6689 12.4664 12.768C12.0739 12.882 11.7617 13.0852 11.5064 13.3875C11.2273 13.7146 0.770411 32.1517 0.623797 32.5681C0.340028 33.3957 0.552854 34.3325 1.17242 34.9669C1.47983 35.2791 1.84874 35.5021 2.20345 35.5864C2.48722 35.6558 14.8217 35.6558 15.1055 35.5864C15.4933 35.4922 15.8338 35.289 16.1507 34.952C16.425 34.6596 16.6946 34.1937 18.7377 30.536C19.9911 28.2859 21.0552 26.3232 21.1025 26.1746C21.2302 25.7632 21.2207 25.0544 21.0741 24.6431C20.9748 24.3606 14.9258 13.9377 14.6089 13.4966Z" fill="#4B4EFC"/>
<path d="M54.819 21.9122C52.7948 18.4082 52.7286 18.314 52.2698 18.1703C51.7922 18.0216 51.3145 18.1405 50.9976 18.4776C50.8273 18.6609 47.266 24.7521 46.9586 25.3816C46.7363 25.8425 46.6417 26.2687 46.6417 26.8189C46.6417 27.3145 46.689 27.5821 46.8451 28.0183C46.9917 28.4395 50.7753 35.0362 51.0023 35.2791C51.4516 35.7549 52.2888 35.7648 52.7428 35.3039C52.8516 35.1899 53.6603 33.8269 54.8427 31.7503C55.9021 29.8967 56.8007 28.3107 56.8385 28.2215C56.9993 27.8993 57.1223 27.2996 57.1223 26.8436C57.1223 26.3431 57.0324 25.9069 56.8291 25.4559C56.7581 25.2923 55.8548 23.6965 54.819 21.9122Z" fill="#4B4EFC"/>
</svg>
