<svg width="253" height="71" viewBox="0 0 253 71" fill="none" xmlns="http://www.w3.org/2000/svg">
<path d="M31.2517 19.3769C31.6597 19.4845 32.0183 19.6997 32.2873 20.0001C32.619 20.3722 38.2004 29.5265 38.3439 29.9345C38.4784 30.32 38.4829 30.858 38.3573 31.239C38.2721 31.4856 35.4927 36.3004 35.2326 36.6501C34.7081 37.3494 33.565 37.4301 32.9508 36.807C32.7446 36.6008 26.6073 26.6036 26.4369 26.1956C26.3338 25.9535 26.3204 25.8639 26.3204 25.3842C26.3204 24.9493 26.3383 24.7969 26.4145 24.5997C26.4683 24.4607 27.069 23.4027 27.7594 22.2461C29.1088 19.9732 29.2433 19.7894 29.7364 19.5518C30.2206 19.3142 30.7631 19.2514 31.2517 19.3769ZM51.0981 19.359C51.4747 19.4352 51.8782 19.6504 52.1337 19.9104C52.3175 20.0897 52.9765 21.1567 55.227 24.9C56.7961 27.5136 58.1275 29.7731 58.1813 29.921C58.3068 30.2707 58.3158 30.8894 58.1992 31.2346C58.1544 31.369 55.6708 35.7176 52.6851 40.891C48.3859 48.3463 47.2068 50.3592 47.0141 50.5654C46.7361 50.8703 46.4896 51.0227 46.1085 51.1437C45.8485 51.2244 45.5885 51.2289 39.9757 51.2289C33.6457 51.2289 33.9326 51.2379 33.4619 51.0003C32.9777 50.7537 32.5114 50.1171 32.3904 49.5388C32.3321 49.2519 32.359 48.7498 32.4487 48.4763C32.4801 48.3777 36.201 41.9804 40.7154 34.2651C46.9334 23.6313 48.9821 20.166 49.1615 19.9732C49.6322 19.4532 50.3943 19.2111 51.0981 19.359ZM88.1953 25.5815C88.397 25.6756 88.6615 25.976 88.8274 26.3032C88.8812 26.4153 90.0468 30.3962 91.4186 35.1572C92.7904 39.9137 93.9156 43.814 93.9246 43.8229C93.9425 43.8409 93.6421 44.8764 96.4575 35.1124C97.8158 30.4007 98.959 26.4691 99.0039 26.3705C99.0442 26.2718 99.1652 26.0746 99.2728 25.9311C99.6046 25.4784 99.4701 25.4963 102.173 25.4963C104.877 25.4963 104.742 25.4784 105.074 25.9311C105.181 26.0746 105.303 26.2718 105.343 26.3705C105.509 26.7515 112.238 50.1888 112.238 50.3861C112.238 50.6685 112.076 50.951 111.857 51.0675C111.686 51.1572 111.601 51.1617 109.862 51.1751C108.557 51.1841 108.015 51.1706 107.925 51.1348C107.759 51.0675 107.45 50.7223 107.302 50.4399C107.235 50.3144 106.136 46.5755 104.684 41.5366C103.308 36.7577 102.178 32.8529 102.169 32.8619C102.164 32.8664 101.039 36.7621 99.6674 41.5231C98.2955 46.2796 97.121 50.283 97.0582 50.4085C96.9148 50.6909 96.6323 51.0272 96.453 51.1168C96.3454 51.1751 95.9464 51.1841 93.9246 51.1841C92.239 51.1841 91.4903 51.1706 91.423 51.1348C91.3692 51.1079 91.2572 51.0227 91.1765 50.942C90.8044 50.5923 90.8851 50.8478 88.2356 41.6576C86.8638 36.8966 85.7251 32.9695 85.7072 32.9291C85.6892 32.8798 84.7747 35.9866 83.1967 41.4693C81.5469 47.1942 80.6637 50.1888 80.5651 50.3995C80.4037 50.7313 80.1123 51.072 79.9285 51.1437C79.7761 51.202 76.3959 51.1975 76.1807 51.1348C75.8041 51.0316 75.5755 50.673 75.6248 50.2651C75.6383 50.1664 77.1849 44.7599 79.0633 38.2505C81.5379 29.6745 82.5152 26.3525 82.6094 26.1867C82.7842 25.8773 83.0622 25.5994 83.2415 25.5456C83.3267 25.5232 84.3847 25.5052 85.6982 25.5008C87.868 25.4963 88.0159 25.5052 88.1953 25.5815ZM132.183 25.559C132.34 25.6442 132.591 25.9222 132.739 26.1732C132.801 26.2808 134.904 31.7053 137.415 38.2281C141.126 47.8711 141.983 50.1306 141.992 50.3323C142.014 50.6596 141.88 50.8972 141.602 51.0361C141.404 51.1392 141.382 51.1392 139.571 51.1392C137.796 51.1392 137.728 51.1348 137.585 51.0451C137.432 50.951 137.19 50.6506 137.051 50.3771C137.007 50.2919 135.218 45.6699 133.079 40.111C129.457 30.6966 129.188 30.0107 129.139 30.1362C128.283 32.4091 121.383 50.283 121.302 50.4354C121.155 50.7134 120.912 50.9913 120.751 51.072C120.648 51.1303 120.321 51.1392 118.792 51.1392C116.967 51.1392 116.958 51.1392 116.766 51.0361C116.519 50.9061 116.385 50.664 116.385 50.3547C116.385 50.1664 117.079 48.3239 120.948 38.2729C123.463 31.7501 125.566 26.3212 125.629 26.2091C125.777 25.9311 125.983 25.6846 126.153 25.5815C126.283 25.5008 126.436 25.4963 129.175 25.4963C131.591 25.4963 132.075 25.5052 132.183 25.559ZM190.642 25.559C190.799 25.6397 191.05 25.9177 191.198 26.1732C191.26 26.2808 193.381 31.7456 195.909 38.3178L200.5 50.2651L200.459 50.4892C200.406 50.7761 200.307 50.9106 200.06 51.0361C199.863 51.1392 199.841 51.1392 198.021 51.1392H196.183L196.017 51.0272C195.775 50.8613 195.524 50.4444 195.255 49.763C195.12 49.4222 193.358 44.8451 191.341 39.5865C189.319 34.3323 187.651 30.0555 187.638 30.0824C187.62 30.1138 185.89 34.6058 183.792 40.0661C181.689 45.5265 179.914 50.1261 179.838 50.283C179.685 50.6192 179.439 50.933 179.241 51.0541C179.111 51.1348 178.986 51.1392 177.273 51.1392C175.287 51.1392 175.269 51.1392 175.041 50.8882C174.893 50.7268 174.803 50.4578 174.834 50.2695C174.848 50.1933 176.924 44.7644 179.447 38.2057C182.922 29.1813 184.078 26.218 184.213 26.0163C184.307 25.8729 184.464 25.698 184.563 25.6263L184.742 25.4963H187.629C190.05 25.4963 190.534 25.5052 190.642 25.559ZM217.083 25.9939C217.262 26.0611 217.526 26.3301 217.697 26.617C217.809 26.8098 218.369 28.7061 220.346 35.5472C221.723 40.3262 222.861 44.2354 222.875 44.2354C222.888 44.2354 224.031 40.3217 225.408 35.5383C227.093 29.6879 227.954 26.7829 228.03 26.6484C228.236 26.3077 228.398 26.1284 228.591 26.0387C228.774 25.9491 228.851 25.9446 231.119 25.9446C232.997 25.9446 233.491 25.958 233.607 26.0073C233.791 26.0836 234.087 26.4108 234.239 26.7202C234.306 26.8502 235.853 32.1357 237.79 38.8557L241.219 50.7582L241.17 50.9958C241.103 51.2961 240.905 51.5069 240.619 51.5831C240.48 51.6144 239.843 51.6324 238.704 51.6324C236.79 51.6324 236.812 51.6369 236.534 51.3141C236.454 51.2199 236.333 51.0406 236.27 50.9196C236.194 50.7806 235.23 47.5214 233.661 42.0745C232.294 37.336 231.159 33.4178 231.141 33.3774C231.119 33.3281 230.231 36.3273 228.6 41.9938C226.896 47.898 226.049 50.7671 225.963 50.9241C225.816 51.193 225.56 51.4755 225.381 51.5696C225.282 51.6234 224.847 51.6324 222.879 51.6324C220.176 51.6324 220.31 51.6503 220.01 51.2648C219.916 51.1482 219.786 50.9465 219.728 50.8165C219.665 50.6865 218.499 46.701 217.136 41.9625C215.769 37.2194 214.644 33.3416 214.63 33.3416C214.617 33.3416 213.492 37.2194 212.124 41.9625C210.761 46.701 209.596 50.6865 209.533 50.8165C209.381 51.1437 209.112 51.471 208.919 51.5606C208.775 51.6279 208.578 51.6369 206.955 51.6234C205.252 51.61 205.14 51.6055 204.969 51.5203C204.75 51.4127 204.602 51.1975 204.561 50.9375C204.539 50.7627 204.943 49.3146 207.969 38.8243C209.856 32.2701 211.447 26.8188 211.501 26.7112C211.64 26.4512 211.972 26.0791 212.142 26.0073C212.317 25.9311 216.881 25.9177 217.083 25.9939ZM159.534 36.8339L166.281 47.0507L166.303 37.1387C166.33 26.2136 166.303 27.034 166.595 26.8053C166.823 26.6215 166.971 26.6126 168.612 26.626C170.087 26.6395 170.19 26.6439 170.333 26.7291C170.419 26.7784 170.526 26.8771 170.58 26.9443L170.674 27.0698L170.683 38.8243L170.697 50.5789L170.593 50.7537C170.535 50.8568 170.423 50.9689 170.316 51.0227C170.141 51.1168 170.091 51.1168 167.137 51.1168H164.133L157.386 40.9L150.635 30.6831L150.613 40.6086C150.586 51.5337 150.613 50.7223 150.326 50.951C150.106 51.1213 149.828 51.1482 148.259 51.1303C146.865 51.1168 146.771 51.1123 146.6 51.0227C146.488 50.9644 146.39 50.8613 146.322 50.7358L146.219 50.543V38.8826C146.219 27.7064 146.224 27.2133 146.304 27.0429C146.349 26.9443 146.416 26.8367 146.457 26.8008C146.672 26.626 146.771 26.6215 149.828 26.6215L152.787 26.617L159.534 36.8339ZM24.6975 30.6069C24.9799 30.7145 25.3341 30.9701 25.5089 31.1987C25.8093 31.5977 31.5431 41.0255 31.6373 41.281C31.7762 41.6531 31.7852 42.2942 31.6642 42.6663C31.6193 42.8008 30.6106 44.5761 29.4226 46.6114C27.486 49.9199 27.2304 50.3413 26.9704 50.6058C26.67 50.9106 26.3473 51.0944 25.9797 51.1796C25.7107 51.2424 14.0189 51.2424 13.7499 51.1796C13.4137 51.1034 13.064 50.9016 12.7726 50.6192C12.1854 50.0454 11.9836 49.1981 12.2526 48.4494C12.3916 48.0728 22.3036 31.3959 22.5681 31.1001C22.8102 30.8266 23.106 30.6428 23.4781 30.5397C23.8054 30.45 24.3568 30.4769 24.6975 30.6069ZM61.2074 35.4262C61.6422 35.5562 61.705 35.6414 63.6237 38.8109C64.6055 40.4248 65.4618 41.8683 65.529 42.0163C65.7218 42.4242 65.807 42.8187 65.807 43.2715C65.807 43.684 65.6904 44.2264 65.538 44.5178C65.5021 44.5985 64.6503 46.0331 63.6461 47.7097C62.5254 49.5881 61.7588 50.8209 61.6557 50.9241C61.2253 51.341 60.4318 51.332 60.0059 50.9016C59.7907 50.682 56.2043 44.7151 56.0653 44.334C55.9174 43.9395 55.8726 43.6974 55.8726 43.2491C55.8726 42.7515 55.9622 42.3659 56.1729 41.949C56.4643 41.3797 59.84 35.87 60.0014 35.7041C60.3018 35.3993 60.7546 35.2917 61.2074 35.4262Z" fill="#00335C"/>
<path d="M32.2873 20.0001C32.0183 19.6997 31.6597 19.4845 31.2517 19.3769C30.7631 19.2514 30.2206 19.3142 29.7364 19.5518C29.2433 19.7894 29.1088 19.9732 27.7594 22.2461C27.069 23.4027 26.4683 24.4607 26.4145 24.5997C26.3383 24.7969 26.3204 24.9493 26.3204 25.3842C26.3204 25.8639 26.3338 25.9535 26.4369 26.1956C26.6073 26.6036 32.7446 36.6008 32.9508 36.807C33.565 37.4301 34.7081 37.3494 35.2326 36.6501C35.4927 36.3004 38.2721 31.4856 38.3573 31.239C38.4829 30.858 38.4784 30.32 38.3439 29.9345C38.2004 29.5265 32.619 20.3722 32.2873 20.0001Z" fill="#00335C"/>
<path d="M52.1337 19.9104C51.8782 19.6504 51.4747 19.4352 51.0981 19.359C50.3943 19.2111 49.6322 19.4532 49.1615 19.9732C48.9821 20.166 46.9334 23.6313 40.7154 34.2651C36.201 41.9804 32.4801 48.3777 32.4487 48.4763C32.359 48.7498 32.3321 49.2519 32.3904 49.5388C32.5114 50.1171 32.9777 50.7537 33.4619 51.0003C33.9326 51.2379 33.6457 51.2289 39.9757 51.2289C45.5885 51.2289 45.8485 51.2244 46.1085 51.1437C46.4896 51.0227 46.7361 50.8703 47.0141 50.5654C47.2068 50.3592 48.3859 48.3463 52.6851 40.891C55.6708 35.7176 58.1544 31.369 58.1992 31.2346C58.3158 30.8894 58.3068 30.2707 58.1813 29.921C58.1275 29.7731 56.7961 27.5136 55.227 24.9C52.9765 21.1567 52.3175 20.0897 52.1337 19.9104Z" fill="#00335C"/>
<path d="M25.5089 31.1987C25.3341 30.9701 24.9799 30.7145 24.6975 30.6069C24.3568 30.4769 23.8054 30.45 23.4781 30.5397C23.106 30.6428 22.8102 30.8266 22.5681 31.1001C22.3036 31.3959 12.3916 48.0728 12.2526 48.4494C11.9836 49.1981 12.1854 50.0454 12.7726 50.6192C13.064 50.9016 13.4137 51.1034 13.7499 51.1796C14.0189 51.2424 25.7107 51.2424 25.9797 51.1796C26.3473 51.0944 26.67 50.9106 26.9704 50.6058C27.2304 50.3413 27.486 49.9199 29.4226 46.6114C30.6106 44.5761 31.6193 42.8008 31.6642 42.6663C31.7852 42.2942 31.7762 41.6531 31.6373 41.281C31.5431 41.0255 25.8093 31.5977 25.5089 31.1987Z" fill="#00335C"/>
<path d="M63.6237 38.8109C61.705 35.6414 61.6422 35.5562 61.2074 35.4262C60.7546 35.2917 60.3018 35.3993 60.0014 35.7041C59.84 35.87 56.4643 41.3797 56.1729 41.949C55.9622 42.3659 55.8726 42.7515 55.8726 43.2491C55.8726 43.6974 55.9174 43.9395 56.0653 44.334C56.2043 44.7151 59.7907 50.682 60.0059 50.9016C60.4318 51.332 61.2253 51.341 61.6557 50.9241C61.7588 50.8209 62.5254 49.5881 63.6461 47.7097C64.6503 46.0331 65.5021 44.5985 65.538 44.5178C65.6904 44.2264 65.807 43.684 65.807 43.2715C65.807 42.8187 65.7218 42.4242 65.529 42.0163C65.4618 41.8683 64.6055 40.4248 63.6237 38.8109Z" fill="#00335C"/>
</svg>
