<svg width="170" height="129" viewBox="0 0 170 129" fill="none" xmlns="http://www.w3.org/2000/svg">
<mask id="path-1-inside-1_2859_549" fill="white">
<path d="M17.735 98.0317C16.2347 98.0664 14.9854 96.877 15.0088 95.3765C15.1695 85.0708 17.5404 74.9146 21.9671 65.6285C26.7827 55.527 33.8915 46.7477 42.7012 40.0226C51.5109 33.2974 61.7663 28.8211 72.6125 26.9667C82.5776 25.263 92.7763 25.8179 102.49 28.5783C103.919 28.9846 104.697 30.5027 104.252 31.921L102.727 36.7845C102.274 38.2282 100.73 39.0169 99.2712 38.6152C91.1472 36.3777 82.6361 35.9487 74.3164 37.3712C65.0931 38.948 56.3723 42.7545 48.8809 48.4734C41.3894 54.1923 35.3442 61.6578 31.2493 70.2479C27.5423 78.0239 25.5307 86.5174 25.3396 95.1433C25.3065 96.6416 24.1258 97.884 22.6275 97.9186L17.735 98.0317Z"/>
</mask>
<path d="M17.735 98.0317C16.2347 98.0664 14.9854 96.877 15.0088 95.3765C15.1695 85.0708 17.5404 74.9146 21.9671 65.6285C26.7827 55.527 33.8915 46.7477 42.7012 40.0226C51.5109 33.2974 61.7663 28.8211 72.6125 26.9667C82.5776 25.263 92.7763 25.8179 102.49 28.5783C103.919 28.9846 104.697 30.5027 104.252 31.921L102.727 36.7845C102.274 38.2282 100.73 39.0169 99.2712 38.6152C91.1472 36.3777 82.6361 35.9487 74.3164 37.3712C65.0931 38.948 56.3723 42.7545 48.8809 48.4734C41.3894 54.1923 35.3442 61.6578 31.2493 70.2479C27.5423 78.0239 25.5307 86.5174 25.3396 95.1433C25.3065 96.6416 24.1258 97.884 22.6275 97.9186L17.735 98.0317Z" stroke="#22C55E" stroke-width="20.366" stroke-linecap="round" stroke-linejoin="round" mask="url(#path-1-inside-1_2859_549)"/>
<mask id="path-2-inside-2_2859_549" fill="white">
<path d="M104.278 31.0893C104.664 29.6282 106.17 28.7581 107.61 29.2183C121.19 33.5608 133.148 42.0966 141.817 53.6834C150.503 65.2926 155.43 79.3535 155.954 93.912C156.007 95.4109 154.784 96.6251 153.284 96.6223L148.391 96.6133C146.891 96.6105 145.684 95.3919 145.62 93.8936C145.099 81.6582 140.92 69.8543 133.615 60.0902C126.314 50.3325 116.271 43.1193 104.861 39.3941C103.446 38.9322 102.595 37.4617 102.975 36.0228L104.278 31.0893Z"/>
</mask>
<path d="M104.278 31.0893C104.664 29.6282 106.17 28.7581 107.61 29.2183C121.19 33.5608 133.148 42.0966 141.817 53.6834C150.503 65.2926 155.43 79.3535 155.954 93.912C156.007 95.4109 154.784 96.6251 153.284 96.6223L148.391 96.6133C146.891 96.6105 145.684 95.3919 145.62 93.8936C145.099 81.6582 140.92 69.8543 133.615 60.0902C126.314 50.3325 116.271 43.1193 104.861 39.3941C103.446 38.9322 102.595 37.4617 102.975 36.0228L104.278 31.0893Z" stroke="#E5E7EB" stroke-width="20.366" stroke-linecap="round" stroke-linejoin="round" mask="url(#path-2-inside-2_2859_549)"/>
<g filter="url(#filter0_d_2859_549)">
<circle cx="103" cy="34" r="9" fill="#22C55E"/>
<circle cx="103" cy="34" r="8.15142" stroke="white" stroke-width="1.69717"/>
</g>
<path d="M33.4859 115.339C33.7924 115.273 34.0743 115.24 34.3315 115.24C34.638 115.24 34.9089 115.285 35.1442 115.376C35.3796 115.466 35.5752 115.59 35.7312 115.749C35.8899 115.908 36.009 116.095 36.0883 116.311C36.1704 116.528 36.2115 116.763 36.2115 117.017C36.2115 117.329 36.1567 117.611 36.0473 117.863C35.9406 118.115 35.7914 118.331 35.5999 118.512C35.411 118.689 35.188 118.826 34.9308 118.922C34.6736 119.018 34.3958 119.066 34.0975 119.066C33.9251 119.066 33.7596 119.048 33.6008 119.012C33.4421 118.979 33.293 118.934 33.1534 118.877C33.0166 118.819 32.8894 118.754 32.7717 118.68C32.654 118.606 32.55 118.528 32.4597 118.446L32.6855 118.134C32.7347 118.063 32.7991 118.027 32.8784 118.027C32.9331 118.027 32.9947 118.049 33.0631 118.093C33.1315 118.134 33.215 118.18 33.3135 118.232C33.412 118.284 33.527 118.332 33.6583 118.376C33.7924 118.417 33.9511 118.438 34.1345 118.438C34.3397 118.438 34.5244 118.405 34.6886 118.339C34.8528 118.273 34.9937 118.18 35.1114 118.06C35.2291 117.937 35.3194 117.79 35.3823 117.621C35.4452 117.451 35.4767 117.261 35.4767 117.05C35.4767 116.867 35.4494 116.701 35.3946 116.554C35.3426 116.406 35.2619 116.28 35.1524 116.176C35.0457 116.072 34.9116 115.991 34.7502 115.934C34.5887 115.876 34.3999 115.848 34.1837 115.848C34.036 115.848 33.8813 115.86 33.7199 115.885C33.5612 115.909 33.3983 115.949 33.2314 116.004L32.7717 115.868L33.2437 113.118H36.0309V113.438C36.0309 113.542 35.998 113.628 35.9323 113.697C35.8694 113.762 35.7599 113.795 35.604 113.795H33.7568L33.4859 115.339ZM38.2481 115.339C38.5545 115.273 38.8364 115.24 39.0936 115.24C39.4001 115.24 39.671 115.285 39.9064 115.376C40.1417 115.466 40.3374 115.59 40.4934 115.749C40.6521 115.908 40.7711 116.095 40.8505 116.311C40.9326 116.528 40.9736 116.763 40.9736 117.017C40.9736 117.329 40.9189 117.611 40.8094 117.863C40.7027 118.115 40.5536 118.331 40.362 118.512C40.1732 118.689 39.9502 118.826 39.6929 118.922C39.4357 119.018 39.1579 119.066 38.8597 119.066C38.6873 119.066 38.5217 119.048 38.363 119.012C38.2043 118.979 38.0551 118.934 37.9156 118.877C37.7787 118.819 37.6515 118.754 37.5338 118.68C37.4162 118.606 37.3122 118.528 37.2219 118.446L37.4476 118.134C37.4969 118.063 37.5612 118.027 37.6406 118.027C37.6953 118.027 37.7569 118.049 37.8253 118.093C37.8937 118.134 37.9771 118.18 38.0757 118.232C38.1742 118.284 38.2891 118.332 38.4205 118.376C38.5545 118.417 38.7133 118.438 38.8966 118.438C39.1018 118.438 39.2866 118.405 39.4507 118.339C39.6149 118.273 39.7559 118.18 39.8735 118.06C39.9912 117.937 40.0815 117.79 40.1444 117.621C40.2074 117.451 40.2389 117.261 40.2389 117.05C40.2389 116.867 40.2115 116.701 40.1568 116.554C40.1048 116.406 40.024 116.28 39.9146 116.176C39.8079 116.072 39.6738 115.991 39.5123 115.934C39.3509 115.876 39.162 115.848 38.9459 115.848C38.7981 115.848 38.6435 115.86 38.482 115.885C38.3233 115.909 38.1605 115.949 37.9936 116.004L37.5338 115.868L38.0059 113.118H40.793V113.438C40.793 113.542 40.7602 113.628 40.6945 113.697C40.6315 113.762 40.5221 113.795 40.3661 113.795H38.519L38.2481 115.339ZM44.4879 114.538C44.4879 114.768 44.4523 114.975 44.3812 115.158C44.31 115.339 44.2143 115.492 44.0939 115.618C43.9762 115.741 43.838 115.835 43.6793 115.901C43.5233 115.967 43.3577 115.999 43.1826 115.999C42.9993 115.999 42.8282 115.967 42.6695 115.901C42.5108 115.835 42.3726 115.741 42.2549 115.618C42.14 115.492 42.0497 115.339 41.984 115.158C41.9183 114.975 41.8855 114.768 41.8855 114.538C41.8855 114.303 41.9183 114.093 41.984 113.91C42.0497 113.727 42.14 113.572 42.2549 113.446C42.3726 113.32 42.5108 113.225 42.6695 113.159C42.8282 113.093 42.9993 113.06 43.1826 113.06C43.3687 113.06 43.5411 113.093 43.6998 113.159C43.8585 113.225 43.9967 113.32 44.1144 113.446C44.232 113.572 44.3237 113.727 44.3894 113.91C44.4551 114.093 44.4879 114.303 44.4879 114.538ZM43.9215 114.538C43.9215 114.358 43.9023 114.204 43.864 114.078C43.8257 113.953 43.7723 113.85 43.7039 113.771C43.6382 113.688 43.5602 113.63 43.4699 113.594C43.3796 113.558 43.2838 113.541 43.1826 113.541C43.0813 113.541 42.9869 113.558 42.8994 113.594C42.8118 113.63 42.7352 113.688 42.6695 113.771C42.6038 113.85 42.5518 113.953 42.5135 114.078C42.4752 114.204 42.4561 114.358 42.4561 114.538C42.4561 114.716 42.4752 114.868 42.5135 114.994C42.5518 115.117 42.6038 115.218 42.6695 115.298C42.7352 115.374 42.8118 115.43 42.8994 115.466C42.9869 115.499 43.0813 115.515 43.1826 115.515C43.2838 115.515 43.3796 115.499 43.4699 115.466C43.5602 115.43 43.6382 115.374 43.7039 115.298C43.7723 115.218 43.8257 115.117 43.864 114.994C43.9023 114.868 43.9215 114.716 43.9215 114.538ZM46.569 113.241C46.5964 113.208 46.6278 113.179 46.6634 113.155C46.7017 113.13 46.7524 113.118 46.8153 113.118H47.3448L43.043 118.881C43.0184 118.917 42.9869 118.945 42.9486 118.967C42.9103 118.989 42.8638 119 42.8091 119H42.2713L46.569 113.241ZM47.743 117.613C47.743 117.842 47.7074 118.048 47.6362 118.228C47.5651 118.409 47.4693 118.562 47.3489 118.688C47.2312 118.811 47.093 118.906 46.9343 118.971C46.7784 119.037 46.6128 119.07 46.4377 119.07C46.2516 119.07 46.0792 119.037 45.9205 118.971C45.7645 118.906 45.6277 118.811 45.51 118.688C45.3951 118.562 45.3047 118.409 45.2391 118.228C45.1734 118.048 45.1406 117.842 45.1406 117.613C45.1406 117.377 45.1734 117.168 45.2391 116.985C45.3047 116.798 45.3951 116.643 45.51 116.517C45.6277 116.391 45.7645 116.295 45.9205 116.229C46.0792 116.164 46.2516 116.131 46.4377 116.131C46.621 116.131 46.792 116.164 46.9508 116.229C47.1122 116.295 47.2504 116.391 47.3653 116.517C47.483 116.643 47.5747 116.798 47.6403 116.985C47.7088 117.168 47.743 117.377 47.743 117.613ZM47.1765 117.613C47.1765 117.432 47.1574 117.279 47.119 117.153C47.0807 117.024 47.0274 116.92 46.959 116.841C46.8933 116.762 46.8153 116.704 46.725 116.669C46.6347 116.633 46.5389 116.615 46.4377 116.615C46.3364 116.615 46.2406 116.633 46.1503 116.669C46.0628 116.704 45.9861 116.762 45.9205 116.841C45.8548 116.92 45.8028 117.024 45.7645 117.153C45.7289 117.279 45.7111 117.432 45.7111 117.613C45.7111 117.79 45.7289 117.941 45.7645 118.064C45.8028 118.187 45.8548 118.289 45.9205 118.368C45.9861 118.444 46.0628 118.501 46.1503 118.536C46.2406 118.569 46.3364 118.585 46.4377 118.585C46.5389 118.585 46.6347 118.569 46.725 118.536C46.8153 118.501 46.8933 118.444 46.959 118.368C47.0274 118.289 47.0807 118.187 47.119 118.064C47.1574 117.941 47.1765 117.79 47.1765 117.613Z" fill="#22C55E"/>
<path d="M34.1245 126.555C34.2958 126.555 34.4488 126.527 34.5835 126.469C34.7182 126.411 34.8318 126.33 34.9241 126.226C35.0184 126.122 35.0896 125.998 35.1377 125.854C35.1878 125.71 35.2128 125.551 35.2128 125.378V122.864H35.7699V125.378C35.7699 125.616 35.7314 125.838 35.6544 126.042C35.5794 126.246 35.4707 126.423 35.3282 126.573C35.1878 126.721 35.0155 126.837 34.8115 126.922C34.6076 127.007 34.3786 127.049 34.1245 127.049C33.8705 127.049 33.6415 127.007 33.4375 126.922C33.2335 126.837 33.0603 126.721 32.9179 126.573C32.7755 126.423 32.6658 126.246 32.5889 126.042C32.5138 125.838 32.4763 125.616 32.4763 125.378V122.864H33.0334V125.375C33.0334 125.548 33.0575 125.707 33.1056 125.851C33.1556 125.995 33.2268 126.12 33.3192 126.224C33.4135 126.327 33.528 126.409 33.6627 126.469C33.7993 126.527 33.9533 126.555 34.1245 126.555ZM37.0845 126.296C37.1788 126.423 37.2817 126.512 37.3933 126.564C37.505 126.616 37.63 126.642 37.7686 126.642C38.0419 126.642 38.2516 126.545 38.3979 126.351C38.5441 126.156 38.6173 125.879 38.6173 125.519C38.6173 125.329 38.5999 125.165 38.5653 125.028C38.5326 124.892 38.4845 124.78 38.421 124.694C38.3575 124.605 38.2795 124.541 38.1872 124.5C38.0948 124.46 37.9899 124.44 37.8725 124.44C37.7051 124.44 37.5579 124.478 37.4309 124.555C37.3058 124.632 37.1903 124.741 37.0845 124.881V126.296ZM37.0585 124.529C37.1817 124.377 37.3241 124.255 37.4857 124.162C37.6474 124.07 37.8321 124.024 38.0399 124.024C38.2093 124.024 38.3623 124.057 38.4989 124.122C38.6355 124.186 38.752 124.281 38.8482 124.408C38.9444 124.533 39.0185 124.689 39.0704 124.875C39.1224 125.062 39.1484 125.277 39.1484 125.519C39.1484 125.735 39.1195 125.936 39.0618 126.122C39.0041 126.307 38.9203 126.468 38.8107 126.605C38.7029 126.739 38.5701 126.846 38.4123 126.925C38.2564 127.002 38.0803 127.04 37.8841 127.04C37.7051 127.04 37.5511 127.011 37.4222 126.951C37.2952 126.889 37.1826 126.805 37.0845 126.697V127.99H36.5678V124.076H36.8766C36.9498 124.076 36.995 124.111 37.0123 124.183L37.0585 124.529ZM41.839 124.595C41.8236 124.617 41.8082 124.633 41.7928 124.645C41.7774 124.656 41.7562 124.662 41.7293 124.662C41.7004 124.662 41.6687 124.65 41.634 124.627C41.5994 124.602 41.5561 124.575 41.5041 124.546C41.4541 124.518 41.3915 124.492 41.3165 124.468C41.2434 124.443 41.1529 124.431 41.0452 124.431C40.9008 124.431 40.7738 124.457 40.6641 124.509C40.5544 124.559 40.4621 124.632 40.387 124.728C40.3139 124.824 40.2581 124.941 40.2196 125.078C40.183 125.214 40.1647 125.367 40.1647 125.536C40.1647 125.714 40.1849 125.871 40.2254 126.01C40.2658 126.147 40.3225 126.262 40.3957 126.356C40.4707 126.449 40.5602 126.52 40.6641 126.57C40.77 126.618 40.8883 126.642 41.0192 126.642C41.1443 126.642 41.2472 126.628 41.328 126.599C41.4089 126.568 41.4753 126.534 41.5272 126.498C41.5811 126.461 41.6254 126.428 41.66 126.4C41.6966 126.369 41.7322 126.353 41.7668 126.353C41.8091 126.353 41.8419 126.37 41.8649 126.402L42.0093 126.59C41.9458 126.669 41.8736 126.736 41.7928 126.792C41.712 126.848 41.6244 126.895 41.5301 126.934C41.4377 126.97 41.3405 126.997 41.2386 127.014C41.1366 127.032 41.0326 127.04 40.9268 127.04C40.744 127.04 40.5737 127.007 40.4159 126.939C40.26 126.872 40.1243 126.775 40.0089 126.648C39.8934 126.519 39.803 126.361 39.7375 126.174C39.6721 125.988 39.6394 125.775 39.6394 125.536C39.6394 125.319 39.6692 125.118 39.7289 124.933C39.7904 124.748 39.879 124.59 39.9944 124.457C40.1118 124.322 40.2552 124.217 40.4245 124.142C40.5958 124.067 40.7921 124.03 41.0134 124.03C41.2193 124.03 41.4002 124.063 41.5561 124.131C41.7139 124.196 41.8534 124.289 41.9746 124.411L41.839 124.595ZM43.7427 124.03C43.9563 124.03 44.1487 124.065 44.32 124.136C44.4913 124.208 44.6375 124.309 44.7588 124.44C44.88 124.57 44.9724 124.729 45.0359 124.916C45.1013 125.101 45.134 125.307 45.134 125.536C45.134 125.767 45.1013 125.975 45.0359 126.16C44.9724 126.345 44.88 126.503 44.7588 126.633C44.6375 126.764 44.4913 126.865 44.32 126.936C44.1487 127.006 43.9563 127.04 43.7427 127.04C43.5271 127.04 43.3328 127.006 43.1596 126.936C42.9883 126.865 42.8421 126.764 42.7208 126.633C42.5996 126.503 42.5063 126.345 42.4408 126.16C42.3773 125.975 42.3456 125.767 42.3456 125.536C42.3456 125.307 42.3773 125.101 42.4408 124.916C42.5063 124.729 42.5996 124.57 42.7208 124.44C42.8421 124.309 42.9883 124.208 43.1596 124.136C43.3328 124.065 43.5271 124.03 43.7427 124.03ZM43.7427 126.639C44.0313 126.639 44.2469 126.543 44.3893 126.351C44.5317 126.156 44.6029 125.886 44.6029 125.539C44.6029 125.191 44.5317 124.92 44.3893 124.725C44.2469 124.531 44.0313 124.434 43.7427 124.434C43.5964 124.434 43.4685 124.459 43.3588 124.509C43.251 124.559 43.1605 124.631 43.0874 124.725C43.0162 124.82 42.9623 124.936 42.9258 125.075C42.8911 125.211 42.8738 125.366 42.8738 125.539C42.8738 125.886 42.945 126.156 43.0874 126.351C43.2317 126.543 43.4502 126.639 43.7427 126.639ZM45.7857 127V124.076H46.0946C46.1677 124.076 46.2129 124.111 46.2302 124.183L46.2678 124.483C46.3755 124.35 46.4968 124.241 46.6315 124.157C46.7662 124.072 46.9221 124.03 47.0991 124.03C47.2954 124.03 47.4542 124.085 47.5754 124.194C47.6986 124.304 47.7871 124.452 47.841 124.639C47.8833 124.533 47.9372 124.442 48.0026 124.365C48.07 124.288 48.145 124.224 48.2278 124.174C48.3105 124.124 48.3981 124.087 48.4905 124.064C48.5847 124.041 48.68 124.03 48.7762 124.03C48.9302 124.03 49.0668 124.055 49.1861 124.105C49.3074 124.153 49.4094 124.224 49.4921 124.318C49.5768 124.413 49.6412 124.529 49.6855 124.668C49.7298 124.804 49.7519 124.961 49.7519 125.138V127H49.2352V125.138C49.2352 124.909 49.1852 124.736 49.0851 124.619C48.985 124.499 48.8407 124.44 48.6521 124.44C48.5674 124.44 48.4866 124.455 48.4096 124.486C48.3346 124.515 48.2682 124.558 48.2105 124.616C48.1527 124.673 48.1065 124.747 48.0719 124.835C48.0392 124.922 48.0228 125.023 48.0228 125.138V127H47.5061V125.138C47.5061 124.903 47.459 124.728 47.3647 124.613C47.2704 124.497 47.1328 124.44 46.9519 124.44C46.8249 124.44 46.7075 124.474 46.5997 124.544C46.492 124.611 46.3929 124.703 46.3024 124.821V127H45.7857ZM51.0755 124.076V127H50.5617V124.076H51.0755ZM51.1852 123.158C51.1852 123.208 51.1746 123.255 51.1534 123.299C51.1342 123.342 51.1072 123.38 51.0726 123.415C51.0399 123.448 51.0004 123.474 50.9543 123.493C50.91 123.512 50.8628 123.522 50.8128 123.522C50.7628 123.522 50.7156 123.512 50.6714 123.493C50.629 123.474 50.5915 123.448 50.5588 123.415C50.5261 123.38 50.5001 123.342 50.4809 123.299C50.4616 123.255 50.452 123.208 50.452 123.158C50.452 123.108 50.4616 123.061 50.4809 123.016C50.5001 122.97 50.5261 122.931 50.5588 122.898C50.5915 122.864 50.629 122.837 50.6714 122.817C50.7156 122.798 50.7628 122.788 50.8128 122.788C50.8628 122.788 50.91 122.798 50.9543 122.817C51.0004 122.837 51.0399 122.864 51.0726 122.898C51.1072 122.931 51.1342 122.97 51.1534 123.016C51.1746 123.061 51.1852 123.108 51.1852 123.158ZM52.4047 124.5C52.4682 124.429 52.5355 124.365 52.6067 124.307C52.6779 124.249 52.753 124.2 52.8319 124.16C52.9127 124.117 52.9974 124.085 53.0859 124.064C53.1764 124.041 53.2735 124.03 53.3775 124.03C53.5372 124.03 53.6777 124.057 53.7989 124.111C53.9221 124.162 54.0241 124.238 54.1049 124.336C54.1876 124.432 54.2502 124.548 54.2925 124.685C54.3349 124.822 54.356 124.973 54.356 125.138V127H53.8393V125.138C53.8393 124.917 53.7883 124.746 53.6863 124.624C53.5863 124.501 53.4333 124.44 53.2274 124.44C53.0753 124.44 52.9329 124.476 52.8001 124.549C52.6693 124.622 52.548 124.722 52.4364 124.847V127H51.9197V124.076H52.2286C52.3017 124.076 52.3469 124.111 52.3643 124.183L52.4047 124.5ZM56.1579 125.571C56.2618 125.571 56.3533 125.557 56.4322 125.528C56.5111 125.499 56.5775 125.459 56.6313 125.407C56.6852 125.355 56.7256 125.293 56.7526 125.222C56.7795 125.149 56.793 125.069 56.793 124.982C56.793 124.803 56.7381 124.661 56.6284 124.555C56.5207 124.449 56.3638 124.396 56.1579 124.396C55.9501 124.396 55.7913 124.449 55.6816 124.555C55.5739 124.661 55.52 124.803 55.52 124.982C55.52 125.069 55.5335 125.149 55.5604 125.222C55.5893 125.293 55.6306 125.355 55.6845 125.407C55.7384 125.459 55.8048 125.499 55.8837 125.528C55.9626 125.557 56.054 125.571 56.1579 125.571ZM57.0845 127.159C57.0845 127.088 57.0643 127.03 57.0239 126.986C56.9835 126.941 56.9287 126.907 56.8594 126.882C56.792 126.857 56.7131 126.839 56.6227 126.83C56.5322 126.818 56.436 126.809 56.334 126.804C56.2339 126.798 56.132 126.792 56.028 126.786C55.9241 126.781 55.824 126.771 55.7278 126.758C55.6201 126.808 55.5315 126.871 55.4623 126.948C55.3949 127.023 55.3612 127.112 55.3612 127.214C55.3612 127.279 55.3776 127.34 55.4103 127.395C55.4449 127.453 55.4969 127.502 55.5662 127.543C55.6355 127.585 55.7221 127.618 55.826 127.641C55.9318 127.666 56.0559 127.678 56.1983 127.678C56.3369 127.678 56.461 127.666 56.5707 127.641C56.6804 127.616 56.7728 127.58 56.8478 127.534C56.9248 127.488 56.9835 127.433 57.0239 127.369C57.0643 127.306 57.0845 127.236 57.0845 127.159ZM57.607 124.191V124.382C57.607 124.445 57.5666 124.486 57.4858 124.503L57.1538 124.546C57.2192 124.673 57.252 124.814 57.252 124.968C57.252 125.11 57.224 125.24 57.1682 125.358C57.1144 125.473 57.0393 125.572 56.9431 125.655C56.8469 125.738 56.7314 125.801 56.5967 125.845C56.462 125.89 56.3157 125.912 56.1579 125.912C56.0213 125.912 55.8924 125.895 55.7711 125.863C55.7095 125.901 55.6624 125.943 55.6297 125.987C55.597 126.029 55.5806 126.072 55.5806 126.117C55.5806 126.186 55.6085 126.239 55.6643 126.275C55.7221 126.31 55.7971 126.335 55.8895 126.351C55.9818 126.366 56.0867 126.376 56.2041 126.379C56.3234 126.383 56.4447 126.39 56.5678 126.4C56.6929 126.407 56.8142 126.422 56.9315 126.443C57.0509 126.464 57.1567 126.499 57.2491 126.547C57.3414 126.595 57.4155 126.661 57.4713 126.746C57.5291 126.831 57.5579 126.94 57.5579 127.075C57.5579 127.2 57.5262 127.321 57.4627 127.439C57.4011 127.556 57.3116 127.66 57.1942 127.751C57.0768 127.843 56.9325 127.916 56.7612 127.97C56.5919 128.026 56.4004 128.054 56.1868 128.054C55.9732 128.054 55.7865 128.032 55.6268 127.99C55.4671 127.948 55.3343 127.891 55.2284 127.82C55.1226 127.749 55.0427 127.666 54.9889 127.572C54.9369 127.479 54.9109 127.382 54.9109 127.28C54.9109 127.136 54.9561 127.013 55.0466 126.913C55.137 126.813 55.2612 126.733 55.419 126.674C55.3324 126.635 55.2631 126.584 55.2111 126.521C55.1611 126.455 55.1361 126.368 55.1361 126.258C55.1361 126.216 55.1438 126.173 55.1592 126.128C55.1746 126.082 55.1977 126.037 55.2284 125.993C55.2612 125.946 55.3006 125.903 55.3468 125.863C55.393 125.822 55.4469 125.787 55.5084 125.756C55.3641 125.675 55.2515 125.568 55.1707 125.435C55.0899 125.301 55.0495 125.145 55.0495 124.968C55.0495 124.825 55.0764 124.696 55.1303 124.581C55.1861 124.464 55.2631 124.365 55.3612 124.284C55.4594 124.201 55.5758 124.137 55.7105 124.093C55.8471 124.049 55.9963 124.027 56.1579 124.027C56.2849 124.027 56.4033 124.041 56.513 124.07C56.6227 124.097 56.7227 124.137 56.8132 124.191H57.607Z" fill="#22C55E"/>
<circle cx="21" cy="120" r="6" fill="#22C55E"/>
<path d="M137.996 116.878V114.452C137.996 114.381 137.999 114.303 138.005 114.218C138.01 114.133 138.018 114.047 138.029 113.959L135.887 116.878H137.996ZM139.528 116.878V117.297C139.528 117.34 139.514 117.377 139.486 117.407C139.462 117.437 139.422 117.453 139.367 117.453H138.637V119H137.996V117.453H135.386C135.331 117.453 135.283 117.437 135.242 117.407C135.204 117.375 135.179 117.335 135.168 117.288L135.094 116.915L137.955 113.118H138.637V116.878H139.528ZM141.248 115.339C141.555 115.273 141.836 115.24 142.094 115.24C142.4 115.24 142.671 115.285 142.906 115.376C143.142 115.466 143.337 115.59 143.493 115.749C143.652 115.908 143.771 116.095 143.85 116.311C143.933 116.528 143.974 116.763 143.974 117.017C143.974 117.329 143.919 117.611 143.809 117.863C143.703 118.115 143.554 118.331 143.362 118.512C143.173 118.689 142.95 118.826 142.693 118.922C142.436 119.018 142.158 119.066 141.86 119.066C141.687 119.066 141.522 119.048 141.363 119.012C141.204 118.979 141.055 118.934 140.916 118.877C140.779 118.819 140.652 118.754 140.534 118.68C140.416 118.606 140.312 118.528 140.222 118.446L140.448 118.134C140.497 118.063 140.561 118.027 140.641 118.027C140.695 118.027 140.757 118.049 140.825 118.093C140.894 118.134 140.977 118.18 141.076 118.232C141.174 118.284 141.289 118.332 141.42 118.376C141.555 118.417 141.713 118.438 141.897 118.438C142.102 118.438 142.287 118.405 142.451 118.339C142.615 118.273 142.756 118.18 142.874 118.06C142.991 117.937 143.082 117.79 143.144 117.621C143.207 117.451 143.239 117.261 143.239 117.05C143.239 116.867 143.211 116.701 143.157 116.554C143.105 116.406 143.024 116.28 142.915 116.176C142.808 116.072 142.674 115.991 142.512 115.934C142.351 115.876 142.162 115.848 141.946 115.848C141.798 115.848 141.643 115.86 141.482 115.885C141.323 115.909 141.16 115.949 140.994 116.004L140.534 115.868L141.006 113.118H143.793V113.438C143.793 113.542 143.76 113.628 143.694 113.697C143.632 113.762 143.522 113.795 143.366 113.795H141.519L141.248 115.339ZM147.488 114.538C147.488 114.768 147.452 114.975 147.381 115.158C147.31 115.339 147.214 115.492 147.094 115.618C146.976 115.741 146.838 115.835 146.679 115.901C146.523 115.967 146.358 115.999 146.183 115.999C145.999 115.999 145.828 115.967 145.67 115.901C145.511 115.835 145.373 115.741 145.255 115.618C145.14 115.492 145.05 115.339 144.984 115.158C144.918 114.975 144.885 114.768 144.885 114.538C144.885 114.303 144.918 114.093 144.984 113.91C145.05 113.727 145.14 113.572 145.255 113.446C145.373 113.32 145.511 113.225 145.67 113.159C145.828 113.093 145.999 113.06 146.183 113.06C146.369 113.06 146.541 113.093 146.7 113.159C146.859 113.225 146.997 113.32 147.114 113.446C147.232 113.572 147.324 113.727 147.389 113.91C147.455 114.093 147.488 114.303 147.488 114.538ZM146.921 114.538C146.921 114.358 146.902 114.204 146.864 114.078C146.826 113.953 146.772 113.85 146.704 113.771C146.638 113.688 146.56 113.63 146.47 113.594C146.38 113.558 146.284 113.541 146.183 113.541C146.081 113.541 145.987 113.558 145.899 113.594C145.812 113.63 145.735 113.688 145.67 113.771C145.604 113.85 145.552 113.953 145.514 114.078C145.475 114.204 145.456 114.358 145.456 114.538C145.456 114.716 145.475 114.868 145.514 114.994C145.552 115.117 145.604 115.218 145.67 115.298C145.735 115.374 145.812 115.43 145.899 115.466C145.987 115.499 146.081 115.515 146.183 115.515C146.284 115.515 146.38 115.499 146.47 115.466C146.56 115.43 146.638 115.374 146.704 115.298C146.772 115.218 146.826 115.117 146.864 114.994C146.902 114.868 146.921 114.716 146.921 114.538ZM149.569 113.241C149.596 113.208 149.628 113.179 149.663 113.155C149.702 113.13 149.752 113.118 149.815 113.118H150.345L146.043 118.881C146.018 118.917 145.987 118.945 145.949 118.967C145.91 118.989 145.864 119 145.809 119H145.271L149.569 113.241ZM150.743 117.613C150.743 117.842 150.707 118.048 150.636 118.228C150.565 118.409 150.469 118.562 150.349 118.688C150.231 118.811 150.093 118.906 149.934 118.971C149.778 119.037 149.613 119.07 149.438 119.07C149.252 119.07 149.079 119.037 148.92 118.971C148.764 118.906 148.628 118.811 148.51 118.688C148.395 118.562 148.305 118.409 148.239 118.228C148.173 118.048 148.141 117.842 148.141 117.613C148.141 117.377 148.173 117.168 148.239 116.985C148.305 116.798 148.395 116.643 148.51 116.517C148.628 116.391 148.764 116.295 148.92 116.229C149.079 116.164 149.252 116.131 149.438 116.131C149.621 116.131 149.792 116.164 149.951 116.229C150.112 116.295 150.25 116.391 150.365 116.517C150.483 116.643 150.575 116.798 150.64 116.985C150.709 117.168 150.743 117.377 150.743 117.613ZM150.177 117.613C150.177 117.432 150.157 117.279 150.119 117.153C150.081 117.024 150.027 116.92 149.959 116.841C149.893 116.762 149.815 116.704 149.725 116.669C149.635 116.633 149.539 116.615 149.438 116.615C149.336 116.615 149.241 116.633 149.15 116.669C149.063 116.704 148.986 116.762 148.92 116.841C148.855 116.92 148.803 117.024 148.764 117.153C148.729 117.279 148.711 117.432 148.711 117.613C148.711 117.79 148.729 117.941 148.764 118.064C148.803 118.187 148.855 118.289 148.92 118.368C148.986 118.444 149.063 118.501 149.15 118.536C149.241 118.569 149.336 118.585 149.438 118.585C149.539 118.585 149.635 118.569 149.725 118.536C149.815 118.501 149.893 118.444 149.959 118.368C150.027 118.289 150.081 118.187 150.119 118.064C150.157 117.941 150.177 117.79 150.177 117.613Z" fill="black"/>
<path d="M138.432 126.146C138.463 126.146 138.49 126.158 138.513 126.183L138.735 126.423C138.566 126.619 138.36 126.772 138.118 126.882C137.877 126.991 137.585 127.046 137.243 127.046C136.947 127.046 136.677 126.995 136.435 126.893C136.192 126.789 135.985 126.645 135.814 126.46C135.643 126.274 135.51 126.05 135.416 125.791C135.321 125.531 135.274 125.245 135.274 124.933C135.274 124.621 135.323 124.336 135.421 124.076C135.52 123.816 135.657 123.593 135.834 123.406C136.013 123.22 136.227 123.075 136.475 122.973C136.723 122.869 136.998 122.817 137.298 122.817C137.592 122.817 137.852 122.864 138.077 122.959C138.302 123.053 138.5 123.181 138.672 123.343L138.487 123.6C138.475 123.619 138.46 123.635 138.441 123.649C138.424 123.66 138.399 123.666 138.369 123.666C138.334 123.666 138.292 123.648 138.242 123.611C138.192 123.573 138.126 123.53 138.045 123.484C137.965 123.438 137.864 123.397 137.742 123.36C137.621 123.322 137.472 123.302 137.295 123.302C137.081 123.302 136.886 123.34 136.709 123.415C136.532 123.488 136.379 123.595 136.25 123.735C136.123 123.876 136.024 124.047 135.953 124.249C135.881 124.451 135.846 124.679 135.846 124.933C135.846 125.191 135.882 125.421 135.955 125.623C136.031 125.825 136.132 125.996 136.259 126.137C136.387 126.275 136.539 126.381 136.712 126.454C136.887 126.528 137.075 126.564 137.278 126.564C137.401 126.564 137.511 126.557 137.609 126.544C137.71 126.529 137.801 126.505 137.884 126.475C137.968 126.444 138.046 126.405 138.118 126.359C138.191 126.311 138.263 126.254 138.334 126.189C138.367 126.16 138.399 126.146 138.432 126.146ZM140.848 125.684C140.611 125.691 140.409 125.711 140.242 125.741C140.076 125.77 139.941 125.809 139.835 125.857C139.731 125.905 139.655 125.962 139.607 126.027C139.561 126.093 139.538 126.166 139.538 126.247C139.538 126.324 139.55 126.39 139.575 126.446C139.6 126.502 139.634 126.548 139.676 126.584C139.72 126.619 139.771 126.645 139.829 126.662C139.889 126.678 139.952 126.685 140.02 126.685C140.11 126.685 140.193 126.677 140.268 126.659C140.343 126.64 140.413 126.613 140.479 126.579C140.546 126.544 140.609 126.503 140.669 126.454C140.731 126.406 140.79 126.351 140.848 126.29V125.684ZM139.188 124.489C139.35 124.333 139.524 124.216 139.711 124.139C139.897 124.062 140.104 124.024 140.331 124.024C140.495 124.024 140.64 124.051 140.767 124.105C140.894 124.159 141.001 124.234 141.088 124.33C141.174 124.426 141.24 124.543 141.284 124.679C141.328 124.816 141.35 124.966 141.35 125.129V127H141.122C141.072 127 141.034 126.992 141.007 126.977C140.98 126.96 140.959 126.927 140.943 126.879L140.886 126.602C140.809 126.673 140.734 126.736 140.66 126.792C140.587 126.846 140.51 126.892 140.43 126.931C140.349 126.967 140.262 126.995 140.17 127.014C140.079 127.036 139.978 127.046 139.867 127.046C139.753 127.046 139.646 127.031 139.546 127C139.446 126.967 139.359 126.919 139.284 126.856C139.21 126.792 139.152 126.712 139.107 126.616C139.065 126.518 139.044 126.402 139.044 126.27C139.044 126.154 139.076 126.044 139.139 125.938C139.203 125.83 139.306 125.735 139.448 125.652C139.59 125.569 139.776 125.502 140.005 125.45C140.234 125.396 140.515 125.365 140.848 125.358V125.129C140.848 124.902 140.799 124.731 140.701 124.616C140.603 124.498 140.459 124.44 140.271 124.44C140.144 124.44 140.037 124.456 139.95 124.489C139.866 124.519 139.792 124.555 139.728 124.595C139.666 124.634 139.613 124.67 139.566 124.702C139.522 124.733 139.478 124.748 139.434 124.748C139.399 124.748 139.369 124.74 139.344 124.722C139.319 124.703 139.298 124.68 139.281 124.653L139.188 124.489ZM142.618 124.5C142.681 124.429 142.749 124.365 142.82 124.307C142.891 124.249 142.966 124.2 143.045 124.16C143.126 124.117 143.211 124.085 143.299 124.064C143.39 124.041 143.487 124.03 143.591 124.03C143.75 124.03 143.891 124.057 144.012 124.111C144.135 124.162 144.237 124.238 144.318 124.336C144.401 124.432 144.463 124.548 144.506 124.685C144.548 124.822 144.569 124.973 144.569 125.138V127H144.053V125.138C144.053 124.917 144.002 124.746 143.9 124.624C143.8 124.501 143.647 124.44 143.441 124.44C143.289 124.44 143.146 124.476 143.013 124.549C142.883 124.622 142.761 124.722 142.65 124.847V127H142.133V124.076H142.442C142.515 124.076 142.56 124.111 142.578 124.183L142.618 124.5ZM147.387 124.595C147.372 124.617 147.357 124.633 147.341 124.645C147.326 124.656 147.305 124.662 147.278 124.662C147.249 124.662 147.217 124.65 147.182 124.627C147.148 124.602 147.104 124.575 147.052 124.546C147.002 124.518 146.94 124.492 146.865 124.468C146.792 124.443 146.701 124.431 146.593 124.431C146.449 124.431 146.322 124.457 146.212 124.509C146.103 124.559 146.01 124.632 145.935 124.728C145.862 124.824 145.806 124.941 145.768 125.078C145.731 125.214 145.713 125.367 145.713 125.536C145.713 125.714 145.733 125.871 145.774 126.01C145.814 126.147 145.871 126.262 145.944 126.356C146.019 126.449 146.109 126.52 146.212 126.57C146.318 126.618 146.437 126.642 146.567 126.642C146.693 126.642 146.796 126.628 146.876 126.599C146.957 126.568 147.024 126.534 147.076 126.498C147.129 126.461 147.174 126.428 147.208 126.4C147.245 126.369 147.28 126.353 147.315 126.353C147.357 126.353 147.39 126.37 147.413 126.402L147.558 126.59C147.494 126.669 147.422 126.736 147.341 126.792C147.26 126.848 147.173 126.895 147.078 126.934C146.986 126.97 146.889 126.997 146.787 127.014C146.685 127.032 146.581 127.04 146.475 127.04C146.292 127.04 146.122 127.007 145.964 126.939C145.808 126.872 145.673 126.775 145.557 126.648C145.442 126.519 145.351 126.361 145.286 126.174C145.22 125.988 145.188 125.775 145.188 125.536C145.188 125.319 145.218 125.118 145.277 124.933C145.339 124.748 145.427 124.59 145.543 124.457C145.66 124.322 145.804 124.217 145.973 124.142C146.144 124.067 146.34 124.03 146.562 124.03C146.768 124.03 146.949 124.063 147.104 124.131C147.262 124.196 147.402 124.289 147.523 124.411L147.387 124.595ZM150.016 125.219C150.016 125.1 149.998 124.991 149.964 124.893C149.931 124.793 149.882 124.707 149.816 124.636C149.753 124.563 149.675 124.507 149.583 124.468C149.49 124.428 149.385 124.408 149.268 124.408C149.022 124.408 148.826 124.48 148.682 124.624C148.54 124.767 148.451 124.965 148.416 125.219H150.016ZM150.431 126.59C150.368 126.667 150.292 126.734 150.203 126.792C150.115 126.848 150.019 126.894 149.917 126.931C149.817 126.967 149.713 126.994 149.606 127.012C149.498 127.031 149.391 127.04 149.285 127.04C149.083 127.04 148.896 127.007 148.725 126.939C148.556 126.87 148.409 126.77 148.284 126.639C148.16 126.506 148.064 126.343 147.995 126.148C147.926 125.954 147.891 125.731 147.891 125.479C147.891 125.275 147.922 125.084 147.983 124.907C148.047 124.73 148.137 124.577 148.255 124.448C148.372 124.317 148.515 124.215 148.685 124.142C148.854 124.067 149.045 124.03 149.256 124.03C149.431 124.03 149.593 124.06 149.741 124.119C149.891 124.177 150.02 124.262 150.128 124.373C150.238 124.483 150.323 124.62 150.385 124.783C150.447 124.945 150.477 125.129 150.477 125.337C150.477 125.418 150.469 125.472 150.451 125.499C150.434 125.526 150.401 125.539 150.353 125.539H148.399C148.405 125.724 148.43 125.885 148.474 126.021C148.52 126.158 148.584 126.273 148.665 126.365C148.745 126.455 148.842 126.524 148.953 126.57C149.065 126.614 149.19 126.636 149.329 126.636C149.457 126.636 149.568 126.622 149.66 126.593C149.755 126.562 149.836 126.529 149.903 126.495C149.97 126.46 150.026 126.428 150.07 126.4C150.117 126.369 150.156 126.353 150.189 126.353C150.231 126.353 150.264 126.37 150.287 126.402L150.431 126.59ZM151.64 122.748V127H151.126V122.748H151.64ZM153.004 122.748V127H152.49V122.748H153.004ZM155.794 125.219C155.794 125.1 155.777 124.991 155.742 124.893C155.71 124.793 155.661 124.707 155.595 124.636C155.532 124.563 155.454 124.507 155.361 124.468C155.269 124.428 155.164 124.408 155.047 124.408C154.8 124.408 154.605 124.48 154.461 124.624C154.318 124.767 154.23 124.965 154.195 125.219H155.794ZM156.21 126.59C156.147 126.667 156.071 126.734 155.982 126.792C155.893 126.848 155.798 126.894 155.696 126.931C155.596 126.967 155.492 126.994 155.384 127.012C155.277 127.031 155.17 127.04 155.064 127.04C154.862 127.04 154.675 127.007 154.504 126.939C154.335 126.87 154.187 126.77 154.062 126.639C153.939 126.506 153.843 126.343 153.774 126.148C153.704 125.954 153.67 125.731 153.67 125.479C153.67 125.275 153.701 125.084 153.762 124.907C153.826 124.73 153.916 124.577 154.034 124.448C154.151 124.317 154.294 124.215 154.464 124.142C154.633 124.067 154.824 124.03 155.035 124.03C155.21 124.03 155.372 124.06 155.52 124.119C155.67 124.177 155.799 124.262 155.907 124.373C156.017 124.483 156.102 124.62 156.164 124.783C156.225 124.945 156.256 125.129 156.256 125.337C156.256 125.418 156.248 125.472 156.23 125.499C156.213 125.526 156.18 125.539 156.132 125.539H154.178C154.184 125.724 154.209 125.885 154.253 126.021C154.299 126.158 154.363 126.273 154.443 126.365C154.524 126.455 154.62 126.524 154.732 126.57C154.844 126.614 154.969 126.636 155.107 126.636C155.236 126.636 155.347 126.622 155.439 126.593C155.534 126.562 155.614 126.529 155.682 126.495C155.749 126.46 155.805 126.428 155.849 126.4C155.895 126.369 155.935 126.353 155.968 126.353C156.01 126.353 156.043 126.37 156.066 126.402L156.21 126.59ZM158.793 124.772C158.696 124.643 158.592 124.553 158.481 124.503C158.369 124.451 158.244 124.425 158.105 124.425C157.834 124.425 157.625 124.522 157.479 124.717C157.333 124.911 157.26 125.188 157.26 125.548C157.26 125.739 157.276 125.902 157.309 126.039C157.342 126.173 157.39 126.285 157.453 126.374C157.517 126.46 157.595 126.524 157.687 126.564C157.779 126.605 157.884 126.625 158.002 126.625C158.171 126.625 158.318 126.586 158.443 126.509C158.57 126.432 158.687 126.324 158.793 126.183V124.772ZM159.306 122.748V127H159C158.927 127 158.881 126.964 158.862 126.893L158.816 126.538C158.691 126.688 158.548 126.809 158.388 126.902C158.229 126.994 158.044 127.04 157.834 127.04C157.667 127.04 157.515 127.009 157.378 126.945C157.241 126.88 157.125 126.784 157.029 126.659C156.933 126.534 156.858 126.378 156.807 126.192C156.755 126.005 156.729 125.791 156.729 125.548C156.729 125.333 156.757 125.132 156.815 124.948C156.873 124.761 156.956 124.599 157.063 124.463C157.171 124.326 157.303 124.219 157.459 124.142C157.617 124.063 157.794 124.024 157.99 124.024C158.169 124.024 158.322 124.055 158.449 124.116C158.578 124.176 158.692 124.26 158.793 124.367V122.748H159.306Z" fill="black"/>
<circle cx="124" cy="120" r="6" fill="#E5E7EB"/>
<g clip-path="url(#clip0_2859_549)">
<rect x="131" width="24" height="24" rx="5.64248" fill="#F4F7FE"/>
<path d="M143 16C143.53 16 144.039 16.2107 144.414 16.5858C144.789 16.9609 145 17.4696 145 18C145 18.5304 144.789 19.0391 144.414 19.4142C144.039 19.7893 143.53 20 143 20C142.47 20 141.961 19.7893 141.586 19.4142C141.211 19.0391 141 18.5304 141 18C141 17.4696 141.211 16.9609 141.586 16.5858C141.961 16.2107 142.47 16 143 16ZM143 10C143.53 10 144.039 10.2107 144.414 10.5858C144.789 10.9609 145 11.4696 145 12C145 12.5304 144.789 13.0391 144.414 13.4142C144.039 13.7893 143.53 14 143 14C142.47 14 141.961 13.7893 141.586 13.4142C141.211 13.0391 141 12.5304 141 12C141 11.4696 141.211 10.9609 141.586 10.5858C141.961 10.2107 142.47 10 143 10ZM143 4C143.53 4 144.039 4.21071 144.414 4.58579C144.789 4.96086 145 5.46957 145 6C145 6.53043 144.789 7.03914 144.414 7.41421C144.039 7.78929 143.53 8 143 8C142.47 8 141.961 7.78929 141.586 7.41421C141.211 7.03914 141 6.53043 141 6C141 5.46957 141.211 4.96086 141.586 4.58579C141.961 4.21071 142.47 4 143 4Z" fill="#9CA3AF"/>
</g>
<defs>
<filter id="filter0_d_2859_549" x="91.2845" y="25" width="23.4309" height="23.4309" filterUnits="userSpaceOnUse" color-interpolation-filters="sRGB">
<feFlood flood-opacity="0" result="BackgroundImageFix"/>
<feColorMatrix in="SourceAlpha" type="matrix" values="0 0 0 0 0 0 0 0 0 0 0 0 0 0 0 0 0 0 127 0" result="hardAlpha"/>
<feOffset dy="2.71547"/>
<feGaussianBlur stdDeviation="1.35773"/>
<feComposite in2="hardAlpha" operator="out"/>
<feColorMatrix type="matrix" values="0 0 0 0 0.0509804 0 0 0 0 0.0392157 0 0 0 0 0.172549 0 0 0 0.08 0"/>
<feBlend mode="normal" in2="BackgroundImageFix" result="effect1_dropShadow_2859_549"/>
<feBlend mode="normal" in="SourceGraphic" in2="effect1_dropShadow_2859_549" result="shape"/>
</filter>
<clipPath id="clip0_2859_549">
<rect x="131" width="24" height="24" rx="5.64248" fill="white"/>
</clipPath>
</defs>
</svg>
