<svg width="45" height="45" viewBox="0 0 45 45" fill="none" preserveAspectRatio="xMidYMid meet"
  xmlns="http://www.w3.org/2000/svg">
  <g>
    <g class="background">
      <rect width="45" height="45" rx="10" fill="currentColor" />
    </g>

    <g class="paths" transform="scale(1.3) translate(-5 -5)" stroke-width="1.5">

      <path fill-rule="evenodd" clip-rule="evenodd"
        d="M14.625 17.7041V27.2959C14.6268 27.8161 14.8352 28.3144 15.2045 28.6809C15.5737 29.0474 16.0735 29.2521 16.5938 29.25H28.4062C28.9265 29.2521 29.4263 29.0474 29.7955 28.6809C30.1648 28.3144 30.3732 27.8161 30.375 27.2959V17.7041C30.3732 17.1839 30.1648 16.6857 29.7955 16.3192C29.4263 15.9527 28.9265 15.7479 28.4062 15.75H16.5938C16.0735 15.7479 15.5737 15.9527 15.2045 16.3192C14.8352 16.6857 14.6268 17.1839 14.625 17.7041Z"
        stroke="white" stroke-linecap="round" stroke-linejoin="round" />
      <path
        d="M30.375 21.1181C30.7892 21.1181 31.125 20.7823 31.125 20.3681C31.125 19.9539 30.7892 19.6181 30.375 19.6181V21.1181ZM14.625 19.6181C14.2108 19.6181 13.875 19.9539 13.875 20.3681C13.875 20.7823 14.2108 21.1181 14.625 21.1181V19.6181ZM23.4844 24.582C23.8986 24.582 24.2344 24.2462 24.2344 23.832C24.2344 23.4178 23.8986 23.082 23.4844 23.082V24.582ZM14.625 23.082C14.2108 23.082 13.875 23.4178 13.875 23.832C13.875 24.2462 14.2108 24.582 14.625 24.582V23.082ZM27.4219 24.582C27.8361 24.582 28.1719 24.2462 28.1719 23.832C28.1719 23.4178 27.8361 23.082 27.4219 23.082V24.582ZM26.4375 23.082C26.0233 23.082 25.6875 23.4178 25.6875 23.832C25.6875 24.2462 26.0233 24.582 26.4375 24.582V23.082ZM30.375 19.6181H14.625V21.1181H30.375V19.6181ZM23.4844 23.082H14.625V24.582H23.4844V23.082ZM27.4219 23.082H26.4375V24.582H27.4219V23.082Z"
        fill="white" />





    </g>
  </g>



</svg>