<svg width="45" height="45" viewBox="0 0 45 45" fill="none" xmlns="http://www.w3.org/2000/svg">
  <rect width="45" height="45" rx="10" fill="currentColor" />

  <g stroke-width="1.5" transform="scale(1.2) translate(-4 -3)" cursor="default">
    <path fill-rule="evenodd" clip-rule="evenodd"
      d="M19.1543 12H27.0414C27.1233 12 27.2048 12.0049 27.2857 12.0147C30.4962 12.2242 32.9891 14.7109 33 17.7147V26.2867C32.9882 29.4494 30.2344 32.0059 26.8457 32H19.1543C15.765 32.0059 13.011 29.4486 13 26.2853V17.7147C13.011 14.5514 15.765 11.9941 19.1543 12Z"
      stroke="white" stroke-linecap="round" stroke-linejoin="round" />
    <path fill-rule="evenodd" clip-rule="evenodd"
      d="M19.734 16.172L17.604 17.772C17.3983 17.955 17.2826 18.2091 17.2842 18.4744C17.2858 18.7396 17.4046 18.9925 17.6126 19.1733L18.9883 20.7186L24.7398 27.1733C24.8356 27.2773 24.9641 27.3505 25.1069 27.3826L27.964 27.992C28.3418 28.012 28.6708 27.7535 28.714 27.4026L28.5812 24.808C28.5714 24.6748 28.514 24.5485 28.4183 24.4493L22.7998 18.1427L21.2855 16.4453C20.9209 15.9949 20.2494 15.8766 19.734 16.172Z"
      stroke="white" stroke-linecap="round" stroke-linejoin="round" />
    <path
      d="M32.9999 18.5179C33.4142 18.5179 33.7499 18.1821 33.7499 17.7679C33.7499 17.3537 33.4142 17.0179 32.9999 17.0179V18.5179ZM27.2857 17.7679H26.5357C26.5357 18.1821 26.8714 18.5179 27.2857 18.5179V17.7679ZM28.0357 12.0146C28.0357 11.6004 27.6999 11.2646 27.2857 11.2646C26.8714 11.2646 26.5357 11.6004 26.5357 12.0146H28.0357ZM23.537 18.2855C23.613 17.8783 23.3445 17.4866 22.9373 17.4106C22.5301 17.3346 22.1384 17.6031 22.0624 18.0103L23.537 18.2855ZM19.0918 19.9718C18.6816 19.9146 18.3027 20.2008 18.2455 20.611C18.1883 21.0213 18.4745 21.4002 18.8847 21.4574L19.0918 19.9718ZM32.9999 17.0179H27.2857V18.5179H32.9999V17.0179ZM28.0357 17.7679V12.0146H26.5357V17.7679H28.0357ZM22.0624 18.0103C21.8303 19.2539 20.5446 20.1743 19.0918 19.9718L18.8847 21.4574C21.0445 21.7585 23.1422 20.4006 23.537 18.2855L22.0624 18.0103Z"
      fill="white" />



  </g>
</svg>