<svg width="1001" height="1000" viewBox="0 0 1001 1000" fill="none" xmlns="http://www.w3.org/2000/svg">
<path d="M124.888 938H876.808" stroke="black" stroke-width="4.86" stroke-miterlimit="10"/>
<path d="M652.188 276.469C657.849 276.469 662.438 271.88 662.438 266.219C662.438 260.558 657.849 255.969 652.188 255.969C646.527 255.969 641.938 260.558 641.938 266.219C641.938 271.88 646.527 276.469 652.188 276.469Z" fill="#CCDDE2"/>
<path d="M684.328 258.71C691.342 258.71 697.028 253.024 697.028 246.01C697.028 238.996 691.342 233.31 684.328 233.31C677.314 233.31 671.628 238.996 671.628 246.01C671.628 253.024 677.314 258.71 684.328 258.71Z" fill="#CCDDE2"/>
<path d="M686.848 238.709C720.908 231.879 760.848 235.609 808.208 260.849C909.978 315.109 942.448 410.919 949.698 492.139C953.098 530.139 949.208 568.469 936.488 604.399C931.118 619.619 923.958 635.249 914.548 648.399" stroke="#CCDDE2" stroke-width="4.86" stroke-miterlimit="10"/>
<path d="M622.608 265.32C611.278 272.32 600.888 279.79 591.268 286.88C544.428 321.52 516.528 347.15 494.268 262.67C449.268 91.7803 179.918 165.82 163.828 257.84C147.738 349.86 273.438 327.05 117.668 469.9C-38.1024 612.75 127.258 717.08 127.258 717.08" stroke="#CCDDE2" stroke-width="4.86" stroke-miterlimit="10"/>
<path d="M839.978 910.348L743.748 909.928L725.138 937.998H866.068L870.318 923.998C870.318 908.228 855.678 910.438 839.978 910.348ZM592.058 912.098L500.148 911.828L485.598 937.998H638.598L641.668 921.268C641.668 907.928 605.368 912.198 592.058 912.098ZM830.208 371.328C826.538 345.098 821.898 344.158 808.208 318.558C799.258 301.998 778.608 293.998 760.028 290.878C758.028 290.548 756.118 290.328 754.168 290.128C749.839 289.783 745.489 289.827 741.168 290.258C730.509 291.376 720.078 294.093 710.228 298.318C711.618 316.128 709.708 334.548 698.478 347.318C682.558 365.538 645.978 369.698 633.948 344.968C630.835 347.328 627.695 349.821 624.528 352.448C623.848 352.998 623.198 353.518 622.528 354.098C585.468 384.918 563.148 427.208 533.128 480.098C506.748 521.928 505.938 541.638 493.208 589.288C515.318 578.118 539.208 578.538 561.058 587.218C592.058 523.218 617.838 494.368 635.998 470.068C640.728 476.708 645.678 485.898 655.518 507.128L606.678 549.328C619.168 560.468 636.068 577.088 646.588 601.618L698.088 570.618L697.988 570.788L696.728 573.048L738.508 546.648L761.658 528.698C769.898 522.318 781.428 513.378 788.048 505.328L814.048 470.408C814.048 470.408 826.368 442.728 826.398 442.728C833.168 424.888 831.128 430.438 833.168 417.198C836.218 397.748 833.238 392.928 830.208 371.328Z" fill="white" fill-opacity="0.68"/>
<path d="M511.548 709.001L401.898 837.212C359.458 902.212 300.898 936.212 228.398 936.212L166.588 936.751C153.285 936.75 140.113 934.129 127.823 929.037C115.533 923.945 104.367 916.482 94.9607 907.074C85.5551 897.667 78.0945 886.499 73.0049 874.208C67.9153 861.917 65.2964 848.744 65.2977 835.441C65.2841 819.713 68.3749 804.137 74.393 789.606C80.411 775.075 89.2379 761.875 100.368 750.761C122.368 728.691 156.078 712.252 187.888 715.962C216.348 719.282 249.798 740.031 270.888 758.851C297.688 782.761 400.938 722.171 439.668 703.071C455.048 695.491 468.668 690.851 480.438 678.361C484.168 674.361 480.438 681.361 484.138 677.361C483.138 680.471 483.198 681.152 483.798 682.952C487.928 694.922 499.618 705.151 511.548 709.001Z" fill="#F26522"/>
<path d="M538.748 675.188C538.748 675.188 513.408 674.188 519.748 653.858C519.748 653.858 529.538 643.168 533.578 645.218C537.618 647.268 540.648 656.168 539.038 664.868C537.428 673.568 538.748 675.188 538.748 675.188Z" fill="#F26522"/>
<path d="M554.848 684.34C550.158 685.44 545.238 685.7 541.708 682.72C533.708 675.99 541.998 662.46 538.538 652.55C535.538 644.07 529.768 643.46 523.708 637.76C516.618 631.09 521.968 623.39 527.568 617.85C535.872 609.688 544.636 602.009 553.818 594.85L655.818 507.09" stroke="black" stroke-width="4.86" stroke-miterlimit="10"/>
<path d="M559.848 590.05C599.688 493.16 664.848 442.73 664.848 442.73" stroke="black" stroke-width="4.86" stroke-miterlimit="10"/>
<path d="M602.848 713.619L485.788 937.999H629.288C632.727 937.986 636.021 936.61 638.448 934.174C640.875 931.737 642.238 928.438 642.238 924.999C642.225 921.568 640.856 918.282 638.43 915.856C636.005 913.431 632.719 912.062 629.288 912.049H583.968L774.078 610.629" fill="white"/>
<path d="M602.848 713.619L485.788 937.999H629.288C632.727 937.986 636.021 936.61 638.448 934.174C640.875 931.737 642.238 928.438 642.238 924.999C642.225 921.568 640.856 918.282 638.43 915.856C636.005 913.431 632.719 912.062 629.288 912.049H583.968L774.078 610.629" stroke="black" stroke-width="4.86" stroke-miterlimit="10"/>
<path d="M594.298 641.81C594.488 640.22 602.968 643.31 603.498 643.62C611.998 648.62 614.388 660.24 615.348 669.22C616.121 675.916 616.225 682.673 615.658 689.39C615.288 693.45 614.068 697.39 613.808 701.39C613.278 709.59 617.898 712.56 625.438 708.99C643.048 700.66 653.358 687.31 667.928 718.06C667.928 718.06 682.238 729 681.758 702.89C681.278 676.78 671.168 623.33 604.608 628.31C604.608 628.33 595.308 633.41 594.298 641.81Z" fill="#F26522"/>
<path d="M656.218 596.521L615.818 669.19" stroke="black" stroke-width="4.86" stroke-miterlimit="10"/>
<path d="M671.978 208.92C671.232 211.268 669.775 213.326 667.808 214.81C660.228 220.31 657.158 202.38 656.478 212.25C655.798 222.12 645.928 222.93 623.908 233.06C618.218 235.69 616.208 240.38 616.398 245.95C613.168 252.49 618.908 261.71 623.218 270.36C620.558 269.71 615.598 271.55 614.068 276.12C612.838 277.02 614.168 276.12 613.358 278.91C608.148 296.55 639.488 301.83 639.488 301.83L643.488 316.45L638.018 317.84L641.118 318.06C640.118 323.14 618.538 310.64 616.568 309.47C598.088 298.47 580.038 281.07 579.198 259.87C579.152 257.406 579.349 254.944 579.788 252.52C579.781 252.504 579.778 252.487 579.778 252.47C579.778 252.453 579.781 252.436 579.788 252.42C580.468 248.28 581.408 244.17 580.988 239.9C580.988 239.8 580.988 239.6 580.918 239.34V239.22C580.528 236.04 578.918 224.22 577.518 223.84C577.961 223.974 578.417 224.061 578.878 224.1C583.408 224.71 588.428 221.86 591.378 219.79C592.942 218.668 594.245 217.222 595.198 215.55C613.678 183.83 626.338 199.37 637.018 196.94C647.958 194.48 662.108 187.84 662.108 187.84C667.318 191.7 671.238 200.56 671.978 208.92Z" fill="#F26522"/>
<path d="M511.548 708.999L406.938 829.749C361.768 898.939 293.108 937.999 215.968 937.999H166.298C137.705 937.999 110.283 926.641 90.0645 906.422C69.8462 886.204 58.4877 858.782 58.4877 830.189C58.4877 813.456 61.7835 796.887 68.187 781.428C74.5904 765.968 83.9761 751.922 95.8082 740.09C107.641 728.258 121.687 718.872 137.146 712.469C152.606 706.065 169.175 702.769 185.908 702.769C208.238 702.764 230.177 708.627 249.528 719.769C259.511 725.603 270.593 729.308 282.076 730.652C293.56 731.996 305.198 730.95 316.258 727.579L481.848 676.199" stroke="black" stroke-width="4.86" stroke-miterlimit="10"/>
<path d="M710.468 298.318C720.262 294.123 730.625 291.407 741.218 290.258C745.539 289.827 749.889 289.783 754.218 290.128C756.218 290.298 758.218 290.548 760.278 290.878C768.183 292.264 775.807 294.936 782.848 298.788C799.638 307.788 812.448 322.658 820.148 340.078C839.268 383.378 860.398 484.078 702.028 568.358L698.028 570.788C668.121 588.788 638.201 606.788 608.268 624.788C603.178 627.868 597.778 631.228 595.378 636.668C592.828 642.468 594.248 649.198 593.088 655.408C590.198 670.728 573.398 678.558 558.548 683.248C557.348 683.638 556.088 683.998 554.818 684.318C555.333 688.336 554.563 692.414 552.618 695.968C548.898 702.608 541.808 706.818 534.428 708.728C513.808 714.098 490.108 701.378 483.188 681.208C479.188 669.628 480.338 656.968 482.018 644.828C493.218 563.618 522.398 486.428 568.628 418.648C584.508 395.368 600.398 371.978 622.568 354.108C623.248 353.528 623.898 353.008 624.568 352.458C627.708 349.965 630.871 347.505 634.058 345.078L634.188 344.978C637.488 342.458 645.548 335.688 648.908 333.258C649.263 332.994 649.598 332.704 649.908 332.388C654.598 327.988 652.728 320.058 646.838 317.388L642.368 315.388" stroke="black" stroke-width="4.86" stroke-miterlimit="10"/>
<path d="M539.048 676.2C510.388 671.52 520.368 652.41 520.368 652.41L533.778 643.41" stroke="black" stroke-width="4.86" stroke-miterlimit="10"/>
<path d="M692.578 301.289L710.468 298.289C711.858 316.099 709.948 334.519 698.718 347.289C682.798 365.519 646.218 369.659 634.178 344.929" stroke="black" stroke-width="4.86" stroke-miterlimit="10"/>
<path d="M671.978 208.921C671.232 211.269 669.775 213.327 667.808 214.811C660.228 220.311 657.158 202.381 656.478 212.251C655.798 222.121 645.928 222.931 623.908 233.061C618.218 235.691 616.208 240.381 616.398 245.951C616.728 257.541 626.568 272.781 631.808 280.131C628.928 276.571 624.558 271.941 620.678 271.041C618.018 270.391 615.598 271.551 614.068 276.121C613.878 276.701 613.718 277.281 613.558 277.961C609.058 297.131 639.258 300.961 639.258 300.961L642.788 313.741L643.528 316.431C643.268 318.051 641.098 318.311 638.058 317.821C630.838 316.721 618.828 311.381 617.338 310.571C606.146 304.373 596.693 295.459 589.848 284.651C586.373 279.232 583.702 273.337 581.918 267.151C579.918 259.931 580.058 253.351 580.418 245.911C580.688 240.331 581.078 234.721 580.888 229.131C580.847 226.428 580.054 223.789 578.598 221.511C585.358 221.271 589.668 215.911 593.018 210.511C611.018 172.241 625.228 189.111 636.358 185.871C647.488 182.631 661.708 174.871 661.708 174.871C669.848 180.591 675.668 198.401 671.978 208.921Z" stroke="black" stroke-width="4.86" stroke-miterlimit="10"/>
<path d="M667.848 214.68C667.848 214.68 712.678 256.6 694.678 296.85C690.258 306.73 681.608 314.24 670.798 314.75H670.398" stroke="black" stroke-width="4.86" stroke-miterlimit="10"/>
<path d="M668.258 256.609C668.258 256.609 678.358 267.449 679.418 268.519C682.868 271.969 674.018 275.409 674.018 275.409" stroke="black" stroke-width="4.86" stroke-miterlimit="10"/>
<path d="M682.848 279.34C682.708 279.79 681.338 280.48 680.988 280.73C679.392 281.843 677.721 282.845 675.988 283.73C672.51 285.499 668.81 286.793 664.988 287.58C661.858 288.21 659.068 289.74 659.398 293.49L659.838 298.31C659.838 298.31 678.168 294.8 682.848 279.34Z" stroke="black" stroke-width="4.86" stroke-miterlimit="10"/>
<path d="M654.258 243.562C654.258 243.562 637.848 243.002 633.478 256.612" stroke="black" stroke-width="4.86" stroke-miterlimit="10"/>
<path d="M652.188 281.219C660.472 281.219 667.188 274.503 667.188 266.219C667.188 257.934 660.472 251.219 652.188 251.219C643.904 251.219 637.188 257.934 637.188 266.219C637.188 274.503 643.904 281.219 652.188 281.219Z" stroke="black" stroke-width="4.86" stroke-miterlimit="10"/>
<path d="M684.328 261.012C692.612 261.012 699.328 254.296 699.328 246.012C699.328 237.727 692.612 231.012 684.328 231.012C676.044 231.012 669.328 237.727 669.328 246.012C669.328 254.296 676.044 261.012 684.328 261.012Z" stroke="black" stroke-width="4.86" stroke-miterlimit="10"/>
<path d="M684.318 235.821C686.774 235.815 689.15 236.696 691.008 238.303C692.865 239.909 694.081 242.133 694.429 244.564C694.778 246.996 694.236 249.471 692.905 251.535C691.573 253.599 689.541 255.112 687.182 255.797C684.823 256.481 682.297 256.291 680.067 255.26C677.838 254.23 676.055 252.429 675.048 250.189C674.041 247.948 673.877 245.42 674.586 243.068C675.296 240.717 676.83 238.701 678.908 237.391C680.527 236.366 682.402 235.822 684.318 235.821ZM684.318 233.391C681.52 233.392 678.801 234.324 676.59 236.039C674.38 237.755 672.801 240.156 672.104 242.866C671.407 245.576 671.63 248.441 672.738 251.01C673.847 253.579 675.778 255.707 678.228 257.06C680.678 258.412 683.508 258.911 686.272 258.48C689.037 258.048 691.58 256.71 693.501 254.675C695.422 252.641 696.613 250.026 696.886 247.241C697.159 244.456 696.498 241.659 695.008 239.291C693.873 237.481 692.296 235.99 690.426 234.958C688.556 233.926 686.454 233.386 684.318 233.391Z" fill="white"/>
<path d="M664.888 258.228L671.628 253.988" stroke="black" stroke-width="4.86" stroke-miterlimit="10"/>
<path d="M626.118 289.909C627.72 289.909 629.018 288.611 629.018 287.009C629.018 285.408 627.72 284.109 626.118 284.109C624.516 284.109 623.218 285.408 623.218 287.009C623.218 288.611 624.516 289.909 626.118 289.909Z" fill="black"/>
<path d="M647.578 268.032L657.118 261.922" stroke="black" stroke-width="4.86" stroke-miterlimit="10"/>
<path d="M678.578 249.059L688.128 242.949" stroke="black" stroke-width="4.86" stroke-miterlimit="10"/>
<path d="M692.578 301.289L701.038 314.759" stroke="black" stroke-width="4.86" stroke-miterlimit="10"/>
<path d="M579.558 656.103C579.558 656.103 583.878 672.403 574.428 676.653" stroke="black" stroke-width="4.86" stroke-miterlimit="10"/>
<path d="M561.028 682.523C561.028 682.523 571.828 672.683 567.118 662.853" stroke="black" stroke-width="4.86" stroke-miterlimit="10"/>
<path d="M549.168 685.462C549.168 685.462 557.868 676.722 554.418 671.262" stroke="black" stroke-width="4.86" stroke-miterlimit="10"/>
<path d="M552.598 695.999C552.598 695.999 543.778 699.539 524.888 691.719" stroke="black" stroke-width="4.86" stroke-miterlimit="10"/>
<path d="M532.048 708.999C530.678 708.629 518.558 708.799 511.548 699.359" stroke="black" stroke-width="4.86" stroke-miterlimit="10"/>
<path d="M568.308 681.461C568.308 681.461 571.628 699.061 553.618 697.851" stroke="black" stroke-width="4.86" stroke-miterlimit="10"/>
<path d="M593.708 645.579C593.708 645.579 620.118 644.499 606.628 691.709C593.138 738.919 617.958 724.419 640.078 709.009C662.198 693.599 663.338 728.129 676.258 721.109C689.178 714.089 685.128 617.029 601.368 629.419" stroke="black" stroke-width="4.86" stroke-miterlimit="10"/>
<path d="M829.848 910.262H795.048" stroke="black" stroke-width="4.86" stroke-miterlimit="10"/>
<path d="M585.148 911.828H550.348" stroke="black" stroke-width="4.86" stroke-miterlimit="10"/>
<path d="M483.168 681.23L369.518 781C340.698 808.87 307.198 811.21 284.138 800.42" stroke="black" stroke-width="4.86" stroke-miterlimit="10"/>
<path d="M488.688 691.711L440.458 751.731" stroke="black" stroke-width="4.86" stroke-miterlimit="10"/>
<path d="M498.918 701.641L474.988 741.361" stroke="black" stroke-width="4.86" stroke-miterlimit="10"/>
<path d="M644.928 682.522C617.928 635.302 594.298 641.812 594.298 641.812C594.298 641.812 623.248 641.712 625.458 701.642" stroke="black" stroke-width="4.86" stroke-linecap="square" stroke-linejoin="bevel"/>
<path d="M595.358 636.692C595.358 636.692 612.018 633.202 622.808 636.692" stroke="black" stroke-width="4.86" stroke-miterlimit="10"/>
<path d="M193.498 596.738C193.625 596.802 193.755 596.859 193.888 596.908L193.498 596.738Z" fill="#F26522"/>
<path d="M178.178 601.592C197.21 601.592 212.638 586.164 212.638 567.132C212.638 548.1 197.21 532.672 178.178 532.672C159.146 532.672 143.718 548.1 143.718 567.132C143.718 586.164 159.146 601.592 178.178 601.592Z" fill="#F26522"/>
<path d="M167.228 579C166.085 578.569 165.013 577.969 164.048 577.22C162.386 575.933 161.247 574.086 160.843 572.023C160.438 569.96 160.795 567.82 161.848 566C162.542 564.805 163.506 563.787 164.662 563.029C165.818 562.27 167.135 561.791 168.508 561.63C167.76 559.851 167.611 557.876 168.082 556.004C168.554 554.132 169.62 552.464 171.121 551.251C172.622 550.037 174.477 549.344 176.406 549.275C178.335 549.207 180.234 549.766 181.818 550.87C185.148 553.18 187.458 557.27 188.878 561.01C189.607 562.952 190.14 564.962 190.468 567.01C190.638 568.01 191.728 574.01 190.868 574.62C185.128 578.6 174.528 581.78 167.228 579Z" fill="white"/>
<path d="M398.258 517.07L398.098 517.22L398.258 517.07Z" fill="#F26522"/>
<path d="M416.118 534.87C426.324 534.87 434.598 526.596 434.598 516.39C434.598 506.184 426.324 497.91 416.118 497.91C405.912 497.91 397.638 506.184 397.638 516.39C397.638 526.596 405.912 534.87 416.118 534.87Z" fill="#F26522"/>
<path d="M412.848 508.368C413.318 507.914 413.854 507.533 414.438 507.238C415.445 506.705 416.614 506.561 417.72 506.834C418.827 507.107 419.794 507.778 420.438 508.718C420.861 509.326 421.135 510.024 421.239 510.757C421.343 511.49 421.274 512.237 421.038 512.938C422.071 512.984 423.061 513.362 423.86 514.017C424.659 514.673 425.224 515.569 425.471 516.573C425.718 517.577 425.633 518.633 425.228 519.584C424.824 520.535 424.122 521.33 423.228 521.848C421.205 522.843 418.937 523.231 416.698 522.968C415.58 522.876 414.475 522.671 413.398 522.358C412.848 522.198 409.708 521.358 409.608 520.818C408.968 517.148 409.848 511.278 412.848 508.368Z" fill="white"/>
<path d="M272.018 530.319C274.443 531.5 277.027 532.321 279.688 532.759C284.573 533.515 289.57 532.991 294.192 531.238C298.814 529.485 302.903 526.564 306.058 522.759C308.478 519.759 310.308 515.959 312.848 512.899C314.59 510.674 316.922 508.983 319.578 508.019C320.493 507.828 321.348 507.416 322.068 506.819C323.818 505.019 320.848 503.489 320.258 502.029C319.368 499.68 319.368 497.088 320.258 494.739C322.475 488.574 322.495 481.833 320.316 475.655C318.136 469.477 313.891 464.241 308.297 460.831C302.703 457.422 296.103 456.048 289.614 456.942C283.124 457.836 277.141 460.944 272.678 465.739C268.278 470.489 265.678 476.559 262.878 482.419C260.458 487.589 257.878 492.739 256.508 498.289C253.348 511.279 260.388 524.649 272.018 530.319Z" fill="#F26522"/>
<path d="M296.778 483.531C300.18 483.531 302.938 480.773 302.938 477.371C302.938 473.969 300.18 471.211 296.778 471.211C293.376 471.211 290.618 473.969 290.618 477.371C290.618 480.773 293.376 483.531 296.778 483.531Z" fill="white"/>
<path d="M288.698 500.55C292.1 500.55 294.858 497.793 294.858 494.39C294.858 490.988 292.1 488.23 288.698 488.23C285.296 488.23 282.538 490.988 282.538 494.39C282.538 497.793 285.296 500.55 288.698 500.55Z" fill="white"/>
<path d="M281.118 516.519C284.52 516.519 287.278 513.761 287.278 510.359C287.278 506.957 284.52 504.199 281.118 504.199C277.716 504.199 274.958 506.957 274.958 510.359C274.958 513.761 277.716 516.519 281.118 516.519Z" fill="white"/>
<path d="M752.578 378.359C752.578 378.359 765.828 431.659 655.728 507.109C645.848 485.879 638.898 473.999 634.178 467.359" stroke="black" stroke-width="4.86" stroke-miterlimit="10"/>
<path d="M821.188 456.422C821.188 456.422 825.658 480.712 833.188 499.942C837.288 510.362 870.038 565.172 899.188 613.222C928.088 660.842 935.988 749.172 897.738 807.102L827.738 910.352H858.068C859.861 910.348 861.637 910.698 863.295 911.383C864.952 912.068 866.458 913.073 867.725 914.342C868.993 915.61 869.997 917.116 870.681 918.774C871.364 920.432 871.713 922.209 871.708 924.002C871.709 925.8 871.354 927.581 870.664 929.241C869.973 930.901 868.96 932.408 867.683 933.675C866.406 934.941 864.891 935.942 863.226 936.62C861.56 937.297 859.776 937.638 857.978 937.622L728.568 938.002L812.298 785.902C822.715 766.97 828.066 745.668 827.831 724.061C827.596 702.453 821.784 681.273 810.958 662.572L757.428 570.152" fill="white"/>
<path d="M821.188 456.422C821.188 456.422 825.658 480.712 833.188 499.942C837.288 510.362 870.038 565.172 899.188 613.222C928.088 660.842 935.988 749.172 897.738 807.102L827.738 910.352H858.068C859.861 910.348 861.637 910.698 863.295 911.383C864.952 912.068 866.458 913.073 867.725 914.342C868.993 915.61 869.997 917.116 870.681 918.774C871.364 920.432 871.713 922.209 871.708 924.002C871.709 925.8 871.354 927.581 870.664 929.241C869.973 930.901 868.96 932.408 867.683 933.675C866.406 934.941 864.891 935.942 863.226 936.62C861.56 937.297 859.776 937.638 857.978 937.622L728.568 938.002L812.298 785.902C822.715 766.97 828.066 745.668 827.831 724.061C827.596 702.453 821.784 681.273 810.958 662.572L757.428 570.152" stroke="black" stroke-width="4.86" stroke-miterlimit="10"/>
<g opacity="0.46">
<path opacity="0.46" d="M440.428 411.471C440.538 413.935 440.094 416.392 439.128 418.66C438.162 420.929 436.7 422.953 434.848 424.581L391.478 463.461C389.843 464.931 387.934 466.064 385.861 466.795C383.788 467.525 381.59 467.84 379.395 467.72C377.2 467.6 375.05 467.048 373.069 466.096C371.087 465.144 369.313 463.81 367.848 462.171L309.508 397.071C306.558 393.766 305.038 389.426 305.281 385.003C305.525 380.579 307.512 376.432 310.808 373.471L354.218 334.591C360.748 328.741 371.868 329.201 377.818 335.891L436.188 401.001C438.794 403.881 440.296 407.59 440.428 411.471Z" fill="#F26522"/>
</g>
<path d="M424.188 409.462L370.848 403.002C370.167 402.92 369.537 402.597 369.075 402.09C368.612 401.583 368.347 400.927 368.328 400.242L366.848 345.452C366.832 344.865 366.996 344.288 367.319 343.797C367.641 343.307 368.106 342.927 368.651 342.709C369.196 342.491 369.795 342.446 370.366 342.578C370.938 342.711 371.455 343.016 371.848 343.452L426.718 404.702C427.117 405.137 427.371 405.686 427.446 406.272C427.52 406.858 427.411 407.453 427.134 407.975C426.857 408.497 426.424 408.92 425.897 409.186C425.369 409.452 424.772 409.548 424.188 409.462Z" fill="white"/>
<g opacity="0.46">
<path opacity="0.46" d="M376.908 581.001C378.111 581.483 379.19 582.228 380.068 583.181C380.945 584.135 381.598 585.273 381.978 586.511L391.158 615.751C391.85 617.974 391.632 620.38 390.552 622.442C389.473 624.504 387.619 626.054 385.398 626.751L341.518 640.511C339.295 641.2 336.89 640.981 334.829 639.902C332.767 638.823 331.217 636.971 330.518 634.751L321.348 605.501C320.711 603.28 320.953 600.899 322.023 598.851C323.094 596.804 324.911 595.246 327.098 594.501L370.948 580.701C372.908 580.094 375.019 580.201 376.908 581.001Z" fill="#F26522"/>
</g>
<path d="M372.408 588.299L357.678 612.419C357.489 612.714 357.202 612.934 356.868 613.04C356.534 613.146 356.173 613.131 355.848 612.999L329.248 601.859C328.964 601.738 328.724 601.533 328.56 601.271C328.396 601.009 328.316 600.703 328.332 600.395C328.347 600.087 328.456 599.79 328.645 599.546C328.834 599.302 329.093 599.121 329.388 599.029L370.668 586.079C370.961 585.983 371.276 585.979 371.571 586.068C371.866 586.158 372.126 586.336 372.316 586.579C372.507 586.821 372.617 587.116 372.634 587.424C372.65 587.732 372.571 588.037 372.408 588.299Z" fill="white"/>
<g opacity="0.46">
<path opacity="0.46" d="M255.238 672.539C252.432 673.743 249.537 674.726 246.578 675.479C218.208 682.479 212.648 655.939 212.648 655.939L237.408 655.209C235.985 653.251 235.063 650.974 234.723 648.577C234.383 646.18 234.635 643.736 235.458 641.459C238.898 632.269 252.398 633.219 252.398 633.219L258.928 626.289L259.548 636.039L269.548 631.709L265.728 639.229C274.638 644.359 288.998 663.129 269.608 679.529C250.218 695.929 237.438 685.189 237.438 685.189L246.598 675.479" fill="#F26522"/>
</g>
<path d="M247.548 647.039C249.487 647.039 251.058 645.469 251.058 643.531C251.058 641.592 249.487 640.021 247.548 640.021C245.609 640.021 244.038 641.592 244.038 643.531C244.038 645.469 245.609 647.039 247.548 647.039Z" fill="white"/>
</svg>
