<svg width="303" height="280" viewBox="0 0 303 280" fill="none" xmlns="http://www.w3.org/2000/svg">
<g opacity="0.3">
<path d="M266.537 159.279C268.623 160.444 268.609 162.291 266.505 163.399L123.479 238.185C121.375 239.293 117.978 239.242 115.892 238.076L32.5337 191.521C30.4474 190.356 30.4532 188.513 32.5572 187.405L175.583 112.619C177.687 111.512 181.093 111.558 183.179 112.724L266.537 159.279Z" fill="#1F2D6B"/>
</g>
<mask id="mask0_398_3818" style="mask-type:luminance" maskUnits="userSpaceOnUse" x="-1" y="0" width="304" height="285">
<path d="M3.75928 0.509277L302.731 4.60462L298.896 284.578L-0.0758235 280.483L3.75928 0.509277Z" fill="white"/>
</mask>
<g mask="url(#mask0_398_3818)">
<mask id="mask1_398_3818" style="mask-type:luminance" maskUnits="userSpaceOnUse" x="-1" y="0" width="304" height="285">
<path d="M3.75928 0.509277L302.731 4.60462L298.896 284.578L-0.0758235 280.483L3.75928 0.509277Z" fill="white"/>
</mask>
<g mask="url(#mask1_398_3818)">
<path d="M263.809 144.219C265.896 145.384 265.882 147.231 263.778 148.339L120.752 223.125C118.648 224.233 115.25 224.182 113.164 223.016L29.8063 176.461C27.72 175.296 27.7255 173.453 29.8295 172.345L172.856 97.5597C174.96 96.4518 178.365 96.4982 180.451 97.6635L263.809 144.219Z" fill="url(#paint0_linear_398_3818)"/>
<path d="M128.685 215.232L257.15 148.059L172.726 101.722L44.8587 168.581L128.685 215.232Z" fill="white"/>
<path d="M265.364 146.359C265.359 146.456 265.346 146.552 265.324 146.648C265.303 146.743 265.273 146.837 265.234 146.93C265.194 147.026 265.145 147.121 265.087 147.215C265.024 147.316 264.95 147.415 264.866 147.512C264.768 147.626 264.655 147.736 264.529 147.843C264.334 148.006 264.106 148.161 263.844 148.304C263.822 148.316 263.8 148.328 263.778 148.339L120.752 223.125C120.392 223.314 119.995 223.47 119.573 223.592C119.247 223.686 118.906 223.76 118.557 223.814C118.332 223.849 118.103 223.875 117.873 223.894C117.676 223.909 117.477 223.919 117.278 223.922C117.094 223.926 116.911 223.924 116.728 223.917C116.551 223.911 116.375 223.9 116.199 223.884C116.024 223.868 115.85 223.847 115.678 223.822C115.498 223.796 115.321 223.764 115.146 223.728C114.956 223.688 114.769 223.643 114.586 223.591C114.363 223.528 114.145 223.456 113.936 223.375C113.664 223.27 113.405 223.151 113.164 223.017L29.8066 176.461C28.7547 175.874 28.2344 175.114 28.2471 174.363L28.1808 178.316C28.1683 179.068 28.6881 179.827 29.7402 180.415L113.098 226.97C113.339 227.104 113.598 227.224 113.87 227.329C114.079 227.41 114.296 227.481 114.52 227.544C114.703 227.596 114.889 227.641 115.079 227.681C115.254 227.717 115.432 227.749 115.612 227.775C115.784 227.8 115.958 227.821 116.133 227.837C116.309 227.853 116.485 227.864 116.662 227.871C116.845 227.877 117.028 227.879 117.211 227.876C117.411 227.872 117.609 227.863 117.807 227.847C118.037 227.829 118.266 227.802 118.49 227.768C118.84 227.713 119.181 227.639 119.507 227.545C119.929 227.423 120.326 227.268 120.686 227.078L263.712 152.293C263.734 152.281 263.756 152.269 263.778 152.258C264.04 152.115 264.268 151.96 264.463 151.796C264.589 151.69 264.702 151.579 264.8 151.466C264.884 151.369 264.957 151.269 265.02 151.168C265.079 151.075 265.127 150.98 265.168 150.884C265.206 150.79 265.237 150.696 265.258 150.601C265.28 150.506 265.293 150.409 265.297 150.312C265.298 150.298 265.299 150.283 265.299 150.268L265.365 146.315C265.365 146.33 265.364 146.345 265.364 146.359Z" fill="url(#paint1_linear_398_3818)"/>
<path d="M95.5894 209.467C93.3785 209.99 90.3064 209.174 88.7264 207.644C87.1465 206.115 87.656 204.45 89.8669 203.928C92.0808 203.404 95.1545 204.222 96.7345 205.751C98.3144 207.281 97.8032 208.943 95.5894 209.467Z" fill="url(#paint2_linear_398_3818)"/>
</g>
<path d="M198.103 130.06C198.106 129.837 198.038 129.615 197.898 129.395C197.757 129.174 197.582 129.003 197.369 128.883C197.176 128.776 197.007 128.746 196.862 128.793C196.722 128.843 196.635 128.965 196.602 129.162L196.949 129.438C196.982 129.223 197.152 129.162 197.354 129.274C197.576 129.399 197.741 129.642 197.738 129.856C197.736 129.979 197.679 130.076 197.568 130.151L196.595 130.865L196.592 131.056L198.059 131.876L198.066 131.485L197.215 131.009L197.836 130.571C198.011 130.463 198.099 130.292 198.103 130.06Z" fill="#898989"/>
<path d="M200.007 130.618C199.888 130.391 199.684 130.181 199.419 130.033C199.159 129.888 198.952 129.869 198.82 129.955C198.619 130.081 198.549 130.433 198.542 130.865C198.536 131.252 198.577 131.563 198.699 131.884C198.82 132.2 199.044 132.462 199.376 132.648C199.917 132.95 200.15 132.699 200.221 132.225C200.259 131.993 200.264 131.662 200.235 131.393C200.21 131.126 200.134 130.841 200.007 130.618ZM199.382 132.261C199.055 132.078 198.896 131.682 198.907 131.069C198.917 130.459 199.086 130.246 199.413 130.429C199.74 130.612 199.899 131.008 199.888 131.617C199.878 132.231 199.709 132.444 199.382 132.261Z" fill="#898989"/>
<path d="M200.641 131.422L201.033 131.49L201 133.518L201.365 133.722L201.407 131.153L200.647 131.054L200.641 131.422Z" fill="#898989"/>
<path d="M201.94 131.478L201.933 131.859L202.986 132.448L201.906 134.024L202.329 134.261L203.596 132.403L201.94 131.478Z" fill="#898989"/>
<path d="M228.997 145.032C229 144.809 228.933 144.587 228.792 144.366C228.648 144.144 228.473 143.972 228.263 143.855C228.07 143.748 227.897 143.715 227.756 143.765C227.616 143.815 227.529 143.937 227.492 144.132L227.843 144.41C227.876 144.195 228.042 144.131 228.248 144.246C228.466 144.368 228.635 144.614 228.632 144.828C228.63 144.951 228.573 145.047 228.462 145.123L227.485 145.835L227.482 146.026L228.954 146.848L228.96 146.457L228.109 145.981L228.73 145.543C228.901 145.433 228.993 145.263 228.997 145.032Z" fill="#898989"/>
<path d="M230.901 145.59C230.778 145.361 230.578 145.153 230.314 145.005C230.054 144.86 229.847 144.841 229.714 144.927C229.513 145.054 229.439 145.403 229.432 145.834C229.426 146.221 229.471 146.536 229.593 146.856C229.71 147.169 229.939 147.435 230.27 147.62C230.807 147.919 231.044 147.671 231.115 147.197C231.153 146.965 231.159 146.634 231.129 146.365C231.104 146.098 231.029 145.813 230.901 145.59ZM230.277 147.233C229.949 147.051 229.791 146.655 229.801 146.041C229.811 145.432 229.98 145.218 230.307 145.401C230.634 145.584 230.789 145.977 230.779 146.587C230.768 147.2 230.604 147.416 230.277 147.233Z" fill="#898989"/>
<path d="M231.535 146.394L231.924 146.46L231.89 148.488L232.259 148.694L232.302 146.125L231.542 146.026L231.535 146.394Z" fill="#898989"/>
<path d="M234.116 148.244C234.24 148.194 234.301 148.077 234.304 147.899C234.307 147.717 234.247 147.523 234.123 147.326C234 147.128 233.841 146.971 233.661 146.87C233.477 146.767 233.32 146.748 233.192 146.806C233.064 146.863 233.003 146.989 233 147.171C232.997 147.348 233.049 147.529 233.164 147.712C232.94 147.729 232.806 147.902 232.801 148.184C232.797 148.42 232.873 148.661 233.03 148.913C233.191 149.168 233.383 149.358 233.617 149.489C233.848 149.618 234.042 149.644 234.209 149.572C234.371 149.497 234.454 149.346 234.458 149.109C234.462 148.832 234.332 148.511 234.116 148.244ZM233.654 147.257C233.822 147.35 233.942 147.545 233.939 147.7C233.937 147.859 233.817 147.93 233.649 147.836C233.473 147.738 233.353 147.547 233.356 147.374C233.359 147.22 233.482 147.16 233.654 147.257ZM233.949 149.151C233.859 149.193 233.749 149.177 233.624 149.107C233.493 149.035 233.381 148.926 233.295 148.786C233.204 148.647 233.164 148.511 233.166 148.383C233.168 148.26 233.212 148.175 233.297 148.131C233.382 148.091 233.488 148.1 233.61 148.168L233.648 148.189C233.773 148.259 233.882 148.366 233.964 148.503C234.051 148.639 234.091 148.771 234.089 148.899C234.087 149.026 234.043 149.116 233.949 149.151Z" fill="#898989"/>
<path d="M173.312 115.814C173.316 115.591 173.248 115.369 173.103 115.146C172.963 114.926 172.788 114.754 172.578 114.637C172.381 114.527 172.212 114.497 172.072 114.547C171.927 114.595 171.845 114.719 171.808 114.914L172.158 115.192C172.192 114.977 172.358 114.914 172.563 115.028C172.781 115.15 172.946 115.394 172.943 115.608C172.941 115.731 172.888 115.83 172.777 115.905L171.8 116.617L171.797 116.808L173.265 117.628L173.271 117.237L172.42 116.761L173.045 116.326C173.217 116.215 173.308 116.046 173.312 115.814Z" fill="#898989"/>
<path d="M175.85 117.176L176.239 117.242L176.205 119.27L176.574 119.476L176.617 116.907L175.857 116.808L175.85 117.176Z" fill="#898989"/>
<path d="M178.543 119.171C178.404 118.923 178.237 118.748 178.032 118.633C177.801 118.504 177.627 118.508 177.528 118.645C177.515 118.395 177.556 118.211 177.655 118.102C177.755 117.992 177.886 117.983 178.045 118.072C178.209 118.163 178.329 118.322 178.406 118.548L178.744 118.581C178.603 118.145 178.37 117.891 178.068 117.708C178.057 117.702 178.046 117.695 178.035 117.689C177.248 117.249 177.13 118.15 177.167 118.963C177.183 119.238 177.259 119.496 177.399 119.735C177.539 119.974 177.714 120.149 177.924 120.266C178.151 120.393 178.336 120.419 178.49 120.353C178.647 120.285 178.731 120.139 178.739 119.905C178.743 119.654 178.679 119.413 178.543 119.171ZM178.243 119.926C178.162 119.959 178.07 119.949 177.964 119.89C177.958 119.887 177.953 119.884 177.947 119.88C177.721 119.749 177.544 119.448 177.548 119.189C177.55 119.071 177.594 118.99 177.683 118.953C177.768 118.917 177.864 118.929 177.974 118.991C177.98 118.994 177.986 118.998 177.992 119.001C178.218 119.132 178.374 119.426 178.37 119.68C178.368 119.803 178.328 119.886 178.243 119.926Z" fill="#898989"/>
<path d="M175.216 116.372C175.093 116.143 174.89 115.933 174.629 115.787C174.365 115.64 174.158 115.621 174.03 115.709C173.829 115.836 173.755 116.185 173.748 116.617C173.741 117.003 173.783 117.315 173.904 117.636C174.026 117.952 174.254 118.217 174.586 118.402C175.122 118.702 175.359 118.453 175.431 117.979C175.464 117.746 175.47 117.413 175.445 117.147C175.42 116.88 175.344 116.595 175.216 116.372ZM174.592 118.015C174.265 117.833 174.106 117.437 174.117 116.823C174.127 116.214 174.296 116 174.623 116.183C174.95 116.366 175.104 116.759 175.094 117.369C175.084 117.982 174.919 118.198 174.592 118.015Z" fill="#898989"/>
<path d="M149.473 88.3462C149.682 88.4634 149.857 88.6346 149.998 88.8551C150.142 89.078 150.21 89.2996 150.207 89.5225C150.203 89.7543 150.111 89.9234 149.94 90.0343L149.314 90.4699L150.166 90.9454L150.159 91.3364L148.691 90.5166L148.694 90.3256L149.672 89.6137C149.783 89.5383 149.835 89.4392 149.837 89.3163C149.841 89.1027 149.676 88.8588 149.458 88.737C149.252 88.6222 149.086 88.6855 149.053 88.901L148.702 88.6224C148.739 88.4274 148.821 88.3036 148.966 88.2561C149.107 88.2061 149.276 88.2362 149.473 88.3462Z" fill="#898989"/>
<path d="M152.339 90.8558C152.364 91.1221 152.358 91.4542 152.325 91.6879C152.254 92.1619 152.016 92.4104 151.48 92.1106C151.148 91.9256 150.92 91.6603 150.798 91.3447C150.677 91.0241 150.635 90.7121 150.641 90.33C150.649 89.8935 150.723 89.5445 150.924 89.4181C151.052 89.3291 151.259 89.3488 151.523 89.4963C151.784 89.6417 151.987 89.8517 152.11 90.081C152.238 90.3039 152.314 90.5894 152.339 90.8558ZM151.486 91.7241C151.814 91.9067 151.978 91.6912 151.988 91.0817C151.998 90.4679 151.844 90.0745 151.517 89.8916C151.19 89.709 151.021 89.9222 151.011 90.536C151.001 91.1455 151.159 91.5412 151.486 91.7241Z" fill="#898989"/>
<path d="M150.19 74.5339L150.517 74.7165L150.511 75.0802L150.184 74.8976L150.175 75.4295L149.81 75.2257L149.819 74.6938L148.619 74.0239L149.903 72.7122L150.218 72.8879L150.19 74.5339ZM149.825 74.3301L149.842 73.3388L149.213 73.988L149.825 74.3301Z" fill="#898989"/>
<path d="M152.602 75.087C152.628 75.3537 152.622 75.6899 152.589 75.9236C152.517 76.3976 152.28 76.6464 151.743 76.3465C151.412 76.1615 151.183 75.8963 151.062 75.576C150.94 75.2556 150.899 74.9478 150.905 74.5613C150.913 74.1248 150.986 73.7758 151.187 73.6494C151.315 73.5651 151.523 73.5845 151.787 73.732C152.047 73.8774 152.251 74.0876 152.374 74.3123C152.501 74.5396 152.577 74.8253 152.602 75.087ZM151.75 75.9554C152.077 76.138 152.241 75.9271 152.252 75.3133C152.262 74.7041 152.108 74.3105 151.78 74.1276C151.453 73.945 151.285 74.1581 151.274 74.7673C151.264 75.3811 151.422 75.7728 151.75 75.9554Z" fill="#898989"/>
<path d="M150.542 58.3188C150.678 58.56 150.746 58.8088 150.742 59.0589C150.729 59.2862 150.646 59.4372 150.489 59.5004C150.335 59.5706 150.149 59.5448 149.927 59.4206C149.713 59.3013 149.538 59.1254 149.398 58.8821C149.263 58.6459 149.182 58.385 149.17 58.112C149.133 57.2994 149.251 56.399 150.034 56.8365C150.045 56.8426 150.056 56.8487 150.067 56.8554C150.373 57.0447 150.602 57.2921 150.742 57.7286L150.409 57.6981C150.328 57.4693 150.208 57.3149 150.048 57.2259C149.885 57.1345 149.753 57.1391 149.654 57.249C149.555 57.3586 149.514 57.5422 149.531 57.7949C149.63 57.6578 149.8 57.6563 150.034 57.7873C150.236 57.8997 150.406 58.0779 150.542 58.3188ZM150.242 59.078C150.327 59.0385 150.371 58.9571 150.373 58.8299C150.377 58.5797 150.217 58.2793 149.99 58.1484C149.877 58.0852 149.776 58.0651 149.682 58.1045C149.597 58.1441 149.553 58.2207 149.551 58.3389C149.547 58.6026 149.72 58.8966 149.946 59.0275C149.953 59.0315 149.959 59.0352 149.965 59.0387C150.074 59.0996 150.165 59.1133 150.242 59.078Z" fill="#898989"/>
<path d="M152.867 59.3232C152.892 59.5896 152.886 59.9261 152.853 60.1553C152.781 60.634 152.544 60.8825 152.007 60.5827C151.676 60.3977 151.447 60.1322 151.326 59.8119C151.204 59.4915 151.163 59.184 151.169 58.7975C151.177 58.3609 151.25 58.0117 151.451 57.8855C151.579 57.8012 151.787 57.816 152.051 57.9635C152.311 58.1089 152.515 58.3235 152.638 58.5485C152.766 58.7711 152.841 59.0568 152.867 59.3232ZM152.014 60.1915C152.341 60.3742 152.505 60.1586 152.515 59.5494C152.526 58.9356 152.371 58.5464 152.044 58.3638C151.717 58.1811 151.545 58.3875 151.534 59.0013C151.524 59.6105 151.687 60.0089 152.014 60.1915Z" fill="#898989"/>
<path d="M150.66 42.3908C150.876 42.6582 151.01 42.981 151.005 43.2537C151.001 43.4948 150.919 43.6459 150.752 43.718C150.59 43.7928 150.396 43.7671 150.161 43.6358C149.926 43.5047 149.735 43.3149 149.578 43.0623C149.417 42.8073 149.34 42.5671 149.344 42.3261C149.349 42.0487 149.488 41.8782 149.708 41.8589C149.597 41.6774 149.54 41.4946 149.543 41.322C149.547 41.1354 149.612 41.0115 149.74 40.9544C149.864 40.8952 150.02 40.9134 150.205 41.0165C150.389 41.1197 150.543 41.2748 150.667 41.4722C150.791 41.6697 150.855 41.8663 150.852 42.053C150.849 42.2256 150.784 42.3403 150.66 42.3908ZM150.497 43.2999C150.586 43.263 150.634 43.1747 150.636 43.0475C150.638 42.9202 150.595 42.7853 150.512 42.6522C150.425 42.512 150.317 42.4055 150.195 42.3377L150.153 42.3143C150.032 42.2463 149.926 42.2378 149.841 42.2774C149.76 42.3235 149.716 42.4097 149.714 42.5323C149.712 42.6596 149.752 42.7968 149.838 42.9323C149.929 43.0749 150.037 43.1811 150.167 43.2537C150.297 43.3262 150.403 43.3393 150.497 43.2999ZM150.198 41.403C150.03 41.3092 149.907 41.369 149.904 41.5235C149.901 41.6961 150.021 41.8868 150.197 41.9851C150.365 42.0789 150.48 42.0059 150.483 41.8467C150.486 41.6922 150.366 41.4969 150.198 41.403Z" fill="#898989"/>
<path d="M153.13 43.559C153.155 43.8256 153.15 44.1574 153.116 44.3911C153.045 44.8651 152.808 45.1139 152.271 44.8141C151.94 44.6291 151.711 44.3635 151.59 44.0479C151.468 43.7276 151.427 43.4153 151.433 43.0288C151.44 42.597 151.514 42.2477 151.715 42.1216C151.843 42.0326 152.05 42.052 152.315 42.1995C152.575 42.3449 152.779 42.5549 152.902 42.7842C153.03 43.0071 153.105 43.2926 153.13 43.559ZM152.277 44.4273C152.605 44.6099 152.769 44.3946 152.779 43.7808C152.789 43.1713 152.635 42.7777 152.308 42.5951C151.981 42.4122 151.808 42.623 151.798 43.2324C151.788 43.8463 151.95 44.2447 152.277 44.4273Z" fill="#898989"/>
<path d="M245.944 149.599L157.395 100.534L158.46 41.0381" stroke="#DFCED4" stroke-width="0.344" stroke-miterlimit="10"/>
<mask id="mask2_398_3818" style="mask-type:alpha" maskUnits="userSpaceOnUse" x="153" y="8" width="123" height="147">
<path d="M153.167 8.26013L156.886 100.616L254.167 154.194L275.659 40.5335L153.167 8.26013Z" fill="#E2F0FD"/>
</mask>
<g mask="url(#mask2_398_3818)">
<mask id="mask3_398_3818" style="mask-type:luminance" maskUnits="userSpaceOnUse" x="-1" y="0" width="304" height="285">
<path d="M3.75977 0.509277L302.732 4.60462L298.897 284.578L-0.0753352 280.483L3.75977 0.509277Z" fill="white"/>
</mask>
<g mask="url(#mask3_398_3818)">
<path d="M185.318 65.9461L189.228 118.042L189.268 118.408L179.785 113.112L179.836 112.796L185.318 65.9461Z" fill="url(#paint3_linear_398_3818)"/>
<path d="M173.828 71.3833L177.849 111.863L177.871 112.219L168.387 106.923L168.421 106.597L173.828 71.3833Z" fill="url(#paint4_linear_398_3818)"/>
<path d="M179.943 47.3223L183.613 114.626L183.639 114.985L174.156 109.688L174.193 109.365L179.943 47.3223Z" fill="url(#paint5_linear_398_3818)"/>
<path d="M212.773 45.133L216.113 132.707L216.13 133.061L206.65 127.767L206.679 127.438L212.773 45.133Z" fill="url(#paint6_linear_398_3818)"/>
<path d="M200.649 54.6105L204.248 126.312L204.271 126.67L194.788 121.373L194.823 121.049L200.649 54.6105Z" fill="url(#paint7_linear_398_3818)"/>
<path d="M205.952 73.1664L209.805 129.182L209.841 129.546L200.357 124.249L200.404 123.931L205.952 73.1664Z" fill="url(#paint8_linear_398_3818)"/>
<path d="M240.319 85.8917L242.714 147.303L242.753 147.669L233.27 142.372L233.321 142.057L240.319 85.8917Z" fill="url(#paint9_linear_398_3818)"/>
<path d="M226.981 101.037L231.007 141.105L231.029 141.461L221.546 136.165L221.579 135.839L226.981 101.037Z" fill="url(#paint10_linear_398_3818)"/>
<path d="M233.65 60.4014L237.09 144.449L237.117 144.808L227.633 139.511L227.671 139.188L233.65 60.4014Z" fill="url(#paint11_linear_398_3818)"/>
</g>
</g>
<mask id="mask4_398_3818" style="mask-type:luminance" maskUnits="userSpaceOnUse" x="-1" y="0" width="304" height="285">
<path d="M3.75928 0.509277L302.731 4.60462L298.896 284.578L-0.0758235 280.483L3.75928 0.509277Z" fill="white"/>
</mask>
<g mask="url(#mask4_398_3818)">
<mask id="mask5_398_3818" style="mask-type:alpha" maskUnits="userSpaceOnUse" x="99" y="97" width="40" height="56">
<path d="M112.469 99.0352C100.24 102.368 100.009 109.171 100.009 109.171L99.3412 147.795C99.3412 147.795 100.666 152.156 102.184 152.501C103.126 152.715 125.358 138.364 125.358 138.364L138.622 130.183L138.736 101.664C138.736 101.664 126.5 95.2109 112.469 99.0352Z" fill="#E2F0FD"/>
</mask>
<g mask="url(#mask5_398_3818)">
<path d="M119.205 120.525L122.446 125.258L122.048 154.36L105.688 164.804L100.81 157.372L102.472 123.755L119.205 120.525Z" fill="url(#paint12_linear_398_3818)"/>
<path d="M138.347 116.886L122.446 125.258L102.459 130.519C98.1918 125.894 99.6016 120.179 106.678 116.452C115.458 111.828 129.64 112.023 138.347 116.886Z" fill="url(#paint13_linear_398_3818)"/>
<path d="M102.459 130.519L101.875 167.345C100.239 165.572 99.4381 163.639 99.4702 161.719L100.054 124.893C100.021 126.813 100.823 128.746 102.459 130.519Z" fill="url(#paint14_linear_398_3818)"/>
</g>
<mask id="mask6_398_3818" style="mask-type:alpha" maskUnits="userSpaceOnUse" x="121" y="91" width="26" height="61">
<path d="M138.326 91.1572L122.288 99.7532C122.288 99.7532 121.935 148.234 121.928 148.753C121.921 149.271 139.112 152.521 142.998 151.796C144.127 150.256 144.601 148.512 144.601 148.512C144.601 148.512 144.895 106.804 146.228 100.47C147.561 94.1359 138.326 91.1572 138.326 91.1572Z" fill="#E2F0FD"/>
</mask>
<g mask="url(#mask6_398_3818)">
<path d="M122.447 125.198L121.783 173.704L142.567 173.989L143.25 129.943L122.447 125.198Z" fill="url(#paint15_linear_398_3818)"/>
<path d="M122.447 125.198L121.783 173.704L142.567 173.989L143.25 129.943L122.447 125.198Z" fill="url(#paint16_linear_398_3818)"/>
<path d="M144.834 125.75C144.816 126.152 144.761 126.553 144.67 126.951C144.58 127.346 144.454 127.739 144.292 128.128C144.126 128.527 143.922 128.921 143.68 129.31C143.548 129.523 143.335 129.733 143.18 129.942L142.525 177.07C142.68 176.861 142.824 176.649 142.956 176.437C143.197 176.048 143.401 175.653 143.568 175.254C143.729 174.866 143.856 174.473 143.946 174.078C144.037 173.679 144.091 173.278 144.109 172.877C144.112 172.815 144.114 172.753 144.115 172.691L144.839 125.565C144.838 125.627 144.837 125.689 144.834 125.75Z" fill="url(#paint17_linear_398_3818)"/>
<path d="M138.348 116.825C144.824 120.442 146.415 125.685 143.214 130.008L122.447 125.198L138.348 116.825Z" fill="url(#paint18_linear_398_3818)"/>
</g>
<path d="M143.248 130.05C142.141 131.541 140.468 132.929 138.219 134.114C129.434 138.739 115.253 138.545 106.541 133.68C104.848 132.734 103.49 131.682 102.458 130.565L122.446 125.305L143.248 130.05Z" fill="url(#paint19_linear_398_3818)"/>
<path d="M142.77 130.647C142.359 131.123 141.889 131.586 141.358 132.034C140.558 132.708 139.621 133.347 138.546 133.937C138.438 133.997 138.329 134.055 138.219 134.114C136.713 134.906 135.049 135.557 133.282 136.068C131.917 136.462 130.49 136.772 129.027 136.998C128.086 137.144 127.13 137.255 126.165 137.332C125.342 137.398 124.512 137.438 123.68 137.453C122.916 137.467 122.15 137.46 121.385 137.432C120.648 137.404 119.912 137.357 119.181 137.291C118.451 137.224 117.725 137.138 117.006 137.033C116.259 136.923 115.519 136.793 114.79 136.641C114 136.476 113.222 136.287 112.461 136.072C111.531 135.81 110.625 135.511 109.753 135.175C108.621 134.739 107.545 134.24 106.541 133.68C104.848 132.734 103.49 131.682 102.458 130.565L102.081 152.374C103.112 153.49 104.47 154.543 106.164 155.489C107.167 156.049 108.243 156.548 109.375 156.984C110.247 157.32 111.153 157.619 112.084 157.881C112.844 158.096 113.622 158.285 114.413 158.45C115.141 158.602 115.881 158.732 116.629 158.842C117.347 158.947 118.073 159.033 118.803 159.099C119.534 159.166 120.271 159.213 121.008 159.24C121.772 159.268 122.538 159.276 123.302 159.262C124.134 159.246 124.964 159.206 125.788 159.141C126.753 159.064 127.709 158.953 128.65 158.807C130.113 158.581 131.539 158.271 132.904 157.877C134.672 157.366 136.335 156.715 137.841 155.922C137.951 155.864 138.061 155.806 138.168 155.746C139.244 155.156 140.181 154.517 140.98 153.843C141.511 153.395 141.982 152.932 142.392 152.456C142.562 152.259 142.721 152.06 142.871 151.859L143.248 130.05C143.099 130.251 142.94 130.45 142.77 130.647Z" fill="url(#paint20_linear_398_3818)"/>
</g>
<mask id="mask7_398_3818" style="mask-type:luminance" maskUnits="userSpaceOnUse" x="-1" y="0" width="304" height="285">
<path d="M3.75928 0.509277L302.731 4.60462L298.896 284.578L-0.0758235 280.483L3.75928 0.509277Z" fill="white"/>
</mask>
<g mask="url(#mask7_398_3818)">
<mask id="mask8_398_3818" style="mask-type:alpha" maskUnits="userSpaceOnUse" x="145" y="122" width="40" height="41">
<path d="M158.928 123.331C143.499 127.917 145.067 134.68 145.067 134.68L145.05 151.079L167.939 162.866L184.618 147.926L184.634 126.535C184.634 126.535 171.817 119.501 158.928 123.331Z" fill="#E2F0FD"/>
</mask>
<g mask="url(#mask8_398_3818)">
<path d="M145.691 137.944L145.465 154.436L169.76 161.581L168.054 138.883L145.691 137.944Z" fill="url(#paint21_linear_398_3818)"/>
<path d="M183.954 130.51L183.657 152.204L167.642 166.384L168.054 138.883L183.954 130.51Z" fill="url(#paint22_linear_398_3818)"/>
<path d="M183.954 130.51L168.054 138.883L145.691 137.944C145.987 135.053 148.189 132.23 152.282 130.074C161.062 125.451 175.243 125.645 183.954 130.51Z" fill="url(#paint23_linear_398_3818)"/>
</g>
<mask id="mask9_398_3818" style="mask-type:alpha" maskUnits="userSpaceOnUse" x="144" y="140" width="25" height="42">
<path d="M144.715 140.184C144.715 140.184 145.003 169.682 144.964 172.533C144.947 173.787 146.255 175.866 148.195 177.592C150.669 179.793 153.911 181.342 153.911 181.342L168.28 158.203L168.306 141.156L144.715 140.184Z" fill="#E2F0FD"/>
</mask>
<g mask="url(#mask9_398_3818)">
<path d="M154.239 150.865L153.75 180.776C153.381 180.618 153.026 180.453 152.675 180.28C152.315 180.103 151.964 179.921 151.626 179.732C147.242 177.284 145.081 174.12 145.133 170.992L145.622 141.081C145.57 144.209 147.731 147.373 152.115 149.821C152.453 150.01 152.804 150.192 153.163 150.369C153.515 150.541 153.87 150.707 154.239 150.865Z" fill="url(#paint24_linear_398_3818)"/>
<path d="M168.019 141.446L154.238 150.865C153.87 150.707 153.514 150.541 153.163 150.369C152.803 150.192 152.453 150.01 152.115 149.821C147.462 147.223 145.313 143.819 145.656 140.507L168.019 141.446Z" fill="url(#paint25_linear_398_3818)"/>
<path d="M168.019 141.446L167.785 158.552L153.425 180.464L154.238 150.865L168.019 141.446Z" fill="url(#paint26_linear_398_3818)"/>
</g>
<path d="M190.296 149.953C190.278 150.355 190.223 150.756 190.132 151.155C190.042 151.55 189.916 151.942 189.754 152.331C189.588 152.731 189.384 153.125 189.141 153.515C188.88 153.936 188.574 154.35 188.223 154.756C187.814 155.229 187.345 155.69 186.815 156.135C186.003 156.818 185.049 157.464 183.954 158.062C183.863 158.111 183.771 158.16 183.678 158.209C183.629 158.235 183.572 158.255 183.522 158.281L154.129 158.822L153.75 180.776C154.112 180.934 154.481 181.085 154.856 181.23C155.721 181.563 156.619 181.859 157.542 182.119C158.306 182.335 159.088 182.526 159.883 182.691C160.61 182.842 161.348 182.973 162.094 183.082C162.812 183.187 163.538 183.274 164.268 183.34C164.999 183.406 165.734 183.453 166.471 183.48C167.232 183.509 167.996 183.516 168.757 183.502C169.592 183.487 170.425 183.446 171.252 183.381C172.223 183.304 173.185 183.192 174.132 183.044C175.576 182.82 176.984 182.514 178.332 182.126C180.111 181.615 181.785 180.961 183.299 180.164C183.391 180.115 183.483 180.066 183.574 180.016C184.669 179.419 185.624 178.773 186.436 178.09C186.965 177.644 187.434 177.183 187.843 176.71C188.194 176.305 188.5 175.891 188.762 175.47C189.004 175.08 189.208 174.685 189.375 174.285C189.537 173.897 189.663 173.504 189.753 173.109C189.844 172.711 189.898 172.31 189.916 171.908C189.919 171.847 189.921 171.785 189.922 171.724L190.301 149.769C190.3 149.831 190.299 149.892 190.296 149.953Z" fill="url(#paint27_linear_398_3818)"/>
<path d="M183.811 141.03C192.518 145.893 192.459 153.586 183.679 158.209C175.576 162.476 162.884 162.64 154.13 158.822L167.911 149.403L183.811 141.03Z" fill="url(#paint28_linear_398_3818)"/>
</g>
<path d="M74.2108 165.551L72.4421 166.482L70.0982 165.173L71.867 164.242L74.2108 165.551Z" fill="#ADB1BA"/>
<mask id="mask10_398_3818" style="mask-type:luminance" maskUnits="userSpaceOnUse" x="-1" y="-5" width="304" height="285">
<path d="M3.73389 -4.73779L302.706 -0.642453L298.871 279.331L-0.101214 275.236L3.73389 -4.73779Z" fill="white"/>
</mask>
<g mask="url(#mask10_398_3818)">
<g opacity="0.999998">
<path d="M90.9367 174.892L89.1677 175.824L74.1227 167.421L75.8914 166.489L90.9367 174.892Z" fill="url(#paint29_linear_398_3818)"/>
</g>
</g>
<path d="M94.2814 180.808L89.1928 183.488L62.9199 168.815L68.0085 166.135L94.2814 180.808Z" fill="#C4C5C4"/>
<path d="M94.8572 163.326L95.6631 165.487L91.7037 164.987L94.8572 163.326Z" fill="white"/>
<path d="M98.3253 162.254C100.708 163.585 100.692 165.689 98.2892 166.954C95.8863 168.219 92.0131 168.163 89.6305 166.833C87.2478 165.502 87.2637 163.404 89.6665 162.138C92.0694 160.873 95.9426 160.923 98.3253 162.254ZM91.7036 164.987L95.663 165.487L94.8571 163.326L91.7036 164.987Z" fill="url(#paint30_linear_398_3818)"/>
<mask id="mask11_398_3818" style="mask-type:alpha" maskUnits="userSpaceOnUse" x="109" y="177" width="46" height="27">
<path d="M127.59 177.611L109.036 187.922L137.272 203.477L154.516 192.759L127.59 177.611Z" fill="#E2F0FD"/>
</mask>
<g mask="url(#mask11_398_3818)">
<path d="M155.742 187.86L153.973 188.792L134.874 178.125L136.643 177.193L155.742 187.86Z" fill="#ADB1BA"/>
<path d="M130.78 177.983L129.011 178.915L127.242 177.927L129.011 176.995L130.78 177.983Z" fill="url(#paint31_linear_398_3818)"/>
<path d="M127.029 179.958L125.26 180.89L123.491 179.902L125.26 178.97L127.029 179.958Z" fill="url(#paint32_linear_398_3818)"/>
<path d="M139.693 196.994L138.455 197.646L127.055 191.279L128.294 190.627L139.693 196.994Z" fill="url(#paint33_linear_398_3818)"/>
<path d="M125.758 189.211L124.52 189.863L119.051 186.809L120.289 186.157L125.758 189.211Z" fill="url(#paint34_linear_398_3818)"/>
<path d="M149.058 188.192L147.289 189.123L131.128 180.098L132.897 179.166L149.058 188.192Z" fill="#ADB1BA"/>
<path d="M152.864 194.387L151.095 195.319L127.378 182.072L129.146 181.141L152.864 194.387Z" fill="#ADB1BA"/>
<path d="M147.02 195.188L145.251 196.119L123.631 184.045L125.4 183.113L147.02 195.188Z" fill="#ADB1BA"/>
</g>
<mask id="mask12_398_3818" style="mask-type:alpha" maskUnits="userSpaceOnUse" x="109" y="177" width="46" height="27">
<path d="M127.59 177.611L109.036 187.922L137.272 203.477L154.516 192.759L127.59 177.611Z" fill="#E2F0FD"/>
</mask>
<g mask="url(#mask12_398_3818)">
<path d="M137.719 198.788L135.95 199.72L116.852 189.053L118.62 188.121L137.719 198.788Z" fill="#ADB1BA"/>
<path d="M116.503 186.939L114.734 187.87L112.965 186.882L114.734 185.951L116.503 186.939Z" fill="url(#paint35_linear_398_3818)"/>
<path d="M112.757 188.911L110.988 189.843L109.219 188.855L110.988 187.923L112.757 188.911Z" fill="url(#paint36_linear_398_3818)"/>
<path d="M121.671 207.922L120.432 208.574L109.033 202.207L110.271 201.555L121.671 207.922Z" fill="url(#paint37_linear_398_3818)"/>
<path d="M131.035 199.12L129.267 200.051L113.106 191.026L114.875 190.094L131.035 199.12Z" fill="#ADB1BA"/>
<path d="M134.842 205.315L133.073 206.247L109.355 193.001L111.124 192.069L134.842 205.315Z" fill="#ADB1BA"/>
<path d="M128.998 206.116L127.229 207.047L105.609 194.973L107.378 194.041L128.998 206.116Z" fill="#ADB1BA"/>
</g>
</g>
<defs>
<linearGradient id="paint0_linear_398_3818" x1="149.121" y1="61.0984" x2="148.196" y2="100.685" gradientUnits="userSpaceOnUse">
<stop stop-color="#EEF4FB"/>
<stop offset="0.45" stop-color="#DFEBF7"/>
<stop offset="1" stop-color="#CFE1F3"/>
</linearGradient>
<linearGradient id="paint1_linear_398_3818" x1="27.8169" y1="184.671" x2="264.518" y2="187.913" gradientUnits="userSpaceOnUse">
<stop stop-color="#00D5FF"/>
<stop offset="0.5" stop-color="#00A9E2"/>
<stop offset="1" stop-color="#007DC6"/>
</linearGradient>
<linearGradient id="paint2_linear_398_3818" x1="-86.3855" y1="405.914" x2="-78.9668" y2="414.844" gradientUnits="userSpaceOnUse">
<stop stop-color="#EEF4FB"/>
<stop offset="0.45" stop-color="#DFEBF7"/>
<stop offset="1" stop-color="#CFE1F3"/>
</linearGradient>
<linearGradient id="paint3_linear_398_3818" x1="179.987" y1="91.8574" x2="189.542" y2="91.9883" gradientUnits="userSpaceOnUse">
<stop stop-color="#00BEF5"/>
<stop offset="0.5" stop-color="#009EDE"/>
<stop offset="1" stop-color="#007DC6"/>
</linearGradient>
<linearGradient id="paint4_linear_398_3818" x1="168.36" y1="91.6982" x2="177.915" y2="91.8291" gradientUnits="userSpaceOnUse">
<stop stop-color="#FFD71D"/>
<stop offset="0.5" stop-color="#FEC50F"/>
<stop offset="1" stop-color="#FEB200"/>
</linearGradient>
<linearGradient id="paint5_linear_398_3818" x1="174.323" y1="80.89" x2="183.877" y2="81.0208" gradientUnits="userSpaceOnUse">
<stop stop-color="#636EE0"/>
<stop offset="0.5" stop-color="#5554B9"/>
<stop offset="1" stop-color="#473B91"/>
</linearGradient>
<linearGradient id="paint6_linear_398_3818" x1="207.162" y1="88.859" x2="216.712" y2="88.9899" gradientUnits="userSpaceOnUse">
<stop stop-color="#FC9D00"/>
<stop offset="0.5" stop-color="#F87707"/>
<stop offset="1" stop-color="#F3510F"/>
</linearGradient>
<linearGradient id="paint7_linear_398_3818" x1="194.957" y1="90.5068" x2="204.511" y2="90.6377" gradientUnits="userSpaceOnUse">
<stop stop-color="#FFD71D"/>
<stop offset="0.5" stop-color="#FEC50F"/>
<stop offset="1" stop-color="#FEB200"/>
</linearGradient>
<linearGradient id="paint8_linear_398_3818" x1="200.625" y1="101.215" x2="210.179" y2="101.346" gradientUnits="userSpaceOnUse">
<stop stop-color="#E4E61D"/>
<stop offset="0.5" stop-color="#A1D22E"/>
<stop offset="0.99" stop-color="#5FBD3F"/>
</linearGradient>
<linearGradient id="paint9_linear_398_3818" x1="233.365" y1="116.443" x2="242.919" y2="116.574" gradientUnits="userSpaceOnUse">
<stop stop-color="#00BEF5"/>
<stop offset="0.5" stop-color="#009EDE"/>
<stop offset="1" stop-color="#007DC6"/>
</linearGradient>
<linearGradient id="paint10_linear_398_3818" x1="221.674" y1="120.95" x2="231.228" y2="121.081" gradientUnits="userSpaceOnUse">
<stop stop-color="#E4E61D"/>
<stop offset="0.5" stop-color="#A1D22E"/>
<stop offset="0.99" stop-color="#5FBD3F"/>
</linearGradient>
<linearGradient id="paint11_linear_398_3818" x1="228.02" y1="102.368" x2="237.574" y2="102.499" gradientUnits="userSpaceOnUse">
<stop stop-color="#FFD71D"/>
<stop offset="0.5" stop-color="#FEC50F"/>
<stop offset="1" stop-color="#FEB200"/>
</linearGradient>
<linearGradient id="paint12_linear_398_3818" x1="111.188" y1="182.377" x2="111.723" y2="128.497" gradientUnits="userSpaceOnUse">
<stop stop-color="#EC9706" stop-opacity="0.01"/>
<stop offset="0.5" stop-color="#E88303" stop-opacity="0.505"/>
<stop offset="1" stop-color="#E36E00"/>
</linearGradient>
<linearGradient id="paint13_linear_398_3818" x1="118.759" y1="114.808" x2="121.982" y2="172.553" gradientUnits="userSpaceOnUse">
<stop stop-color="#FFD71D"/>
<stop offset="0.5" stop-color="#FEC50F"/>
<stop offset="1" stop-color="#FEB200"/>
</linearGradient>
<linearGradient id="paint14_linear_398_3818" x1="99.5053" y1="145.918" x2="102.066" y2="145.953" gradientUnits="userSpaceOnUse">
<stop stop-color="#FFD71D"/>
<stop offset="0.5" stop-color="#FEC50F"/>
<stop offset="1" stop-color="#FEB200"/>
</linearGradient>
<linearGradient id="paint15_linear_398_3818" x1="131.612" y1="166.971" x2="133.188" y2="131.494" gradientUnits="userSpaceOnUse">
<stop stop-color="#636EE0"/>
<stop offset="0.5" stop-color="#5554B9"/>
<stop offset="1" stop-color="#473B91"/>
</linearGradient>
<linearGradient id="paint16_linear_398_3818" x1="131.612" y1="166.971" x2="133.188" y2="131.494" gradientUnits="userSpaceOnUse">
<stop stop-color="#4D4BB5" stop-opacity="0"/>
<stop offset="0.5" stop-color="#393298" stop-opacity="0.5"/>
<stop offset="1" stop-color="#261A7C"/>
</linearGradient>
<linearGradient id="paint17_linear_398_3818" x1="143.764" y1="169.211" x2="143.305" y2="135.433" gradientUnits="userSpaceOnUse">
<stop stop-color="#636EE0"/>
<stop offset="0.5" stop-color="#5554B9"/>
<stop offset="1" stop-color="#473B91"/>
</linearGradient>
<linearGradient id="paint18_linear_398_3818" x1="131.147" y1="120.034" x2="155.506" y2="166.439" gradientUnits="userSpaceOnUse">
<stop stop-color="#636EE0"/>
<stop offset="0.5" stop-color="#5554B9"/>
<stop offset="1" stop-color="#473B91"/>
</linearGradient>
<linearGradient id="paint19_linear_398_3818" x1="123.046" y1="125.303" x2="120.413" y2="171.08" gradientUnits="userSpaceOnUse">
<stop stop-color="#E4E61D"/>
<stop offset="0.5" stop-color="#A1D22E"/>
<stop offset="0.99" stop-color="#5FBD3F"/>
</linearGradient>
<linearGradient id="paint20_linear_398_3818" x1="122.779" y1="164.97" x2="122.571" y2="131.583" gradientUnits="userSpaceOnUse">
<stop stop-color="#E4E61D"/>
<stop offset="0.5" stop-color="#A1D22E"/>
<stop offset="0.99" stop-color="#5FBD3F"/>
</linearGradient>
<linearGradient id="paint21_linear_398_3818" x1="150.911" y1="162.823" x2="156.431" y2="141.41" gradientUnits="userSpaceOnUse">
<stop stop-color="#D0673E" stop-opacity="0"/>
<stop offset="0.5" stop-color="#C64B20" stop-opacity="0.5"/>
<stop offset="1" stop-color="#BB2F03"/>
</linearGradient>
<linearGradient id="paint22_linear_398_3818" x1="195.823" y1="168.753" x2="173.894" y2="139.927" gradientUnits="userSpaceOnUse">
<stop stop-color="#D35603" stop-opacity="0"/>
<stop offset="0.5" stop-color="#C74303" stop-opacity="0.5"/>
<stop offset="1" stop-color="#BB2F03"/>
</linearGradient>
<linearGradient id="paint23_linear_398_3818" x1="179.826" y1="123.808" x2="148.362" y2="142.617" gradientUnits="userSpaceOnUse">
<stop stop-color="#FC9D00"/>
<stop offset="0.5" stop-color="#F87707"/>
<stop offset="1" stop-color="#F3510F"/>
</linearGradient>
<linearGradient id="paint24_linear_398_3818" x1="140.067" y1="176.356" x2="152.974" y2="152.621" gradientUnits="userSpaceOnUse">
<stop stop-color="#FFD71D"/>
<stop offset="0.5" stop-color="#FEC50F"/>
<stop offset="1" stop-color="#FEB200"/>
</linearGradient>
<linearGradient id="paint25_linear_398_3818" x1="165.372" y1="148.181" x2="116.082" y2="121.358" gradientUnits="userSpaceOnUse">
<stop stop-color="#FFD71D"/>
<stop offset="0.5" stop-color="#FEC50F"/>
<stop offset="1" stop-color="#FEB200"/>
</linearGradient>
<linearGradient id="paint26_linear_398_3818" x1="167.817" y1="171.809" x2="156.381" y2="151.937" gradientUnits="userSpaceOnUse">
<stop stop-color="#E6EAED" stop-opacity="0"/>
<stop offset="0.5" stop-color="#E4AD77" stop-opacity="0.5"/>
<stop offset="1" stop-color="#E37100"/>
</linearGradient>
<linearGradient id="paint27_linear_398_3818" x1="172.629" y1="184.321" x2="172.037" y2="165.79" gradientUnits="userSpaceOnUse">
<stop stop-color="#00BEF5"/>
<stop offset="0.5" stop-color="#009EDE"/>
<stop offset="1" stop-color="#007DC6"/>
</linearGradient>
<linearGradient id="paint28_linear_398_3818" x1="176.715" y1="148.855" x2="126.4" y2="226.29" gradientUnits="userSpaceOnUse">
<stop stop-color="#00BEF5"/>
<stop offset="0.5" stop-color="#009EDE"/>
<stop offset="1" stop-color="#007DC6"/>
</linearGradient>
<linearGradient id="paint29_linear_398_3818" x1="73.9689" y1="170.783" x2="90.8821" y2="171.015" gradientUnits="userSpaceOnUse">
<stop stop-color="#00BEF5"/>
<stop offset="0.5" stop-color="#009EDE"/>
<stop offset="1" stop-color="#007DC6"/>
</linearGradient>
<linearGradient id="paint30_linear_398_3818" x1="87.8401" y1="164.23" x2="100.088" y2="164.397" gradientUnits="userSpaceOnUse">
<stop stop-color="#FC9D00"/>
<stop offset="0.5" stop-color="#F87707"/>
<stop offset="1" stop-color="#F3510F"/>
</linearGradient>
<linearGradient id="paint31_linear_398_3818" x1="127.05" y1="177.912" x2="130.587" y2="177.961" gradientUnits="userSpaceOnUse">
<stop stop-color="#FFD71D"/>
<stop offset="0.5" stop-color="#FEC50F"/>
<stop offset="1" stop-color="#FEB200"/>
</linearGradient>
<linearGradient id="paint32_linear_398_3818" x1="123.426" y1="179.678" x2="126.964" y2="179.726" gradientUnits="userSpaceOnUse">
<stop stop-color="#FFD71D"/>
<stop offset="0.5" stop-color="#FEC50F"/>
<stop offset="1" stop-color="#FEB200"/>
</linearGradient>
<linearGradient id="paint33_linear_398_3818" x1="126.829" y1="193.985" x2="139.543" y2="194.159" gradientUnits="userSpaceOnUse">
<stop stop-color="#E4E61D"/>
<stop offset="0.5" stop-color="#A1D22E"/>
<stop offset="0.99" stop-color="#5FBD3F"/>
</linearGradient>
<linearGradient id="paint34_linear_398_3818" x1="118.883" y1="187.913" x2="125.622" y2="188.005" gradientUnits="userSpaceOnUse">
<stop stop-color="#E4E61D"/>
<stop offset="0.5" stop-color="#A1D22E"/>
<stop offset="0.99" stop-color="#5FBD3F"/>
</linearGradient>
<linearGradient id="paint35_linear_398_3818" x1="112.931" y1="186.82" x2="116.469" y2="186.868" gradientUnits="userSpaceOnUse">
<stop stop-color="#FFD71D"/>
<stop offset="0.5" stop-color="#FEC50F"/>
<stop offset="1" stop-color="#FEB200"/>
</linearGradient>
<linearGradient id="paint36_linear_398_3818" x1="109.027" y1="188.84" x2="112.565" y2="188.889" gradientUnits="userSpaceOnUse">
<stop stop-color="#FFD71D"/>
<stop offset="0.5" stop-color="#FEC50F"/>
<stop offset="1" stop-color="#FEB200"/>
</linearGradient>
<linearGradient id="paint37_linear_398_3818" x1="108.807" y1="204.913" x2="121.521" y2="205.087" gradientUnits="userSpaceOnUse">
<stop stop-color="#E4E61D"/>
<stop offset="0.5" stop-color="#A1D22E"/>
<stop offset="0.99" stop-color="#5FBD3F"/>
</linearGradient>
</defs>
</svg>
