<svg width="883" height="510" viewBox="0 0 883 510" fill="none" xmlns="http://www.w3.org/2000/svg">
<path d="M629.312 65.302C624.425 62.4744 618.809 61.1591 613.174 61.5224C607.54 61.8856 602.14 63.9126 597.657 67.3449C593.174 70.7776 589.809 75.4623 587.989 80.8075C586.168 86.1518 585.973 91.9156 587.429 97.3717C588.884 102.827 591.924 107.729 596.164 111.457C600.405 115.185 605.656 117.571 611.253 118.314C616.85 119.058 622.541 118.126 627.609 115.635C632.676 113.144 636.891 109.206 639.72 104.321C641.599 101.075 642.821 97.4911 643.315 93.7743C643.809 90.0562 643.566 86.2782 642.599 82.6546C641.632 79.0315 639.962 75.634 637.682 72.6567C635.402 69.6793 632.558 67.1795 629.312 65.302ZM604.151 108.753C603.249 108.17 602.607 107.262 602.356 106.219C602.105 105.176 602.264 104.076 602.802 103.147C603.34 102.218 604.215 101.532 605.244 101.23C606.274 100.929 607.381 101.034 608.335 101.527C609.237 102.109 609.879 103.016 610.13 104.059C610.381 105.103 610.222 106.203 609.683 107.132C609.146 108.061 608.271 108.747 607.241 109.048C606.212 109.35 605.105 109.244 604.151 108.753ZM624.802 83.6063C620.939 88.522 617.041 93.7761 612.423 98.0586C611.316 99.0929 608.962 97.7298 609.308 96.2545C610.448 91.6849 611.89 87.196 613.622 82.8176C614.828 79.5984 615.865 73.8552 619.15 71.9553C622.098 70.196 626.316 72.2917 627.907 74.9924C629.859 78.3067 626.692 81.1414 624.802 83.6063Z" fill="#F26522"/>
<path d="M515.9 2.20208C505.89 -0.782916 495.22 -0.731896 485.239 2.3471C475.258 5.4271 466.415 11.3971 459.827 19.5031C453.239 27.6091 449.203 37.4861 448.23 47.8861C447.256 58.2851 449.387 68.7401 454.356 77.9281C459.324 87.1161 466.905 94.6251 476.141 99.5041C485.376 104.383 495.851 106.414 506.241 105.34C516.631 104.265 526.469 100.134 534.511 93.4681C542.552 86.8031 548.437 77.9021 551.42 67.8921C553.402 61.2461 554.055 54.2751 553.342 47.3771C552.63 40.4791 550.565 33.7891 547.267 27.6891C543.968 21.5891 539.501 16.1991 534.119 11.8261C528.737 7.45208 522.546 4.18208 515.9 2.20208ZM489.37 91.2021C487.463 90.5721 485.876 89.2241 484.946 87.4431C484.017 85.6631 483.818 83.5901 484.392 81.6651C484.966 79.7401 486.267 78.1151 488.02 77.1341C489.773 76.1531 491.839 75.8941 493.78 76.4121C494.778 76.6781 495.712 77.1421 496.527 77.7751C497.343 78.4091 498.023 79.2001 498.527 80.1011C499.031 81.0021 499.35 81.9961 499.463 83.0221C499.577 84.0481 499.483 85.0871 499.188 86.0771C498.893 87.0661 498.402 87.9871 497.745 88.7841C497.088 89.5801 496.278 90.2371 495.362 90.7151C494.447 91.1931 493.445 91.4821 492.416 91.5661C491.386 91.6491 490.351 91.5261 489.37 91.2021ZM515.67 37.0621C510.84 47.5721 506.08 58.7021 499.67 68.3921C498.13 70.7321 493.3 69.2921 493.29 66.4921C493.372 57.7901 494.04 49.1041 495.29 40.4921C496.07 34.2021 495.46 23.4221 500.55 18.5821C505.07 14.2521 513.55 16.1121 517.6 20.2721C522.47 25.3521 518.01 31.8221 515.67 37.0621Z" fill="#F26522"/>
<path d="M363.575 60.899C359.913 64.626 357.438 69.355 356.464 74.488C355.489 79.621 356.058 84.928 358.1 89.738C360.141 94.548 363.562 98.644 367.932 101.509C372.301 104.374 377.421 105.88 382.646 105.835C387.871 105.79 392.965 104.198 397.285 101.258C401.604 98.318 404.955 94.164 406.913 89.32C408.872 84.476 409.35 79.16 408.288 74.044C407.226 68.928 404.67 64.243 400.945 60.579C395.946 55.667 389.202 52.941 382.194 53.001C375.186 53.061 368.489 55.902 363.575 60.899ZM396.715 93.469C396.36 93.831 395.937 94.119 395.47 94.317C395.003 94.516 394.502 94.62 393.995 94.625C393.488 94.629 392.985 94.534 392.515 94.344C392.045 94.155 391.617 93.874 391.255 93.519C390.893 93.164 390.605 92.741 390.407 92.274C390.208 91.808 390.104 91.306 390.099 90.799C390.095 90.292 390.19 89.789 390.38 89.319C390.569 88.849 390.85 88.421 391.205 88.059C391.922 87.328 392.901 86.913 393.925 86.903C394.949 86.894 395.934 87.292 396.665 88.009C397.396 88.726 397.811 89.705 397.821 90.729C397.83 91.753 397.432 92.738 396.715 93.469ZM378.945 69.179C382.455 73.779 386.265 78.489 389.035 83.609C389.705 84.839 387.945 86.609 386.705 85.989C382.886 83.904 379.211 81.566 375.705 78.989C373.095 77.179 368.195 74.919 367.245 71.529C366.385 68.529 369.245 65.189 371.985 64.399C375.355 63.419 377.165 66.909 378.945 69.179Z" fill="#F26522"/>
<path d="M836.485 456.985C836.242 462.971 834.693 468.831 831.945 474.155C831.837 474.42 831.71 474.677 831.565 474.925C826.745 483.584 820.002 491.022 811.855 496.665L811.565 496.865C804.211 501.784 795.939 505.169 787.245 506.815C787.245 506.895 787.245 506.815 787.245 506.815H879.785C879.785 506.815 867.405 330.265 753.625 244.365C643.515 161.245 540.425 201.305 533.885 203.985C535.911 209.705 536.817 215.762 536.555 221.825C536.555 221.825 544.835 226.135 546.215 241.565C547.595 256.995 550.475 299.895 522.785 307.975C522.785 307.975 497.925 307.365 491.355 297.825C484.785 288.285 483.205 290.225 480.625 292.645C478.625 294.475 466.555 301.015 460.985 304.015C461.689 304.049 462.388 304.146 463.075 304.305C463.075 304.305 466.265 331.225 505.295 373.415C506.617 374.808 507.866 376.27 509.035 377.795C514.928 382.948 521.552 388.208 528.905 393.575L573.445 426.165C574.45 427.02 575.642 427.626 576.925 427.935C579.417 428.563 582.022 428.587 584.525 428.005C589.705 427.005 625.075 423.395 647.965 421.115C648.485 421.115 649.035 421.015 649.545 420.955L652.545 420.665C653.025 420.665 653.545 420.565 653.965 420.535L656.665 420.275C657.985 420.145 659.175 420.015 660.275 419.925L663.275 419.635C665.925 419.375 667.495 419.215 667.625 419.215C673.078 419.06 678.514 418.532 683.895 417.635C689.045 416.635 693.745 415.025 694.965 412.355C695.196 411.792 695.282 411.179 695.215 410.575C694.939 408.876 694.229 407.278 693.155 405.935C688.455 399.625 677.535 394.215 676.735 393.825C676.712 393.817 676.688 393.817 676.665 393.825L676.445 393.665L611.445 343.165H611.375C611.375 343.165 621.165 238.725 710.375 264.425C710.375 264.425 710.795 264.715 711.565 265.355C715.045 268.035 725.995 276.915 742.095 293.505C742.515 293.955 742.965 294.405 743.415 294.885C745.125 296.625 746.805 298.435 748.475 300.205C759.775 312.285 773.145 327.675 787.895 346.865L787.995 346.965C804.895 368.965 817.075 389.125 824.995 406.965V407.025C833.565 426.415 837.175 443.025 836.465 456.275C836.487 456.511 836.494 456.748 836.485 456.985ZM567.415 277.475C564.775 247.045 579.585 236.025 580.415 235.415C559.355 273.515 598.415 331.915 599.785 334.175C598.665 333.235 570.055 307.895 567.415 277.475Z" fill="#F26522"/>
<path d="M511.81 271.318C510.714 272.124 509.572 272.865 508.39 273.538L501.53 261.538C517.35 253.448 521.79 239.188 514.83 231.358C512.884 229.216 510.375 227.664 507.59 226.878C500.59 224.758 495.74 227.878 492.45 232.068C489.765 235.71 487.796 239.83 486.65 244.208L483.31 205.688L483.05 202.688C483.05 202.688 475.77 199.078 456.05 202.298C436.33 205.518 432.7 216.408 424.23 211.578C415.76 206.748 410.96 207.138 410.96 207.138C408.55 215.988 402.1 215.988 402.1 215.988C400.572 215.803 399.071 215.438 397.63 214.898C388.48 206.488 386 191.898 386 191.898C395.6 190.708 396.34 181.468 395.24 173.898C400.56 177.058 408.06 177.278 418.59 170.518C448.8 151.198 479.78 161.658 490.67 163.268C495.53 163.978 500.85 162.268 505.26 160.268C505.83 161.289 506.623 162.167 507.58 162.838C514.931 167.959 520.994 174.716 525.29 182.578C553.64 235.568 522.56 263.708 511.81 271.318Z" fill="#480F09" fill-opacity="0.8"/>
<path d="M398.505 506.939H409.905C414.781 506.934 419.455 504.994 422.903 501.547C426.35 498.099 428.29 493.425 428.295 488.549V475.789C428.295 474.626 428.066 473.474 427.62 472.4C427.175 471.325 426.522 470.349 425.699 469.527C424.876 468.705 423.9 468.054 422.825 467.61C421.75 467.165 420.598 466.938 419.435 466.939H351.255C351.258 469.655 350.724 472.345 349.686 474.854C348.648 477.364 347.124 479.644 345.203 481.564C343.282 483.484 341.001 485.006 338.491 486.044C335.981 487.081 333.291 487.613 330.575 487.609H84.2054C84.2084 492.735 86.2454 497.65 89.8704 501.274C93.4944 504.899 98.4094 506.936 103.535 506.939H437.535C437.971 506.94 438.404 506.855 438.807 506.689C439.21 506.522 439.577 506.278 439.886 505.969C440.194 505.661 440.439 505.294 440.605 504.891C440.771 504.488 440.856 504.055 440.855 503.619V482.909C440.855 478.885 442.453 475.027 445.298 472.182C448.143 469.337 452.002 467.739 456.025 467.739C460.048 467.739 463.907 469.337 466.752 472.182C469.597 475.027 471.195 478.885 471.195 482.909V503.619C471.194 504.054 471.278 504.486 471.444 504.889C471.61 505.291 471.853 505.657 472.161 505.966C472.468 506.274 472.834 506.519 473.236 506.686C473.638 506.853 474.069 506.939 474.505 506.939H879.985C879.985 506.939 867.605 330.349 753.825 244.459C643.715 161.339 540.625 201.399 534.085 204.079L533.765 204.199" stroke="#6B3D38" stroke-width="4.83" stroke-miterlimit="10"/>
<path d="M420.075 247.3C420.071 248.41 419.738 249.495 419.119 250.416C418.499 251.337 417.621 252.055 416.594 252.477C415.567 252.9 414.439 253.009 413.35 252.79C412.261 252.572 411.262 252.036 410.478 251.251C409.693 250.465 409.159 249.464 408.943 248.375C408.726 247.286 408.837 246.158 409.262 245.132C409.686 244.106 410.405 243.229 411.327 242.611C412.25 241.993 413.335 241.662 414.445 241.66C414.88 241.662 415.313 241.716 415.735 241.82C415.153 242.004 414.645 242.369 414.285 242.862C413.925 243.355 413.732 243.95 413.735 244.56C413.732 244.943 413.805 245.323 413.95 245.678C414.094 246.032 414.307 246.355 414.577 246.627C414.846 246.899 415.167 247.116 415.52 247.264C415.873 247.412 416.252 247.489 416.635 247.49C417.335 247.476 418.009 247.218 418.538 246.759C419.068 246.301 419.421 245.671 419.535 244.98C419.88 245.706 420.064 246.497 420.075 247.3Z" fill="black"/>
<path d="M459.085 248.868C459.087 249.984 458.758 251.076 458.139 252.005C457.521 252.933 456.641 253.658 455.61 254.086C454.58 254.515 453.446 254.628 452.351 254.411C451.256 254.195 450.25 253.658 449.46 252.87C448.671 252.082 448.133 251.077 447.914 249.982C447.696 248.888 447.807 247.754 448.233 246.722C448.66 245.691 449.383 244.81 450.311 244.19C451.238 243.569 452.329 243.238 453.445 243.238C453.714 243.236 453.983 243.267 454.245 243.328C453.746 243.558 453.324 243.926 453.028 244.389C452.731 244.851 452.574 245.389 452.575 245.938C452.541 246.708 452.813 247.459 453.332 248.027C453.852 248.595 454.576 248.934 455.345 248.968C456.114 249.003 456.865 248.73 457.434 248.211C458.002 247.691 458.341 246.968 458.375 246.198C458.837 247.013 459.081 247.932 459.085 248.868Z" fill="black"/>
<path d="M504.075 152.641C503.425 157.021 504.235 160.861 507.455 163.141C514.806 168.262 520.869 175.019 525.165 182.881C558.985 246.071 508.255 273.881 508.255 273.881L501.395 261.881C521.145 251.801 523.165 232.061 507.455 227.221C491.745 222.381 486.515 244.551 486.515 244.551L482.915 203.001C482.915 203.001 475.635 199.391 455.915 202.611C436.195 205.831 432.565 216.721 424.095 211.891C415.625 207.061 410.825 207.451 410.825 207.451C408.415 216.301 401.965 216.301 401.965 216.301C383.065 213.891 378.625 187.741 378.625 187.741C388.215 186.541 388.955 177.301 387.865 169.741C393.175 172.901 400.685 173.131 411.215 166.361C441.425 147.041 472.405 157.511 483.285 159.121C490.805 160.211 499.435 155.611 504.075 152.641Z" stroke="#6B3D38" stroke-width="4.83" stroke-linecap="round" stroke-linejoin="round"/>
<path d="M521.096 466L528.565 463L534.165 478.11L533.285 505.53L525.716 506.9L496.985 505.66C496.985 505.66 498.986 488.94 505.096 480.99C511.206 473.04 521.096 466 521.096 466Z" fill="#F26522"/>
<path d="M390.705 225.541C390.705 225.541 398.355 211.811 414.455 213.241" stroke="black" stroke-width="4.83" stroke-miterlimit="10"/>
<path d="M445.985 213.238C445.985 213.238 464.385 209.108 470.825 219.338" stroke="black" stroke-width="4.83" stroke-miterlimit="10"/>
<path d="M472.05 275.88C472.05 275.88 461.05 269.51 453 280.22" stroke="black" stroke-width="4.83" stroke-miterlimit="10"/>
<path d="M404.985 215.441C404.985 215.441 397.155 307.551 455.545 305.851C465.545 305.561 475.485 298.991 484.985 288.421" stroke="#6B3D38" stroke-width="4.83" stroke-miterlimit="10"/>
<path d="M508.27 297.1L485 288.72C485 288.72 490.77 307.16 519.35 308.57C547.93 309.98 557.52 244.39 536.52 218" stroke="#6B3D38" stroke-width="4.83" stroke-linejoin="round"/>
<path d="M598.885 482C598.885 482 577.555 499.31 592.045 507.36" stroke="#6B3D38" stroke-width="4.83" stroke-miterlimit="10"/>
<path d="M582.735 465.469C582.735 465.469 545.735 486.409 577.505 506.939" stroke="#6B3D38" stroke-width="4.83" stroke-miterlimit="10"/>
<path d="M570.592 449C570.592 449 521.482 472 559.322 506.57" stroke="#6B3D38" stroke-width="4.83" stroke-miterlimit="10"/>
<path d="M776.287 507.217C776.287 507.217 835.867 507.217 836.667 449.647C837.467 392.077 721.137 247.517 645.857 227.407C570.577 207.297 567.347 262.407 567.347 264.667C567.347 266.927 562.927 290.667 582.247 315.997C597.167 335.577 663.067 384.457 692.307 405.697C693.381 406.479 694.192 407.568 694.632 408.822C695.071 410.075 695.119 411.432 694.768 412.713C694.418 413.994 693.685 415.138 692.669 415.993C691.652 416.847 690.399 417.372 689.077 417.497L559.757 429.917H559.677C558.457 430.137 512.817 438.557 498.917 452.857C498.917 452.857 491.127 458.627 495.157 467.487C499.187 476.347 511.567 473.427 511.907 473.097" stroke="#6B3D38" stroke-width="4.83" stroke-miterlimit="10"/>
<path opacity="0.26" d="M453.455 259.329C462.347 259.329 469.555 252.121 469.555 243.229C469.555 234.337 462.347 227.129 453.455 227.129C444.563 227.129 437.355 234.337 437.355 243.229C437.355 252.121 444.563 259.329 453.455 259.329Z" fill="white"/>
<path opacity="0.26" d="M412.595 257.739C421.487 257.739 428.695 250.531 428.695 241.639C428.695 232.747 421.487 225.539 412.595 225.539C403.703 225.539 396.495 232.747 396.495 241.639C396.495 250.531 403.703 257.739 412.595 257.739Z" fill="white"/>
<path d="M551.765 463.461C546.105 461.881 536.855 460.461 527.325 463.521C522.665 465.022 518.365 467.47 514.695 470.711C513.895 471.411 513.125 472.121 512.385 472.831C510.79 474.395 509.284 476.047 507.875 477.781C507.69 478.01 507.426 478.163 507.135 478.211C503.585 478.701 480.215 482.401 480.335 494.211C480.445 504.821 492.065 506.561 496.065 506.841C496.23 506.856 496.396 506.837 496.553 506.785C496.71 506.732 496.855 506.648 496.978 506.537C497.101 506.426 497.2 506.291 497.268 506.14C497.337 505.99 497.373 505.826 497.375 505.661C497.375 501.881 498.235 490.031 507.585 478.111" stroke="#6B3D38" stroke-width="4.83" stroke-miterlimit="10"/>
<path d="M341.2 380C343.94 402.09 326.77 412.08 308 413.56" stroke="#6B3D38" stroke-width="4.83" stroke-miterlimit="10"/>
<path d="M280.833 408.732C273.676 404.866 267.879 398.894 264.226 391.626C260.574 384.357 259.243 376.142 260.413 368.092C263.413 346.842 281.413 330.542 299.033 320.202C336.033 298.492 419.413 314.202 433.423 317.402C444.163 319.862 453.143 311.462 456.783 307.402C456.938 307.23 457.138 307.105 457.361 307.044C457.584 306.982 457.82 306.986 458.041 307.054C458.262 307.123 458.459 307.253 458.608 307.43C458.757 307.607 458.853 307.822 458.883 308.052C466.573 353.052 555.883 414.132 576.543 427.802" stroke="#6B3D38" stroke-width="4.83" stroke-miterlimit="10"/>
<path d="M363.277 363.82L333.707 382.17C331.945 383.267 329.972 383.983 327.917 384.271C325.861 384.559 323.768 384.412 321.772 383.841C319.776 383.27 317.922 382.287 316.33 380.956C314.737 379.624 313.442 377.973 312.527 376.11C310.878 372.763 310.551 368.918 311.611 365.341C312.671 361.763 315.041 358.717 318.247 356.81L363.247 330" stroke="#6B3D38" stroke-width="4.83" stroke-miterlimit="10"/>
<path d="M453.455 259.329C462.347 259.329 469.555 252.121 469.555 243.229C469.555 234.337 462.347 227.129 453.455 227.129C444.563 227.129 437.355 234.337 437.355 243.229C437.355 252.121 444.563 259.329 453.455 259.329Z" stroke="black" stroke-width="4.83" stroke-miterlimit="10"/>
<path d="M412.595 255.329C420.156 255.329 426.285 249.2 426.285 241.639C426.285 234.078 420.156 227.949 412.595 227.949C405.034 227.949 398.905 234.078 398.905 241.639C398.905 249.2 405.034 255.329 412.595 255.329Z" stroke="white" stroke-width="4.83" stroke-miterlimit="10"/>
<path d="M412.595 257.739C421.487 257.739 428.695 250.531 428.695 241.639C428.695 232.747 421.487 225.539 412.595 225.539C403.703 225.539 396.495 232.747 396.495 241.639C396.495 250.531 403.703 257.739 412.595 257.739Z" stroke="black" stroke-width="4.83" stroke-miterlimit="10"/>
<path d="M437.435 241.641H428.695" stroke="black" stroke-width="4.83" stroke-miterlimit="10"/>
<path d="M437.435 264.391H431.675C431.313 264.391 430.955 264.312 430.627 264.158C430.299 264.004 430.009 263.779 429.778 263.5C429.546 263.221 429.38 262.895 429.289 262.544C429.199 262.193 429.187 261.827 429.255 261.471L433.065 241.641" stroke="black" stroke-width="4.83" stroke-miterlimit="10"/>
<path d="M321.865 319.34C321.865 319.34 301.335 323.77 294.095 354.77C289.695 373.59 283.655 397.6 279.595 413.56C279.074 415.607 279.028 417.746 279.459 419.814C279.891 421.882 280.79 423.824 282.086 425.492C283.383 427.16 285.043 428.51 286.94 429.438C288.838 430.367 290.922 430.85 293.035 430.85C296.189 430.85 299.25 429.776 301.711 427.803C304.173 425.831 305.888 423.078 306.575 420L315.165 381.46" stroke="#6B3D38" stroke-width="4.83" stroke-miterlimit="10"/>
<path d="M340.635 391.802C340.635 391.802 362.185 378.922 404.635 391.802C447.085 404.682 495.885 413.422 511.985 379.262" stroke="#6B3D38" stroke-width="4.83" stroke-miterlimit="10"/>
<path d="M527.335 463.52C527.335 463.52 542.335 480.64 533.215 506.94" stroke="#6B3D38" stroke-width="4.83" stroke-miterlimit="10"/>
<path d="M31.6654 250.629H268.665C276.299 250.619 283.714 253.178 289.716 257.894C295.718 262.611 299.959 269.21 301.755 276.629L339.485 432.889C340.503 437.105 340.551 441.498 339.626 445.735C338.701 449.973 336.826 453.946 334.143 457.354C331.459 460.762 328.038 463.517 324.136 465.411C320.234 467.305 315.953 468.289 311.615 468.289H75.2254C67.6064 468.296 60.2054 465.744 54.2104 461.042C48.2158 456.34 43.9738 449.76 42.1654 442.359L3.82542 286.129C2.79012 281.908 2.72792 277.507 3.64342 273.259C4.55892 269.011 6.42822 265.026 9.10992 261.607C11.7917 258.187 15.2158 255.422 19.1233 253.52C23.0309 251.618 27.3196 250.63 31.6654 250.629Z" fill="#F26522"/>
<path d="M40.9052 257H263.265C270.428 257.009 277.381 259.421 283.01 263.851C288.64 268.28 292.621 274.47 294.315 281.43L329.735 428.02C330.691 431.975 330.738 436.095 329.87 440.071C329.003 444.047 327.245 447.774 324.728 450.971C322.211 454.169 319.002 456.753 315.341 458.53C311.68 460.307 307.664 461.23 303.595 461.23H81.7752C74.6342 461.215 67.7032 458.811 62.0862 454.403C56.4682 449.994 52.4868 443.832 50.7752 436.9L14.7752 290.3C13.8031 286.339 13.7445 282.21 14.6039 278.223C15.4632 274.237 17.218 270.498 19.7354 267.29C22.2528 264.082 25.4669 261.488 29.1345 259.705C32.8022 257.923 36.8273 256.997 40.9052 257Z" fill="#F26522"/>
<path d="M31.6654 251H268.665C276.299 250.99 283.714 253.549 289.716 258.265C295.718 262.982 299.959 269.581 301.755 277L339.485 433.26C340.503 437.476 340.551 441.869 339.626 446.106C338.701 450.344 336.826 454.317 334.143 457.725C331.459 461.133 328.038 463.888 324.136 465.782C320.234 467.676 315.953 468.66 311.615 468.66H75.2254C67.6064 468.667 60.2054 466.115 54.2104 461.413C48.2158 456.711 43.9738 450.131 42.1654 442.73L3.82542 286.5C2.79012 282.279 2.72792 277.878 3.64342 273.63C4.55892 269.382 6.42822 265.397 9.10992 261.978C11.7917 258.558 15.2158 255.793 19.1233 253.891C23.0309 251.989 27.3196 251.001 31.6654 251Z" stroke="#6B3D38" stroke-width="4.83" stroke-miterlimit="10"/>
<path d="M142.665 354.71L128.535 288.84C128.242 287.447 127.478 286.197 126.373 285.3C125.268 284.402 123.889 283.912 122.465 283.91H52.5454C51.6048 283.913 50.6772 284.129 49.8326 284.543C48.9881 284.957 48.2487 285.557 47.6706 286.299C47.0925 287.041 46.6908 287.905 46.4958 288.825C46.3009 289.745 46.3178 290.698 46.5454 291.61L62.8954 358.25C63.0984 359.179 63.5314 360.042 64.1554 360.76C64.7154 361.472 65.4284 362.047 66.2424 362.444C67.0564 362.841 67.9504 363.048 68.8554 363.05H68.9854L136.655 362.25C137.569 362.237 138.468 362.022 139.289 361.621C140.11 361.22 140.833 360.643 141.405 359.93C141.988 359.207 142.403 358.364 142.621 357.462C142.839 356.559 142.854 355.619 142.665 354.71ZM51.2154 290.43C51.1647 290.233 51.1599 290.027 51.2015 289.827C51.2431 289.628 51.33 289.441 51.4554 289.28C51.5837 289.113 51.7487 288.977 51.9377 288.884C52.1266 288.79 52.3345 288.741 52.5454 288.74H122.465C122.78 288.739 123.086 288.846 123.33 289.045C123.575 289.244 123.742 289.521 123.805 289.83L134.565 340C98.6354 305.31 94.5654 345.11 94.5654 345.11C74.2854 334.55 68.4254 346.11 66.7254 353.72L51.2154 290.43Z" fill="#FCF7F4"/>
<path d="M71.4054 314.341C75.3054 313.131 77.1554 307.961 75.5554 302.791C73.9554 297.621 69.4854 294.421 65.5554 295.631C61.6254 296.841 59.8054 302.011 61.4154 307.171C63.0254 312.331 67.5154 315.551 71.4054 314.341Z" fill="#FCF7F4"/>
<path d="M88.5254 313.16H111.465C114.315 313.16 117.175 313.16 120.025 313.16H120.435C121.237 313.182 122.035 313.032 122.775 312.72C123.286 312.467 123.721 312.082 124.034 311.606C124.348 311.129 124.529 310.578 124.56 310.008C124.59 309.438 124.469 308.871 124.208 308.363C123.947 307.856 123.556 307.427 123.075 307.12C122.536 306.875 122.045 306.537 121.625 306.12C121.347 305.681 121.156 305.192 121.065 304.68C120.535 303.233 119.512 302.018 118.175 301.25C117.202 300.596 116.108 300.145 114.956 299.923C113.805 299.701 112.621 299.714 111.475 299.96C110.344 300.246 109.309 300.825 108.475 301.64C107.765 302.34 107.625 303.28 107.075 304.06C106.715 304.57 106.485 304.41 105.995 304.13C105.505 303.85 105.235 303.64 104.835 303.44C104.046 303.018 103.227 302.654 102.385 302.35C100.67 301.715 98.8414 301.446 97.0154 301.56C93.8054 301.81 90.6054 303.72 89.4854 306.74C88.4764 306.754 87.5044 307.127 86.7464 307.792C85.9874 308.457 85.4904 309.372 85.3454 310.37C85.2794 310.755 85.3044 311.151 85.4184 311.524C85.5334 311.898 85.7344 312.239 86.0054 312.52C86.7344 313.044 87.6344 313.272 88.5254 313.16Z" fill="#FDFEFE"/>
<path d="M252.985 311.738L251.145 304.168C249.911 299.079 247.002 294.553 242.884 291.317C238.767 288.081 233.682 286.324 228.445 286.328H203.175C200.292 286.325 197.447 286.987 194.861 288.263C192.276 289.539 190.02 291.394 188.268 293.685C186.517 295.975 185.318 298.639 184.764 301.468C184.21 304.297 184.317 307.217 185.075 309.998L187.165 317.688C188.5 322.636 191.429 327.005 195.498 330.12C199.568 333.235 204.55 334.921 209.675 334.918H234.795C237.632 334.916 240.432 334.269 242.983 333.027C245.534 331.784 247.77 329.979 249.521 327.747C251.273 325.515 252.495 322.914 253.095 320.141C253.695 317.368 253.657 314.495 252.985 311.738ZM225.195 313.608L216.565 318.918C216.233 319.129 215.856 319.261 215.464 319.302C215.072 319.343 214.676 319.293 214.307 319.155C213.938 319.018 213.606 318.796 213.336 318.509C213.067 318.221 212.868 317.875 212.755 317.498L209.505 306.878C209.369 306.407 209.369 305.906 209.506 305.435C209.643 304.964 209.911 304.541 210.278 304.217C210.646 303.892 211.099 303.678 211.583 303.601C212.068 303.523 212.564 303.585 213.015 303.778L224.985 309.068C225.413 309.261 225.78 309.567 226.046 309.954C226.311 310.341 226.465 310.793 226.491 311.262C226.517 311.731 226.413 312.197 226.192 312.611C225.97 313.025 225.639 313.37 225.235 313.608H225.195Z" fill="white"/>
<path d="M246.135 379.59H201.925C199.901 379.587 197.922 378.995 196.228 377.887C194.534 376.78 193.199 375.203 192.385 373.35C192.133 372.78 191.997 372.164 191.985 371.54C191.996 370.334 192.481 369.181 193.337 368.331C194.193 367.481 195.349 367.003 196.555 367H243.555C241.345 370.74 242.465 375.91 246.135 379.59Z" fill="#F9D0BC"/>
<path d="M275.985 375.198C275.982 376.402 275.503 377.555 274.652 378.406C273.802 379.257 272.648 379.736 271.445 379.738H247.345C243.675 376.058 242.555 370.888 244.765 367.148H265.985C268.006 367.149 269.982 367.737 271.676 368.839C273.369 369.941 274.706 371.511 275.525 373.358C275.802 373.934 275.958 374.56 275.985 375.198Z" fill="#694340"/>
<path d="M264.875 379.739C264.75 379.98 264.606 380.211 264.445 380.429C261.285 384.739 254.445 385.139 249.135 381.259C248.501 380.799 247.902 380.291 247.345 379.739C243.675 376.059 242.555 370.889 244.765 367.149C244.889 366.911 245.033 366.684 245.195 366.469C248.325 362.129 255.195 361.749 260.475 365.599C261.115 366.071 261.72 366.589 262.285 367.149C265.985 370.829 267.055 375.999 264.875 379.739Z" fill="white"/>
<path d="M287.055 403.001C287.044 404.207 286.559 405.36 285.703 406.21C284.847 407.06 283.691 407.538 282.485 407.541H107.265C109.505 403.781 108.385 398.631 104.705 394.961H277.115C279.137 394.96 281.116 395.549 282.808 396.656C284.501 397.762 285.834 399.338 286.645 401.191C286.904 401.76 287.044 402.376 287.055 403.001Z" fill="#6B3D38"/>
<path d="M107.265 407.49H85.4354C83.4144 407.491 81.4374 406.904 79.7434 405.801C78.0504 404.699 76.7134 403.128 75.8954 401.28C75.6384 400.701 75.5024 400.074 75.4954 399.44C75.4944 398.844 75.6104 398.254 75.8384 397.703C76.0664 397.152 76.4004 396.652 76.8224 396.231C77.2444 395.809 77.7454 395.476 78.2974 395.249C78.8484 395.023 79.4394 394.908 80.0354 394.91H104.705C108.385 398.58 109.505 403.73 107.265 407.49Z" fill="#FBCFBA"/>
<path d="M107.265 407.49C107.162 407.736 107.028 407.968 106.865 408.18C103.735 412.52 96.8654 412.89 91.5754 409.04C90.9384 408.568 90.3364 408.05 89.7754 407.49C86.1254 403.81 85.0054 398.67 87.1854 394.91C87.3064 394.667 87.4504 394.436 87.6154 394.22C90.7754 389.91 97.6154 389.51 102.925 393.38C103.559 393.841 104.154 394.353 104.705 394.91C108.385 398.58 109.505 403.73 107.265 407.49Z" fill="white"/>
<path d="M122.725 435.001H94.9854C92.9654 434.999 90.9883 434.412 89.2953 433.309C87.6023 432.207 86.2654 430.638 85.4454 428.791C85.1704 428.233 85.0134 427.623 84.9854 427.001C84.9884 425.793 85.4694 424.635 86.3244 423.78C87.1784 422.925 88.3363 422.444 89.5453 422.441H120.115C117.985 426.221 119.075 431.361 122.725 435.001Z" fill="#F9D0BC"/>
<path d="M296.565 430.532C296.549 431.732 296.058 432.876 295.199 433.714C294.341 434.552 293.185 435.015 291.985 435.002H122.725C119.075 431.322 117.955 426.182 120.135 422.422H286.625C288.647 422.421 290.626 423.01 292.318 424.117C294.011 425.223 295.344 426.799 296.155 428.652C296.42 429.244 296.559 429.884 296.565 430.532Z" fill="#694340"/>
<path d="M140.245 435.001C140.124 435.244 139.98 435.475 139.815 435.691C136.685 440.031 129.815 440.401 124.535 436.551C123.895 436.08 123.29 435.562 122.725 435.001C119.075 431.321 117.955 426.181 120.135 422.421C120.26 422.181 120.404 421.95 120.565 421.731C123.725 417.421 130.565 417.041 135.875 420.891C136.511 421.35 137.106 421.862 137.655 422.421C141.335 426.131 142.455 431.301 140.245 435.001Z" fill="white"/>
<g opacity="0.21">
<path opacity="0.21" d="M145.085 357.118L130.985 291.248C130.693 289.855 129.93 288.605 128.824 287.709C127.719 286.813 126.338 286.325 124.915 286.328H54.9855C54.0385 286.328 53.1045 286.545 52.2549 286.963C51.4053 287.38 50.6631 287.988 50.0855 288.738C49.5127 289.473 49.1158 290.329 48.9251 291.24C48.7344 292.152 48.7551 293.096 48.9855 293.998L65.3355 360.648C65.5355 361.576 65.9645 362.44 66.5855 363.158C67.1475 363.869 67.8635 364.444 68.6785 364.839C69.4945 365.234 70.3895 365.438 71.2955 365.438H71.4555L139.115 364.628C140.027 364.617 140.925 364.404 141.744 364.005C142.564 363.606 143.285 363.029 143.855 362.318C144.43 361.595 144.838 360.754 145.051 359.855C145.263 358.957 145.275 358.022 145.085 357.118ZM53.6255 292.848C53.5745 292.65 53.5705 292.443 53.6145 292.243C53.6575 292.044 53.7475 291.857 53.8755 291.698C54.0005 291.53 54.1635 291.393 54.3515 291.3C54.5385 291.206 54.7455 291.157 54.9555 291.158H124.875C125.19 291.156 125.496 291.262 125.742 291.458C125.988 291.655 126.158 291.93 126.225 292.238L136.985 342.408C101.045 307.708 96.9855 347.518 96.9855 347.518C76.7155 336.958 70.8455 348.518 69.1555 356.128L53.6255 292.848Z" fill="#F26522"/>
<path opacity="0.21" d="M73.5762 316.965C77.4662 315.755 79.3263 310.585 77.7163 305.425C76.1063 300.265 71.6563 297.045 67.7163 298.255C63.7763 299.465 61.9662 304.635 63.5663 309.805C65.1662 314.975 69.7362 318.215 73.5762 316.965Z" fill="#D7E8F0"/>
<path opacity="0.21" d="M90.9855 315.577H113.915C116.775 315.577 119.625 315.577 122.485 315.577H122.885C123.688 315.6 124.485 315.45 125.225 315.137C125.739 314.886 126.176 314.502 126.491 314.026C126.807 313.549 126.99 312.996 127.02 312.426C127.051 311.855 126.928 311.286 126.665 310.778C126.403 310.27 126.009 309.842 125.525 309.537C124.991 309.284 124.502 308.946 124.075 308.537C123.805 308.091 123.616 307.6 123.515 307.087C122.985 305.645 121.966 304.435 120.635 303.667C119.662 303.011 118.565 302.558 117.412 302.336C116.259 302.114 115.073 302.128 113.925 302.377C112.813 302.665 111.798 303.245 110.985 304.057C110.265 304.757 110.135 305.687 109.585 306.477C109.225 306.987 108.995 306.827 108.505 306.537C108.015 306.247 107.745 306.057 107.345 305.847C106.556 305.428 105.737 305.068 104.895 304.767C103.18 304.13 101.351 303.857 99.5255 303.967C96.3155 304.217 93.1155 306.137 91.9855 309.147C90.9765 309.164 90.0065 309.539 89.2495 310.206C88.4925 310.873 87.9985 311.789 87.8555 312.787C87.7905 313.172 87.8165 313.566 87.9285 313.939C88.0415 314.311 88.2385 314.653 88.5055 314.937C89.2275 315.443 90.1085 315.671 90.9855 315.577Z" fill="#F26522"/>
<path opacity="0.21" d="M255.445 314.148L253.605 306.588C252.369 301.497 249.459 296.97 245.341 293.732C241.222 290.495 236.135 288.736 230.896 288.738H205.586C202.706 288.736 199.865 289.398 197.282 290.673C194.699 291.947 192.445 293.799 190.695 296.086C188.944 298.372 187.744 301.032 187.187 303.857C186.631 306.683 186.733 309.599 187.486 312.378L189.576 320.078C190.913 325.027 193.844 329.397 197.915 332.511C201.986 335.626 206.969 337.312 212.095 337.308H237.216C240.054 337.309 242.854 336.666 245.408 335.427C247.961 334.188 250.199 332.385 251.954 330.155C253.71 327.925 254.937 325.326 255.54 322.553C256.146 319.781 256.113 316.907 255.445 314.148ZM227.646 315.998L218.986 321.338C218.654 321.55 218.278 321.681 217.887 321.722C217.496 321.763 217.101 321.713 216.732 321.575C216.364 321.438 216.032 321.216 215.764 320.929C215.496 320.641 215.298 320.295 215.186 319.918L211.986 309.288C211.852 308.818 211.854 308.319 211.992 307.849C212.13 307.38 212.398 306.959 212.766 306.635C213.133 306.312 213.584 306.099 214.068 306.022C214.551 305.945 215.046 306.006 215.496 306.198L227.376 311.478C227.798 311.673 228.157 311.979 228.419 312.363C228.681 312.746 228.835 313.194 228.862 313.658C228.89 314.121 228.792 314.584 228.577 314.996C228.363 315.408 228.041 315.754 227.646 315.998Z" fill="#D7E8F0"/>
<path opacity="0.21" d="M249.765 382.147H205.555C203.533 382.143 201.555 381.552 199.861 380.446C198.168 379.341 196.832 377.767 196.015 375.917C195.703 375.226 195.571 374.468 195.631 373.713C195.69 372.958 195.94 372.23 196.356 371.596C196.771 370.963 197.34 370.445 198.01 370.09C198.679 369.735 199.427 369.555 200.185 369.567H247.185C244.985 373.297 246.085 378.477 249.765 382.147Z" fill="#D7E8F0"/>
<path opacity="0.21" d="M278.345 377.606C278.345 378.809 277.868 379.962 277.019 380.813C276.17 381.664 275.017 382.144 273.815 382.146H249.765C246.085 378.476 244.965 373.296 247.175 369.566H268.405C270.426 369.565 272.404 370.151 274.098 371.254C275.792 372.356 277.128 373.928 277.945 375.776C278.201 376.353 278.337 376.976 278.345 377.606Z" fill="#3FBDF1"/>
<path opacity="0.21" d="M267.285 382.148C267.167 382.393 267.023 382.624 266.855 382.838C263.695 387.148 256.855 387.548 251.545 383.678C250.913 383.214 250.318 382.703 249.765 382.148C246.085 378.478 244.965 373.298 247.175 369.568C247.3 369.325 247.447 369.094 247.615 368.878C250.745 364.538 257.615 364.168 262.895 368.018C263.536 368.489 264.141 369.007 264.705 369.568C268.355 373.248 269.475 378.388 267.285 382.148Z" fill="white"/>
<path opacity="0.21" d="M289.465 405.366C289.454 406.571 288.969 407.724 288.113 408.572C287.258 409.42 286.1 409.896 284.895 409.896H109.685C111.925 406.136 110.805 400.996 107.125 397.316H279.525C281.55 397.316 283.531 397.906 285.225 399.015C286.92 400.123 288.254 401.701 289.065 403.556C289.322 404.126 289.458 404.742 289.465 405.366Z" fill="#3FBDF1"/>
<path opacity="0.21" d="M109.686 409.896H87.8455C85.8265 409.895 83.8505 409.309 82.1575 408.209C80.4645 407.108 79.1265 405.541 78.3055 403.696C78.0545 403.115 77.9185 402.49 77.9055 401.856C77.9055 400.652 78.3835 399.498 79.2355 398.646C80.0865 397.795 81.2415 397.316 82.4455 397.316H107.126C110.806 400.996 111.926 406.136 109.686 409.896Z" fill="#D7E8F0"/>
<path opacity="0.21" d="M109.686 409.899C109.583 410.147 109.445 410.38 109.276 410.589C106.146 414.929 99.2755 415.309 93.9955 411.459C93.3545 410.984 92.7495 410.462 92.1855 409.899C88.5355 406.229 87.4155 401.079 89.6055 397.319C89.7235 397.074 89.8675 396.842 90.0355 396.629C93.1955 392.319 100.036 391.919 105.346 395.799C105.975 396.262 106.57 396.77 107.126 397.319C110.806 400.999 111.926 406.139 109.686 409.899Z" fill="white"/>
<path opacity="0.21" d="M124.705 437.58H96.9255C94.9065 437.576 92.9325 436.989 91.2395 435.889C89.5475 434.789 88.2085 433.223 87.3855 431.38C87.1345 430.809 86.9985 430.194 86.9855 429.57C86.9905 428.36 87.4735 427.2 88.3295 426.345C89.1855 425.489 90.3455 425.005 91.5555 425H122.125C119.935 428.76 121.055 433.91 124.705 437.58Z" fill="#3FBDF1"/>
<path opacity="0.21" d="M298.985 432.937C298.984 433.532 298.865 434.12 298.636 434.668C298.407 435.217 298.072 435.715 297.651 436.134C297.229 436.553 296.729 436.885 296.179 437.11C295.629 437.335 295.039 437.45 294.445 437.447H125.135C121.485 433.777 120.365 428.627 122.555 424.867H289.035C291.06 424.867 293.041 425.457 294.735 426.565C296.429 427.674 297.764 429.252 298.575 431.107C298.835 431.683 298.974 432.306 298.985 432.937Z" fill="#D7E8F0"/>
<path opacity="0.21" d="M142.665 437.449C142.54 437.692 142.393 437.923 142.225 438.139C139.095 442.479 132.225 442.859 126.945 439.009C126.304 438.534 125.699 438.013 125.135 437.449C121.485 433.779 120.365 428.629 122.555 424.869C122.673 424.624 122.817 424.393 122.985 424.179C126.145 419.869 132.985 419.499 138.295 423.349C138.924 423.812 139.519 424.32 140.075 424.869C143.755 428.549 144.875 433.719 142.665 437.449Z" fill="white"/>
</g>
</svg>
