<svg width="942" height="631" viewBox="0 0 942 631" fill="none" xmlns="http://www.w3.org/2000/svg">
  <g clip-path="url(#clip0_123_3709)">
    <path d="M807.305 187.376H406.542V453.727H807.305V187.376Z" fill="#DEE8F5" />
    <path opacity="0.55" d="M811.785 183.1H397.798V250.791H811.785V183.1Z" fill="#8DBCFA" />
    <path d="M882.122 472.412H331.725V500.03H882.122V472.412Z" fill="#F3F5FD" />
    <path d="M862.813 444.794H351.034V472.412H862.813V444.794Z" fill="#F3F5FD" />
    <path d="M862.813 465.023H351.034V472.412H862.813V465.023Z" fill="#7EA9E1" />
    <path d="M882.122 492.641H331.725V500.03H882.122V492.641Z" fill="#7EA9E1" />
    <path d="M900.581 500.029H314V527.647H900.581V500.029Z" fill="#F3F5FD" />
    <path d="M900.581 520.259H314V527.648H900.581V520.259Z" fill="#7EA9E1" />
    <path d="M434.291 208.137H390.002V432.365H434.291V208.137Z" fill="#F3F5FD" />
    <path d="M546.016 208.137H501.727V432.365H546.016V208.137Z" fill="#F3F5FD" />
    <path d="M823.844 208.137H779.555V432.365H823.844V208.137Z" fill="#F3F5FD" />
    <path
      d="M376.665 187.376H447.629V212.82C447.629 213.673 447.29 214.49 446.687 215.093C446.084 215.696 445.267 216.035 444.414 216.035H379.881C379.028 216.035 378.211 215.696 377.608 215.093C377.005 214.49 376.666 213.673 376.666 212.82L376.665 187.376Z"
      fill="#7EA9E1" />
    <path
      d="M488.389 187.376H559.353V212.82C559.353 213.242 559.27 213.66 559.108 214.05C558.947 214.44 558.71 214.795 558.411 215.093C558.113 215.392 557.759 215.629 557.368 215.79C556.978 215.952 556.56 216.035 556.138 216.035H491.605C490.752 216.035 489.935 215.696 489.332 215.093C488.729 214.49 488.39 213.673 488.39 212.82L488.389 187.376Z"
      fill="#7EA9E1" />
    <path
      d="M766.218 187.376H837.182V212.82C837.182 213.673 836.843 214.49 836.24 215.093C835.637 215.696 834.819 216.035 833.967 216.035H769.434C768.581 216.035 767.763 215.696 767.16 215.093C766.557 214.49 766.219 213.673 766.219 212.82L766.218 187.376Z"
      fill="#7EA9E1" />
    <path
      d="M379.881 424.69H444.414C444.836 424.69 445.254 424.773 445.644 424.935C446.034 425.096 446.389 425.333 446.687 425.632C446.986 425.93 447.223 426.284 447.384 426.675C447.546 427.065 447.629 427.483 447.629 427.905V444.793H376.665V427.906C376.665 427.484 376.748 427.065 376.91 426.675C377.071 426.285 377.308 425.93 377.607 425.632C377.905 425.333 378.26 425.096 378.65 424.934C379.04 424.773 379.459 424.69 379.881 424.69Z"
      fill="#C1D8ED" />
    <path
      d="M491.605 424.69H556.138C556.56 424.69 556.978 424.773 557.368 424.935C557.759 425.096 558.113 425.333 558.411 425.632C558.71 425.93 558.947 426.284 559.108 426.675C559.27 427.065 559.353 427.483 559.353 427.905V444.793H488.389V427.906C488.389 427.484 488.472 427.065 488.634 426.675C488.795 426.285 489.032 425.93 489.331 425.632C489.629 425.333 489.984 425.096 490.374 424.934C490.765 424.773 491.183 424.69 491.605 424.69Z"
      fill="#7EA9E1" />
    <path
      d="M769.434 424.69H833.967C834.389 424.69 834.807 424.773 835.197 424.935C835.587 425.096 835.942 425.333 836.24 425.632C836.539 425.93 836.775 426.284 836.937 426.675C837.099 427.065 837.182 427.483 837.182 427.905V444.793H766.218V427.906C766.218 427.484 766.301 427.065 766.462 426.675C766.624 426.285 766.861 425.93 767.159 425.632C767.458 425.333 767.813 425.096 768.203 424.934C768.593 424.773 769.011 424.69 769.434 424.69Z"
      fill="#7EA9E1" />
    <path
      d="M406.519 228.338C406.519 227.107 405.521 226.109 404.29 226.109C403.059 226.109 402.061 227.107 402.061 228.338V412.164C402.061 413.395 403.059 414.393 404.29 414.393C405.521 414.393 406.519 413.395 406.519 412.164V228.338Z"
      fill="#C1D8ED" />
    <path
      d="M422.232 228.338C422.232 227.107 421.234 226.109 420.003 226.109C418.772 226.109 417.774 227.107 417.774 228.338V412.164C417.774 413.395 418.772 414.393 420.003 414.393C421.234 414.393 422.232 413.395 422.232 412.164V228.338Z"
      fill="#C1D8ED" />
    <path
      d="M518.244 228.338C518.244 227.107 517.246 226.109 516.015 226.109C514.784 226.109 513.786 227.107 513.786 228.338V412.164C513.786 413.395 514.784 414.393 516.015 414.393C517.246 414.393 518.244 413.395 518.244 412.164V228.338Z"
      fill="#C1D8ED" />
    <path
      d="M533.956 228.338C533.956 227.107 532.958 226.109 531.727 226.109C530.496 226.109 529.498 227.107 529.498 228.338V412.164C529.498 413.395 530.496 414.393 531.727 414.393C532.958 414.393 533.956 413.395 533.956 412.164V228.338Z"
      fill="#C1D8ED" />
    <path d="M715.568 208.137H671.279V432.365H715.568V208.137Z" fill="#F3F5FD" />
    <path
      d="M657.941 187.376H728.905V212.82C728.905 213.673 728.566 214.49 727.963 215.093C727.36 215.696 726.543 216.035 725.69 216.035H661.157C660.304 216.035 659.486 215.696 658.884 215.093C658.281 214.49 657.942 213.673 657.942 212.82L657.941 187.376Z"
      fill="#7EA9E1" />
    <path
      d="M661.157 424.69H725.689C726.111 424.69 726.529 424.773 726.919 424.935C727.309 425.096 727.664 425.333 727.962 425.632C728.261 425.93 728.498 426.284 728.659 426.675C728.821 427.065 728.904 427.483 728.904 427.905V444.793H657.941V427.906C657.941 427.484 658.024 427.065 658.185 426.675C658.347 426.285 658.584 425.93 658.883 425.632C659.181 425.333 659.536 425.096 659.926 424.934C660.316 424.773 660.735 424.69 661.157 424.69Z"
      fill="#7EA9E1" />
    <path
      d="M687.796 228.338C687.796 227.107 686.798 226.109 685.567 226.109C684.336 226.109 683.338 227.107 683.338 228.338V412.164C683.338 413.395 684.336 414.393 685.567 414.393C686.798 414.393 687.796 413.395 687.796 412.164V228.338Z"
      fill="#7EA9E1" />
    <path
      d="M703.508 228.338C703.508 227.107 702.51 226.109 701.279 226.109C700.048 226.109 699.05 227.107 699.05 228.338V412.164C699.05 413.395 700.048 414.393 701.279 414.393C702.51 414.393 703.508 413.395 703.508 412.164V228.338Z"
      fill="#7EA9E1" />
    <path
      d="M796.072 228.338C796.072 227.107 795.074 226.109 793.843 226.109C792.612 226.109 791.614 227.107 791.614 228.338V412.164C791.614 413.395 792.612 414.393 793.843 414.393C795.074 414.393 796.072 413.395 796.072 412.164V228.338Z"
      fill="#7EA9E1" />
    <path
      d="M811.785 228.338C811.785 227.107 810.787 226.109 809.556 226.109C808.325 226.109 807.327 227.107 807.327 228.338V412.164C807.327 413.395 808.325 414.393 809.556 414.393C810.787 414.393 811.785 413.395 811.785 412.164V228.338Z"
      fill="#7EA9E1" />
    <path
      d="M856.542 177.393V193.703C856.542 194.58 856.193 195.421 855.573 196.042C854.952 196.662 854.111 197.01 853.234 197.01H359.583C358.706 197.01 357.865 196.661 357.245 196.041C356.625 195.421 356.276 194.58 356.276 193.703V178.094C356.276 177.324 356.464 176.566 356.824 175.885C357.184 175.205 357.705 174.622 358.342 174.189L604.263 6.81818C605.047 6.28508 605.973 6 606.92 6C607.868 6 608.794 6.28508 609.578 6.81818L854.478 173.488C855.114 173.922 855.634 174.504 855.994 175.185C856.354 175.865 856.542 176.623 856.542 177.393Z"
      fill="#8DBCFA" />
    <path
      d="M790.632 169.485H423.215C422.943 169.486 422.678 169.399 422.46 169.237C422.241 169.076 422.079 168.849 421.999 168.589C421.919 168.329 421.925 168.05 422.014 167.794C422.104 167.537 422.274 167.316 422.499 167.163L606.205 42.1333C606.416 41.9901 606.665 41.9136 606.92 41.9136C607.175 41.9136 607.424 41.9901 607.635 42.1333L791.347 167.163C791.572 167.316 791.742 167.537 791.832 167.794C791.922 168.05 791.927 168.329 791.847 168.588C791.767 168.848 791.606 169.075 791.387 169.237C791.169 169.398 790.904 169.485 790.632 169.485Z"
      fill="#F3F5FD" />
    <path
      d="M728.368 77.792C749.85 77.792 767.264 60.3777 767.264 38.896C767.264 17.4143 749.85 0 728.368 0C706.886 0 689.472 17.4143 689.472 38.896C689.472 60.3777 706.886 77.792 728.368 77.792Z"
      fill="#BC360C" />
    <g opacity="0.29">
      <path
        d="M728.368 64.1101C742.294 64.1101 753.582 52.8214 753.582 38.8961C753.582 24.9708 742.294 13.6821 728.368 13.6821C714.443 13.6821 703.154 24.9708 703.154 38.8961C703.154 52.8214 714.443 64.1101 728.368 64.1101Z"
        fill="white" />
    </g>
    <path
      d="M720.115 47.9L722.467 44.253C723.916 45.543 725.759 46.3034 727.696 46.41C729.775 46.41 730.689 45.547 730.689 43.878C730.689 40.105 721.008 40.173 721.008 33.555C721.008 29.3 723.955 26.59 728.602 26.59C729.922 26.5709 731.23 26.8394 732.436 27.3768C733.642 27.9142 734.716 28.7076 735.584 29.702L732.884 32.792C732.376 32.2324 731.76 31.7804 731.075 31.4625C730.389 31.1445 729.646 30.9672 728.89 30.941C727.125 30.941 726.168 31.652 726.168 33.3C726.168 36.8 735.849 36.492 735.849 43.5C735.849 47.711 733.062 50.757 727.694 50.757C724.916 50.6955 722.242 49.6876 720.115 47.9ZM726.565 23H730.143V28.28H726.565V23ZM726.565 48.563H730.143V54.363H726.565V48.563Z"
      fill="white" />
    <path
      d="M777.324 165.651C795.028 165.651 809.379 151.299 809.379 133.596C809.379 115.893 795.028 101.541 777.324 101.541C759.621 101.541 745.269 115.893 745.269 133.596C745.269 151.299 759.621 165.651 777.324 165.651Z"
      fill="#BC360C" />
    <g opacity="0.29">
      <path
        d="M777.324 154.376C788.8 154.376 798.104 145.072 798.104 133.596C798.104 122.119 788.8 112.816 777.324 112.816C765.847 112.816 756.544 122.119 756.544 133.596C756.544 145.072 765.847 154.376 777.324 154.376Z"
        fill="white" />
    </g>
    <path
      d="M770.522 141.019L772.461 138.013C773.655 139.076 775.174 139.703 776.77 139.79C778.484 139.79 779.237 139.08 779.237 137.704C779.237 134.594 771.259 134.65 771.259 129.196C771.259 125.69 773.687 123.457 777.517 123.457C778.605 123.442 779.683 123.663 780.676 124.106C781.67 124.548 782.555 125.202 783.271 126.021L781.048 128.568C780.629 128.107 780.122 127.734 779.556 127.472C778.991 127.21 778.379 127.064 777.756 127.042C776.302 127.042 775.513 127.629 775.513 128.986C775.513 131.869 783.491 131.617 783.491 137.395C783.491 140.865 781.191 143.376 776.77 143.376C774.48 143.325 772.276 142.493 770.522 141.019ZM775.838 120.495H778.787V124.848H775.838V120.495ZM775.838 141.562H778.787V146.338H775.838V141.562Z"
      fill="white" />
    <path d="M299.395 385.172H293.199V497.508H299.395V385.172Z" fill="#DEE8F5" />
    <path
      d="M292.824 309.366C312.785 309.366 328.967 293.184 328.967 273.223C328.967 253.262 312.785 237.08 292.824 237.08C272.862 237.08 256.681 253.262 256.681 273.223C256.681 293.184 272.862 309.366 292.824 309.366Z"
      fill="#8DDBE0" />
    <path
      d="M313.933 410.166C331.758 410.166 346.209 395.716 346.209 377.89C346.209 360.065 331.758 345.614 313.933 345.614C296.107 345.614 281.657 360.065 281.657 377.89C281.657 395.716 296.107 410.166 313.933 410.166Z"
      fill="#8DDBE0" />
    <path
      d="M275.466 412.349C294.497 412.349 309.925 396.921 309.925 377.89C309.925 358.859 294.497 343.431 275.466 343.431C256.435 343.431 241.007 358.859 241.007 377.89C241.007 396.921 256.435 412.349 275.466 412.349Z"
      fill="#8DDBE0" />
    <path
      d="M318.412 338.334C334.41 338.334 347.38 325.365 347.38 309.366C347.38 293.367 334.41 280.398 318.412 280.398C302.413 280.398 289.444 293.367 289.444 309.366C289.444 325.365 302.413 338.334 318.412 338.334Z"
      fill="#8DDBE0" />
    <path
      d="M296.297 355.736C312.295 355.736 325.265 342.767 325.265 326.768C325.265 310.77 312.295 297.8 296.297 297.8C280.298 297.8 267.329 310.77 267.329 326.768C267.329 342.767 280.298 355.736 296.297 355.736Z"
      fill="#8DDBE0" />
    <path
      d="M330.804 367.302C346.803 367.302 359.772 354.333 359.772 338.334C359.772 322.336 346.803 309.366 330.804 309.366C314.805 309.366 301.836 322.336 301.836 338.334C301.836 354.333 314.805 367.302 330.804 367.302Z"
      fill="#8DDBE0" />
    <path
      d="M260.475 337.304C276.473 337.304 289.443 324.335 289.443 308.336C289.443 292.338 276.473 279.368 260.475 279.368C244.476 279.368 231.507 292.338 231.507 308.336C231.507 324.335 244.476 337.304 260.475 337.304Z"
      fill="#8DDBE0" />
    <path
      d="M260.475 373.246C276.473 373.246 289.443 360.277 289.443 344.278C289.443 328.279 276.473 315.31 260.475 315.31C244.476 315.31 231.507 328.279 231.507 344.278C231.507 360.277 244.476 373.246 260.475 373.246Z"
      fill="#8DDBE0" />
    <path
      d="M403.269 497.509H276C266.665 490.058 266.021 473.272 275.7 465.776C283.159 459.999 294.434 461.544 301.445 467.554C300.135 463.08 300.109 458.328 301.37 453.84C303.65 445.756 308.716 437.548 316.453 434.28C336.197 425.949 350.227 443.404 353.036 453.164C358.091 445.73 369.399 441.801 376.497 446.805C385.488 453.143 385.081 463.135 377.909 470.305C387.465 468.523 394.662 469.898 401.29 477.012C406.333 482.429 407.105 491.657 403.269 497.509Z"
      fill="#498D92" />
    <path d="M861.887 475.092H855.691V587.428H861.887V475.092Z" fill="#676C73" />
    <path
      d="M855.317 399.286C875.278 399.286 891.46 383.104 891.46 363.143C891.46 343.182 875.278 327 855.317 327C835.356 327 819.174 343.182 819.174 363.143C819.174 383.104 835.356 399.286 855.317 399.286Z"
      fill="#498D92" />
    <path
      d="M876.426 500.086C894.251 500.086 908.702 485.636 908.702 467.81C908.702 449.985 894.251 435.534 876.426 435.534C858.6 435.534 844.15 449.985 844.15 467.81C844.15 485.636 858.6 500.086 876.426 500.086Z"
      fill="#498D92" />
    <path
      d="M837.959 502.269C856.99 502.269 872.418 486.841 872.418 467.81C872.418 448.779 856.99 433.351 837.959 433.351C818.928 433.351 803.5 448.779 803.5 467.81C803.5 486.841 818.928 502.269 837.959 502.269Z"
      fill="#498D92" />
    <path
      d="M880.904 428.254C896.903 428.254 909.872 415.284 909.872 399.286C909.872 383.287 896.903 370.318 880.904 370.318C864.905 370.318 851.936 383.287 851.936 399.286C851.936 415.284 864.905 428.254 880.904 428.254Z"
      fill="#498D92" />
    <path
      d="M858.789 445.656C874.788 445.656 887.757 432.687 887.757 416.688C887.757 400.69 874.788 387.72 858.789 387.72C842.791 387.72 829.821 400.69 829.821 416.688C829.821 432.687 842.791 445.656 858.789 445.656Z"
      fill="#498D92" />
    <path
      d="M893.296 457.222C909.295 457.222 922.264 444.253 922.264 428.254C922.264 412.256 909.295 399.286 893.296 399.286C877.298 399.286 864.328 412.256 864.328 428.254C864.328 444.253 877.298 457.222 893.296 457.222Z"
      fill="#498D92" />
    <path
      d="M822.968 427.224C838.967 427.224 851.936 414.255 851.936 398.256C851.936 382.257 838.967 369.288 822.968 369.288C806.969 369.288 794 382.257 794 398.256C794 414.255 806.969 427.224 822.968 427.224Z"
      fill="#498D92" />
    <path
      d="M822.968 463.166C838.967 463.166 851.936 450.197 851.936 434.198C851.936 418.199 838.967 405.23 822.968 405.23C806.969 405.23 794 418.199 794 434.198C794 450.197 806.969 463.166 822.968 463.166Z"
      fill="#498D92" />
    <path
      d="M811.553 585.417H684.285C674.949 577.966 674.306 561.18 683.985 553.684C691.444 547.907 702.719 549.452 709.729 555.462C708.419 550.988 708.393 546.236 709.654 541.748C711.934 533.664 717.001 525.456 724.738 522.188C744.481 513.857 758.512 531.312 761.321 541.072C766.376 533.638 777.684 529.709 784.781 534.713C793.772 541.051 793.365 551.043 786.193 558.213C795.749 556.431 802.946 557.806 809.575 564.92C814.617 570.337 815.39 579.565 811.553 585.417Z"
      fill="#498D92" />
    <path
      d="M197.694 186.7C197.694 162.055 185.022 142.339 160.666 142.339C138.689 142.339 124.766 162.345 124.766 186.7"
      fill="#BEA78C" fill-opacity="0.9" />
    <path
      d="M160.667 142.335C185 142.335 197.654 162.019 197.694 186.628C197.714 186.806 197.724 186.985 197.722 187.164V422.821C197.694 428.664 198.821 434.455 201.038 439.862C203.255 445.268 206.518 450.184 210.64 454.325C214.762 458.467 219.662 461.753 225.058 463.996C230.453 466.238 236.239 467.393 242.082 467.393C247.926 467.393 253.712 466.238 259.107 463.996C264.503 461.753 269.403 458.467 273.525 454.325C277.647 450.184 280.91 445.268 283.127 439.862C285.344 434.455 286.471 428.664 286.443 422.821H427.733V191.621C427.733 165.235 412.5 143.486 386.114 142.33L160.667 142.335Z"
      fill="#AC9B87" />
    <path
      d="M242.084 467.18H427.732C433.558 467.18 439.326 466.033 444.709 463.804C450.091 461.575 454.981 458.307 459.101 454.188C463.22 450.068 466.488 445.178 468.717 439.796C470.947 434.414 472.094 428.645 472.094 422.819H286.445C286.469 428.652 285.339 434.431 283.118 439.824C280.897 445.217 277.63 450.117 273.506 454.242C269.382 458.366 264.482 461.632 259.089 463.853C253.696 466.074 247.916 467.205 242.084 467.18Z"
      fill="url(#paint0_linear_123_3709)" />
    <path
      d="M265.557 237.676H360.789C365.084 237.676 368.565 234.195 368.565 229.901C368.565 225.606 365.084 222.125 360.789 222.125H265.557C261.262 222.125 257.781 225.606 257.781 229.901C257.781 234.195 261.262 237.676 265.557 237.676Z"
      fill="#FAFBFC" />
    <path
      d="M387.995 275.541H238.351C236.521 275.541 235.038 277.024 235.038 278.854V278.855C235.038 280.685 236.521 282.168 238.351 282.168H387.995C389.825 282.168 391.308 280.685 391.308 278.855V278.854C391.308 277.024 389.825 275.541 387.995 275.541Z"
      fill="#FAFBFC" />
    <path
      d="M387.995 259.627H238.351C236.521 259.627 235.038 261.11 235.038 262.94V262.941C235.038 264.771 236.521 266.254 238.351 266.254H387.995C389.825 266.254 391.308 264.771 391.308 262.941V262.94C391.308 261.11 389.825 259.627 387.995 259.627Z"
      fill="#FAFBFC" />
    <path
      d="M387.995 291.454H238.351C236.521 291.454 235.038 292.937 235.038 294.767V294.768C235.038 296.598 236.521 298.081 238.351 298.081H387.995C389.825 298.081 391.308 296.598 391.308 294.768V294.767C391.308 292.937 389.825 291.454 387.995 291.454Z"
      fill="#FAFBFC" />
    <path
      d="M387.995 307.368H238.351C236.521 307.368 235.038 308.851 235.038 310.681V310.682C235.038 312.512 236.521 313.995 238.351 313.995H387.995C389.825 313.995 391.308 312.512 391.308 310.682V310.681C391.308 308.851 389.825 307.368 387.995 307.368Z"
      fill="#FAFBFC" />
    <path
      d="M387.995 323.282H238.351C236.521 323.282 235.038 324.765 235.038 326.595V326.596C235.038 328.426 236.521 329.909 238.351 329.909H387.995C389.825 329.909 391.308 328.426 391.308 326.596V326.595C391.308 324.765 389.825 323.282 387.995 323.282Z"
      fill="#FAFBFC" />
    <path
      d="M387.995 355.11H238.351C236.521 355.11 235.038 356.593 235.038 358.423V358.424C235.038 360.254 236.521 361.737 238.351 361.737H387.995C389.825 361.737 391.308 360.254 391.308 358.424V358.423C391.308 356.593 389.825 355.11 387.995 355.11Z"
      fill="#FAFBFC" />
    <path
      d="M387.995 339.196H238.351C236.521 339.196 235.038 340.68 235.038 342.509V342.51C235.038 344.34 236.521 345.823 238.351 345.823H387.995C389.825 345.823 391.308 344.34 391.308 342.51V342.509C391.308 340.68 389.825 339.196 387.995 339.196Z"
      fill="#FAFBFC" />
    <path
      d="M342.993 371.023H283.353C281.523 371.023 280.04 372.506 280.04 374.336V374.337C280.04 376.167 281.523 377.65 283.353 377.65H342.993C344.823 377.65 346.306 376.167 346.306 374.337V374.336C346.306 372.506 344.823 371.023 342.993 371.023Z"
      fill="#FAFBFC" />
    <path
      d="M31.992 175.259C31.839 160.391 37.715 151.177 45.683 146.117C53.545 141.125 78.198 136.78 87.546 154.902C93.646 166.727 91.237 170.954 92.965 189.893C94.6929 208.832 101.331 210.82 108.065 233.775C113.345 251.783 83.77 261.342 58.154 260.516C32.538 259.69 16.304 254.016 14.817 237.729C12.681 214.349 32.293 204.4 31.992 175.259Z"
      fill="#0F1011" />
    <path
      d="M47.2529 216.369C47.2529 216.369 54.9529 212.199 53.0279 191.159L68.9769 188.05C68.9769 188.05 67.3549 206.944 75.4919 212.864L47.2529 216.369Z"
      fill="#E98862" />
    <g opacity="0.2">
      <path d="M72.1819 208.947L58.8169 198.915L69.2399 198.715C69.5748 202.279 70.5726 205.749 72.1819 208.947Z"
        fill="black" />
    </g>
    <path
      d="M43.8887 183.077C45.0537 189.455 48.5947 195.477 54.2487 197.485C60.4135 199.867 67.0673 200.703 73.6297 199.922C91.1057 198.328 87.2807 158.593 78.9067 150.945C70.5327 143.297 46.2067 148.412 43.3637 161.359C41.8917 168.055 42.7807 177.007 43.8887 183.077Z"
      fill="#E98862" />
    <path
      d="M68.8479 177.927C69.6482 177.927 70.2969 177.279 70.2969 176.478C70.2969 175.678 69.6482 175.029 68.8479 175.029C68.0477 175.029 67.3989 175.678 67.3989 176.478C67.3989 177.279 68.0477 177.927 68.8479 177.927Z"
      fill="#0F1011" />
    <path
      d="M80.2698 176.885C81.0701 176.885 81.7188 176.237 81.7188 175.436C81.7188 174.636 81.0701 173.987 80.2698 173.987C79.4695 173.987 78.8208 174.636 78.8208 175.436C78.8208 176.237 79.4695 176.885 80.2698 176.885Z"
      fill="#0F1011" />
    <path
      d="M82.7459 172.325L78.9069 172.312C78.7309 172.305 78.5644 172.231 78.4423 172.104C78.3202 171.977 78.252 171.808 78.252 171.632C78.252 171.456 78.3202 171.286 78.4423 171.159C78.5644 171.033 78.7309 170.958 78.9069 170.951L82.7459 170.964C82.9218 170.971 83.0883 171.046 83.2104 171.172C83.3326 171.299 83.4008 171.469 83.4008 171.645C83.4008 171.821 83.3326 171.99 83.2104 172.117C83.0883 172.244 82.9218 172.318 82.7459 172.325Z"
      fill="#0F1011" />
    <path
      d="M65.691 173.882C65.5245 173.882 65.3638 173.822 65.239 173.712C65.1143 173.601 65.0342 173.449 65.0139 173.284C64.9936 173.119 65.0344 172.952 65.1288 172.815C65.2231 172.678 65.3644 172.58 65.526 172.54L69.3 171.6C69.4751 171.556 69.6606 171.583 69.8156 171.676C69.9706 171.769 70.0824 171.919 70.1265 172.095C70.1705 172.27 70.1431 172.455 70.0504 172.61C69.9577 172.765 69.8071 172.877 69.632 172.921L65.856 173.866C65.8018 173.878 65.7464 173.883 65.691 173.882Z"
      fill="#0F1011" />
    <path
      d="M69.623 187.883C69.623 187.883 74.977 188.398 78.713 187.054C78.713 187.054 78.713 190.577 74.487 190.963C70.261 191.349 69.623 187.883 69.623 187.883Z"
      fill="#F8FCFF" />
    <path
      d="M55.5051 166.418C55.1251 195.272 52.3441 206.48 52.3441 206.48C52.3441 206.48 38.6821 189.97 36.6201 172.485C34.6871 156.093 46.6891 146.295 54.8411 144.393C85.8221 137.166 87.9731 159.764 87.9731 159.764C85.9731 167.473 52.1501 172.255 52.1501 172.255"
      fill="#0F1011" />
    <path
      d="M61.5891 182.79C61.7371 184.412 61.2345 186.027 60.192 187.279C59.1495 188.531 57.6524 189.317 56.0301 189.465C55.2268 189.538 54.4169 189.453 53.6467 189.213C52.8765 188.973 52.1611 188.584 51.5413 188.068C50.2895 187.026 49.5031 185.528 49.3551 183.906C49.2676 183.1 49.3433 182.285 49.5776 181.509C49.8118 180.733 50.1999 180.012 50.7186 179.389C51.2373 178.767 51.8761 178.254 52.5969 177.884C53.3177 177.513 54.1057 177.291 54.9141 177.231C59.2901 177.048 61.2811 179.412 61.5891 182.79Z"
      fill="#E98862" />
    <g opacity="0.2">
      <path
        d="M75.3488 184.456C75.2292 184.456 75.1135 184.414 75.0226 184.336C74.9318 184.258 74.8718 184.15 74.8535 184.032C74.8353 183.914 74.8599 183.793 74.9231 183.692C74.9863 183.59 75.0837 183.515 75.1978 183.479L78.1358 182.547L76.0358 177.976C76.0061 177.916 75.9887 177.851 75.9847 177.784C75.9807 177.717 75.9901 177.65 76.0124 177.587C76.0347 177.524 76.0694 177.466 76.1144 177.417C76.1595 177.368 76.214 177.328 76.2747 177.3C76.3354 177.272 76.4012 177.256 76.468 177.254C76.5348 177.252 76.6014 177.263 76.6638 177.287C76.7262 177.311 76.7831 177.348 76.8312 177.394C76.8793 177.441 76.9175 177.496 76.9438 177.558L79.2838 182.643C79.3127 182.708 79.3276 182.778 79.3276 182.849C79.3276 182.92 79.3127 182.99 79.2838 183.055C79.2551 183.12 79.2129 183.177 79.1602 183.225C79.1074 183.272 79.0453 183.307 78.9778 183.329L75.4998 184.429C75.4511 184.445 75.4002 184.455 75.3488 184.456Z"
        fill="black" />
    </g>
    <path
      d="M103.315 352.814C123.265 440.702 141.33 529.18 155.586 618.181L135.546 622.303C113.515 534.903 95.1881 446.477 78.8281 357.851L103.315 352.814Z"
      fill="#E98862" />
    <path
      d="M62.0769 358.258C63.9089 445.571 63.7769 533.079 59.8059 620.332H39.3469C35.3779 533.08 35.2469 445.57 37.0769 358.258H62.0769Z"
      fill="#E98862" />
    <path
      d="M86.276 628.4C86.8407 628.397 87.3988 628.278 87.9154 628.05C88.432 627.822 88.896 627.49 89.2785 627.074C89.661 626.659 89.9538 626.169 90.1385 625.635C90.3232 625.102 90.3959 624.536 90.352 623.973C90.2913 623.192 90.0088 622.445 89.5377 621.82C89.0666 621.195 88.4265 620.717 87.693 620.444L63.251 612.257C62.7774 612.1 62.2755 612.047 61.7796 612.102C61.2838 612.157 60.8056 612.319 60.378 612.576C57.0182 614.908 52.9988 616.099 48.911 615.976C45.7269 615.749 42.6704 614.633 40.09 612.754C39.8633 612.568 39.5883 612.45 39.2972 612.414C39.0061 612.378 38.7108 612.426 38.4458 612.552C38.1809 612.678 37.9572 612.877 37.8008 613.125C37.6445 613.373 37.562 613.66 37.563 613.954V625.906C37.5629 626.258 37.6324 626.608 37.7676 626.933C37.9028 627.259 38.1011 627.555 38.351 627.804C38.6008 628.052 38.8974 628.25 39.2236 628.383C39.5499 628.517 39.8994 628.585 40.252 628.584L86.276 628.4Z"
      fill="#7EA9E1" />
    <path
      d="M180.009 628.4C180.574 628.397 181.132 628.278 181.648 628.05C182.165 627.822 182.629 627.49 183.011 627.074C183.394 626.659 183.687 626.169 183.871 625.635C184.056 625.102 184.129 624.536 184.085 623.973C184.024 623.192 183.742 622.446 183.271 621.82C182.8 621.195 182.16 620.717 181.427 620.444L156.984 612.257C156.51 612.1 156.009 612.047 155.513 612.102C155.017 612.157 154.539 612.319 154.112 612.576C150.752 614.908 146.732 616.1 142.644 615.976C139.46 615.75 136.404 614.633 133.824 612.754C133.597 612.568 133.322 612.45 133.031 612.414C132.74 612.379 132.444 612.427 132.18 612.552C131.915 612.678 131.691 612.877 131.534 613.125C131.378 613.373 131.295 613.66 131.296 613.954V625.906C131.296 626.258 131.366 626.608 131.501 626.933C131.636 627.259 131.834 627.554 132.084 627.803C132.334 628.052 132.631 628.249 132.957 628.383C133.283 628.517 133.632 628.585 133.985 628.584L180.009 628.4Z"
      fill="#7EA9E1" />
    <path
      d="M24.4 320.563C24.4 320.563 13.04 371.434 13.04 414.216C13.04 456.998 0 523.26 0 523.26C0 523.26 36.967 517.28 62.044 523.26C105.253 533.563 144 511.128 144 511.128L100.48 325.258L24.4 320.563Z"
      fill="#262626" />
    <path
      d="M221.05 272.931C221.05 272.931 229.259 268.942 235.424 270.472C241.589 272.002 238.701 274.656 234.214 275.6C229.727 276.544 219.871 278.08 219.871 278.08"
      fill="#E98862" />
    <path
      d="M225.845 272.743C225.845 272.743 241.063 271.143 241.221 274.805C241.221 274.805 241.888 286.105 239.821 287.848C236.7 290.484 221.242 288.419 221.242 288.419L225.845 272.743Z"
      fill="#E98862" />
    <path
      d="M185.615 291.408H126.136C124.375 291.408 122.642 290.965 121.097 290.12C119.552 289.274 118.245 288.054 117.295 286.571L79.7129 227.9L97.3999 216.576L131.884 270.408H185.619L185.615 291.408Z"
      fill="#4B93FF" />
    <path
      d="M105.3 327.2C101.11 336.83 18.78 340.83 17.68 323.89C16.98 313.11 26.48 303.7 26.48 282.69C26.48 261.68 7.15003 234.85 22.9 219.1C27.47 214.53 35.36 211.58 44.98 211.57C45.7 217.18 79.76 217.2 80.02 211.7C81.32 211.72 82.33 211.74 82.96 211.77C116.14 213.2 101.56 250.96 101.24 278.7C100.852 311.156 109.622 317.276 105.3 327.2Z"
      fill="#4B93FF" />
    <path
      d="M80.0219 211.7C79.7619 217.2 76.7719 225.29 67.5419 225.9C55.2419 226.71 45.7019 217.18 44.9819 211.57H45.0119C57.1219 211.566 72.9619 211.586 80.0219 211.7Z"
      fill="#E98862" />
    <path
      d="M176.882 340.908C210.019 340.908 236.882 314.045 236.882 280.908C236.882 247.771 210.019 220.908 176.882 220.908C143.745 220.908 116.882 247.771 116.882 280.908C116.882 314.045 143.745 340.908 176.882 340.908Z"
      fill="#BC360C" />
    <g opacity="0.29">
      <path
        d="M176.882 319.804C198.364 319.804 215.778 302.39 215.778 280.908C215.778 259.427 198.364 242.012 176.882 242.012C155.4 242.012 137.986 259.427 137.986 280.908C137.986 302.39 155.4 319.804 176.882 319.804Z"
        fill="white" />
    </g>
    <path
      d="M164.151 294.8L167.779 289.174C170.655 291.374 173.17 292.501 175.846 292.501C179.052 292.501 180.463 291.171 180.463 288.596C180.463 282.775 165.529 282.88 165.529 272.671C165.529 266.108 170.075 261.928 177.244 261.928C179.28 261.899 181.298 262.313 183.158 263.142C185.017 263.971 186.675 265.195 188.014 266.728L183.852 271.495C181.796 269.625 180.052 268.64 177.69 268.64C174.968 268.64 173.49 269.74 173.49 272.279C173.49 277.674 188.424 277.203 188.424 288.018C188.424 294.518 184.124 299.218 175.844 299.218C171.557 299.12 167.432 297.562 164.151 294.8ZM174.101 256.383H179.62V264.531H174.1L174.101 256.383ZM174.101 295.817H179.62V304.757H174.1L174.101 295.817Z"
      fill="white" />
    <path
      d="M239.816 287.851C239.536 288.074 239.222 288.252 238.887 288.379C237.093 288.749 232.572 287.667 231.847 286.413C230.667 284.372 231.399 276.998 232.44 274.323C233.417 271.823 238.283 272.869 238.922 272.988C238.942 272.995 238.962 273 238.983 273.004C240.31 273.368 241.183 273.936 241.22 274.809C241.22 274.809 241.89 286.1 239.816 287.851Z"
      fill="#E98862" />
    <path
      d="M107.336 294.668C107.336 294.668 109.745 281.514 119.051 283.804C124.922 285.248 141.985 282.67 142.244 290.209C142.469 296.751 126.444 298.495 121.144 297.95C116.387 297.461 107.336 294.668 107.336 294.668Z"
      fill="#E98862" />
    <path
      d="M115.643 283.658C115.643 283.658 129.486 281.616 132.578 282.931C135.316 284.095 128.578 287.731 128.578 287.731L115.643 283.658Z"
      fill="#E98862" />
    <path
      d="M120.071 301.973L58.1909 300.085C56.2595 300.026 54.3784 299.455 52.7404 298.43C51.1024 297.405 49.7662 295.963 48.8689 294.252L18.3169 236L37.6269 225.873L65.2209 278.488L120.736 280.182L120.071 301.973Z"
      fill="#4B93FF" />
    <path
      d="M480.077 619.943L500.866 617.47C499.93 609.602 498.875 600.151 498.801 598.601C498.801 598.701 498.801 598.782 498.801 598.845H477.87C477.87 599.473 477.87 601.382 480.077 619.943Z"
      fill="#E98862" />
    <path
      d="M563.493 622.444L584.428 622.375C584.428 622.375 584.358 600.758 584.358 598.844H563.423C563.423 600.764 563.493 622.444 563.493 622.444Z"
      fill="#E98862" />
    <path
      d="M509.234 613.331L472.354 612.703C473.887 573.861 474.147 529.434 474.56 489.233C474.674 479.269 475.427 469.322 476.813 459.453C482.747 416.863 486.613 374.513 494.606 332.171L494.872 332.25L495.652 326.936L571.492 322.255L575.44 371.806C575.44 371.806 585.319 543.219 589.824 612.142L553.069 615.248C546.447 547.673 536.2 449.209 529.9 378.22C522.661 412.781 517.742 448.568 511.443 482.834C510.18 525.727 509.117 570.566 509.234 613.331Z"
      fill="#262626" />
    <path
      d="M538.044 630.542C537.481 630.538 536.925 630.419 536.411 630.192C535.896 629.964 535.434 629.633 535.052 629.219C534.671 628.805 534.379 628.317 534.195 627.785C534.01 627.254 533.937 626.69 533.98 626.128C534.041 625.35 534.323 624.606 534.793 623.983C535.263 623.359 535.9 622.883 536.631 622.61L561 614.449C561.472 614.292 561.973 614.24 562.467 614.295C562.962 614.35 563.438 614.511 563.864 614.768C567.214 617.092 571.221 618.28 575.296 618.157C578.47 617.932 581.517 616.819 584.089 614.946C584.316 614.76 584.59 614.642 584.881 614.607C585.171 614.572 585.466 614.62 585.73 614.745C585.995 614.871 586.218 615.07 586.373 615.318C586.529 615.566 586.611 615.853 586.609 616.146V628.061C586.609 628.412 586.54 628.76 586.405 629.085C586.27 629.409 586.072 629.704 585.823 629.952C585.574 630.2 585.279 630.397 584.953 630.53C584.628 630.664 584.28 630.732 583.928 630.73L538.044 630.542Z"
      fill="#7EA9E1" />
    <path
      d="M454.571 630.542C454.008 630.538 453.452 630.419 452.938 630.192C452.423 629.964 451.96 629.633 451.579 629.219C451.198 628.805 450.906 628.317 450.722 627.785C450.537 627.254 450.464 626.69 450.507 626.129C450.568 625.351 450.85 624.606 451.319 623.983C451.789 623.36 452.426 622.883 453.157 622.61L477.524 614.449C477.996 614.292 478.496 614.24 478.991 614.295C479.485 614.35 479.961 614.511 480.387 614.768C483.737 617.092 487.745 618.28 491.82 618.158C494.994 617.932 498.041 616.819 500.613 614.946C500.839 614.76 501.114 614.642 501.404 614.607C501.695 614.571 501.99 614.619 502.254 614.745C502.518 614.871 502.741 615.07 502.897 615.318C503.052 615.566 503.134 615.853 503.132 616.146V628.061C503.132 628.412 503.063 628.76 502.928 629.085C502.793 629.409 502.596 629.704 502.347 629.952C502.098 630.2 501.802 630.397 501.477 630.53C501.152 630.664 500.804 630.732 500.452 630.731L454.571 630.542Z"
      fill="#7EA9E1" />
    <path
      d="M549.362 217.851C549.362 217.851 541.453 213.658 543.219 192.119L526.877 189.089C526.877 189.089 528.713 208.4 520.446 214.531L549.362 217.851Z"
      fill="#E98862" />
    <g opacity="0.2">
      <path d="M523.795 210.493L537.371 200.107L526.708 200C526.399 203.648 525.411 207.207 523.795 210.493Z"
        fill="black" />
    </g>
    <path
      d="M552.491 183.768C551.36 190.302 547.791 196.49 542.03 198.601C535.747 201.095 528.949 202.013 522.23 201.276C504.34 199.809 507.879 159.132 516.372 151.23C524.865 143.328 549.793 148.33 552.825 161.548C554.393 168.383 553.568 177.548 552.491 183.768Z"
      fill="#E98862" />
    <path
      d="M526.9 178.734C527.718 178.734 528.382 178.071 528.382 177.253C528.382 176.434 527.718 175.771 526.9 175.771C526.081 175.771 525.418 176.434 525.418 177.253C525.418 178.071 526.081 178.734 526.9 178.734Z"
      fill="#0F1011" />
    <path
      d="M515.207 177.776C516.026 177.776 516.689 177.112 516.689 176.294C516.689 175.475 516.026 174.812 515.207 174.812C514.389 174.812 513.725 175.475 513.725 176.294C513.725 177.112 514.389 177.776 515.207 177.776Z"
      fill="#0F1011" />
    <path
      d="M512.639 173.135H512.648L516.574 173.086C516.747 173.068 516.906 172.986 517.022 172.857C517.138 172.727 517.201 172.559 517.2 172.386C517.199 172.212 517.133 172.045 517.016 171.917C516.899 171.789 516.738 171.71 516.565 171.693H516.556L512.63 171.742C512.458 171.761 512.298 171.843 512.182 171.972C512.067 172.102 512.003 172.269 512.004 172.443C512.006 172.617 512.071 172.783 512.188 172.911C512.306 173.039 512.466 173.119 512.639 173.135Z"
      fill="#0F1011" />
    <path
      d="M530.1 174.567C530.267 174.561 530.427 174.496 530.549 174.382C530.672 174.269 530.751 174.116 530.77 173.95C530.79 173.784 530.749 173.616 530.656 173.478C530.563 173.339 530.423 173.238 530.262 173.193L526.391 172.262C526.22 172.24 526.047 172.282 525.904 172.379C525.762 172.477 525.661 172.624 525.62 172.792C525.58 172.96 525.603 173.137 525.685 173.289C525.766 173.441 525.902 173.557 526.064 173.615L529.936 174.547C529.99 174.56 530.045 174.567 530.1 174.567Z"
      fill="#0F1011" />
    <path
      d="M542.261 197.82C542.6 198.907 542.838 199.381 543.816 198.799C547.659 196.516 555.282 191.549 558.228 172.938C560.868 156.263 550.581 149.386 542.378 146.931C535.306 144.816 520.584 146.31 512.639 150.631C506.746 153.836 511.058 162.431 511.058 162.431C514.008 162.567 513.358 154.738 520.321 154.738C525.701 154.738 530.441 162.699 535.478 162.91C540.089 163.104 541.036 165.915 540.878 167.71C539.881 178.642 541.06 193.979 542.261 197.82Z"
      fill="#0F1011" />
    <path
      d="M534.611 180.879C534.544 181.702 534.639 182.529 534.892 183.315C535.144 184.1 535.549 184.828 536.082 185.458C536.616 186.087 537.269 186.605 538.003 186.982C538.736 187.359 539.537 187.587 540.36 187.655C541.182 187.722 542.01 187.627 542.795 187.375C543.581 187.122 544.309 186.718 544.938 186.184C545.567 185.65 546.085 184.997 546.462 184.264C546.839 183.53 547.068 182.729 547.135 181.906C547.217 181.081 547.132 180.248 546.885 179.456C546.638 178.665 546.235 177.931 545.698 177.299C545.162 176.666 544.503 176.149 543.763 175.776C543.022 175.404 542.214 175.184 541.386 175.13C536.908 174.984 534.894 177.42 534.611 180.879Z"
      fill="#E98862" />
    <g opacity="0.2">
      <path
        d="M520.321 185.473C520.443 185.472 520.561 185.428 520.653 185.348C520.745 185.268 520.805 185.158 520.824 185.038C520.842 184.917 520.816 184.794 520.752 184.691C520.688 184.587 520.588 184.51 520.472 184.473L517.457 183.548L519.566 178.848C519.622 178.725 519.626 178.584 519.578 178.457C519.53 178.33 519.433 178.228 519.309 178.172C519.186 178.117 519.045 178.113 518.918 178.161C518.791 178.209 518.689 178.306 518.633 178.429L516.287 183.653C516.257 183.719 516.241 183.791 516.241 183.864C516.24 183.937 516.256 184.009 516.286 184.075C516.316 184.142 516.36 184.201 516.414 184.249C516.469 184.297 516.534 184.332 516.603 184.353L520.171 185.453C520.22 185.468 520.27 185.474 520.321 185.473Z"
        fill="black" />
    </g>
    <path
      d="M526.215 188.925C526.215 188.925 520.744 189.502 516.909 188.162C516.909 188.162 516.939 191.762 521.269 192.12C525.599 192.478 526.215 188.925 526.215 188.925Z"
      fill="white" />
    <path
      d="M512.149 151.184C506.849 154.736 507.89 161.54 508.885 167.444H515.45L518.203 157.888L521.562 167.444L547.156 168.329L544.07 155.636L512.149 151.184Z"
      fill="#0F1011" />
    <path
      d="M560.281 203.415C568.193 203.415 574.607 197.001 574.607 189.089C574.607 181.177 568.193 174.763 560.281 174.763C552.369 174.763 545.955 181.177 545.955 189.089C545.955 197.001 552.369 203.415 560.281 203.415Z"
      fill="#0F1011" />
    <path
      d="M489.334 331.723C493.619 341.573 575.583 345.665 576.708 328.337C577.425 317.311 568.417 307.011 568.417 285.52C568.417 264.029 584.543 242.447 568.432 226.336C563.758 221.662 560.873 213.458 551.032 213.448C550.295 219.186 515.456 219.206 515.19 213.581C513.86 213.601 512.827 213.621 512.183 213.652C478.243 215.115 495.728 253.828 496.055 282.203C496.456 315.406 484.915 321.576 489.334 331.723Z"
      fill="white" />
    <path
      d="M515.106 213.4C515.372 219.026 518.431 227.3 527.872 227.925C540.453 228.753 550.211 219.005 550.948 213.267H550.917C538.53 213.267 522.328 213.287 515.106 213.4Z"
      fill="#E98862" />
    <path
      d="M494.447 219.841C498.651 216.032 504.027 213.77 509.689 213.428C509.689 213.428 519.935 213.377 519.911 213.328C520.711 215.179 519.543 251.849 518.52 271.979C517.402 293.77 518.551 320.979 517.512 336.624C517.443 337.652 517.161 338.653 516.685 339.566C516.208 340.479 515.547 341.283 514.744 341.928C513.941 342.572 513.013 343.043 512.018 343.31C511.024 343.577 509.984 343.635 508.966 343.48C497.949 341.794 489.359 338.923 488.106 336.044C483.688 325.897 493.885 315.318 493.486 282.116C493.486 281.924 493.478 281.729 493.475 281.536L493.403 281.936C493.303 273 491.784 263.016 490.726 253.487"
      fill="#4B93FF" />
    <path
      d="M382.976 273.337C382.976 273.337 390.837 277.384 399.315 277.384L402.054 263.819C402.054 263.819 394 256.547 391.1 257.3C388.7 257.92 390.382 260.235 392.535 262.387"
      fill="#E98862" />
    <path
      d="M382.976 273.337C382.976 273.337 390.837 277.384 399.315 277.384L402.054 263.819C402.054 263.819 394 256.547 391.1 257.3C388.7 257.92 390.382 260.235 392.535 262.387"
      fill="#E98862" />
    <path opacity="0.15"
      d="M382.976 273.337C382.976 273.337 390.837 277.384 399.315 277.384L402.054 263.819C402.054 263.819 394 256.547 391.1 257.3C388.7 257.92 390.382 260.235 392.535 262.387"
      fill="black" />
    <path
      d="M389.546 278.621L384.396 275.106C383.164 274.264 381.482 274.581 380.64 275.814L372.969 287.05C372.127 288.283 372.444 289.965 373.677 290.806L378.826 294.322C380.059 295.164 381.741 294.847 382.583 293.614L390.254 282.378C391.096 281.145 390.779 279.463 389.546 278.621Z"
      fill="#BC360C" />
    <path
      d="M392.154 277.817L385.884 276.057C385.163 275.856 384.391 275.95 383.739 276.317C383.086 276.685 382.606 277.296 382.404 278.017L381.684 280.577C381.583 280.935 381.554 281.309 381.597 281.679C381.641 282.048 381.757 282.405 381.939 282.729C382.122 283.053 382.366 283.339 382.658 283.568C382.951 283.798 383.286 283.967 383.644 284.067L385.214 284.507L388.334 285.387L389.904 285.827C390.627 286.029 391.4 285.936 392.055 285.569C392.709 285.202 393.191 284.589 393.394 283.867L394.114 281.297C394.315 280.576 394.221 279.804 393.854 279.152C393.486 278.499 392.875 278.019 392.154 277.817ZM391.504 279.917C391.448 280.12 391.327 280.299 391.159 280.426C390.99 280.552 390.785 280.62 390.574 280.617C390.49 280.617 390.406 280.607 390.324 280.587L386.004 279.377C385.782 279.314 385.589 279.173 385.463 278.979C385.336 278.786 385.284 278.553 385.315 278.324C385.347 278.095 385.461 277.885 385.635 277.733C385.809 277.581 386.033 277.497 386.264 277.497C386.348 277.497 386.432 277.507 386.514 277.527L390.844 278.747C390.965 278.78 391.077 278.837 391.176 278.913C391.274 278.99 391.356 279.086 391.417 279.195C391.478 279.304 391.517 279.424 391.531 279.548C391.546 279.672 391.535 279.797 391.5 279.917H391.504Z"
      fill="#1F2A37" />
    <path
      d="M387.246 290.518L388.21 287.075L387.883 286.984L389.454 281.376L386.338 280.503L381.882 296.408C381.824 296.613 381.807 296.827 381.832 297.039C381.857 297.25 381.923 297.455 382.027 297.641C382.132 297.827 382.271 297.99 382.439 298.122C382.606 298.253 382.798 298.351 383.003 298.408C383.208 298.466 383.423 298.482 383.634 298.457C383.846 298.431 384.05 298.364 384.236 298.259C384.421 298.155 384.584 298.014 384.716 297.846C384.847 297.678 384.944 297.486 385 297.281L385.574 295.235L385.901 295.326L386.709 292.443L386.382 292.351L386.921 290.426L387.246 290.518Z"
      fill="#1F2A37" />
    <path
      d="M393.554 274.159C394.411 271.043 393.319 268.024 391.114 267.418C388.909 266.811 386.426 268.846 385.569 271.963C384.711 275.079 385.804 278.098 388.009 278.704C390.214 279.311 392.697 277.276 393.554 274.159Z"
      stroke="#1F2A37" stroke-miterlimit="10" />
    <path
      d="M462.577 295.71C461.759 295.71 460.943 295.614 460.147 295.425L395.973 280.164L400.832 259.734L457.963 273.32L494.553 219.497L511.92 231.3L471.26 291.109C470.298 292.526 469.004 293.686 467.49 294.488C465.977 295.29 464.29 295.71 462.577 295.71Z"
      fill="#4B93FF" />
    <path
      d="M394.454 264.126C394.556 263.669 394.565 263.196 394.481 262.735C394.398 262.274 394.223 261.834 393.967 261.441C393.711 261.049 393.379 260.712 392.991 260.449C392.602 260.187 392.166 260.004 391.706 259.913C389.233 259.401 385.612 259 384.054 260.558C381.576 263.036 379.909 270.816 381.576 272.483C383.243 274.15 390.834 276.52 392.044 272.737C392.84 270.245 393.881 266.547 394.454 264.126Z"
      fill="#E98862" />
    <path
      d="M569.957 286.192C569.957 307.683 579.674 317.308 578.957 328.335C578.515 335.222 574.995 343.935 548.45 345.801C546.301 345.952 544.177 345.273 542.514 343.904C540.852 342.534 539.778 340.578 539.516 338.44C534.427 296.14 543.686 239.801 546.288 220.801C547.82 212.693 548.181 213.187 552.026 213.184C561.866 213.194 568.943 216.473 573.617 221.147C589.728 237.258 569.957 264.712 569.957 286.192Z"
      fill="#4B93FF" />
    <path
      d="M557.92 319.519L558.604 324.591L553.033 325.343C552.599 325.402 552.181 325.545 551.803 325.765C551.424 325.985 551.093 326.278 550.827 326.626C550.562 326.974 550.368 327.371 550.256 327.794C550.144 328.217 550.116 328.658 550.175 329.092L554.185 358.82C554.304 359.696 554.765 360.49 555.468 361.025C556.172 361.561 557.059 361.796 557.935 361.678L563.506 360.926L564.19 366C564.248 366.434 564.392 366.852 564.612 367.23C564.832 367.609 565.124 367.94 565.472 368.206C565.821 368.471 566.218 368.665 566.641 368.777C567.064 368.889 567.505 368.917 567.939 368.858L631.455 360.29C632.331 360.172 633.124 359.71 633.66 359.007C634.196 358.304 634.43 357.417 634.312 356.541L628.043 310.062C627.925 309.186 627.463 308.393 626.76 307.857C626.057 307.321 625.17 307.086 624.294 307.204L560.778 315.772C559.902 315.89 559.109 316.351 558.573 317.054C558.037 317.757 557.802 318.643 557.92 319.519Z"
      fill="#76ADFF" />
    <path
      d="M603.264 347.512L589.018 345.827L588.739 351.42C588.739 354.469 586.951 363.03 589.539 363.758C590.523 364.035 591.797 362.715 592.468 360.516C593.262 361.949 593.656 363.569 593.608 365.206C593.295 368.886 606.33 367.3 606.323 363.678C606.177 358.16 605.144 352.702 603.264 347.512Z"
      fill="#E98862" />
    <path
      d="M584.263 354.935L606.324 351.662L596.984 288.707C596.899 288.133 596.769 287.567 596.596 287.013L577.891 227.238L556.606 233.898L575.051 292.842L584.263 354.935Z"
      fill="#4B93FF" />
    <path
      d="M555.093 237.48L552.556 229.164L557.445 225.964L554.671 213.253C551.032 213.063 548.279 213.077 547.225 213.117C544.811 221.188 540.994 256.946 540.053 270.479L555.093 237.48Z"
      fill="#4B93FF" />
    <g opacity="0.24">
      <path
        d="M555.093 237.48L552.556 229.164L557.445 225.964L554.671 213.253C551.032 213.063 548.279 213.077 547.225 213.117C544.811 221.188 540.994 256.946 540.053 270.479L555.093 237.48Z"
        fill="white" />
    </g>
    <path
      d="M512.745 229.164L507.938 236.457L518.625 269.991C518.625 269.991 521.079 222.746 520.091 213.273C520.091 213.273 517.52 213.33 515.844 213.306C513.744 213.277 511.857 213.333 511.857 213.333L507.857 225.963L512.745 229.164Z"
      fill="#4B93FF" />
    <g opacity="0.24">
      <path
        d="M512.745 229.164L507.938 236.457L518.625 269.991C518.625 269.991 521.079 222.746 520.091 213.273C520.091 213.273 517.52 213.33 515.844 213.306C513.744 213.277 511.857 213.333 511.857 213.333L507.857 225.963L512.745 229.164Z"
        fill="white" />
    </g>
  </g>
  <defs>
    <linearGradient id="paint0_linear_123_3709" x1="357.089" y1="422.819" x2="357.089" y2="467.181"
      gradientUnits="userSpaceOnUse">
      <stop offset="0.316876" stop-color="#8B7964" />
      <stop offset="1" stop-color="#8B646B" />
    </linearGradient>
    <clipPath id="clip0_123_3709">
      <rect width="941.445" height="630.727" fill="white" />
    </clipPath>
  </defs>
</svg>