<?xml version="1.0" encoding="UTF-8"?>
<svg width="120px" height="120px" viewBox="0 0 120 120" version="1.1" xmlns="http://www.w3.org/2000/svg" xmlns:xlink="http://www.w3.org/1999/xlink" ml-update="aware">
    <title>illustration_search</title>
    <defs>
        <linearGradient x1="75.5366828%" y1="50.009594%" x2="21.7535724%" y2="50.0850291%" id="linearGradient-1">
            <stop stop-color="#F7B548" offset="0%"/>
            <stop stop-color="#FFD590" offset="100%"/>
        </linearGradient>
    </defs>
    <g id="illustration_search" stroke="none" stroke-width="1" fill="none" fill-rule="evenodd">
        <g id="Android-/-Light-/-illustration_search" fill-rule="nonzero">
            <path d="M18.5775,84.33 C22.9402304,84.33 26.5254537,87.6589033 26.9316739,91.9152138 C27.3738152,91.8588539 27.824788,91.83 28.2825,91.83 C34.1684747,91.83 38.94,96.6015253 38.94,102.4875 C38.94,108.373475 34.1684747,113.145 28.2825,113.145 C22.3965253,113.145 17.625,108.373475 17.625,102.4875 C17.625,102.007527 17.6567289,101.534964 17.7182036,101.071795 C13.4870582,100.64147 10.185,97.0676037 10.185,92.7225 C10.185,88.0874502 13.9424502,84.33 18.5775,84.33 Z M20.7825,7.425 C28.0063845,7.425 33.8625,13.2811155 33.8625,20.505 C33.8625,27.7288845 28.0063845,33.585 20.7825,33.585 C13.5586155,33.585 7.7025,27.7288845 7.7025,20.505 C7.7025,13.2811155 13.5586155,7.425 20.7825,7.425 Z M102.1575,10.2675 C108.043475,10.2675 112.815,15.0390253 112.815,20.925 C112.815,26.8109747 108.043475,31.5825 102.1575,31.5825 C96.2715253,31.5825 91.5,26.8109747 91.5,20.925 C91.5,15.0390253 96.2715253,10.2675 102.1575,10.2675 Z" id="search" fill="#E1DFDD"/>
            <circle id="search" fill="#C3F2F4" cx="48.45" cy="47.475" r="26.55"/>
            <path d="M23.0775,39.6525 C28.0795938,42.0077021 34.0228007,40.9572851 37.9145414,37.0301649 C41.8062822,33.1030447 42.8028725,27.1505754 40.4025,22.17 C32.1161285,24.8138055 25.646209,31.3425424 23.0775,39.6525 L23.0775,39.6525 Z" id="search" fill="#7BDDEF"/>
            <path d="M77.445,30.435 C67.7940906,14.4988815 47.0556274,9.39717347 31.1129277,19.0372072 C15.170228,28.6772409 10.054371,49.4122183 19.6835246,65.3614919 C29.3126781,81.3107654 50.0441601,86.4407689 66,76.8225 C73.6762145,72.1952352 79.1965464,64.7045943 81.3435742,56.0025187 C83.4906021,47.3004431 82.0879678,38.1017267 77.445,30.435 Z M60.885,68.31 C49.6308497,75.1042141 35.0006182,71.5037007 28.185,60.2625 C21.4347136,49.0017045 25.0271258,34.4043909 36.2325,27.5625 C41.6344394,24.2873644 48.1171989,23.2952369 54.2514038,24.8048703 C60.3856086,26.3145038 65.6675069,30.2019244 68.9325,35.61 C75.6871573,46.8701374 72.0939404,61.4707205 60.885,68.31 L60.885,68.31 Z" id="search" fill="#FFD590"/>
            <polygon id="search" fill="url(#linearGradient-1)" transform="translate(78.651236, 77.828749) rotate(44.810000) translate(-78.651236, -77.828749) " points="62.0274863 73.1824994 95.2749863 73.1824994 95.2749863 82.4749994 62.0274863 82.4749994"/>
            <path d="M75.591481,86.1397465 L104.788981,86.1397465 C106.445921,86.1397465 108.034997,86.7979633 109.206631,87.9695969 C110.378264,89.1412304 111.036481,90.7303065 111.036481,92.3872465 L111.036481,92.3872465 C111.036481,94.0441865 110.378264,95.6332626 109.206631,96.8048961 C108.034997,97.9765296 106.445921,98.6347465 104.788981,98.6347465 L75.591481,98.6347465 L75.591481,86.1397465 Z" id="search" fill="#FFD590" transform="translate(93.313981, 92.387246) rotate(44.810000) translate(-93.313981, -92.387246) "/>
            <path d="M80.3901879,73.0237865 L81.4508481,74.0844467 L74.8800583,80.6552365 L73.8193981,79.5945763 L80.3901879,73.0237865 Z M77.5805156,70.2059832 L78.6411757,71.2666434 L72.070386,77.8374332 L71.0097258,76.776773 L77.5805156,70.2059832 Z" id="search" fill="#FFE5B9"/>
            <path d="M65.73,45.7725 C67.3122958,45.7725 68.595,47.0552042 68.595,48.6375 C68.595,50.2197958 67.3122958,51.5025 65.73,51.5025 C64.1477042,51.5025 62.865,50.2197958 62.865,48.6375 C62.865,47.0552042 64.1477042,45.7725 65.73,45.7725 Z M60.7425,34.905 C62.9999639,34.905 64.83,36.7350361 64.83,38.9925 C64.83,41.2499639 62.9999639,43.08 60.7425,43.08 C58.4850361,43.08 56.655,41.2499639 56.655,38.9925 C56.655,36.7350361 58.4850361,34.905 60.7425,34.905 Z" id="search" fill="#FFFFFF"/>
            <path d="M17.73,101.07 C18.0075,101.07 18.2925,101.107554 18.5775,101.107554 C20.8072237,101.115471 22.9484651,100.235814 24.5286417,98.662673 C26.1088183,97.0895319 26.9980216,94.952237 27.0000017,92.7225 C27.0001836,92.4568584 26.9851591,92.1914241 26.955,91.9275 C22.1625395,92.530414 18.3759407,96.2831489 17.73,101.07 Z" id="search" fill="#C8C6C4"/>
        </g>
    </g>
</svg>