<svg width="701" height="621" viewBox="0 0 701 621" fill="none" xmlns="http://www.w3.org/2000/svg">
  <g clip-path="url(#clip0_123_2925)">
    <path d="M409.549 225.171C409.549 225.171 408.505 169.336 458.984 169.336C512.201 169.336 502.346 131.552 553.684 134.636C588.384 136.723 597.384 173.371 617.337 178.786C637.29 184.201 656.076 190.772 656.076 224.114L409.549 225.171Z" fill="white"/>
    <path d="M518.63 503.891C518.63 503.891 517.86 462.7 555.1 462.7C594.363 462.7 587.092 434.824 624.965 437.1C650.565 438.64 657.202 465.678 671.926 469.673C686.65 473.668 700.507 478.516 700.507 503.116L518.63 503.891Z" fill="white"/>
    <path d="M-8.52183e-06 315.109C-8.52183e-06 315.109 -0.926006 265.5 43.922 265.5C91.203 265.5 82.447 231.931 128.055 234.675C158.88 236.529 166.876 269.089 184.607 273.9C202.338 278.711 219.025 284.549 219.025 314.172L-8.52183e-06 315.109Z" fill="white"/>
    <path opacity="0.1" d="M409.549 225.171C409.549 225.171 408.505 169.336 458.984 169.336C512.201 169.336 502.346 131.552 553.684 134.636C588.384 136.723 597.384 173.371 617.337 178.786C637.29 184.201 656.076 190.772 656.076 224.114L409.549 225.171Z" fill="#2C4779"/>
    <path opacity="0.1" d="M518.63 503.891C518.63 503.891 517.86 462.7 555.1 462.7C594.363 462.7 587.092 434.824 624.965 437.1C650.565 438.64 657.202 465.678 671.926 469.673C686.65 473.668 700.507 478.516 700.507 503.116L518.63 503.891Z" fill="#2C4779"/>
    <path opacity="0.1" d="M-8.52183e-06 315.109C-8.52183e-06 315.109 -0.926006 265.5 43.922 265.5C91.203 265.5 82.447 231.931 128.055 234.675C158.88 236.529 166.876 269.089 184.607 273.9C202.338 278.711 219.025 284.549 219.025 314.172L-8.52183e-06 315.109Z" fill="#2C4779"/>
    <path d="M524.5 104.813C524.111 104.188 523.853 103.491 523.743 102.763C523.632 102.035 523.671 101.292 523.857 100.58C524.043 99.8677 524.372 99.2008 524.824 98.6199C525.276 98.039 525.842 97.5562 526.487 97.2012C527.759 96.5573 529.229 96.4205 530.598 96.8185C531.967 97.2165 533.134 98.1196 533.863 99.3452L537.731 105.558L535.86 83.7222C535.46 80.9222 536.746 77.2352 539.913 76.9872C542.459 76.6182 544.534 73.1962 547.582 74.7012C547.61 74.6932 571.52 93.5312 571.896 96.1252L573.369 130.69C574.969 141.696 537.569 139.49 537.569 139.49L524.5 104.813Z" fill="#E98862"/>
    <g opacity="0.1">
      <path d="M524.5 104.813C524.111 104.188 523.853 103.491 523.743 102.763C523.632 102.035 523.671 101.292 523.857 100.58C524.043 99.8677 524.372 99.2008 524.824 98.6199C525.276 98.039 525.842 97.5562 526.487 97.2012C527.759 96.5573 529.229 96.4205 530.598 96.8185C531.967 97.2165 533.134 98.1196 533.863 99.3452L537.731 105.558L535.86 83.7222C535.46 80.9222 536.746 77.2352 539.913 76.9872C542.459 76.6182 544.534 73.1962 547.582 74.7012C547.61 74.6932 571.52 93.5312 571.896 96.1252L573.369 130.69C574.969 141.696 537.569 139.49 537.569 139.49L524.5 104.813Z" fill="#0C0C0C"/>
    </g>
    <path d="M268.9 274.369C268.9 274.369 266.753 306.585 259.505 318.269C238.64 351.917 232.595 389.769 253.49 409.546C274.385 429.323 407.66 429.6 417.757 384.114C426.257 345.82 408.015 341.702 403.577 310.114C401.569 295.82 396.044 265.848 396.044 265.848" fill="#0A0A0A"/>
    <path d="M383.26 377.445C383.029 377.415 380.477 419.775 331.266 416.082C297.198 413.53 285.051 377.382 284.266 377.382C287.94 376.601 294.125 375.466 295.756 374.596C301.121 371.713 307.756 368.714 309.487 358.296C310.487 352.296 308.793 321.574 309.314 315.496L361.608 327.168C360.877 339.998 355.763 369.743 373.688 375.007C376.674 375.884 379.887 376.684 383.26 377.445Z" fill="#E98862"/>
    <path opacity="0.5" d="M362.345 362.857C361.526 360.217 360.998 357.496 360.772 354.741C360.197 348.455 360.312 342.125 361.114 335.863C350.486 334.428 340.474 330.042 332.214 323.201C331.243 326.787 325.903 342.457 327.382 345.865C330.174 352.307 343.307 362.857 362.345 362.857Z" fill="#0C0C0C"/>
    <path d="M355.583 349.659C334.965 351.659 308.289 343.407 302.763 315.951L297.777 291.177C292.25 263.721 302.191 238.561 328.043 233.357C353.895 228.157 377.697 246.523 383.223 273.979L385.431 284.947C387.551 295.482 392.368 346.1 355.583 349.659Z" fill="#E98862"/>
    <path d="M370.248 316.824C363.549 320.23 355.906 321.307 348.527 319.885C348.271 319.837 348.007 319.862 347.766 319.958C347.524 320.054 347.315 320.217 347.162 320.428C347.01 320.639 346.921 320.889 346.906 321.148C346.891 321.408 346.95 321.667 347.076 321.894C349.276 325.771 354.494 332.394 363.445 329.694C369.226 327.95 371.411 322.003 372.221 318.325C372.276 318.071 372.258 317.806 372.167 317.562C372.077 317.318 371.919 317.104 371.712 316.946C371.505 316.789 371.257 316.694 370.998 316.672C370.739 316.65 370.478 316.703 370.248 316.824Z" fill="white"/>
    <path d="M370.667 287.031C372.455 287.031 373.904 285.582 373.904 283.794C373.904 282.006 372.455 280.557 370.667 280.557C368.879 280.557 367.43 282.006 367.43 283.794C367.43 285.582 368.879 287.031 370.667 287.031Z" fill="#0C0C0C"/>
    <path d="M339.562 292.477C341.35 292.477 342.799 291.028 342.799 289.24C342.799 287.452 341.35 286.003 339.562 286.003C337.774 286.003 336.325 287.452 336.325 289.24C336.325 291.028 337.774 292.477 339.562 292.477Z" fill="#0C0C0C"/>
    <path opacity="0.1" d="M342.477 313.682C345.87 313.277 348.38 310.931 348.083 308.443C347.786 305.954 344.795 304.265 341.402 304.67C338.009 305.075 335.499 307.42 335.796 309.909C336.093 312.397 339.084 314.087 342.477 313.682Z" fill="#0C0C0C"/>
    <path opacity="0.1" d="M378.329 303.731C378.629 306.216 381.623 307.903 385.017 307.503C385.603 307.433 386.181 307.302 386.74 307.112C386.898 304.149 386.907 301.298 386.82 298.659C385.878 298.424 384.9 298.367 383.937 298.49C380.543 298.891 378.035 301.235 378.329 303.731Z" fill="#0C0C0C"/>
    <path opacity="0.5" d="M363.336 311.412L363.387 311.404C364.435 311.186 365.47 310.91 366.487 310.577C368.005 310.069 369.987 309.235 369.715 307.862C369.401 306.297 361.715 290.281 360.842 288.462C360.765 288.303 360.629 288.181 360.462 288.122C360.296 288.064 360.113 288.074 359.953 288.151C359.794 288.227 359.672 288.364 359.614 288.53C359.555 288.697 359.565 288.88 359.642 289.039C362.919 295.86 368.197 307.074 368.409 308.128C368.243 308.619 365.725 309.578 363.126 310.102C362.954 310.133 362.801 310.229 362.7 310.372C362.598 310.514 362.557 310.69 362.585 310.863C362.613 311.035 362.707 311.19 362.848 311.293C362.988 311.396 363.164 311.44 363.337 311.415L363.336 311.412Z" fill="#0C0C0C"/>
    <path d="M277.15 300.07L300.326 295.543C317.833 288.222 322.799 257.711 322.799 257.711C322.799 257.711 344.406 278.287 396.044 265.845C396.044 265.845 384.827 193.759 308.579 215.64C283.993 222.695 266.579 247.755 269.169 280.947C270.984 304.208 277.15 300.07 277.15 300.07Z" fill="#0A0A0A"/>
    <path d="M306.052 323.993C298.196 325.574 290.135 318.451 288.552 310.593C286.969 302.735 292.468 297.122 300.324 295.541L305.432 299.99L312.804 322.631L306.052 323.993Z" fill="#E98862"/>
    <path d="M366.411 275.688C368.377 274.298 370.676 273.453 373.074 273.241C374.277 273.126 375.491 273.194 376.674 273.441C377.869 273.685 379.028 274.078 380.125 274.61L380.16 274.626C380.281 274.68 380.419 274.684 380.544 274.637C380.668 274.591 380.769 274.497 380.826 274.377C380.883 274.257 380.89 274.119 380.846 273.994C380.803 273.868 380.712 273.765 380.593 273.705C379.431 273.091 378.196 272.626 376.917 272.321C375.629 272.008 374.302 271.891 372.98 271.972C370.302 272.121 367.712 272.984 365.48 274.472C365.312 274.586 365.197 274.762 365.159 274.961C365.121 275.16 365.164 275.367 365.278 275.534C365.392 275.702 365.568 275.817 365.767 275.855C365.966 275.893 366.172 275.85 366.34 275.736L366.358 275.723L366.411 275.688Z" fill="#0C0C0C"/>
    <path d="M345.241 278.614C342.609 278.091 339.885 278.284 337.353 279.172C336.101 279.603 334.922 280.22 333.853 281.001C332.789 281.772 331.826 282.674 330.987 283.686C330.898 283.786 330.853 283.917 330.86 284.051C330.867 284.184 330.926 284.31 331.025 284.4C331.124 284.49 331.254 284.537 331.388 284.532C331.521 284.527 331.647 284.47 331.739 284.372L331.766 284.344C332.575 283.432 333.496 282.626 334.506 281.944C335.506 281.262 336.603 280.735 337.76 280.381C340.057 279.661 342.504 279.561 344.852 280.092L344.91 280.106C345.107 280.154 345.315 280.121 345.488 280.016C345.661 279.911 345.785 279.741 345.832 279.544C345.88 279.347 345.848 279.139 345.742 278.966C345.637 278.793 345.467 278.669 345.27 278.621L345.241 278.614Z" fill="#0C0C0C"/>
    <path d="M300.341 295.163C315.921 289.363 321.09 278.605 322.683 270.599C323.713 265.26 323.617 259.764 322.4 254.464L321.918 254.596C323.116 259.827 323.208 265.251 322.189 270.52C320.618 278.395 315.521 288.981 300.167 294.695L300.341 295.163Z" fill="#0C0C0C"/>
    <path d="M122.97 177.961L112.74 145.274C112.515 144.556 112.143 143.892 111.648 143.326C111.153 142.759 110.545 142.302 109.863 141.983C109.181 141.664 108.441 141.491 107.688 141.474C106.936 141.457 106.188 141.597 105.493 141.885C104.226 142.457 103.216 143.478 102.659 144.752C102.103 146.026 102.039 147.461 102.48 148.779L104.674 155.788L87.658 136.913C85.803 134.781 82.158 133.352 79.909 135.591C78.9855 136.396 78.3621 137.49 78.1403 138.694C77.9186 139.899 78.1116 141.143 78.688 142.224C78.6634 142.236 78.6402 142.251 78.619 142.269C78.6052 142.285 78.5926 142.302 78.581 142.319L75.721 139.032C75.1908 138.423 74.5315 137.941 73.791 137.619C73.0506 137.298 72.2477 137.145 71.441 137.174C70.6343 137.202 69.844 137.41 69.1278 137.782C68.4116 138.154 67.7875 138.682 67.301 139.326C66.5552 140.356 66.1856 141.61 66.254 142.879C66.3225 144.149 66.8248 145.356 67.677 146.299L68.894 147.699C68.8702 147.753 68.856 147.811 68.852 147.87C67.8102 147.116 66.5339 146.756 65.2514 146.857C63.969 146.957 62.764 147.51 61.852 148.417C60.8835 149.439 60.3359 150.788 60.3185 152.196C60.3011 153.603 60.8151 154.966 61.758 156.011L64.782 159.485C64.7046 159.466 64.6238 159.466 64.5463 159.485C64.4688 159.503 64.3967 159.54 64.336 159.591C64.2671 159.656 64.2188 159.74 64.197 159.832C63.0827 159.418 61.8634 159.382 60.7264 159.729C59.5895 160.076 58.5979 160.786 57.904 161.751C57.1959 162.78 56.8557 164.017 56.9386 165.264C57.0216 166.51 57.5228 167.691 58.361 168.617L83.874 197.93C87.4438 202.03 92.1563 204.971 97.4079 206.376C102.659 207.781 108.211 207.586 113.351 205.816C117.783 204.289 121.445 201.094 123.559 196.91C125.673 192.726 126.072 187.883 124.672 183.409L122.97 177.961Z" fill="#E98862"/>
    <g opacity="0.2">
      <path d="M95.437 160.991C95.3378 161.077 95.2088 161.12 95.0778 161.112C94.9469 161.104 94.8245 161.044 94.737 160.946L78.581 142.975C78.4923 142.877 78.4464 142.747 78.4535 142.614C78.4605 142.482 78.5199 142.357 78.6185 142.269C78.7172 142.18 78.8471 142.134 78.9795 142.141C79.112 142.148 79.2363 142.207 79.325 142.306L95.483 160.277C95.5717 160.376 95.6177 160.505 95.6107 160.638C95.6038 160.77 95.5445 160.894 95.446 160.983L95.437 160.991Z" fill="#0C0C0C"/>
    </g>
    <g opacity="0.2">
      <path d="M87.708 168.336C87.6087 168.422 87.4797 168.465 87.3488 168.457C87.2178 168.449 87.0954 168.389 87.008 168.291L68.978 148.235C68.8893 148.137 68.8434 148.007 68.8503 147.874C68.8572 147.742 68.9165 147.618 69.015 147.529C69.1156 147.445 69.2447 147.401 69.376 147.408C69.5073 147.416 69.6309 147.472 69.722 147.567L87.754 167.622C87.8427 167.721 87.8886 167.85 87.8816 167.983C87.8747 168.115 87.8155 168.239 87.717 168.328L87.708 168.336Z" fill="#0C0C0C"/>
    </g>
    <g opacity="0.2">
      <path d="M79.382 176.34C79.2827 176.426 79.1536 176.469 79.0226 176.46C78.8916 176.452 78.7693 176.392 78.682 176.294L64.3 160.3C64.2113 160.201 64.1654 160.072 64.1725 159.939C64.1795 159.807 64.2389 159.682 64.3375 159.594C64.4362 159.505 64.566 159.459 64.6985 159.466C64.831 159.473 64.9553 159.532 65.044 159.631L79.429 175.631C79.5176 175.73 79.5633 175.86 79.5562 175.992C79.5491 176.124 79.4897 176.249 79.391 176.337L79.382 176.34Z" fill="#0C0C0C"/>
    </g>
    <path d="M520.816 118.806L488.071 276.874L376.57 389.51L435.115 444.031L545.663 317.815L546.326 317.069C550.224 312.584 552.942 307.199 554.234 301.399L591.767 134.114L520.816 118.806Z" fill="#2C4779"/>
    <path d="M329.6 405.545C295.51 403.938 294.075 375 294.075 375C294.075 375 277.183 376.091 265.954 377.611C247.569 380.098 235.442 386.332 225.79 395.983C216.812 404.962 219.359 432.971 219.359 432.971L228.37 620.371H434.121L443.849 434.002C443.849 434.002 454.902 410.352 436.115 390.474C422.49 376.062 387.317 375 373.157 375C372.926 375 376.029 407.734 329.6 405.545Z" fill="#2C4779"/>
    <path d="M169.43 308.232L132.564 176.386L62.851 196.6L105.468 338.547C107.417 344.981 111.118 350.745 116.156 355.195L116.856 355.808L229.145 454.508L279.872 392.647L169.43 308.232Z" fill="#2C4779"/>
    <path d="M528.773 79.2851L527.086 80.4351C522.8 83.3585 517.981 85.409 512.903 86.4697C507.825 87.5304 502.588 87.5804 497.49 86.6169C492.393 85.6533 487.535 83.6952 483.195 80.8542C478.854 78.0132 475.116 74.345 472.193 70.0591L456.4 46.9001C456.192 46.5947 456.046 46.2512 455.97 45.8893C455.894 45.5274 455.891 45.1541 455.96 44.7908C456.028 44.4276 456.168 44.0814 456.371 43.7721C456.573 43.4627 456.835 43.1964 457.14 42.9881L519.438 0.490105C520.055 0.069519 520.814 -0.0888954 521.547 0.0496762C522.281 0.188248 522.93 0.612467 523.351 1.22911L539.151 24.3921C542.074 28.6777 544.125 33.4972 545.185 38.5754C546.246 43.6535 546.296 48.8908 545.332 53.9882C544.368 59.0856 542.41 63.9432 539.569 68.2837C536.727 72.6242 533.059 76.3625 528.773 79.2851Z" fill="#0CBC8B"/>
    <path d="M497.617 34.689L507.08 40.029C507.145 40.0655 507.217 40.0857 507.291 40.088C507.365 40.0902 507.438 40.0745 507.505 40.042L517.269 35.273C517.346 35.236 517.431 35.221 517.516 35.2297C517.6 35.2385 517.681 35.2706 517.748 35.3225C517.815 35.3744 517.867 35.4441 517.897 35.5236C517.927 35.6032 517.934 35.6896 517.918 35.773L515.764 46.423C515.749 46.4958 515.752 46.571 515.773 46.6423C515.794 46.7135 515.832 46.7787 515.883 46.832L523.435 54.644C523.494 54.7053 523.535 54.782 523.554 54.8654C523.572 54.9488 523.566 55.0355 523.537 55.1159C523.508 55.1962 523.458 55.2669 523.391 55.32C523.324 55.373 523.244 55.4063 523.159 55.416L512.364 56.66C512.29 56.6684 512.22 56.6947 512.158 56.7365C512.097 56.7783 512.047 56.8345 512.012 56.9L506.912 66.5C506.872 66.5752 506.811 66.6377 506.738 66.6804C506.664 66.723 506.58 66.7443 506.494 66.7417C506.409 66.7391 506.326 66.7128 506.255 66.6656C506.184 66.6185 506.128 66.5525 506.092 66.475L501.575 56.593C501.544 56.5255 501.498 56.4664 501.439 56.4209C501.38 56.3755 501.311 56.345 501.238 56.332L490.538 54.451C490.454 54.4363 490.376 54.3984 490.312 54.3415C490.249 54.2846 490.202 54.211 490.178 54.1291C490.154 54.0472 490.154 53.9602 490.177 53.878C490.2 53.7958 490.245 53.7217 490.308 53.664L498.308 46.314C498.362 46.2638 498.404 46.2012 498.429 46.1315C498.453 46.0619 498.461 45.9873 498.451 45.914L496.933 35.155C496.92 35.0694 496.931 34.9817 496.965 34.9022C497 34.8226 497.056 34.7545 497.128 34.7057C497.199 34.6569 497.283 34.6294 497.37 34.6265C497.457 34.6235 497.542 34.6452 497.617 34.689Z" fill="#FAFAFA"/>
    <path d="M531.349 67.9082L523.449 73.2942L521.849 74.3822L515.549 78.6822C515.549 78.6822 558.473 117.911 556.427 165.528L575.257 152.685L576.857 151.597L597.282 137.666C552.2 122.189 531.349 67.9082 531.349 67.9082Z" fill="#0CBC8B"/>
    <path d="M602.838 122.487L540.273 165.16C538.588 166.309 538.154 168.606 539.303 170.29L553.424 190.995C554.573 192.679 556.87 193.113 558.555 191.965L621.12 149.292C622.804 148.143 623.239 145.846 622.09 144.161L607.968 123.457C606.819 121.772 604.522 121.338 602.838 122.487Z" fill="#0CBC8B"/>
    <path d="M483.425 88.3002C480.4 90.3701 476.879 91.5972 473.223 91.8554C469.567 92.1136 465.908 91.3936 462.623 89.7693C459.337 88.1451 456.543 85.6752 454.528 82.6135C452.514 79.5519 451.35 76.0089 451.158 72.3488C450.966 68.6887 451.752 65.0435 453.436 61.7879C455.119 58.5322 457.639 55.7836 460.737 53.8245C463.835 51.8654 467.398 50.7665 471.061 50.6408C474.724 50.5151 478.354 51.3671 481.579 53.1091C484.693 54.7903 487.323 57.244 489.215 60.2346C491.107 63.2253 492.198 66.6523 492.383 70.1863C492.569 73.7204 491.842 77.2427 490.273 80.4149C488.704 83.5871 486.346 86.3025 483.425 88.3002ZM464.194 60.2001C461.777 61.8508 459.966 64.2463 459.037 67.0217C458.108 69.797 458.112 72.7999 459.048 75.5729C459.984 78.3458 461.801 80.7367 464.222 82.3813C466.643 84.0258 469.535 84.8338 472.458 84.6821C475.381 84.5304 478.174 83.4273 480.411 81.541C482.649 79.6547 484.209 77.0885 484.853 74.2335C485.497 71.3786 485.189 68.3914 483.978 65.7271C482.767 63.0629 480.718 60.8677 478.143 59.4761C475.974 58.3082 473.527 57.7581 471.067 57.8858C468.607 58.0135 466.23 58.814 464.194 60.2001Z" fill="#0CBC8B"/>
    <path d="M553.281 40.663C552.533 41.1731 551.752 41.6337 550.944 42.042C546.057 44.51 540.391 44.9357 535.19 43.2256C529.99 41.5154 525.682 37.8095 523.214 32.923C520.746 28.0365 520.32 22.3698 522.03 17.1694C523.741 11.969 527.446 7.66098 532.333 5.19301C537.01 2.83264 542.409 2.33877 547.436 3.81149C552.464 5.28422 556.743 8.61336 559.407 13.1241C562.071 17.6349 562.92 22.9898 561.783 28.1035C560.645 33.2172 557.606 37.707 553.281 40.663ZM534.057 12.551C531.931 14.0073 530.269 16.0451 529.271 18.4209C528.273 20.7966 527.98 23.4096 528.428 25.9473C528.875 28.4851 530.045 30.8401 531.796 32.7308C533.547 34.6215 535.805 35.9678 538.301 36.6086C540.797 37.2494 543.425 37.1576 545.87 36.3443C548.315 35.5309 550.475 34.0304 552.09 32.0222C553.704 30.014 554.707 27.5831 554.976 25.0203C555.246 22.4575 554.771 19.8713 553.61 17.571C552.816 15.9987 551.72 14.5982 550.385 13.4494C549.05 12.3006 547.501 11.4262 545.828 10.8759C544.155 10.3256 542.389 10.1103 540.633 10.2422C538.876 10.3742 537.163 10.8509 535.591 11.645C535.06 11.9132 534.548 12.2158 534.057 12.551Z" fill="#0CBC8B"/>
    <path d="M548.956 104.5C548.386 103.718 548.088 102.772 548.106 101.804C548.124 100.837 548.458 99.9023 549.056 99.1422C548.988 99.1042 548.795 99.0602 548.867 98.9422L545.538 100.562C544.568 101.061 543.449 101.192 542.39 100.93C541.33 100.668 540.402 100.032 539.775 99.1382C539.185 98.2359 538.951 97.1468 539.119 96.0818C539.286 95.0169 539.843 94.0521 540.681 93.3742C540.64 93.3612 540.618 93.3162 540.581 93.2902L539.212 93.9562C538.296 94.4223 537.246 94.5574 536.242 94.3388C535.237 94.1201 534.339 93.561 533.699 92.7562C533.308 92.2432 533.036 91.6499 532.903 91.0191C532.769 90.3882 532.777 89.7355 532.926 89.1081C533.075 88.4808 533.362 87.8943 533.765 87.3911C534.168 86.8879 534.678 86.4804 535.258 86.1982L538.415 84.6612C538.404 84.6462 538.383 84.6442 538.374 84.6262C538.365 84.6082 538.374 84.5792 538.368 84.5562C537.408 84.7807 536.401 84.6728 535.511 84.25C534.621 83.8273 533.9 83.1148 533.468 82.2292C532.203 80.0132 534.073 77.4882 536.114 76.4952L542.788 73.8652C543.818 73.4598 544.932 73.3154 546.031 73.4446C547.13 73.5739 548.18 73.973 549.088 74.6062C556.95 80.0802 577.143 94.8672 570.627 98.0382L554.585 105.844C553.631 106.278 552.559 106.381 551.54 106.137C550.521 105.894 549.612 105.318 548.956 104.5Z" fill="#E98862"/>
    <path d="M55.432 620.375H641.561C641.826 620.375 642.081 620.27 642.268 620.082C642.456 619.895 642.561 619.64 642.561 619.375C642.561 619.11 642.456 618.855 642.268 618.668C642.081 618.48 641.826 618.375 641.561 618.375H55.432C55.1668 618.375 54.9124 618.48 54.7249 618.668C54.5374 618.855 54.432 619.11 54.432 619.375C54.432 619.64 54.5374 619.895 54.7249 620.082C54.9124 620.27 55.1668 620.375 55.432 620.375Z" fill="#292A2E"/>
    <path d="M31.058 402.219L23.6069 405.132L34.1166 432.02L41.5677 429.107L31.058 402.219Z" fill="#2C4779"/>
    <path d="M635.438 319.871L616.178 341.376L622.137 346.713L641.397 325.208L635.438 319.871Z" fill="#2C4779"/>
    <path d="M547.137 416.12L542.34 422.523L565.446 439.831L570.243 433.427L547.137 416.12Z" fill="#0CBC8B"/>
    <path d="M199.895 187.512L178.87 207.296L184.353 213.122L205.378 193.338L199.895 187.512Z" fill="#2C4779"/>
    <path d="M432.771 153.953L425.835 157.94L440.224 182.969L447.159 178.981L432.771 153.953Z" fill="#2C4779"/>
    <path d="M149.883 498.2L134.476 522.614L141.242 526.884L156.648 502.469L149.883 498.2Z" fill="#0CBC8B"/>
    <path d="M537.541 556.864L524.639 582.689L531.796 586.265L544.698 560.439L537.541 556.864Z" fill="#0CBC8B"/>
    <path d="M642.248 488.914L634.585 491.211L642.875 518.864L650.538 516.567L642.248 488.914Z" fill="#2C4779"/>
    <path d="M81.7169 565.052L77.2609 571.7L101.251 587.78L105.707 581.132L81.7169 565.052Z" fill="#2C4779"/>
    <path d="M337.86 91.7546L330.924 95.7417L345.312 120.77L352.248 116.783L337.86 91.7546Z" fill="#0CBC8B"/>
  </g>
  <defs>
    <clipPath id="clip0_123_2925">
      <rect width="700.509" height="620.375" fill="white"/>
    </clipPath>
  </defs>
</svg>
