<svg xmlns="http://www.w3.org/2000/svg" width="656" height="497" fill="none" viewBox="0 0 656 497">
  <g class="Loan approved" clip-path="url(#a)">
    <g class="Group">
      <path fill="#789AB9" d="M197.694 52.256c0-24.645-12.672-44.362-37.028-44.362-21.977 0-35.9 20.007-35.9 44.362" class="Vector"/>
      <path fill="#CC9C85" d="M160.667 7.9c24.333 0 36.987 19.683 37.027 44.292.02.178.03.357.028.536v235.654a44.354 44.354 0 0 0 12.918 31.504 44.364 44.364 0 0 0 62.885 0 44.36 44.36 0 0 0 12.918-31.504h141.29V57.187c0-26.387-15.233-48.135-41.619-49.287H160.667Z" class="Vector"/>
      <path fill="#789AB9" d="M242.084 332.741h185.648a44.372 44.372 0 0 0 16.977-3.376 44.372 44.372 0 0 0 24.008-24.008 44.355 44.355 0 0 0 3.377-16.977H286.445a44.176 44.176 0 0 1-44.361 44.361Z" class="Vector"/>
      <path fill="#FAFBFC" d="M265.557 103.237h95.232a7.775 7.775 0 1 0 0-15.55h-95.232a7.775 7.775 0 1 0 0 15.55Zm122.438 37.864H238.351a3.313 3.313 0 0 0-3.313 3.313v.001a3.313 3.313 0 0 0 3.313 3.313h149.644a3.313 3.313 0 0 0 3.313-3.313v-.001a3.313 3.313 0 0 0-3.313-3.313Zm0-15.913H238.351a3.313 3.313 0 0 0-3.313 3.313v.001a3.313 3.313 0 0 0 3.313 3.313h149.644a3.313 3.313 0 0 0 3.313-3.313v-.001a3.313 3.313 0 0 0-3.313-3.313Zm0 31.827H238.351a3.313 3.313 0 0 0-3.313 3.313v.001a3.313 3.313 0 0 0 3.313 3.313h149.644a3.313 3.313 0 0 0 3.313-3.313v-.001a3.313 3.313 0 0 0-3.313-3.313Zm0 15.914H238.351a3.313 3.313 0 0 0-3.313 3.313v.001a3.313 3.313 0 0 0 3.313 3.313h149.644a3.313 3.313 0 0 0 3.313-3.313v-.001a3.313 3.313 0 0 0-3.313-3.313Zm0 15.914H238.351a3.313 3.313 0 0 0-3.313 3.313v.001a3.313 3.313 0 0 0 3.313 3.313h149.644a3.313 3.313 0 0 0 3.313-3.313v-.001a3.313 3.313 0 0 0-3.313-3.313Zm0 31.827H238.351a3.313 3.313 0 0 0-3.313 3.313v.001a3.313 3.313 0 0 0 3.313 3.313h149.644a3.313 3.313 0 0 0 3.313-3.313v-.001a3.313 3.313 0 0 0-3.313-3.313Zm0-15.913H238.351a3.313 3.313 0 0 0-3.313 3.313v.001a3.313 3.313 0 0 0 3.313 3.313h149.644a3.313 3.313 0 0 0 3.313-3.313v-.001a3.313 3.313 0 0 0-3.313-3.313Zm-45.002 31.827h-59.64a3.313 3.313 0 0 0-3.313 3.313v.001a3.313 3.313 0 0 0 3.313 3.313h59.64a3.313 3.313 0 0 0 3.313-3.313v-.001a3.313 3.313 0 0 0-3.313-3.313Z" class="Vector"/>
    </g>
    <g class="Group">
      <g class="Group">
        <path fill="#0F1011" d="M106.091 39.356c.3 3.669-3.524 7.085-4.154 10.543-.652 3.578 1.686 8.122.16 11.332-1.547 3.256-6.563 4.312-8.882 7.041-2.32 2.729-2.554 7.849-5.518 9.9-2.922 2.023-7.784.447-11.21 1.667-3.31 1.179-6.065 5.5-9.735 5.8-3.67.3-7.085-3.525-10.543-4.155-3.578-.652-8.122 1.686-11.332.16-3.256-1.547-4.312-6.563-7.041-8.882-2.73-2.319-7.85-2.554-9.9-5.518-2.023-2.922-.447-7.784-1.667-11.209-1.18-3.311-5.5-6.066-5.8-9.736-.3-3.67 3.525-7.085 4.155-10.543.652-3.578-1.686-8.122-.16-11.332 1.547-3.256 6.563-4.312 8.882-7.041s2.554-7.849 5.518-9.9c2.922-2.023 7.784-.447 11.209-1.667 3.31-1.179 6.066-5.5 9.736-5.8 3.67-.3 7.085 3.525 10.543 4.155 3.578.652 8.122-1.686 11.332-.16 3.256 1.547 4.316 6.563 7.04 8.882 2.726 2.319 7.85 2.554 9.9 5.518 2.024 2.922.448 7.784 1.668 11.209 1.179 3.311 5.502 6.066 5.799 9.736Z" class="Vector"/>
        <path fill="#8A635B" d="M49.989 79.236c1.98-3.35 4.1-9.84 3.12-21.89l15.98-2.95s-1.8 18.8 6.21 24.84h-25.31Z" class="Vector"/>
        <path fill="#000" d="M72.083 75.328 58.82 65.163l10.424-.1a28.742 28.742 0 0 0 2.839 10.265Z" class="Vector" opacity=".15"/>
        <path fill="#8A635B" d="M44.051 49.175c1.1 6.39 4.582 12.442 10.215 14.51a40.51 40.51 0 0 0 19.355 2.634c17.491-1.42 14.067-41.19 5.77-48.92-8.297-7.728-32.67-2.861-35.646 10.057-1.539 6.677-.745 15.637.306 21.719Z" class="Vector"/>
        <g class="Group">
          <path fill="#0F1011" d="M69.076 44.276a1.45 1.45 0 1 0 0-2.898 1.45 1.45 0 0 0 0 2.898Zm11.432-.926a1.449 1.449 0 1 0 0-2.899 1.449 1.449 0 0 0 0 2.898Zm2.514-4.535h-.01l-3.837-.052a.68.68 0 0 1 .009-1.36h.009l3.838.05a.681.681 0 0 1-.01 1.362ZM65.95 40.2a.68.68 0 0 1-.157-1.343l3.785-.907a.681.681 0 1 1 .317 1.324l-3.785.907a.669.669 0 0 1-.16.02Z" class="Vector"/>
          <path fill="#F8FCFF" d="M69.736 54.24s5.348.57 9.1-.738c0 0-.033 3.523-4.265 3.866-4.232.343-4.835-3.128-4.835-3.128Z" class="Vector"/>
        </g>
        <path fill="#0F1011" d="M55.834 32.634a125.363 125.363 0 0 1-4.866 44.406s-12.193-21.025-14.08-38.53C35.122 22.1 47.223 12.422 55.394 10.6 86.444 3.689 88.68 26.37 88.68 26.37c-5.657 11.764-36.206 11.712-36.206 11.712" class="Vector"/>
        <path fill="#8A635B" d="M61.754 49.066a6.143 6.143 0 0 1-12.245.993 6.041 6.041 0 0 1 5.626-6.62c4.378-.14 6.345 2.246 6.619 5.627Z" class="Vector"/>
        <g class="Group" opacity=".15">
          <path fill="#000" d="M75.5 50.87a.5.5 0 0 1-.146-.978l2.947-.9-2.056-4.592a.5.5 0 1 1 .913-.409l2.289 5.11a.5.5 0 0 1-.31.682l-3.49 1.068a.5.5 0 0 1-.147.019Z" class="Vector"/>
        </g>
      </g>
      <g class="Group">
        <path fill="#8A635B" d="M103.315 218.375c19.95 87.888 38.015 176.366 52.271 265.367l-20.04 4.122c-22.031-87.4-40.358-175.826-56.718-264.452l24.487-5.037Zm-41.238 5.444c1.832 87.312 1.7 174.821-2.271 262.074h-20.46c-3.968-87.252-4.1-174.763-2.27-262.074h25Z" class="Vector"/>
        <path fill="#789AB9" d="M86.276 493.96a4.115 4.115 0 0 0 3.003-1.326A4.11 4.11 0 0 0 87.693 486l-24.442-8.186a3.463 3.463 0 0 0-2.873.319 19.11 19.11 0 0 1-11.467 3.4 17.035 17.035 0 0 1-8.821-3.222 1.55 1.55 0 0 0-1.644-.202 1.55 1.55 0 0 0-.883 1.402v11.952a2.68 2.68 0 0 0 1.66 2.478c.327.134.676.202 1.029.2l46.024-.181Zm93.733 0a4.118 4.118 0 0 0 3.003-1.326 4.113 4.113 0 0 0 .259-5.256 4.097 4.097 0 0 0-1.844-1.378l-24.443-8.186a3.46 3.46 0 0 0-2.872.319 19.114 19.114 0 0 1-11.468 3.4 17.03 17.03 0 0 1-8.82-3.222 1.542 1.542 0 0 0-1.644-.201 1.547 1.547 0 0 0-.884 1.401v11.952a2.678 2.678 0 0 0 2.689 2.678l46.024-.181Z" class="Vector"/>
        <path fill="#262626" d="M24.4 186.123s-11.36 50.871-11.36 93.654C13.04 322.56 0 388.821 0 388.821s36.967-5.98 62.044 0C105.253 399.123 144 376.689 144 376.689l-43.52-185.87-76.08-4.696Z" class="Vector"/>
      </g>
      <g class="Group">
        <g class="Group">
          <path fill="#8A635B" d="M221.05 138.491s8.209-3.989 14.374-2.458c6.165 1.531 3.277 4.184-1.21 5.128s-14.343 2.479-14.343 2.479" class="Vector"/>
          <path fill="#8A635B" d="M225.845 138.3s15.218-1.6 15.376 2.062c0 0 .667 11.295-1.4 13.042-3.121 2.636-18.579.572-18.579.572l4.603-15.676Z" class="Vector"/>
        </g>
        <g class="Group">
          <path fill="#FCFCFC" d="M185.615 156.968h-59.479a10.502 10.502 0 0 1-8.841-4.836L79.713 93.464 97.4 82.137l34.484 53.831h53.735l-.004 21Z" class="Vector"/>
          <path fill="#FCFCFC" d="M105.3 192.757c-4.19 9.63-86.52 13.63-87.62-3.31-.7-10.781 8.8-20.19 8.8-41.2S7.152 100.406 22.9 84.656c4.57-4.569 12.46-7.519 22.08-7.529.72 5.609 34.78 5.63 35.04.13 1.3.02 2.31.039 2.94.07 33.18 1.43 18.6 39.19 18.28 66.93-.388 32.46 8.382 38.58 4.06 48.5Z" class="Vector"/>
          <path fill="#8A635B" d="M80.022 77.257c-.26 5.5-3.25 13.589-12.48 14.2-12.3.81-21.84-8.721-22.56-14.33h.03c12.11 0 27.95.02 35.01.13Z" class="Vector"/>
        </g>
        <g class="Group">
          <g class="Group">
            <path fill="#F26522" d="M176.882 206.468c33.137 0 60-26.863 60-60s-26.863-60-60-60-60 26.863-60 60 26.863 60 60 60Z" class="Vector"/>
            <g class="Group" opacity=".29">
              <path fill="#372020" d="M176.882 185.364c21.482 0 38.896-17.414 38.896-38.896s-17.414-38.896-38.896-38.896c-21.481 0-38.896 17.414-38.896 38.896s17.415 38.896 38.896 38.896Z" class="Vector"/>
            </g>
          </g>
          <path fill="#372020" d="m164.151 160.362 3.628-5.627c2.876 2.2 5.391 3.328 8.067 3.328 3.206 0 4.617-1.33 4.617-3.905 0-5.821-14.934-5.716-14.934-15.925 0-6.563 4.546-10.743 11.715-10.743a14.036 14.036 0 0 1 10.77 4.8l-4.162 4.767c-2.056-1.87-3.8-2.855-6.162-2.855-2.722 0-4.2 1.1-4.2 3.639 0 5.4 14.934 4.924 14.934 15.738 0 6.5-4.3 11.2-12.58 11.2a18.828 18.828 0 0 1-11.693-4.417Zm9.95-38.417h5.519v8.148h-5.52l.001-8.148Zm0 39.433h5.519v8.94h-5.52l.001-8.94Z" class="Vector"/>
        </g>
        <path fill="#8A635B" d="M239.816 153.412a3.46 3.46 0 0 1-.929.528c-1.794.37-6.315-.712-7.04-1.966-1.18-2.041-.448-9.415.593-12.091.977-2.5 5.843-1.453 6.482-1.334a.42.42 0 0 0 .061.016c1.327.364 2.2.932 2.237 1.805 0 0 .67 11.29-1.404 13.042Z" class="Vector"/>
        <g class="Group">
          <path fill="#8A635B" d="M107.336 160.229s2.409-13.154 11.715-10.865c5.871 1.445 22.934-1.133 23.193 6.406.225 6.542-15.8 8.286-21.1 7.741-4.757-.489-13.808-3.282-13.808-3.282Z" class="Vector"/>
          <path fill="#8A635B" d="M115.643 149.219s13.843-2.042 16.935-.727c2.738 1.163-4 4.8-4 4.8l-12.935-4.073Z" class="Vector"/>
        </g>
        <path fill="#FCFCFC" d="m120.071 167.534-61.88-1.888a10.902 10.902 0 0 1-9.322-5.833l-30.552-58.255 19.31-10.127 27.594 52.615 55.515 1.694-.665 21.794Z" class="Vector"/>
      </g>
    </g>
    <g class="Group">
      <g class="Group">
        <path fill="#8A635B" d="m470.941 485.469 20.854-2.48c-.94-7.893-2-17.374-2.073-18.929v.245h-21c.004.63.004 2.546 2.219 21.164Zm83.676 2.51 21-.068s-.07-21.685-.07-23.606h-21c0 1.927.07 23.674.07 23.674Z" class="Vector"/>
        <path fill="#262626" d="M463.194 478.207c1.737-44.008 1.843-90.231 2.387-134.356 7.219-47.594 11.019-99.793 19.934-147.051l.267.078.782-5.329 76.076-4.7 2.677 49.7c3.829 66.58 11.233 173.615 15.712 241.088l-36.869 3.123c-6.585-66.359-16.322-172.074-22.272-237.478-6.53 33.326-13.687 70.856-19.485 104.578-1.269 43.078-2.33 87.969-2.215 130.978l-36.994-.631Z" class="Vector"/>
        <path fill="#789AB9" d="M529.088 496.1a4.1 4.1 0 0 1-3.863-2.764 4.12 4.12 0 0 1 .601-3.815 4.114 4.114 0 0 1 1.845-1.377l24.442-8.187a3.46 3.46 0 0 1 2.872.32 19.112 19.112 0 0 0 11.468 3.4 17.034 17.034 0 0 0 8.821-3.222 1.552 1.552 0 0 1 1.644-.202 1.547 1.547 0 0 1 .883 1.402v11.955a2.678 2.678 0 0 1-2.689 2.678l-46.024-.188Zm-83.733 0a4.1 4.1 0 0 1-3.863-2.764 4.103 4.103 0 0 1 2.445-5.192l24.443-8.187a3.461 3.461 0 0 1 2.872.32 19.112 19.112 0 0 0 11.468 3.4 17.03 17.03 0 0 0 8.82-3.222 1.552 1.552 0 0 1 1.644-.202 1.547 1.547 0 0 1 .883 1.402v11.955a2.678 2.678 0 0 1-2.688 2.678l-46.024-.188Z" class="Vector"/>
      </g>
      <g class="Group">
        <path fill="#F26522" d="M533.416 259.434v64.956a9.865 9.865 0 0 0 9.866 9.867h102.295a9.865 9.865 0 0 0 9.866-9.867v-64.956a9.861 9.861 0 0 0-2.89-6.976 9.861 9.861 0 0 0-6.976-2.89H618.54v-6.855a9.234 9.234 0 0 0-9.223-9.223h-29.776a9.234 9.234 0 0 0-9.223 9.223v6.855h-27.036a9.861 9.861 0 0 0-6.976 2.89 9.861 9.861 0 0 0-2.89 6.976Zm79.124-9.866h-36.222v-6.855a3.228 3.228 0 0 1 3.223-3.223h29.776a3.228 3.228 0 0 1 3.223 3.223v6.855Z" class="Vector"/>
        <g class="Group">
          <path fill="#8A635B" d="M395.4 165.516c-2.9.679-12.961 1.42-13.076 4.046-.07 1.575 7.568 1.626 7.568 1.626" class="Vector"/>
          <path fill="#8A635B" d="M389.728 184.837c11.994-2.81 20.919-8.493 19.935-12.694-.985-4.202-11.505-5.33-23.499-2.521-11.993 2.81-20.918 8.493-19.934 12.694.984 4.201 11.505 5.33 23.498 2.521Z" class="Vector"/>
        </g>
        <g class="Group">
          <path fill="#8A635B" d="M584.98 220.892c0 2.98-1.574 12.943.957 13.655 1.517.426 3.31-7 3.31-7" class="Vector"/>
          <path fill="#8A635B" d="M596.927 219.328s8.559 9.222 2.741 20.162c-.807 1.517-8.672 2.408-8.672.549 0-7.8-.606-13.918-5.743-12.048v-12.564" class="Vector"/>
        </g>
        <path fill="#FCFCFC" d="m447.6 143.356 37.238-55.647.22.147c3.2-4.88 8.695-8 17.774-8.388.629-.03 1.639-.05 2.94-.07.259 5.5 34.319 5.48 35.04-.13 9.619.01 17.509 2.96 22.08 7.53a20.152 20.152 0 0 1 4.772 7.467l.121-.054 24.172 54.424c.42.945.703 1.946.841 2.971l9.391 69.829-21.609 2.906-9.18-68.282-9.525-21.446a62.327 62.327 0 0 0-2.56 15.775c0 21.01 9.5 30.42 8.8 41.2-1.1 16.94-83.43 12.94-87.619 3.31-4.321-9.92 4.449-16.04 4.059-48.5a165.054 165.054 0 0 0-1.354-17.031l-19.473 29.1a10.92 10.92 0 0 1-5.375 4.2l-60.957 21.9-7.371-20.522 57.575-20.689Z" class="Vector"/>
        <path fill="#8A635B" d="M505.775 79.4c.259 5.5 3.25 13.59 12.48 14.2 12.3.81 21.839-8.72 22.56-14.33h-.031c-12.109-.002-27.949.018-35.009.13Z" class="Vector"/>
      </g>
      <g class="Group">
        <path fill="#8A635B" d="M532.333 66.29a64.903 64.903 0 0 1 .239-6.76c-2.684-.5-13.111-2.428-15.979-2.96.554 1.961.052 16.79-3 20.91a11.84 11.84 0 0 1-3.12 3.82H535.6c-1.558-2.68-3.158-7.3-3.267-15.01Z" class="Vector"/>
        <path fill="#000" d="m513.58 77.494 13.272-10.154-10.424-.108a28.753 28.753 0 0 1-2.848 10.262Z" class="Vector" opacity=".15"/>
        <path fill="#8A635B" d="M541.634 51.366c-2.035 15.024-16.528 18.24-29.585 17.117-17.49-1.434-14.03-41.2-5.727-48.926 8.303-7.726 32.677-2.833 35.638 10.087 1.533 6.682.727 15.641-.326 21.722Z" class="Vector"/>
        <path fill="#0F1011" d="M494.09 15.865c-.011-5.3 6.614-13.929 24.128-1.99 9.606.175 15.177.686 22.244 5.96 15.531 10.604 2.034 43.875-7.309 46.226-.956.57-1.188.106-1.52-.957a80.946 80.946 0 0 1-2.233-11.969c-.571-4.2-4.345-6.87-3.889-11.9.16-1.758 2.991-8.2-5.772-8.273-19.128 1.277-27.792-1.679-25.649-17.097Z" class="Vector"/>
        <path fill="#8A635B" d="M524.154 48.542c-.767 7.933 11.71 8.957 12.244 1 .919-8.19-12.436-8.771-12.244-1Z" class="Vector"/>
        <path fill="#0F1011" d="m526.851 29.056 4.524 1.656c-1.38 3.792 1.055 38.83-11.69 39.318-17.106 2.118-20.175-3.048-19.535-16.55 26.202 2.972 24.24-.78 26.701-24.424Z" class="Vector"/>
        <g class="Group">
          <path fill="#0F1011" d="M515.172 44.878a1.45 1.45 0 0 0 2.887.236 1.45 1.45 0 0 0-2.887-.236Zm-11.431-.938a1.45 1.45 0 0 0 2.888.237 1.45 1.45 0 0 0-2.888-.237Zm-1.067-2.969s3.842-.049 3.846-.048a.678.678 0 0 0 .648-.689.68.68 0 0 0-.665-.672l-3.838.048a.68.68 0 0 0-.65.685.68.68 0 0 0 .659.676Zm17.07 1.399c2.756-1.338-3.02-1.985-3.626-2.253a.683.683 0 0 0-.807.507.685.685 0 0 0 .489.817c.189.024 3.748.942 3.944.929Z" class="Vector"/>
        </g>
        <g class="Group" opacity=".15">
          <path fill="#000" d="M510.183 53.033c2.056-.926-2.4-1.631-2.8-1.883l2.061-4.591c-.38-3.118-2.955 4.556-3.2 4.7-.471 1.013 3.491 1.468 3.939 1.774Z" class="Vector"/>
        </g>
        <path fill="#F8FCFF" d="M515.946 56.408s-5.349.564-9.1-.746c-.155 4.598 8.517 5.292 9.1.746Z" class="Vector"/>
      </g>
    </g>
    <g class="Group">
      <path fill="#05FF4B" d="M427.733 86.494c17.727 0 32.098-14.37 32.098-32.098 0-17.727-14.371-32.098-32.098-32.098-17.727 0-32.098 14.37-32.098 32.098 0 17.727 14.371 32.098 32.098 32.098Z" class="Vector"/>
      <path fill="#372020" d="M423 67.557a2.16 2.16 0 0 1-1.484-.589l-10.491-9.9a2.152 2.152 0 0 1-.677-1.51 2.147 2.147 0 0 1 .588-1.546 2.166 2.166 0 0 1 3.057-.089l8.888 8.387 18.482-20.367a2.16 2.16 0 0 1 3.721 1.362 2.165 2.165 0 0 1-.521 1.544l-19.964 22a2.17 2.17 0 0 1-1.518.708H423Z" class="Vector"/>
    </g>
  </g>
  <defs>
    <clipPath id="a" class="a">
      <path fill="#fff" d="M0 0h655.443v496.288H0z"/>
    </clipPath>
  </defs>
</svg>
