<svg width="718" height="902" viewBox="0 0 718 902" fill="none" xmlns="http://www.w3.org/2000/svg">
<path d="M152.23 510.679L2.14001 405.789" stroke="#F26522" stroke-width="5" stroke-miterlimit="10" stroke-linejoin="round"/>
<path d="M503.06 432.301C435.89 472.301 353.95 425.171 357.8 424.351C484.78 396.741 496 316.631 496 316.631C470.65 254.691 401.55 274.631 401.55 274.631C399.55 362.531 294.93 367.481 294.93 367.481C288.21 338.961 288.58 272.371 288.58 272.371C256.87 250.201 250.45 259.611 250.45 259.611C260.45 171.611 300.72 143.241 300.72 143.241C307.43 136.991 337.42 122.941 352.82 121.121L353.37 123.561C353.37 123.561 337.8 162.441 367.64 165.001C392.75 167.201 407.02 136.291 410.91 126.481C443.56 136.601 474.72 159.251 495.45 197.351C544.49 287.491 503.06 432.301 503.06 432.301Z" fill="#F26522"/>
<path d="M510.32 394.371L673.53 502.371C705.18 523.311 701.11 570.971 666.4 586.241L475.4 670.301C457.637 678.117 438.162 681.229 418.848 679.339C399.534 677.45 381.031 670.621 365.12 659.511L291.77 608.231" stroke="#F26522" stroke-width="5" stroke-miterlimit="10" stroke-linejoin="round"/>
<path d="M510.43 429.64L504.94 426L673.67 537.62C705.32 558.56 701.25 606.22 666.54 621.49L475.54 705.55C457.777 713.365 438.302 716.478 418.988 714.588C399.674 712.698 381.171 705.87 365.26 694.76L272 628.34" stroke="#F26522" stroke-width="5" stroke-miterlimit="10" stroke-linejoin="round"/>
<path d="M652.35 580.28L476.8 657.55C460.475 664.73 442.577 667.59 424.827 665.852C407.077 664.115 390.073 657.84 375.45 647.63L308.18 600.37C317.442 593.272 327.821 587.763 338.89 584.07C366.62 574.651 393.682 563.369 419.89 550.3C439.785 540.458 457.261 526.344 471.069 508.966C484.878 491.587 494.678 471.374 499.77 449.77C503.29 434.82 506.38 419.7 508.91 404.5L663.41 506.63C692.49 525.87 684.24 566.26 652.35 580.28Z" fill="#FFE5D9"/>
<path d="M201.196 804.38C201.196 804.38 231.976 791.62 237.876 782C237.876 782 238.986 803.84 233.226 811.3C227.466 818.76 193.046 838.48 191.196 836.01C189.346 833.54 201.196 804.38 201.196 804.38Z" fill="#2D221E"/>
<path d="M104.923 856.59C104.923 856.59 110.523 864.19 130.393 856.59C150.263 848.99 193.493 821 193.493 821C193.493 821 181.433 853.38 177.063 856.94C172.693 860.5 90.1334 900.94 90.1334 900.94C90.1334 900.94 53.2234 906.19 67.1334 879.94L104.923 856.59Z" fill="#2D221E"/>
<path d="M224.219 433C178.719 450.71 130.569 492.32 144.419 607.55L148.269 637.49" stroke="#2D221E" stroke-miterlimit="10" stroke-linejoin="round"/>
<path d="M224 357.929C231.44 347.309 238.16 335.829 242.28 323.469C246.4 311.109 246.61 297.719 247.76 284.719C250.82 249.859 255.56 221.029 269.01 188.559C280.66 160.459 315.85 124.259 350.86 120.829L354.01 120.559" stroke="#362D29" stroke-miterlimit="10" stroke-linejoin="round"/>
<path d="M312 430.629C311.83 430.139 311.66 429.679 311.48 429.199" stroke="#F26522" stroke-miterlimit="10" stroke-linejoin="round"/>
<path d="M294.93 365.319C293.21 355.209 291.93 345.409 290.93 336.109C290.933 335.934 290.913 335.759 290.87 335.589C285.63 283.659 290.93 245.879 290.93 245.879" stroke="#F26522" stroke-miterlimit="10" stroke-linejoin="round"/>
<path d="M417.24 50.1415L409.24 53.262C409.24 53.512 409.24 56.632 408.9 61.002C408.528 66.221 407.698 71.397 406.42 76.472C407.13 73.012 408.16 64.792 403.64 59.072C403.57 58.955 403.49 58.844 403.4 58.742C400.4 55.132 396.7 56.562 393.73 59.042C391.679 60.777 389.888 62.798 388.41 65.042C388.928 58.361 387.73 51.659 384.93 45.5715C383.104 41.4189 380.682 37.5549 377.74 34.1015C382.27 49.7015 376.46 59.912 376.46 59.912C361.11 63.522 350.46 62.752 342.52 61.382C335.83 55.1421 338.15 32.6715 338.15 32.6715C331.42 38.1715 333.04 59.452 333.04 59.452C332.181 53.899 332.286 48.2389 333.35 42.7215C330.007 47.4492 328.076 53.029 327.78 58.812L327.66 58.752C327.196 58.633 326.739 58.489 326.29 58.322C325.466 57.888 324.668 57.4071 323.9 56.882L319.47 53.882C326.16 19.7515 349.55 -1.70846 385.69 4.59154C388.049 4.99814 390.371 5.60024 392.63 6.39154C416.44 18.8015 417.24 50.1415 417.24 50.1415Z" fill="#2D221E"/>
<path d="M211 382.539L201.89 355.119C201.688 354.481 201.327 353.904 200.841 353.444C200.354 352.984 199.759 352.655 199.11 352.489C199.03 352.489 198.94 352.489 198.85 352.429C198.76 352.369 198.74 352.429 198.68 352.429C198.47 352.415 198.26 352.415 198.05 352.429C197.039 352.433 196.068 352.818 195.33 353.509C194.59 354.192 194 355.021 193.595 355.944C193.191 356.866 192.981 357.862 192.98 358.869C192.981 359.657 193.106 360.44 193.35 361.189C195.35 366.979 198.91 377.429 200.6 382.189" fill="#F26522"/>
<path d="M208.94 382.541L199.12 352.491C199.04 352.491 198.95 352.491 198.86 352.431C198.77 352.371 198.75 352.431 198.69 352.431L193.54 351.431C190.79 350.921 188.04 350.371 185.29 349.861C181.99 349.201 178.67 348.651 175.38 347.861C174.603 347.641 173.805 347.507 173 347.461C171.986 347.458 171.011 347.849 170.28 348.551C169.534 349.233 168.939 350.065 168.534 350.992C168.129 351.918 167.924 352.92 167.93 353.931C167.925 354.71 168.05 355.484 168.3 356.221C170.51 362.701 174.72 374.961 176.06 378.681L208.94 382.541Z" fill="#2D221E"/>
<path d="M403.569 245.51C402.569 256.64 402.049 270.11 401.699 287.04C401.699 323.04 361.899 352.85 326.529 359.67L261.669 374.32C253.099 375.98 245.509 370.63 239.549 367.08C233.419 363.43 227.139 359.08 222.719 355.85C216.359 351.2 204.109 354.94 206.619 366.03C207.16 368.139 208.181 370.094 209.601 371.744C211.022 373.393 212.804 374.693 214.809 375.54C215.938 376.047 217.101 376.474 218.289 376.82C218.732 376.931 219.125 377.185 219.408 377.543C219.692 377.9 219.849 378.341 219.856 378.797C219.863 379.253 219.719 379.699 219.446 380.065C219.174 380.431 218.788 380.696 218.349 380.82C212.729 382.76 202.439 383.91 185.839 377.82C164.569 369.99 162.919 418.53 191.999 426.98H192.109C218.899 435.08 247.729 434.04 275.419 432.88C306.862 431.689 338.151 427.872 368.959 421.47C384.629 418.15 400.729 414.7 415.069 407.61C439.769 395.4 457.569 381.4 474.499 359.61C493.499 335.18 501.609 303.13 506.189 273.08C511.429 238.7 504.189 209.67 485.759 180.08L485.079 179" stroke="#2D221E" stroke-miterlimit="10" stroke-linejoin="round"/>
<path d="M211 382.539L201.89 355.119C201.688 354.481 201.327 353.904 200.841 353.444C200.354 352.984 199.759 352.655 199.11 352.489C199.03 352.489 198.94 352.489 198.85 352.429C198.76 352.369 198.74 352.429 198.68 352.429C198.47 352.415 198.26 352.415 198.05 352.429C197.039 352.433 196.068 352.818 195.33 353.509C194.59 354.192 194 355.021 193.595 355.944C193.191 356.866 192.981 357.862 192.98 358.869C192.981 359.657 193.106 360.44 193.35 361.189C195.35 366.979 198.91 377.429 200.6 382.189" fill="#2D221E"/>
<path d="M211 382.539L201.89 355.119C201.688 354.481 201.327 353.904 200.841 353.444C200.354 352.984 199.759 352.655 199.11 352.489C199.03 352.489 198.94 352.489 198.85 352.429C198.76 352.369 198.74 352.429 198.68 352.429C198.47 352.415 198.26 352.415 198.05 352.429C197.039 352.433 196.068 352.818 195.33 353.509C194.59 354.192 194 355.021 193.595 355.944C193.191 356.866 192.981 357.862 192.98 358.869C192.981 359.657 193.106 360.44 193.35 361.189C195.35 366.979 198.91 377.429 200.6 382.189" stroke="#524139" stroke-miterlimit="10" stroke-linejoin="round"/>
<path d="M199.12 352.491C199.04 352.491 198.95 352.491 198.86 352.431C198.77 352.371 198.75 352.431 198.69 352.431L193.54 351.431C190.79 350.921 188.04 350.371 185.29 349.861C181.99 349.201 178.67 348.651 175.38 347.861C174.603 347.641 173.805 347.507 173 347.461C171.986 347.458 171.011 347.849 170.28 348.551C169.534 349.233 168.939 350.065 168.534 350.992C168.129 351.918 167.924 352.92 167.93 353.931C167.925 354.71 168.05 355.484 168.3 356.221C170.51 362.701 174.72 374.961 176.06 378.681" fill="#2D221E"/>
<path d="M199.12 352.491C199.04 352.491 198.95 352.491 198.86 352.431C198.77 352.371 198.75 352.431 198.69 352.431L193.54 351.431C190.79 350.921 188.04 350.371 185.29 349.861C181.99 349.201 178.67 348.651 175.38 347.861C174.603 347.641 173.805 347.507 173 347.461C171.986 347.458 171.011 347.849 170.28 348.551C169.534 349.233 168.939 350.065 168.534 350.992C168.129 351.918 167.924 352.92 167.93 353.931C167.925 354.71 168.05 355.484 168.3 356.221C170.51 362.701 174.72 374.961 176.06 378.681" stroke="#F26522" stroke-miterlimit="10" stroke-linejoin="round"/>
<path d="M324.67 57.8281C324.67 70.8281 327.2 83.2581 333.44 94.7381C338.44 103.958 345.78 113.248 356.28 116.298C358.607 116.969 361.018 117.306 363.44 117.298C381.26 117.218 384.04 96.1081 384.04 96.1081" stroke="#2D221E" stroke-miterlimit="10" stroke-linejoin="round"/>
<path d="M408.3 65.3711V65.4311C407.474 71.8811 406.055 78.2421 404.06 84.4311C401.677 91.8141 401.114 99.6641 402.42 107.311L405.19 123.421C405.316 124.139 405.642 124.807 406.13 125.348C406.618 125.889 407.249 126.282 407.95 126.481C443.11 136.691 474.32 159.221 492.48 191.751C515.13 232.371 519.26 281.291 517.43 326.891C515.82 366.421 509.43 405.721 500.36 444.191C494.816 467.703 484.148 489.701 469.12 508.614C454.091 527.527 435.072 542.888 413.42 553.601C384.928 567.828 355.504 580.106 325.35 590.351C309.388 595.637 294.804 604.414 282.659 616.044C270.514 627.673 261.113 641.863 255.14 657.581L184.28 846.001C181.676 852.957 176.54 858.672 169.9 862.001L102 896.111C93.426 900.403 83.645 901.644 74.27 899.631C71.84 899.107 69.623 897.862 67.91 896.06C66.196 894.258 65.065 891.982 64.664 889.528C64.262 887.074 64.609 884.556 65.659 882.302C66.709 880.048 68.413 878.163 70.55 876.891L105.23 856.261L152.92 613.141C156.276 591.451 164.29 570.746 176.41 552.447C188.529 534.149 204.468 518.693 223.13 507.141C225.618 505.624 228.211 504.288 230.89 503.141L334.27 458.251" stroke="#2D221E" stroke-miterlimit="10" stroke-linejoin="round"/>
<path d="M354.84 121.148C354.84 121.148 336.55 163.078 369.26 165.148C398.61 167.028 409.38 127.148 409.38 127.148" stroke="#F26522" stroke-miterlimit="10" stroke-linejoin="round"/>
<path d="M339 76V92.59C339.001 92.792 339.05 92.991 339.143 93.17C339.235 93.35 339.368 93.505 339.532 93.624C339.695 93.743 339.884 93.821 340.084 93.854C340.283 93.886 340.487 93.871 340.68 93.81C341.985 93.378 343.184 92.676 344.2 91.75" stroke="#2D221E" stroke-miterlimit="10" stroke-linejoin="round"/>
<path d="M329.916 88.8595C335.149 86.8195 337.092 79.2676 334.255 71.9916C331.418 64.7156 324.876 60.4716 319.643 62.5116C314.41 64.5516 312.468 72.1036 315.304 79.3796C318.141 86.6556 324.683 90.8995 329.916 88.8595Z" fill="#F26522" stroke="#2D221E" stroke-miterlimit="10" stroke-linecap="round" stroke-linejoin="round"/>
<path d="M359.916 93.8596C365.149 91.8196 367.092 84.2676 364.255 76.9916C361.418 69.7156 354.877 65.4716 349.644 67.5116C344.41 69.5516 342.468 77.1036 345.305 84.3796C348.141 91.6556 354.683 95.8996 359.916 93.8596Z" fill="#F26522" stroke="#2D221E" stroke-miterlimit="10" stroke-linecap="round" stroke-linejoin="round"/>
<path d="M334.29 77.0789C334.29 77.0789 337.39 73.5389 343.89 77.6889" stroke="#2D221E" stroke-miterlimit="10" stroke-linejoin="round"/>
<path d="M353.37 115.25C353.37 115.25 355.62 122.87 362.24 147.57" stroke="#2D221E" stroke-miterlimit="10" stroke-linejoin="round"/>
<path d="M188 836.079L227 815.029C229.235 813.818 231.14 812.078 232.55 809.963C233.96 807.847 234.832 805.419 235.09 802.889C241.57 739.239 239.59 699 239.59 699" stroke="#2D221E" stroke-miterlimit="10" stroke-linejoin="round"/>
<path d="M143.73 539.581L2.14001 440.621" stroke="#F26522" stroke-width="5" stroke-miterlimit="10" stroke-linejoin="round"/>
<path d="M717.86 340.212V426.082C717.86 430.019 716.716 433.872 714.568 437.172C712.42 440.472 709.36 443.078 705.76 444.672L599.26 491.832L566.7 541.312C565.862 542.539 564.656 543.467 563.255 543.963C561.855 544.459 560.332 544.496 558.909 544.07C557.486 543.643 556.236 542.775 555.339 541.591C554.442 540.406 553.945 538.967 553.92 537.482V511.922L543 516.752C540.571 517.814 537.916 518.256 535.274 518.038C532.633 517.82 530.086 516.949 527.864 515.503C525.642 514.058 523.814 512.083 522.544 509.756C521.275 507.429 520.603 504.822 520.59 502.172V430.462C520.591 421.518 523.208 412.769 528.117 405.293C533.026 397.816 540.013 391.938 548.22 388.382L694.58 324.932C697.114 323.832 699.882 323.379 702.634 323.616C705.386 323.852 708.037 324.769 710.346 326.285C712.655 327.801 714.551 329.868 715.863 332.299C717.175 334.73 717.861 337.449 717.86 340.212Z" fill="#2D221E"/>
<path d="M587.217 452.446C592.463 442.326 591.043 431.182 584.046 427.555C577.049 423.928 567.124 429.192 561.878 439.312C556.633 449.433 558.052 460.577 565.049 464.204C572.046 467.831 581.971 462.567 587.217 452.446Z" fill="#F26522"/>
<path d="M632.701 432.978C637.946 422.857 636.527 411.713 629.53 408.086C622.533 404.459 612.608 409.723 607.362 419.843C602.116 429.964 603.536 441.108 610.533 444.735C617.53 448.362 627.455 443.098 632.701 432.978Z" fill="#F26522"/>
<path d="M676.654 411.954C681.9 401.834 680.481 390.689 673.484 387.063C666.487 383.436 656.562 388.7 651.316 398.82C646.07 408.94 647.49 420.085 654.487 423.712C661.483 427.338 671.408 422.074 676.654 411.954Z" fill="#F26522"/>
</svg>
