<svg width="858" height="587" viewBox="0 0 858 587" fill="none" xmlns="http://www.w3.org/2000/svg">
  <g clip-path="url(#clip0_264_2437)">
    <path d="M857.063 586.493H0C9.391 550.14 26.734 519.301 51.182 510.153C86.946 496.788 124.793 533.539 160.482 519.719C180.756 511.878 196.716 489.019 213.488 470.045C276.76 398.445 363.463 377.278 438.341 415.18C477.476 434.98 513.141 469.609 553.226 484.332C605.067 503.376 659.28 487.583 712.591 484.979C764.5 482.448 838.9 514.561 857.063 586.493Z" fill="#F3F5FD"/>
    <path d="M315.77 576.6C312.98 579.78 310.03 583.09 306.84 586.3C306.84 586.3 235.432 585.786 189.68 586.3C188.188 586.317 119.75 582.86 92.8401 564.65C87.3201 560.92 81.5801 555.71 81.7801 549.04C81.9301 544.02 85.6501 539.63 90.1401 537.36C91.8177 536.533 93.5865 535.905 95.4101 535.49C95.4201 535.49 95.4301 535.49 95.4301 535.48C98.2459 534.876 101.111 534.531 103.99 534.45L104.81 534.42C118.512 533.918 132.213 535.441 145.47 538.94C146.67 539.253 147.94 539.15 149.075 538.649C150.209 538.147 151.14 537.277 151.716 536.179C152.292 535.081 152.48 533.82 152.248 532.602C152.016 531.384 151.379 530.28 150.44 529.47C148.728 528.005 146.872 526.719 144.9 525.63C142.006 524.071 138.973 522.785 135.84 521.79C131.66 520.42 127.34 519.39 123.08 518.28C107.25 514.178 91.7738 508.814 76.8001 502.24C66.1101 497.54 55.3401 491.97 48.0301 482.86C44.6701 478.67 42.0601 473.43 42.7201 468.1C43.8201 459.34 53.2301 453.94 62.0001 452.84C77.3701 450.92 92.3701 457.78 106.05 465.03C117.4 471.06 130.08 477.7 142.47 474.28C144.615 473.8 146.573 472.701 148.1 471.12C150.9 467.88 150.21 462.7 147.71 459.22C145.21 455.74 141.33 453.57 137.59 451.49C115.86 439.42 94.1601 426.57 76.8201 408.77C59.4801 390.97 46.7301 367.45 46.7101 342.59C46.7101 335.32 47.8401 327.88 51.2901 321.48C54.7401 315.08 60.7801 309.81 67.9401 308.5C77.6901 306.7 87.2901 312.31 94.6701 318.92C120.02 341.6 130.13 376.18 145.1 406.72C149.29 415.27 154.14 423.86 161.87 429.51C162.593 430.06 163.425 430.449 164.31 430.65C169.53 431.77 171.81 425.36 172.05 420.47C172.98 401.13 168.22 380.9 175.26 362.86C177.95 355.99 182.78 349.41 189.81 347.18C198.4 344.46 208.06 349.24 213.22 356.63C218.38 364.02 219.77 373.41 219.73 382.42C219.65 399.13 215.13 415.58 208.49 430.91C204.99 439 200.79 447.39 201.79 456.14C202.47 462.01 206.78 467.72 211.99 469.79C213.253 470.328 214.611 470.607 215.983 470.61C217.356 470.614 218.715 470.342 219.98 469.81C222.71 468.64 224.79 466.38 226.79 464.19C227.63 463.27 228.47 462.34 229.32 461.42C232.66 457.76 236 454.097 239.34 450.43C247.83 441.11 258.44 430.96 270.95 432.56C277.34 433.38 282.63 437.35 286.25 442.7C289.512 447.562 291.352 453.239 291.56 459.09C291.94 471.277 325.17 565.9 315.77 576.6Z" fill="#979E3D"/>
    <path d="M535.07 8.823H289.671C270.879 8.823 255.645 24.057 255.645 42.849V543.569C255.645 562.361 270.879 577.595 289.671 577.595H535.07C553.862 577.595 569.096 562.361 569.096 543.569V42.849C569.096 24.057 553.862 8.823 535.07 8.823Z" fill="white"/>
    <path d="M535.07 586.419H289.67C278.31 586.406 267.419 581.887 259.386 573.854C251.353 565.821 246.834 554.929 246.821 543.569V42.85C246.834 31.4895 251.353 20.5982 259.386 12.5651C267.419 4.53202 278.311 0.0132329 289.671 0L535.071 0C546.431 0.0134975 557.322 4.5324 565.355 12.5654C573.388 20.5985 577.907 31.4897 577.92 42.85V543.569C577.907 554.929 573.388 565.821 565.355 573.854C557.322 581.887 546.431 586.406 535.07 586.419ZM289.671 17.647C282.99 17.6552 276.585 20.3128 271.861 25.037C267.137 29.7611 264.479 36.1661 264.471 42.847V543.569C264.479 550.25 267.137 556.655 271.861 561.379C276.585 566.103 282.99 568.761 289.671 568.769H535.071C541.752 568.761 548.157 566.103 552.881 561.379C557.605 556.655 560.263 550.25 560.271 543.569V42.85C560.263 36.1691 557.605 29.7641 552.881 25.04C548.157 20.3158 541.752 17.6582 535.071 17.65L289.671 17.647Z" fill="#F5DEDE"/>
    <path d="M358.639 8.823H466.1V29.674C466.1 33.8118 464.456 37.78 461.531 40.7063C458.606 43.6326 454.638 45.2774 450.5 45.279H374.25C370.111 45.279 366.141 43.6347 363.214 40.7078C360.287 37.7809 358.643 33.8112 358.643 29.672V8.823H358.639Z" fill="#F5DEDE"/>
    <path d="M519.637 324.442H302.78V371.75H519.637V324.442Z" fill="#ECEDC1"/>
    <path d="M586.162 133.963C586.009 119.094 591.885 109.88 599.853 104.821C607.715 99.83 632.368 95.485 641.716 113.605C647.816 125.43 645.408 129.657 647.135 148.596C648.862 167.535 655.501 169.523 662.235 192.479C667.515 210.486 637.94 220.045 612.324 219.219C586.708 218.393 570.474 212.719 568.987 196.432C566.851 173.053 586.463 163.1 586.162 133.963Z" fill="black"/>
    <path d="M602.423 175.073C602.423 175.073 610.123 170.9 608.198 149.862L624.147 146.754C624.147 146.754 622.525 165.654 630.662 171.568L602.423 175.073Z" fill="#CA9682"/>
    <g opacity="0.15">
      <path d="M627.352 167.65L613.987 157.619L624.41 157.419C624.745 160.983 625.743 164.453 627.352 167.65Z" fill="black"/>
    </g>
    <path d="M599.059 141.782C600.224 148.16 603.765 154.177 609.419 156.189C615.584 158.57 622.238 159.407 628.8 158.627C646.276 157.032 642.451 117.298 634.077 109.65C625.703 102.002 601.377 107.117 598.534 120.063C597.062 126.759 597.951 135.711 599.059 141.782Z" fill="#CA9682"/>
    <path d="M624.018 136.632C624.818 136.632 625.467 135.983 625.467 135.183C625.467 134.383 624.818 133.734 624.018 133.734C623.218 133.734 622.569 134.383 622.569 135.183C622.569 135.983 623.218 136.632 624.018 136.632Z" fill="black"/>
    <path d="M635.44 135.589C636.24 135.589 636.889 134.94 636.889 134.14C636.889 133.34 636.24 132.691 635.44 132.691C634.639 132.691 633.991 133.34 633.991 134.14C633.991 134.94 634.639 135.589 635.44 135.589Z" fill="black"/>
    <path d="M637.916 131.03L634.078 131.017C633.902 131.01 633.735 130.935 633.612 130.808C633.49 130.681 633.422 130.512 633.422 130.335C633.422 130.159 633.49 129.99 633.612 129.863C633.735 129.735 633.902 129.661 634.078 129.654L637.916 129.667C638.092 129.674 638.259 129.748 638.381 129.876C638.503 130.003 638.572 130.172 638.572 130.348C638.572 130.525 638.503 130.694 638.381 130.821C638.259 130.948 638.092 131.023 637.916 131.03Z" fill="black"/>
    <path d="M620.86 132.585C620.694 132.584 620.535 132.523 620.411 132.413C620.287 132.303 620.208 132.151 620.188 131.987C620.168 131.822 620.208 131.656 620.302 131.519C620.395 131.383 620.535 131.285 620.696 131.244L624.472 130.299C624.645 130.26 624.827 130.291 624.978 130.384C625.13 130.477 625.238 130.626 625.281 130.798C625.325 130.971 625.298 131.153 625.209 131.307C625.119 131.46 624.973 131.573 624.802 131.62L621.026 132.565C620.972 132.579 620.916 132.585 620.86 132.585Z" fill="black"/>
    <path d="M624.8 146.588C624.8 146.588 630.154 147.103 633.89 145.758C633.89 145.758 633.89 149.28 629.664 149.667C625.438 150.054 624.8 146.588 624.8 146.588Z" fill="white"/>
    <path d="M610.675 125.123C611.875 140.085 610.378 155.142 606.255 169.575C606.255 169.575 593.855 148.675 591.79 131.188C590.961 125.1 592.344 118.917 595.688 113.763C599.032 108.608 604.114 104.825 610.011 103.1C637.911 96.155 643.143 118.472 643.143 118.472C641.143 126.181 607.32 130.963 607.32 130.963" fill="black"/>
    <path d="M616.759 141.493C616.907 143.115 616.405 144.73 615.363 145.982C614.32 147.234 612.823 148.021 611.201 148.169C609.579 148.317 607.964 147.815 606.712 146.773C605.46 145.73 604.673 144.233 604.525 142.611C604.439 141.822 604.51 141.024 604.733 140.263C604.955 139.501 605.326 138.791 605.823 138.173C606.32 137.555 606.934 137.041 607.63 136.66C608.326 136.279 609.09 136.039 609.879 135.953C609.947 135.946 610.016 135.94 610.079 135.935C614.46 135.752 616.451 138.116 616.759 141.493Z" fill="#CA9682"/>
    <g opacity="0.15">
      <path d="M630.519 143.16C630.4 143.16 630.284 143.118 630.193 143.04C630.102 142.962 630.042 142.855 630.024 142.736C630.006 142.618 630.03 142.497 630.094 142.396C630.157 142.294 630.254 142.219 630.368 142.183L633.307 141.251L631.207 136.68C631.177 136.62 631.16 136.555 631.156 136.488C631.152 136.421 631.162 136.354 631.184 136.291C631.206 136.228 631.241 136.17 631.286 136.121C631.331 136.072 631.385 136.032 631.446 136.004C631.507 135.976 631.573 135.96 631.639 135.958C631.706 135.956 631.773 135.968 631.835 135.992C631.898 136.016 631.954 136.052 632.003 136.098C632.051 136.145 632.089 136.2 632.115 136.262L634.455 141.348C634.485 141.412 634.5 141.483 634.5 141.554C634.5 141.624 634.485 141.695 634.455 141.759C634.427 141.824 634.384 141.882 634.332 141.929C634.279 141.976 634.217 142.012 634.149 142.033L630.672 143.133C630.623 143.15 630.571 143.159 630.519 143.16Z" fill="black"/>
    </g>
    <path d="M676.969 209.279C676.969 209.279 687.799 200.314 688.512 197.164C689.225 194.014 681.359 187.99 681.359 187.99C681.359 187.99 683.536 185.707 685.659 183.115C688.109 180.122 690.488 176.715 689.372 175.933C688.294 175.177 685.456 177.691 682.604 180.76C678.94 184.7 675.255 189.553 675.255 189.553C675.255 189.553 676.837 184.083 674.725 183.769C673.857 183.64 673.188 184.504 671.911 188.377C670.459 192.791 667.505 199.446 667.505 199.446L676.969 209.279Z" fill="#CA9682"/>
    <path d="M584.459 460.619L579.316 440.258C587.022 438.312 596.255 435.909 597.733 435.422C597.639 435.455 597.562 435.484 597.503 435.507L605.015 455.117C604.427 455.342 602.638 456.028 584.459 460.619Z" fill="#CA9682"/>
    <path d="M585.277 488.047C585.45 488.558 585.723 489.029 586.079 489.434C586.435 489.84 586.867 490.171 587.351 490.409C587.835 490.647 588.362 490.787 588.9 490.822C589.438 490.857 589.978 490.785 590.489 490.611C590.583 490.579 590.677 490.543 590.771 490.503C591.491 490.197 592.11 489.692 592.553 489.047C592.996 488.401 593.245 487.642 593.271 486.86L593.256 461.083C593.254 460.584 593.144 460.092 592.934 459.64C592.724 459.187 592.419 458.786 592.04 458.462C588.76 456.019 586.35 452.587 585.167 448.672C584.369 445.581 584.455 442.328 585.416 439.284C585.52 439.01 585.544 438.712 585.485 438.424C585.426 438.137 585.286 437.872 585.083 437.661C584.879 437.45 584.62 437.301 584.335 437.232C584.049 437.163 583.751 437.176 583.473 437.27L572.142 441.07C571.468 441.296 570.913 441.781 570.596 442.417C570.28 443.053 570.23 443.789 570.456 444.462V444.47L585.277 488.047Z" fill="#ECEDC1"/>
    <path d="M634.221 578.053L613.221 577.984C613.221 577.984 613.291 556.3 613.291 554.384H634.291C634.291 556.3 634.221 578.053 634.221 578.053Z" fill="#CA9682"/>
    <path d="M656.613 281.3C661.366 290.817 665.884 300.146 670.413 309.526L710.681 393.826L711.028 394.548C713.152 398.966 713.434 404.047 711.811 408.673C710.189 413.299 706.796 417.091 702.378 419.215C702.239 419.282 702.023 419.381 701.878 419.444L602.257 463.767L587.216 429.962L686.838 385.639L678.038 411.257C678.038 411.257 619.27 313.82 613.916 305.269L656.613 281.3Z" fill="#262626"/>
    <path d="M633.185 441.319C630.115 402.886 626.548 326.055 626.548 326.055L655.274 281.624L579.198 276.924C579.198 276.924 575.71 307.658 576.351 326.624C579.109 408.286 596.498 488.717 607.886 569.558L644.601 564.977C640.569 523.824 636.713 482.527 633.185 441.319Z" fill="#262626"/>
    <path d="M682.922 212.568L685.728 202.283L666.545 194.946L662.471 204.981L659.825 191.761C659.084 179.37 654.192 170.228 638.189 169.538C637.56 169.508 636.55 169.488 635.249 169.468C634.99 174.968 600.93 174.948 600.209 169.338C590.59 169.347 582.7 172.298 578.129 176.868C562.379 192.618 581.709 219.458 581.709 240.458C581.709 261.458 572.209 270.878 572.909 281.658C574.009 298.598 656.339 294.598 660.528 284.968C663.954 277.102 659.152 271.612 657.21 253.498C657.433 253.533 657.655 253.568 657.882 253.589C658.227 253.621 658.57 253.638 658.911 253.638C661.08 253.637 663.199 252.99 664.998 251.778C666.797 250.567 668.194 248.847 669.011 246.838L677.755 225.304L686.787 221.32L682.922 212.568Z" fill="#771F19"/>
    <path d="M635.246 169.469C634.987 174.969 631.996 183.059 622.766 183.669C610.466 184.479 600.927 174.949 600.206 169.339H600.237C612.347 169.34 628.186 169.359 635.246 169.469Z" fill="#CA9682"/>
    <path d="M659.725 586.6C660.265 586.598 660.798 586.489 661.296 586.28C661.793 586.072 662.245 585.767 662.624 585.384C663.004 585 663.304 584.546 663.508 584.047C663.712 583.547 663.816 583.012 663.813 582.473C663.813 582.373 663.809 582.273 663.801 582.173C663.74 581.393 663.458 580.646 662.987 580.02C662.516 579.395 661.876 578.918 661.142 578.644L636.7 570.456C636.227 570.299 635.725 570.246 635.229 570.301C634.733 570.356 634.255 570.517 633.827 570.774C630.467 573.106 626.448 574.298 622.36 574.174C619.176 573.947 616.12 572.831 613.539 570.952C613.313 570.765 613.038 570.647 612.746 570.611C612.455 570.575 612.16 570.623 611.894 570.749C611.629 570.875 611.406 571.074 611.249 571.322C611.093 571.571 611.011 571.859 611.012 572.152V584.104C611.012 584.814 611.294 585.495 611.796 585.997C612.298 586.499 612.978 586.781 613.688 586.782H613.701L659.725 586.6Z" fill="#ECEDC1"/>
    <path d="M526.561 97.875H295.857C287.167 97.875 280.122 104.92 280.122 113.61V247.436C280.122 256.126 287.167 263.171 295.857 263.171H526.561C535.251 263.171 542.296 256.126 542.296 247.436V113.61C542.296 104.92 535.251 97.875 526.561 97.875Z" fill="#C08230"/>
    <path d="M348.503 122.376H315.302C309.272 122.376 304.383 127.265 304.383 133.295V150.865C304.383 156.895 309.272 161.784 315.302 161.784H348.503C354.533 161.784 359.422 156.895 359.422 150.865V133.295C359.422 127.265 354.533 122.376 348.503 122.376Z" fill="white"/>
    <path d="M522.731 194.534H304.383V202.318H522.731V194.534Z" fill="white"/>
    <path d="M788.024 502.654C783.024 501.018 777.892 502.854 772.983 506.589C779.45 490.259 782.119 475.509 771.063 474.844C763.327 474.38 757.401 480.314 752.899 488.752C751.316 473.917 747.231 462.852 738.08 466.521C728.034 470.548 726.506 484.35 728.03 498.792C723.604 491.416 718.839 487.302 714.512 491.629C701.599 504.542 733.295 540.929 733.295 540.929H741.166L745.659 545.806C744.749 547.729 744.251 548.874 744.251 548.874L749.957 560.486C749.957 560.486 808.775 509.447 788.024 502.654Z" fill="#979E3D"/>
    <path d="M773.911 586.493H729.361L721.903 534.486H781.368L773.911 586.493Z" fill="#ECEDC1"/>
    <path d="M765.68 154.26C796.821 154.26 822.065 129.016 822.065 97.875C822.065 66.7344 796.821 41.49 765.68 41.49C734.539 41.49 709.295 66.7344 709.295 97.875C709.295 129.016 734.539 154.26 765.68 154.26Z" fill="#F3F5FD"/>
    <path d="M787.5 87.89H784.392V80.947C784.356 76.0076 782.368 71.2827 778.863 67.8027C775.357 64.3227 770.618 62.3698 765.679 62.3698C760.739 62.3698 756 64.3227 752.494 67.8027C748.989 71.2827 747.001 76.0076 746.965 80.947V87.89H743.857C743.154 87.89 742.457 88.0286 741.807 88.2978C741.157 88.567 740.567 88.9616 740.069 89.4591C739.572 89.9565 739.177 90.5471 738.908 91.197C738.639 91.847 738.501 92.5435 738.501 93.247V128.161C738.501 129.581 739.065 130.944 740.07 131.948C741.074 132.953 742.436 133.517 743.857 133.517H787.5C788.92 133.517 790.283 132.953 791.287 131.948C792.292 130.944 792.856 129.581 792.856 128.161V93.247C792.856 92.5435 792.718 91.847 792.449 91.197C792.18 90.5471 791.785 89.9565 791.288 89.4591C790.79 88.9616 790.2 88.567 789.55 88.2978C788.9 88.0286 788.203 87.89 787.5 87.89ZM753.05 80.947C753.05 77.5973 754.381 74.3848 756.749 72.0162C759.118 69.6476 762.33 68.317 765.68 68.317C769.03 68.317 772.242 69.6476 774.611 72.0162C776.979 74.3848 778.31 77.5973 778.31 80.947V87.89H753.05V80.947Z" fill="#C08230"/>
    <path d="M765.68 118.813C769.96 118.813 773.43 115.343 773.43 111.063C773.43 106.783 769.96 103.313 765.68 103.313C761.4 103.313 757.93 106.783 757.93 111.063C757.93 115.343 761.4 118.813 765.68 118.813Z" fill="white"/>
    <path d="M705.84 184.3C705.82 184.42 705.79 184.55 705.76 184.67L698.13 212.04C697.907 212.853 697.391 213.554 696.682 214.01C695.974 214.466 695.122 214.644 694.29 214.51L682.89 212.69L679.97 206.25L687.04 180.9C687.264 180.088 687.78 179.388 688.488 178.934C689.197 178.48 690.049 178.304 690.88 178.44L703 180.37C703.444 180.441 703.87 180.6 704.254 180.836C704.637 181.072 704.97 181.382 705.234 181.747C705.498 182.112 705.687 182.525 705.791 182.963C705.895 183.401 705.911 183.855 705.84 184.3Z" fill="#ECEDC1"/>
    <path d="M702.94 198.377C701.55 209.777 689.85 214.677 684.53 216.327L678.58 203.157C681.05 200.457 683.89 197.747 685.28 198.567C686.14 199.067 684.81 201.837 683.71 203.797C688.51 202.677 695.35 194.237 700.85 192.597C702.97 191.957 703.15 196.677 702.94 198.377Z" fill="#CA9682"/>
  </g>
  <defs>
    <clipPath id="clip0_264_2437">
      <rect width="857.063" height="586.783" fill="white"/>
    </clipPath>
  </defs>
</svg>
