<svg width="838" height="905" viewBox="0 0 838 905" fill="none" xmlns="http://www.w3.org/2000/svg">
<path d="M788.646 307.101H636.876C624.24 307.101 613.996 317.345 613.996 329.981V589.191C613.996 601.828 624.24 612.071 636.876 612.071H788.646C801.282 612.071 811.526 601.828 811.526 589.191V329.981C811.526 317.345 801.282 307.101 788.646 307.101Z" fill="#3FBDF1"/>
<path d="M581.186 307.101H475.506C462.87 307.101 452.626 317.345 452.626 329.981V589.191C452.626 601.828 462.87 612.071 475.506 612.071H581.186C593.822 612.071 604.066 601.828 604.066 589.191V329.981C604.066 317.345 593.822 307.101 581.186 307.101Z" fill="#3FBDF1"/>
<path d="M461.376 767.151H810.436C816.467 767.148 822.251 764.752 826.516 760.488C830.782 756.224 833.181 750.442 833.186 744.411V311.121C833.187 308.133 832.6 305.174 831.457 302.413C830.314 299.652 828.638 297.144 826.526 295.031C824.413 292.918 821.904 291.243 819.144 290.1C816.383 288.957 813.424 288.369 810.436 288.371H573.216L511.216 288.741H511.036L479.686 289.961H479.586L471.336 290.281H470.606L469.996 295.191L468.796 304.321C468.809 304.338 468.816 304.359 468.816 304.381C468.816 304.402 468.809 304.423 468.796 304.441L459.036 318.901L457.036 321.831L451.526 357.091V357.261C451.406 357.211 451.286 357.141 451.136 357.061C451.016 356.991 450.902 356.911 450.796 356.821C448.942 355.425 447.549 353.506 446.796 351.311C444.966 346.671 444.526 340.521 444.506 335.641L443.306 362.431V362.531L441.636 398.321L441.226 407.931C442.006 406.541 443.126 404.541 444.426 402.151L440.276 428.671L439.416 447.781L437.276 496.071L437.196 497.871V498.561L436.636 510.321V510.591C436.636 510.591 435.036 545.101 435.036 545.151L434.886 548.351L433.036 562.321L427.636 601.411V744.411C427.637 748.485 428.735 752.484 430.815 755.987C432.895 759.49 435.88 762.369 439.456 764.321C446.226 767.991 453.716 767.501 461.156 767.251C463.156 767.191 465.156 767.101 467.156 766.991" fill="#8F1F12"/>
<path d="M448.126 759.692C447.986 759.692 447.836 759.562 447.666 759.512C445.765 758.831 443.968 757.888 442.326 756.712C439.445 754.665 437.098 751.956 435.481 748.813C433.865 745.671 433.026 742.186 433.036 738.652V547.812L427.636 550.402L427.296 550.572L426.566 548.762L422.956 539.762L421.956 537.272L412.826 514.482C412.826 514.482 430.166 444.322 441.636 398.322C445.836 381.432 449.256 367.792 450.696 362.062C451.136 360.352 451.396 359.352 451.446 359.182C451.45 359.142 451.45 359.102 451.446 359.062C451.476 358.721 451.424 358.379 451.296 358.062C451.154 357.693 450.983 357.335 450.786 356.992C450.763 356.921 450.729 356.853 450.686 356.792C449.497 354.769 448.16 352.837 446.686 351.012L444.786 327.482L445.096 327.242L446.536 326.092L456.376 318.292L458.666 312.232L463.156 300.452L465.156 295.202H469.916H471.136H479.746L511.566 295.102H514.296L574.666 294.742H805.656C808.565 294.742 811.445 295.315 814.132 296.429C816.819 297.543 819.26 299.176 821.315 301.234C823.37 303.292 825 305.735 826.11 308.424C827.22 311.112 827.79 313.993 827.786 316.902V738.652C827.79 741.561 827.22 744.441 826.11 747.13C825 749.818 823.37 752.261 821.315 754.32C819.26 756.378 816.819 758.01 814.132 759.124C811.445 760.238 808.565 760.812 805.656 760.812H461.796" fill="#F26522"/>
<path d="M471.236 288.961L479.416 288.911H479.586L510.986 288.741H511.206L573.206 288.371H810.436C816.469 288.373 822.254 290.771 826.52 295.037C830.786 299.303 833.183 305.088 833.186 311.121V744.411C833.181 750.442 830.782 756.224 826.516 760.488C822.251 764.752 816.467 767.148 810.436 767.151H449.766C443.889 767.151 438.252 764.816 434.097 760.66C429.941 756.504 427.606 750.868 427.606 744.991V697.681" stroke="black" stroke-width="4.5" stroke-miterlimit="10"/>
<path d="M788.646 634.468H475.506C462.87 634.468 452.626 644.712 452.626 657.348V720.958C452.626 733.595 462.87 743.838 475.506 743.838H788.646C801.282 743.838 811.526 733.595 811.526 720.958V657.348C811.526 644.712 801.282 634.468 788.646 634.468Z" fill="white"/>
<path d="M684.03 659H481.75C477.47 659 474 662.47 474 666.75V713.47C474 717.75 477.47 721.22 481.75 721.22H684.03C688.31 721.22 691.78 717.75 691.78 713.47V666.75C691.78 662.47 688.31 659 684.03 659Z" fill="#F26522"/>
<path d="M648.826 685.04C652.383 685.04 655.266 682.157 655.266 678.6C655.266 675.043 652.383 672.16 648.826 672.16C645.269 672.16 642.386 675.043 642.386 678.6C642.386 682.157 645.269 685.04 648.826 685.04Z" fill="white"/>
<path d="M630.846 707.718C630.846 702.945 632.742 698.366 636.118 694.99C639.494 691.615 644.072 689.718 648.846 689.718C653.62 689.718 658.198 691.615 661.574 694.99C664.95 698.366 666.846 702.945 666.846 707.718H630.846Z" fill="white"/>
<path d="M747.806 658.84C741.535 658.834 735.402 660.688 730.185 664.168C724.968 667.648 720.9 672.597 718.497 678.39C716.093 684.182 715.462 690.558 716.682 696.709C717.903 702.861 720.921 708.512 725.354 712.948C729.787 717.384 735.436 720.405 741.587 721.629C747.737 722.854 754.113 722.226 759.907 719.826C765.701 717.427 770.653 713.362 774.136 708.147C777.62 702.932 779.478 696.801 779.476 690.53C779.477 686.369 778.659 682.249 777.068 678.405C775.478 674.561 773.145 671.068 770.204 668.125C767.263 665.183 763.772 662.848 759.929 661.255C756.086 659.662 751.966 658.841 747.806 658.84ZM747.806 714.57C747.179 714.599 746.553 714.5 745.965 714.281C745.378 714.061 744.841 713.724 744.387 713.291C743.933 712.858 743.572 712.337 743.325 711.76C743.078 711.183 742.951 710.562 742.951 709.935C742.951 709.307 743.078 708.686 743.325 708.109C743.572 707.532 743.933 707.012 744.387 706.578C744.841 706.145 745.378 705.808 745.965 705.589C746.553 705.369 747.179 705.27 747.806 705.3C748.998 705.355 750.123 705.867 750.947 706.731C751.771 707.594 752.231 708.741 752.231 709.935C752.231 711.128 751.771 712.275 750.947 713.138C750.123 714.002 748.998 714.514 747.806 714.57ZM753.636 678.92C752.636 685.8 751.826 693.02 749.776 699.68C749.316 701.29 746.286 701.29 745.776 699.68C744.323 694.661 743.213 689.549 742.456 684.38C741.816 680.63 739.626 674.53 741.726 670.89C743.576 667.62 748.796 667.23 751.796 668.89C755.536 671.01 754.036 675.5 753.636 678.92Z" fill="#F26522"/>
<path d="M781.466 527.56C779.93 540.81 774.445 553.292 765.724 563.385C757.003 573.478 745.449 580.715 732.562 584.158C719.675 587.6 706.051 587.088 693.459 582.688C680.867 578.288 669.889 570.203 661.95 559.484C654.012 548.765 649.48 535.906 648.942 522.578C648.405 509.251 651.888 496.069 658.938 484.746C665.989 473.423 676.281 464.481 688.478 459.082C700.675 453.683 714.214 452.076 727.336 454.47C727.913 454.581 728.461 454.81 728.946 455.141C729.432 455.472 729.844 455.899 730.158 456.395C730.472 456.892 730.681 457.448 730.772 458.028C730.862 458.609 730.833 459.202 730.686 459.77L729.376 464.88L717.636 510.72C717.449 511.451 717.457 512.219 717.66 512.945C717.863 513.672 718.254 514.333 718.793 514.861C719.332 515.388 720 515.765 720.731 515.953C721.462 516.141 722.229 516.133 722.956 515.93L768.526 503.19L774.756 501.45C775.311 501.294 775.892 501.251 776.464 501.324C777.035 501.397 777.587 501.584 778.085 501.874C778.583 502.164 779.018 502.551 779.363 503.013C779.709 503.474 779.958 504.001 780.096 504.56C781.89 512.089 782.354 519.873 781.466 527.56Z" fill="white"/>
<path d="M783.036 480.32C783.252 480.878 783.347 481.476 783.317 482.075C783.287 482.673 783.132 483.258 782.861 483.793C782.591 484.327 782.211 484.799 781.747 485.177C781.283 485.556 780.744 485.832 780.166 485.99L775.876 487.19L738.766 497.56C738.039 497.762 737.272 497.77 736.541 497.582C735.81 497.394 735.142 497.018 734.603 496.49C734.064 495.962 733.673 495.301 733.47 494.575C733.267 493.848 733.259 493.081 733.446 492.35L743.036 455.03L743.956 451.45C744.101 450.881 744.361 450.347 744.721 449.883C745.08 449.419 745.532 449.035 746.047 448.753C746.563 448.472 747.13 448.299 747.715 448.247C748.3 448.195 748.889 448.264 749.446 448.45C756.996 451.055 763.9 455.248 769.694 460.745C775.488 466.243 780.037 472.917 783.036 480.32Z" fill="white"/>
<path d="M714.476 366.739C724.572 366.739 732.756 358.555 732.756 348.459C732.756 338.364 724.572 330.179 714.476 330.179C704.38 330.179 696.196 338.364 696.196 348.459C696.196 358.555 704.38 366.739 714.476 366.739Z" fill="#D7E8F0"/>
<path d="M781.906 388.859H648.836V392.519H781.906V388.859Z" fill="#D7E8F0"/>
<path d="M781.906 402.398H648.836V406.058H781.906V402.398Z" fill="#D7E8F0"/>
<path d="M781.906 414.742H648.836V418.402H781.906V414.742Z" fill="#D7E8F0"/>
<path d="M580.766 465.32H476.526V468.98H580.766V465.32Z" fill="#D7E8F0"/>
<path d="M580.766 480.09H476.526V483.75H580.766V480.09Z" fill="#D7E8F0"/>
<path d="M580.766 494.851H476.526V498.511H580.766V494.851Z" fill="#D7E8F0"/>
<path d="M580.766 509.621H476.526V513.281H580.766V509.621Z" fill="#D7E8F0"/>
<path d="M580.766 524.39H476.526V528.05H580.766V524.39Z" fill="#D7E8F0"/>
<path d="M462.226 361.322C462.226 361.322 493.906 411.212 530.006 426.892C566.106 442.572 577.386 449.502 591.196 443.892C605.006 438.282 631.516 430.422 650.196 374.892C668.876 319.362 677.776 290.132 678.436 276.682C679.096 263.232 641.956 274.282 641.956 274.282C641.956 274.282 621.956 333.232 578.136 359.542L515.726 293.622L462.226 361.322Z" fill="white"/>
<path d="M425.206 437.992L450.706 444.912C450.706 444.912 421.096 485.742 447.426 528.492C473.756 571.242 527.976 657.492 527.976 657.492L631.756 822.492L534.696 808.962L462.226 729.582L425.226 692.692L378.856 547.942L425.206 437.992Z" fill="white"/>
<path d="M8.84584 648.992C11.1386 650.232 13.7926 650.632 16.349 650.122C18.9054 649.613 21.2037 648.226 22.8457 646.202L60.5857 599.932L91.0357 561.712L66.1057 547.712C63.5237 546.253 60.4677 545.88 57.6107 546.673C54.7527 547.466 52.3267 549.361 50.8657 551.942L4.40584 633.542C3.66574 634.844 3.19324 636.28 3.01614 637.767C2.83904 639.254 2.96084 640.762 3.37444 642.201C3.78804 643.64 4.48514 644.983 5.42474 646.149C6.36434 647.315 7.52744 648.281 8.84584 648.992Z" fill="#2E2E2E"/>
<path d="M583.306 867.242L614.716 898.142C617.427 900.815 621.079 902.316 624.886 902.322H703.436C705.873 902.332 708.259 901.632 710.305 900.309C712.351 898.985 713.967 897.094 714.956 894.867C715.945 892.641 716.265 890.174 715.876 887.769C715.487 885.364 714.407 883.123 712.766 881.322C710.701 879.012 707.848 877.557 704.766 877.242L661.196 872.772L583.306 867.242Z" fill="#2E2E2E"/>
<path d="M296.26 480.95C296.26 480.95 357.01 497.85 397.51 502.89C438.01 507.93 435.17 491.13 435.17 491.13L440.12 469.91C453.12 448.73 460.67 403.67 460.67 403.67L465.89 368.42L473.51 381.83L498.14 406.64L498.44 406.88C497.69 395.03 498.26 378.38 501.02 355.7C507.38 303.2 528.44 309.29 528.44 309.29L525.35 305.9C510.8 281.69 464.35 256.1 449.51 249.98C434.67 243.86 441.02 252.53 442.91 258.98C444.8 265.43 439.4 283.58 417.77 274.34C396.14 265.1 395.05 245 395.05 245H385C323.35 252.41 292 285.29 292 285.29C357.49 300.74 342.46 356.29 342.46 356.29L336.52 361.72C313.27 381.88 311.65 401.32 313.66 409.42C315.67 417.52 330.01 428.42 355.9 434.74C381.79 441.06 386.5 441.07 392.35 429.88C398.2 418.69 405.02 417.31 414.35 415.63C423.68 413.95 435.11 420.58 432.5 425.8C429.89 431.02 428 426.46 434.5 440.56C441 454.66 437.98 461.83 420.5 474.82C403.02 487.81 325.3 480.52 325.3 480.52C288.13 470.24 296.26 480.95 296.26 480.95Z" fill="#2E2E2E"/>
<path d="M438.556 245.141V247.27V247.811C455.932 252.153 472.296 259.835 486.736 270.43C489.076 272.14 491.356 273.88 493.606 275.71C493.666 268.36 493.036 260.98 490.666 254.02C488.746 248.047 485.129 242.764 480.256 238.811C475.966 235.391 470.896 233.201 465.796 231.221C460.696 229.241 455.686 227.5 451.006 224.83C447.062 222.673 443.617 219.709 440.896 216.131C439.942 214.837 439.347 213.313 439.171 211.715C438.996 210.117 439.246 208.502 439.896 207.031C439.436 206.999 438.983 206.908 438.546 206.76L438.556 245.141Z" fill="#3FBDF1"/>
<path d="M439.01 245.38V247.51V248.05C456.386 252.392 472.75 260.075 487.19 270.67C489.53 272.38 491.81 274.12 494.06 275.95C494.12 268.6 493.49 261.22 491.12 254.26C489.2 248.287 485.583 243.003 480.71 239.05C476.42 235.63 471.35 233.44 466.25 231.46C461.15 229.48 456.14 227.74 451.46 225.07C447.516 222.913 444.071 219.948 441.35 216.37C440.396 215.076 439.801 213.553 439.625 211.955C439.45 210.357 439.7 208.741 440.35 207.27C439.89 207.238 439.437 207.148 439 207L439.01 245.38Z" fill="#2D221E"/>
<path d="M198.486 411.162C205.015 415.834 212.273 419.392 219.966 421.692C223.275 422.712 226.637 423.553 230.036 424.212C216.606 392.562 226.656 350.922 269.036 306.522C276.292 298.907 284.018 291.753 292.166 285.102C305.336 274.392 317.036 266.412 330.836 259.992C337.014 257.141 343.359 254.667 349.836 252.582C361.321 248.759 373.176 246.154 385.206 244.812C387.936 244.482 390.636 244.242 393.366 244.092C392.7 239.403 392.832 234.636 393.756 229.992C396.276 217.242 400.666 209.912 408.646 199.862C413.646 193.532 421.456 178.412 411.046 173.192C404.476 169.922 403.876 163.192 406.966 159.192C409.576 155.712 414.856 154.122 421.366 158.192C425.866 161.072 431.206 161.252 436.366 159.842C440.374 157.507 443.848 154.36 446.566 150.602C454.126 139.772 454.396 123.362 442.566 115.412C436.116 111.062 427.896 110.012 420.186 110.852C416.734 111.231 413.331 111.975 410.036 113.072C410.022 113.065 410.006 113.062 409.991 113.062C409.975 113.062 409.96 113.065 409.946 113.072C395.946 120.602 385.996 134.522 381.196 150.212C378.376 159.482 375.196 168.662 371.476 177.662C368.416 185.042 366.286 194.012 359.476 199.052C356.63 201.157 353.399 202.686 349.966 203.552C337.096 211.712 319.246 207.002 305.176 205.262C293.927 203.724 282.474 204.875 271.756 208.622C259.756 214.692 249.436 224.382 241.066 236.982C227.236 257.832 241.876 287.892 218.746 304.332C211.746 309.282 203.746 312.282 196.096 316.122C185.176 321.672 176.356 329.562 173.096 341.712C166.656 366.222 178.116 396.372 198.486 411.162Z" fill="#2D221E"/>
<path d="M764.036 902.32H216.796" stroke="black" stroke-width="4.5" stroke-miterlimit="10"/>
<path d="M458.626 140.729C460.032 143.643 461.234 146.65 462.226 149.729C463.666 154.729 462.106 157.829 464.296 162.599C465.046 164.249 466.126 167.039 467.296 169.859C467.626 169.199 467.926 168.659 468.106 168.239C476.686 149.129 465.406 139.919 459.976 136.769C459.63 138.123 459.179 139.447 458.626 140.729Z" fill="#3FBDF1"/>
<path d="M458.626 140.729C460.032 143.643 461.234 146.65 462.226 149.729C463.666 154.729 462.106 157.829 464.296 162.599C465.046 164.249 466.126 167.039 467.296 169.859C467.626 169.199 467.926 168.659 468.106 168.239C476.686 149.129 465.406 139.919 459.976 136.769C459.63 138.123 459.179 139.447 458.626 140.729Z" fill="#2D221E"/>
<path d="M268.506 463.121C263.266 504.441 267.506 576.121 352.126 630.961C367.356 640.831 381.066 654.771 394.496 666.821C431.125 699.922 465.971 734.944 498.886 771.741C519.036 794.081 539.606 817.561 560.036 840.181C570.509 851.741 581.096 863.194 591.796 874.541C599.676 882.851 612.176 902.311 624.846 902.311H702.706C709.706 902.311 716.066 896.581 715.966 889.551C715.909 886.513 714.759 883.598 712.726 881.341C710.661 879.031 707.808 877.576 704.726 877.261L661.156 872.791L450.646 538.011C439.786 520.731 430.156 492.291 438.556 473.661C470.556 402.801 467.806 334.121 467.806 334.121" stroke="black" stroke-width="4.5" stroke-miterlimit="10"/>
<path d="M377.545 652.25C368.365 684.5 353.545 717.25 341.305 737.87C336.87 745.398 331.023 751.999 324.085 757.31C299.005 776.52 263.556 774.47 239.506 754L119.895 652.19L60.6455 599.68L22.9055 645.95C21.1215 648.121 18.5875 649.544 15.805 649.938C13.0226 650.332 10.1935 649.669 7.87629 648.079C5.55909 646.489 3.92219 644.087 3.28889 641.35C2.65559 638.612 3.07189 635.736 4.45549 633.29L50.9255 551.71C52.3865 549.129 54.8125 547.234 57.6705 546.441C60.5275 545.648 63.5835 546.021 66.1655 547.48L91.0955 561.48L233.936 641.48C236.312 642.809 238.97 643.556 241.691 643.658C244.413 643.76 247.119 643.215 249.588 642.066C252.057 640.918 254.219 639.2 255.894 637.054C257.57 634.907 258.711 632.394 259.225 629.72L276.145 541" stroke="black" stroke-width="4.5" stroke-miterlimit="10"/>
<path d="M438.556 200.819V244.818V246.949V247.489C443.086 254.089 445.366 263.489 441.046 270.489C435.256 279.879 422.476 278.318 414.376 273.068C411.992 271.526 409.716 269.822 407.566 267.968C400.356 261.704 395.689 253.018 394.446 243.549C393.78 238.86 393.912 234.093 394.836 229.449C397.376 216.709 401.756 209.389 409.746 199.309C414.746 193.009 422.546 177.869 412.126 172.649C399.916 166.559 408.376 148.739 422.446 157.649C433.366 164.579 449.056 155.939 455.536 146.649C463.096 135.819 463.366 119.409 451.536 111.459C445.086 107.109 436.866 106.059 429.156 106.899C405.666 109.479 388.946 127.839 382.256 149.679C379.436 158.949 376.256 168.129 372.536 177.129C369.476 184.509 367.346 193.479 360.536 198.519C347.536 208.209 328.796 203.139 314.126 201.339C283.586 197.589 258.956 211.119 242.126 236.449C228.296 257.299 242.936 287.359 219.806 303.799C212.806 308.749 204.806 311.749 197.156 315.589C186.236 321.139 177.416 329.029 174.206 341.179C167.726 365.659 179.206 395.809 199.556 410.599C208.886 417.379 219.806 421.429 231.146 423.649" stroke="black" stroke-width="4.5" stroke-miterlimit="10"/>
<path d="M498.846 281.41C498.906 280.85 498.926 280.31 498.956 279.78C499.466 270.11 499.406 260.09 496.256 250.78C494.323 244.814 490.704 239.534 485.836 235.58C481.536 232.17 476.466 229.96 471.386 227.98C466.306 226 461.266 224.28 456.596 221.6C452.643 219.452 449.195 216.482 446.486 212.89C445.537 211.6 444.944 210.082 444.769 208.489C444.593 206.897 444.841 205.286 445.486 203.82" stroke="black" stroke-width="4.5" stroke-miterlimit="10"/>
<path d="M429.086 190.899C432.626 195.959 437.426 201.419 443.476 203.389C451.306 205.939 456.576 199.289 459.386 192.819C461.066 188.969 462.226 184.869 463.586 180.889C464.026 179.579 464.296 178.949 465.796 178.889C467.296 178.829 468.876 179.129 470.416 179.129C470.526 179.126 470.633 179.094 470.726 179.037C470.819 178.98 470.896 178.899 470.948 178.802C470.999 178.705 471.025 178.597 471.021 178.487C471.017 178.378 470.984 178.271 470.926 178.179C468.856 175.029 465.766 166.439 464.206 162.999C462.036 158.229 463.606 155.139 462.146 150.129C461.152 147.053 459.957 144.046 458.566 141.129" stroke="black" stroke-width="4.5" stroke-miterlimit="10"/>
<path d="M460.876 131.879C460.876 131.879 482.226 140.069 471.196 164.679C470.516 166.169 468.846 169.279 468.056 170.679" stroke="black" stroke-width="4.5" stroke-miterlimit="10"/>
<path d="M691.166 61.7107C691.166 61.7107 691.286 61.7707 691.526 61.8607L691.166 61.7107Z" fill="#3FBDF1"/>
<path d="M459.696 192.109C457.987 192.344 456.251 191.947 454.813 190.994C453.375 190.04 452.335 188.595 451.886 186.929" stroke="black" stroke-width="4.5" stroke-miterlimit="10"/>
<path d="M463.306 159.15C458.886 155.55 454.036 160.151 451.076 163.491" stroke="black" stroke-width="4.5" stroke-miterlimit="10"/>
<path d="M394.476 243.558C379.652 244.497 365.011 247.343 350.916 252.028C327.916 259.568 312.076 269.298 293.286 284.548C285.139 291.212 277.414 298.376 270.156 305.998C227.736 350.398 217.706 392.058 231.156 423.698C242.086 449.478 267.286 465.468 293.106 473.618C309.996 478.938 327.596 481.228 345.256 481.738C366.306 482.338 387.536 481.538 408.256 477.538C416.986 475.858 427.046 474.478 432.256 466.368C437.466 458.258 437.906 447.318 434.036 438.628C430.406 430.538 420.606 421.838 411.746 428.188C410.764 428.897 409.956 429.82 409.382 430.887C408.809 431.955 408.485 433.138 408.436 434.348" stroke="black" stroke-width="4.5" stroke-miterlimit="10"/>
<path d="M378.466 297.058C379.566 330.218 351.466 348.708 351.466 348.708C342.146 356.258 333.086 364.368 325.466 373.658C320.596 379.588 316.076 386.228 313.836 393.658C312.161 398.725 312.19 404.199 313.916 409.248C315.825 413.917 318.98 417.971 323.036 420.968C330.616 426.898 339.836 429.968 348.976 432.628C359.047 435.51 369.305 437.695 379.676 439.168C385.676 440.028 388.206 438.168 390.946 432.978C393.426 428.278 395.456 422.838 400.046 419.768C406.406 415.498 414.946 414.508 422.306 416.268C433.656 418.968 436.556 427.968 427.306 429.788" stroke="black" stroke-width="4.5" stroke-miterlimit="10"/>
<path d="M371.536 522.029L199.086 480.359L158.046 650.199L325.716 691.879L331.096 689.409L371.536 522.029Z" fill="white"/>
<path d="M291.966 498.151C300.146 440.891 317.876 426.731 329.416 423.901L328.656 423.481C293.816 409.921 269.656 477.011 264.526 492.701L291.966 498.151Z" fill="#D7E8F0"/>
<path d="M291.486 502.689C299.666 445.429 317.876 426.689 329.416 423.899L328.656 423.479C293.816 409.919 268.656 480.239 263.506 495.919L291.486 502.689Z" fill="#D7E8F0"/>
<path d="M328.656 423.479C289.256 408.159 263.506 495.919 263.506 495.919L291.506 502.689C307.776 414.689 342.686 430.689 342.686 430.689C341.456 430.319 328.656 423.479 328.656 423.479Z" stroke="black" stroke-width="4.5" stroke-miterlimit="10"/>
<path d="M197.165 488.454L158.052 650.254L294.103 683.143L333.216 521.343L197.165 488.454Z" fill="#3FBDF1"/>
<path d="M199.241 479.889L158.055 650.261L301.308 684.892L342.494 514.519L199.241 479.889Z" fill="white"/>
<path d="M199.691 492.931L164.219 639.664C163.214 643.824 165.771 648.012 169.931 649.018L290.916 678.265C295.076 679.271 299.265 676.713 300.271 672.553L335.742 525.82C336.748 521.659 334.19 517.471 330.03 516.466L209.045 487.219C204.885 486.213 200.697 488.77 199.691 492.931Z" fill="#F26522"/>
<path d="M199.114 480.42L158.057 650.258L301.311 684.888L342.367 515.05L199.114 480.42Z" stroke="black" stroke-width="4.5" stroke-miterlimit="10"/>
<path d="M342.969 515.185L301.912 685.023L330.509 691.936L371.565 522.098L342.969 515.185Z" fill="white"/>
<path d="M342.969 515.185L301.912 685.023L330.509 691.936L371.565 522.098L342.969 515.185Z" stroke="black" stroke-width="4.5" stroke-miterlimit="10"/>
<path d="M330.496 691.881L321.286 668.191L301.896 684.971" stroke="black" stroke-width="4.5" stroke-miterlimit="10"/>
<path d="M357.246 518.582L321.286 668.192" stroke="black" stroke-width="4.5" stroke-miterlimit="10"/>
<path d="M672.706 243.07C672.166 243.16 671.706 243.25 671.116 243.37C665.706 244.314 660.578 246.468 656.116 249.67C651.226 253.45 646.786 260.02 644.626 265.67C641.359 274.25 637.769 282.69 633.856 290.99C627.948 303.785 620.92 316.032 612.856 327.59C604.486 339.35 594.436 351.27 581.776 358.59C580.187 359.55 578.513 360.364 576.776 361.02C574.646 361.92 544.676 327.44 541.376 323.6C528.146 308.21 514.466 292.97 498.956 279.8C495.026 276.44 490.956 273.2 486.776 270.17C472.326 259.566 455.952 251.873 438.566 247.52" stroke="black" stroke-width="4.5" stroke-miterlimit="10"/>
<path d="M726.626 241.808C726.685 241.823 726.747 241.823 726.806 241.808C740.666 243.428 735.236 258.368 725.486 257.888C714.716 257.348 703.976 257.888 693.236 258.068C690.275 257.971 687.328 258.513 684.596 259.658C679.196 262.238 678.686 267.998 677.876 273.218C676.796 280.058 675.566 286.898 674.116 293.678C671.296 307.118 667.816 320.378 663.826 333.518C661.246 342.038 658.396 350.518 655.396 358.908C646.636 383.628 635.596 409.848 617.026 428.908C606.766 439.468 593.326 447.268 578.176 446.128C556.846 444.538 536.326 433.828 518.236 421.648C518.16 421.596 518.089 421.536 518.026 421.468C511.274 416.923 504.802 411.974 498.646 406.648C498.646 406.648 473.716 384.448 466.096 368.188" stroke="black" stroke-width="4.5" stroke-miterlimit="10"/>
<path d="M766.036 228.372V229.772C766.036 239.432 758.256 241.092 751.536 241.252L621.466 244.252C615.766 244.402 610.976 239.412 610.856 233.182V232.922C610.856 226.812 615.336 221.732 620.966 221.592C620.966 221.592 693.726 219.542 750.076 217.992C751.146 221.402 753.766 224.042 757.016 226.102C759.732 227.735 762.871 228.525 766.036 228.372Z" stroke="black" stroke-width="4.5" stroke-miterlimit="10"/>
<path d="M835.136 90.7385C835.135 92.3305 834.758 93.8995 834.036 95.3185L775.906 214.568C775.223 215.946 774.25 217.161 773.054 218.127C771.858 219.094 770.467 219.79 768.976 220.169C766.574 220.777 764.034 220.514 761.806 219.429C760.025 218.553 758.526 217.195 757.478 215.511C756.429 213.826 755.875 211.883 755.876 209.899C755.885 208.312 756.247 206.748 756.936 205.319L815.096 86.0585C816.153 83.9285 817.898 82.2185 820.049 81.2045C822.2 80.1915 824.63 79.9345 826.945 80.4745C829.26 81.0155 831.325 82.3225 832.804 84.1835C834.284 86.0445 835.091 88.3505 835.096 90.7285L835.136 90.7385Z" stroke="black" stroke-width="4.5" stroke-miterlimit="10"/>
<path d="M677.94 63.8803C695.58 63.8803 709.88 49.58 709.88 31.94C709.88 14.3 695.58 0 677.94 0C660.3 0 646 14.3 646 31.94C646 49.58 660.3 63.8803 677.94 63.8803Z" fill="#F26522"/>
<path d="M666.806 45.2605C665.747 44.8641 664.756 44.3076 663.866 43.6105C662.299 42.4285 661.221 40.7117 660.837 38.7866C660.454 36.8616 660.791 34.8628 661.786 33.1705C662.434 32.0715 663.329 31.1382 664.4 30.4441C665.471 29.7499 666.688 29.3139 667.956 29.1705C667.253 27.5192 667.107 25.684 667.54 23.9424C667.973 22.2008 668.961 20.6476 670.355 19.5177C671.75 18.3878 673.474 17.7428 675.268 17.6801C677.061 17.6175 678.826 18.1406 680.296 19.1705C683.386 21.3205 685.526 25.1105 686.836 28.5705C687.512 30.3874 688.008 32.2664 688.316 34.1805C688.466 35.1805 689.486 40.6805 688.686 41.2405C683.406 44.9005 673.576 47.8405 666.806 45.2605Z" fill="white"/>
<g opacity="0.72">
<path opacity="0.72" d="M649.58 133.16C659.289 133.16 667.16 125.29 667.16 115.58C667.16 105.871 659.289 98 649.58 98C639.871 98 632 105.871 632 115.58C632 125.29 639.871 133.16 649.58 133.16Z" fill="#F26522"/>
<path opacity="0.72" d="M653.486 122.719C653.062 123.179 652.57 123.57 652.026 123.879C651.094 124.423 649.996 124.609 648.938 124.401C647.879 124.193 646.933 123.606 646.276 122.749C645.846 122.188 645.552 121.535 645.419 120.84C645.285 120.146 645.315 119.43 645.506 118.749C644.522 118.755 643.562 118.442 642.771 117.857C641.98 117.271 641.4 116.445 641.118 115.502C640.836 114.558 640.868 113.549 641.209 112.626C641.549 111.702 642.18 110.914 643.006 110.379C644.882 109.341 647.018 108.869 649.156 109.019C650.225 109.049 651.287 109.19 652.326 109.439C652.856 109.559 655.876 110.199 655.996 110.719C656.766 114.189 656.216 119.819 653.486 122.719Z" fill="white"/>
</g>
<path d="M748.975 76.8917L731.723 86.0887C725.465 89.4237 723.097 97.2017 726.432 103.459L735.629 120.711C738.964 126.969 746.741 129.338 752.999 126.002L770.251 116.806C776.509 113.47 778.878 105.693 775.542 99.4347L766.346 82.1827C763.01 75.9257 755.233 73.5567 748.975 76.8917Z" fill="#F26522"/>
<path d="M755.886 121.1L768.376 114.44C770.98 113.042 772.926 110.671 773.787 107.844C774.649 105.016 774.358 101.963 772.976 99.3496L764.976 84.3496C763.58 81.7436 761.209 79.7966 758.381 78.9346C755.553 78.0726 752.498 78.3656 749.886 79.7496L749.046 80.1996C745.926 84.5296 741.776 91.9396 748.046 94.2696C757.046 97.6396 754.416 102.69 751.046 109.16C748.186 114.59 747.456 120.94 755.886 121.1Z" fill="white"/>
<path d="M736.436 102.94C739.043 102.94 741.156 100.826 741.156 98.2195C741.156 95.6125 739.043 93.4995 736.436 93.4995C733.829 93.4995 731.716 95.6125 731.716 98.2195C731.716 100.826 733.829 102.94 736.436 102.94Z" fill="white"/>
<path d="M678.754 181.294C680.503 182.144 682.365 182.737 684.284 183.054C687.807 183.594 691.409 183.211 694.739 181.942C698.07 180.673 701.014 178.562 703.284 175.814C705.034 173.634 706.344 170.904 708.184 168.704C709.442 167.099 711.126 165.88 713.044 165.184C713.702 165.044 714.316 164.745 714.834 164.314C716.094 163.014 713.954 161.914 713.524 160.864C712.879 159.17 712.879 157.298 713.524 155.604C715.166 151.151 715.212 146.266 713.655 141.782C712.097 137.298 709.033 133.493 704.985 131.016C700.936 128.538 696.153 127.542 691.452 128.196C686.751 128.851 682.422 131.116 679.204 134.604C676.024 138.034 674.114 142.414 672.134 146.604C670.374 150.334 668.504 154.044 667.534 158.054C665.284 167.554 670.364 177.204 678.754 181.294Z" fill="#F26522"/>
<path d="M696.156 147.97C698.614 147.97 700.606 145.978 700.606 143.52C700.606 141.062 698.614 139.07 696.156 139.07C693.698 139.07 691.706 141.062 691.706 143.52C691.706 145.978 693.698 147.97 696.156 147.97Z" fill="white"/>
<path d="M690.326 160.251C692.784 160.251 694.776 158.259 694.776 155.801C694.776 153.344 692.784 151.351 690.326 151.351C687.868 151.351 685.876 153.344 685.876 155.801C685.876 158.259 687.868 160.251 690.326 160.251Z" fill="white"/>
<path d="M684.856 171.771C687.314 171.771 689.306 169.778 689.306 167.321C689.306 164.863 687.314 162.871 684.856 162.871C682.398 162.871 680.406 164.863 680.406 167.321C680.406 169.778 682.398 171.771 684.856 171.771Z" fill="white"/>
<g opacity="0.54">
<path opacity="0.54" d="M578.036 199.849C579.388 199.67 580.725 199.393 582.036 199.019L597.096 194.779C601.706 193.479 606.556 192.039 609.826 188.529C615.886 182.019 613.926 171.679 611.576 163.099C609.663 156.079 607.746 149.059 605.826 142.039C604.506 137.199 603.146 132.279 600.516 128.039C597.886 123.799 593.726 120.159 588.766 119.379C585.116 118.809 581.416 119.789 577.846 120.759L563.396 124.759C558.656 126.049 553.656 127.499 550.336 131.129C544.436 137.579 546.336 147.699 548.596 156.129L554.366 177.679C557.906 190.629 564.536 201.549 578.036 199.849Z" fill="#F26522"/>
<path opacity="0.54" d="M577.036 170.46C577.928 171.331 579.034 171.951 580.242 172.259C581.45 172.567 582.717 172.551 583.918 172.214C585.118 171.876 586.208 171.229 587.078 170.336C587.948 169.444 588.569 168.338 588.876 167.13L590.556 160.55L592.226 153.96C592.533 152.752 592.516 151.484 592.177 150.285C591.839 149.085 591.191 147.996 590.298 147.127C589.405 146.257 588.299 145.638 587.091 145.331C585.883 145.025 584.615 145.041 583.416 145.38L576.886 147.22L570.346 149.06C569.148 149.401 568.062 150.052 567.195 150.946C566.328 151.84 565.712 152.947 565.408 154.155C565.104 155.362 565.123 156.629 565.463 157.827C565.804 159.025 566.453 160.112 567.346 160.98L572.216 165.72L577.036 170.46Z" fill="white"/>
</g>
</svg>
