<svg width="30" height="29" viewBox="0 0 30 29" fill="none" xmlns="http://www.w3.org/2000/svg">
<path d="M4.88889 1.51008C2.85259 1.51008 1.13636 3.09915 1.13636 5.13839V6.52073C1.13636 18.4847 11.2597 28.1194 23.6667 28.1194H25.1111C27.1474 28.1194 28.8636 26.5303 28.8636 24.4911V19.9581C28.8636 18.9668 28.2028 18.1199 27.2748 17.8239L20.7843 15.7534C19.721 15.4143 18.5324 15.8651 18.0076 16.8695L16.7584 19.2604C14.0166 17.9028 11.773 15.7643 10.3455 13.1612L12.8078 11.9829C13.8282 11.4947 14.354 10.3343 13.975 9.24629L11.8115 3.03485C11.4876 2.10488 10.5948 1.51008 9.62557 1.51008H4.88889Z" fill="white" stroke="#22C55E" stroke-width="1.72727" stroke-linecap="round" stroke-linejoin="round"/>
</svg>
