<svg width="26" height="26" viewBox="0 0 26 26" fill="none" xmlns="http://www.w3.org/2000/svg">
<path fill-rule="evenodd" clip-rule="evenodd" d="M16.5859 22.7825C16.4775 23.5192 15.8059 24.1042 15.0042 24.1042H10.9959C10.1942 24.1042 9.52255 23.5192 9.42505 22.7283L9.13255 20.6808C8.84005 20.5292 8.55838 20.3667 8.27672 20.1825L6.32672 20.9625C5.56838 21.2442 4.73422 20.93 4.36588 20.2583L2.38338 16.8242C2.00422 16.1092 2.16672 15.2642 2.77338 14.7875L4.43088 13.4983C4.42005 13.3358 4.40922 13.1733 4.40922 13C4.40922 12.8375 4.42005 12.6642 4.43088 12.5017L2.78422 11.2125C2.14505 10.725 1.98255 9.84751 2.38338 9.17584L4.38755 5.72001C4.75588 5.04834 5.59005 4.74501 6.32672 5.03751L8.28755 5.82834C8.56922 5.64418 8.85088 5.48168 9.13255 5.33001L9.42505 3.26084C9.52255 2.50251 10.1942 1.90668 10.985 1.90668H14.9934C15.795 1.90668 16.4667 2.49168 16.5642 3.28251L16.8567 5.33001C17.1492 5.48168 17.4309 5.64418 17.7125 5.82834L19.6625 5.04834C20.4317 4.76668 21.2659 5.08084 21.6342 5.75251L23.6275 9.19751C24.0175 9.91251 23.8442 10.7575 23.2375 11.2342L21.5909 12.5233C21.6017 12.6858 21.6125 12.8483 21.6125 13.0217C21.6125 13.195 21.6017 13.3575 21.5909 13.52L23.2375 14.8092C23.8442 15.2967 24.0175 16.1417 23.6384 16.8242L21.6234 20.3125C21.255 20.9842 20.4209 21.2875 19.6734 20.995L17.7234 20.215C17.4417 20.3992 17.16 20.5617 16.8784 20.7133L16.5859 22.7825ZM11.505 21.9375H14.495L14.8959 19.175L15.47 18.9367C15.9467 18.7417 16.4234 18.46 16.9217 18.0917L17.4092 17.7233L19.9875 18.7633L21.4825 16.1633L19.2834 14.4517L19.3592 13.845L19.3626 13.8158C19.3939 13.5446 19.4242 13.2824 19.4242 13C19.4242 12.7075 19.3917 12.4258 19.3592 12.155L19.2834 11.5483L21.4825 9.83668L19.9767 7.23668L17.3875 8.27668L16.9 7.89751C16.445 7.55084 15.9575 7.26918 15.4592 7.06334L14.8959 6.82501L14.495 4.06251H11.505L11.1042 6.82501L10.53 7.05251C10.0534 7.25834 9.57672 7.52918 9.07838 7.90834L8.59088 8.26584L6.01255 7.23668L4.50672 9.82584L6.70588 11.5375L6.63005 12.1442C6.59755 12.4258 6.56505 12.7183 6.56505 13C6.56505 13.2817 6.58672 13.5742 6.63005 13.845L6.70588 14.4517L4.50672 16.1633L6.00172 18.7633L8.59088 17.7233L9.07838 18.1025C9.54422 18.46 10.01 18.7308 10.5192 18.9367L11.0934 19.175L11.505 21.9375ZM16.7917 13C16.7917 15.0941 15.0941 16.7917 13 16.7917C10.906 16.7917 9.20838 15.0941 9.20838 13C9.20838 10.9059 10.906 9.20834 13 9.20834C15.0941 9.20834 16.7917 10.9059 16.7917 13Z" fill="#9CA3AF"/>
</svg>
