<svg width="110" height="42" viewBox="0 0 110 42" fill="none" xmlns="http://www.w3.org/2000/svg">
<path d="M1 22.6362L2.05882 23.1039C3.11765 23.5717 5.23529 24.5071 7.35294 26.2933C9.47059 28.0795 11.5882 30.7164 13.7059 32.8697C15.8235 35.023 17.9412 36.6927 20.0588 33.9532C22.1765 31.2137 24.2941 24.0651 26.4118 24.7667C28.5294 25.4684 30.6471 34.0204 32.7647 37.7822C34.8824 41.5439 37 40.5154 39.1177 39.3273C41.2353 38.1393 43.3529 36.7918 45.4706 33.1007C47.5882 29.4097 49.7059 23.3751 51.8235 20.9559C53.9412 18.5367 56.0588 19.7328 58.1765 17.6108C60.2941 15.4889 62.4118 10.0489 64.5294 7.9505C66.6471 5.85212 68.7647 7.09537 70.8824 10.1479C73 13.2005 75.1177 18.0624 77.2353 17.8982C79.3529 17.734 81.4706 12.5437 83.5882 12.1435C85.7059 11.7433 87.8235 16.1332 89.9412 20.3312C92.0588 24.5292 94.1765 28.5353 96.2941 25.5772C98.4118 22.6192 100.529 12.6971 102.647 7.44018C104.765 2.18329 106.882 1.59165 107.941 1.29582L109 1" stroke="#00335C" stroke-width="1.57664" stroke-linecap="round"/>
</svg>
