<svg width="170" height="128" viewBox="0 0 170 128" fill="none" xmlns="http://www.w3.org/2000/svg">
<mask id="path-1-inside-1_2859_517" fill="white">
<path d="M17.735 98.0317C16.2347 98.0664 14.9854 96.877 15.0088 95.3765C15.1695 85.0708 17.5404 74.9146 21.9671 65.6285C26.7827 55.527 33.8915 46.7477 42.7012 40.0226C51.5109 33.2974 61.7663 28.8211 72.6125 26.9667C82.5776 25.263 92.7763 25.8179 102.49 28.5783C103.919 28.9846 104.697 30.5027 104.252 31.921L102.727 36.7845C102.274 38.2282 100.73 39.0169 99.2712 38.6152C91.1472 36.3777 82.6361 35.9487 74.3164 37.3712C65.0931 38.948 56.3723 42.7545 48.8809 48.4734C41.3894 54.1923 35.3442 61.6578 31.2493 70.2479C27.5423 78.0239 25.5307 86.5174 25.3396 95.1433C25.3065 96.6416 24.1258 97.884 22.6275 97.9186L17.735 98.0317Z"/>
</mask>
<path d="M17.735 98.0317C16.2347 98.0664 14.9854 96.877 15.0088 95.3765C15.1695 85.0708 17.5404 74.9146 21.9671 65.6285C26.7827 55.527 33.8915 46.7477 42.7012 40.0226C51.5109 33.2974 61.7663 28.8211 72.6125 26.9667C82.5776 25.263 92.7763 25.8179 102.49 28.5783C103.919 28.9846 104.697 30.5027 104.252 31.921L102.727 36.7845C102.274 38.2282 100.73 39.0169 99.2712 38.6152C91.1472 36.3777 82.6361 35.9487 74.3164 37.3712C65.0931 38.948 56.3723 42.7545 48.8809 48.4734C41.3894 54.1923 35.3442 61.6578 31.2493 70.2479C27.5423 78.0239 25.5307 86.5174 25.3396 95.1433C25.3065 96.6416 24.1258 97.884 22.6275 97.9186L17.735 98.0317Z" stroke="#22C55E" stroke-width="20.366" stroke-linecap="round" stroke-linejoin="round" mask="url(#path-1-inside-1_2859_517)"/>
<mask id="path-2-inside-2_2859_517" fill="white">
<path d="M104.278 31.0893C104.664 29.6282 106.17 28.7581 107.61 29.2183C121.19 33.5608 133.148 42.0966 141.817 53.6834C150.503 65.2926 155.43 79.3535 155.954 93.912C156.007 95.4109 154.784 96.6251 153.284 96.6223L148.391 96.6133C146.891 96.6105 145.684 95.3919 145.62 93.8936C145.099 81.6582 140.92 69.8543 133.615 60.0902C126.314 50.3325 116.271 43.1193 104.861 39.3941C103.446 38.9322 102.595 37.4617 102.975 36.0228L104.278 31.0893Z"/>
</mask>
<path d="M104.278 31.0893C104.664 29.6282 106.17 28.7581 107.61 29.2183C121.19 33.5608 133.148 42.0966 141.817 53.6834C150.503 65.2926 155.43 79.3535 155.954 93.912C156.007 95.4109 154.784 96.6251 153.284 96.6223L148.391 96.6133C146.891 96.6105 145.684 95.3919 145.62 93.8936C145.099 81.6582 140.92 69.8543 133.615 60.0902C126.314 50.3325 116.271 43.1193 104.861 39.3941C103.446 38.9322 102.595 37.4617 102.975 36.0228L104.278 31.0893Z" stroke="#E5E7EB" stroke-width="20.366" stroke-linecap="round" stroke-linejoin="round" mask="url(#path-2-inside-2_2859_517)"/>
<g filter="url(#filter0_d_2859_517)">
<circle cx="103" cy="34" r="9" fill="#22C55E"/>
<circle cx="103" cy="34" r="8.15142" stroke="white" stroke-width="1.69717"/>
</g>
<path d="M33.4859 115.339C33.7924 115.273 34.0743 115.24 34.3315 115.24C34.638 115.24 34.9089 115.285 35.1442 115.376C35.3796 115.466 35.5752 115.59 35.7312 115.749C35.8899 115.908 36.009 116.095 36.0883 116.311C36.1704 116.528 36.2115 116.763 36.2115 117.017C36.2115 117.329 36.1567 117.611 36.0473 117.863C35.9406 118.115 35.7914 118.331 35.5999 118.512C35.411 118.689 35.188 118.826 34.9308 118.922C34.6736 119.018 34.3958 119.066 34.0975 119.066C33.9251 119.066 33.7596 119.048 33.6008 119.012C33.4421 118.979 33.293 118.934 33.1534 118.877C33.0166 118.819 32.8894 118.754 32.7717 118.68C32.654 118.606 32.55 118.528 32.4597 118.446L32.6855 118.134C32.7347 118.063 32.7991 118.027 32.8784 118.027C32.9331 118.027 32.9947 118.049 33.0631 118.093C33.1315 118.134 33.215 118.18 33.3135 118.232C33.412 118.284 33.527 118.332 33.6583 118.376C33.7924 118.417 33.9511 118.438 34.1345 118.438C34.3397 118.438 34.5244 118.405 34.6886 118.339C34.8528 118.273 34.9937 118.18 35.1114 118.06C35.2291 117.937 35.3194 117.79 35.3823 117.621C35.4452 117.451 35.4767 117.261 35.4767 117.05C35.4767 116.867 35.4494 116.701 35.3946 116.554C35.3426 116.406 35.2619 116.28 35.1524 116.176C35.0457 116.072 34.9116 115.991 34.7502 115.934C34.5887 115.876 34.3999 115.848 34.1837 115.848C34.036 115.848 33.8813 115.86 33.7199 115.885C33.5612 115.909 33.3983 115.949 33.2314 116.004L32.7717 115.868L33.2437 113.118H36.0309V113.438C36.0309 113.542 35.998 113.628 35.9323 113.697C35.8694 113.762 35.7599 113.795 35.604 113.795H33.7568L33.4859 115.339ZM38.2481 115.339C38.5545 115.273 38.8364 115.24 39.0936 115.24C39.4001 115.24 39.671 115.285 39.9064 115.376C40.1417 115.466 40.3374 115.59 40.4934 115.749C40.6521 115.908 40.7711 116.095 40.8505 116.311C40.9326 116.528 40.9736 116.763 40.9736 117.017C40.9736 117.329 40.9189 117.611 40.8094 117.863C40.7027 118.115 40.5536 118.331 40.362 118.512C40.1732 118.689 39.9502 118.826 39.6929 118.922C39.4357 119.018 39.1579 119.066 38.8597 119.066C38.6873 119.066 38.5217 119.048 38.363 119.012C38.2043 118.979 38.0551 118.934 37.9156 118.877C37.7788 118.819 37.6515 118.754 37.5338 118.68C37.4162 118.606 37.3122 118.528 37.2219 118.446L37.4476 118.134C37.4969 118.063 37.5612 118.027 37.6406 118.027C37.6953 118.027 37.7569 118.049 37.8253 118.093C37.8937 118.134 37.9771 118.18 38.0757 118.232C38.1742 118.284 38.2891 118.332 38.4205 118.376C38.5545 118.417 38.7133 118.438 38.8966 118.438C39.1018 118.438 39.2866 118.405 39.4507 118.339C39.6149 118.273 39.7559 118.18 39.8735 118.06C39.9912 117.937 40.0815 117.79 40.1444 117.621C40.2074 117.451 40.2389 117.261 40.2389 117.05C40.2389 116.867 40.2115 116.701 40.1568 116.554C40.1048 116.406 40.024 116.28 39.9146 116.176C39.8079 116.072 39.6738 115.991 39.5123 115.934C39.3509 115.876 39.162 115.848 38.9459 115.848C38.7981 115.848 38.6435 115.86 38.482 115.885C38.3233 115.909 38.1605 115.949 37.9936 116.004L37.5338 115.868L38.0059 113.118H40.793V113.438C40.793 113.542 40.7602 113.628 40.6945 113.697C40.6315 113.762 40.5221 113.795 40.3661 113.795H38.519L38.2481 115.339ZM44.4879 114.538C44.4879 114.768 44.4523 114.975 44.3812 115.158C44.31 115.339 44.2143 115.492 44.0939 115.618C43.9762 115.741 43.838 115.835 43.6793 115.901C43.5233 115.967 43.3577 115.999 43.1826 115.999C42.9993 115.999 42.8282 115.967 42.6695 115.901C42.5108 115.835 42.3726 115.741 42.2549 115.618C42.14 115.492 42.0497 115.339 41.984 115.158C41.9183 114.975 41.8855 114.768 41.8855 114.538C41.8855 114.303 41.9183 114.093 41.984 113.91C42.0497 113.727 42.14 113.572 42.2549 113.446C42.3726 113.32 42.5108 113.225 42.6695 113.159C42.8282 113.093 42.9993 113.06 43.1826 113.06C43.3687 113.06 43.5411 113.093 43.6998 113.159C43.8585 113.225 43.9967 113.32 44.1144 113.446C44.232 113.572 44.3237 113.727 44.3894 113.91C44.4551 114.093 44.4879 114.303 44.4879 114.538ZM43.9215 114.538C43.9215 114.358 43.9023 114.204 43.864 114.078C43.8257 113.953 43.7723 113.85 43.7039 113.771C43.6382 113.688 43.5602 113.63 43.4699 113.594C43.3796 113.558 43.2839 113.541 43.1826 113.541C43.0813 113.541 42.9869 113.558 42.8994 113.594C42.8118 113.63 42.7352 113.688 42.6695 113.771C42.6038 113.85 42.5518 113.953 42.5135 114.078C42.4752 114.204 42.4561 114.358 42.4561 114.538C42.4561 114.716 42.4752 114.868 42.5135 114.994C42.5518 115.117 42.6038 115.218 42.6695 115.298C42.7352 115.374 42.8118 115.43 42.8994 115.466C42.9869 115.499 43.0813 115.515 43.1826 115.515C43.2839 115.515 43.3796 115.499 43.4699 115.466C43.5602 115.43 43.6382 115.374 43.7039 115.298C43.7723 115.218 43.8257 115.117 43.864 114.994C43.9023 114.868 43.9215 114.716 43.9215 114.538ZM46.569 113.241C46.5964 113.208 46.6278 113.179 46.6634 113.155C46.7017 113.13 46.7524 113.118 46.8153 113.118H47.3448L43.043 118.881C43.0184 118.917 42.9869 118.945 42.9486 118.967C42.9103 118.989 42.8638 119 42.8091 119H42.2713L46.569 113.241ZM47.743 117.613C47.743 117.842 47.7074 118.048 47.6362 118.228C47.5651 118.409 47.4693 118.562 47.3489 118.688C47.2312 118.811 47.0931 118.906 46.9343 118.971C46.7784 119.037 46.6128 119.07 46.4377 119.07C46.2516 119.07 46.0792 119.037 45.9205 118.971C45.7645 118.906 45.6277 118.811 45.51 118.688C45.3951 118.562 45.3048 118.409 45.2391 118.228C45.1734 118.048 45.1406 117.842 45.1406 117.613C45.1406 117.377 45.1734 117.168 45.2391 116.985C45.3048 116.798 45.3951 116.643 45.51 116.517C45.6277 116.391 45.7645 116.295 45.9205 116.229C46.0792 116.164 46.2516 116.131 46.4377 116.131C46.621 116.131 46.792 116.164 46.9508 116.229C47.1122 116.295 47.2504 116.391 47.3653 116.517C47.483 116.643 47.5747 116.798 47.6404 116.985C47.7088 117.168 47.743 117.377 47.743 117.613ZM47.1765 117.613C47.1765 117.432 47.1574 117.279 47.119 117.153C47.0807 117.024 47.0274 116.92 46.959 116.841C46.8933 116.762 46.8153 116.704 46.725 116.669C46.6347 116.633 46.5389 116.615 46.4377 116.615C46.3364 116.615 46.2406 116.633 46.1503 116.669C46.0628 116.704 45.9861 116.762 45.9205 116.841C45.8548 116.92 45.8028 117.024 45.7645 117.153C45.7289 117.279 45.7111 117.432 45.7111 117.613C45.7111 117.79 45.7289 117.941 45.7645 118.064C45.8028 118.187 45.8548 118.289 45.9205 118.368C45.9861 118.444 46.0628 118.501 46.1503 118.536C46.2406 118.569 46.3364 118.585 46.4377 118.585C46.5389 118.585 46.6347 118.569 46.725 118.536C46.8153 118.501 46.8933 118.444 46.959 118.368C47.0274 118.289 47.0807 118.187 47.119 118.064C47.1574 117.941 47.1765 117.79 47.1765 117.613Z" fill="#000246"/>
<path d="M34.6441 123.51C34.6268 123.539 34.6076 123.561 34.5864 123.576C34.5671 123.59 34.5431 123.597 34.5142 123.597C34.4815 123.597 34.443 123.58 34.3988 123.548C34.3545 123.515 34.2987 123.479 34.2313 123.441C34.1659 123.4 34.086 123.364 33.9918 123.331C33.8994 123.298 33.7868 123.282 33.654 123.282C33.5289 123.282 33.4183 123.299 33.3221 123.334C33.2278 123.367 33.1479 123.412 33.0825 123.47C33.019 123.527 32.9709 123.596 32.9381 123.675C32.9054 123.752 32.8891 123.835 32.8891 123.926C32.8891 124.041 32.917 124.137 32.9728 124.214C33.0305 124.289 33.1056 124.354 33.1979 124.408C33.2922 124.462 33.3981 124.509 33.5155 124.549C33.6348 124.588 33.756 124.628 33.8792 124.671C34.0043 124.713 34.1255 124.761 34.2429 124.815C34.3622 124.867 34.468 124.933 34.5604 125.014C34.6547 125.095 34.7298 125.194 34.7856 125.311C34.8433 125.429 34.8722 125.573 34.8722 125.744C34.8722 125.925 34.8414 126.096 34.7798 126.255C34.7182 126.413 34.6278 126.551 34.5085 126.668C34.3911 126.785 34.2458 126.878 34.0726 126.945C33.9013 127.013 33.706 127.046 33.4866 127.046C33.2172 127.046 32.9728 126.998 32.7534 126.902C32.534 126.804 32.3464 126.672 32.1905 126.506L32.3522 126.241C32.3676 126.22 32.3858 126.202 32.407 126.189C32.4301 126.173 32.4551 126.166 32.4821 126.166C32.5071 126.166 32.535 126.176 32.5658 126.198C32.5985 126.217 32.6351 126.242 32.6755 126.273C32.7159 126.303 32.7621 126.337 32.814 126.374C32.866 126.41 32.9247 126.444 32.9901 126.475C33.0575 126.505 33.1335 126.531 33.2181 126.553C33.3028 126.572 33.3981 126.581 33.5039 126.581C33.6367 126.581 33.7551 126.563 33.859 126.527C33.9629 126.49 34.0504 126.439 34.1216 126.374C34.1948 126.306 34.2506 126.226 34.2891 126.134C34.3276 126.042 34.3468 125.939 34.3468 125.825C34.3468 125.7 34.3179 125.598 34.2602 125.519C34.2044 125.438 34.1303 125.371 34.0379 125.317C33.9456 125.263 33.8397 125.218 33.7204 125.181C33.6011 125.143 33.4799 125.104 33.3567 125.066C33.2335 125.026 33.1123 124.979 32.993 124.927C32.8737 124.875 32.7678 124.808 32.6755 124.725C32.5831 124.643 32.508 124.54 32.4503 124.416C32.3945 124.291 32.3666 124.137 32.3666 123.955C32.3666 123.808 32.3945 123.667 32.4503 123.53C32.508 123.394 32.5908 123.272 32.6986 123.167C32.8082 123.061 32.942 122.976 33.0998 122.913C33.2595 122.849 33.4423 122.817 33.6482 122.817C33.8792 122.817 34.0889 122.854 34.2775 122.927C34.468 123 34.6355 123.106 34.7798 123.245L34.6441 123.51ZM37.8898 124.076V127H37.5839C37.5107 127 37.4645 126.964 37.4453 126.893L37.4049 126.579C37.2779 126.719 37.1355 126.833 36.9777 126.919C36.8199 127.004 36.639 127.046 36.435 127.046C36.2753 127.046 36.1338 127.02 36.0107 126.968C35.8894 126.914 35.7874 126.839 35.7047 126.743C35.6219 126.647 35.5594 126.53 35.517 126.394C35.4766 126.257 35.4564 126.106 35.4564 125.941V124.076H35.9702V125.941C35.9702 126.162 36.0203 126.333 36.1203 126.454C36.2223 126.576 36.3773 126.636 36.5851 126.636C36.7371 126.636 36.8786 126.601 37.0094 126.529C37.1422 126.456 37.2644 126.356 37.376 126.229V124.076H37.8898ZM40.7396 124.595C40.7242 124.617 40.7088 124.633 40.6934 124.645C40.678 124.656 40.6568 124.662 40.6299 124.662C40.601 124.662 40.5693 124.65 40.5346 124.627C40.5 124.602 40.4567 124.575 40.4047 124.546C40.3547 124.518 40.2922 124.492 40.2171 124.468C40.144 124.443 40.0535 124.431 39.9458 124.431C39.8014 124.431 39.6744 124.457 39.5647 124.509C39.455 124.559 39.3627 124.632 39.2876 124.728C39.2145 124.824 39.1587 124.941 39.1202 125.078C39.0836 125.214 39.0654 125.367 39.0654 125.536C39.0654 125.714 39.0856 125.871 39.126 126.01C39.1664 126.147 39.2232 126.262 39.2963 126.356C39.3713 126.449 39.4608 126.52 39.5647 126.57C39.6706 126.618 39.7889 126.642 39.9198 126.642C40.0449 126.642 40.1478 126.628 40.2287 126.599C40.3095 126.568 40.3759 126.534 40.4278 126.498C40.4817 126.461 40.526 126.428 40.5606 126.4C40.5972 126.369 40.6328 126.353 40.6674 126.353C40.7098 126.353 40.7425 126.37 40.7656 126.402L40.9099 126.59C40.8464 126.669 40.7742 126.736 40.6934 126.792C40.6126 126.848 40.525 126.895 40.4307 126.934C40.3383 126.97 40.2412 126.997 40.1392 127.014C40.0372 127.032 39.9333 127.04 39.8274 127.04C39.6446 127.04 39.4743 127.007 39.3165 126.939C39.1606 126.872 39.0249 126.775 38.9095 126.648C38.794 126.519 38.7036 126.361 38.6381 126.174C38.5727 125.988 38.54 125.775 38.54 125.536C38.54 125.319 38.5698 125.118 38.6295 124.933C38.6911 124.748 38.7796 124.59 38.895 124.457C39.0124 124.322 39.1558 124.217 39.3251 124.142C39.4964 124.067 39.6927 124.03 39.914 124.03C40.1199 124.03 40.3008 124.063 40.4567 124.131C40.6145 124.196 40.754 124.289 40.8753 124.411L40.7396 124.595ZM43.4458 124.595C43.4304 124.617 43.415 124.633 43.3996 124.645C43.3842 124.656 43.363 124.662 43.3361 124.662C43.3072 124.662 43.2755 124.65 43.2408 124.627C43.2062 124.602 43.1629 124.575 43.1109 124.546C43.0609 124.518 42.9983 124.492 42.9233 124.468C42.8502 124.443 42.7597 124.431 42.652 124.431C42.5076 124.431 42.3806 124.457 42.2709 124.509C42.1612 124.559 42.0689 124.632 41.9938 124.728C41.9207 124.824 41.8649 124.941 41.8264 125.078C41.7898 125.214 41.7715 125.367 41.7715 125.536C41.7715 125.714 41.7917 125.871 41.8322 126.01C41.8726 126.147 41.9293 126.262 42.0025 126.356C42.0775 126.449 42.167 126.52 42.2709 126.57C42.3768 126.618 42.4951 126.642 42.626 126.642C42.7511 126.642 42.854 126.628 42.9348 126.599C43.0157 126.568 43.0821 126.534 43.134 126.498C43.1879 126.461 43.2322 126.428 43.2668 126.4C43.3034 126.369 43.339 126.353 43.3736 126.353C43.4159 126.353 43.4487 126.37 43.4717 126.402L43.6161 126.59C43.5526 126.669 43.4804 126.736 43.3996 126.792C43.3188 126.848 43.2312 126.895 43.1369 126.934C43.0445 126.97 42.9473 126.997 42.8454 127.014C42.7434 127.032 42.6394 127.04 42.5336 127.04C42.3508 127.04 42.1805 127.007 42.0227 126.939C41.8668 126.872 41.7311 126.775 41.6157 126.648C41.5002 126.519 41.4098 126.361 41.3443 126.174C41.2789 125.988 41.2462 125.775 41.2462 125.536C41.2462 125.319 41.276 125.118 41.3357 124.933C41.3972 124.748 41.4858 124.59 41.6012 124.457C41.7186 124.322 41.862 124.217 42.0313 124.142C42.2026 124.067 42.3989 124.03 42.6202 124.03C42.8261 124.03 43.007 124.063 43.1629 124.131C43.3207 124.196 43.4602 124.289 43.5814 124.411L43.4458 124.595ZM46.074 125.219C46.074 125.1 46.0567 124.991 46.0221 124.893C45.9893 124.793 45.9403 124.707 45.8748 124.636C45.8113 124.563 45.7334 124.507 45.641 124.468C45.5487 124.428 45.4438 124.408 45.3264 124.408C45.0801 124.408 44.8847 124.48 44.7404 124.624C44.598 124.767 44.5095 124.965 44.4748 125.219H46.074ZM46.4897 126.59C46.4262 126.667 46.3502 126.734 46.2616 126.792C46.1731 126.848 46.0779 126.894 45.9759 126.931C45.8758 126.967 45.7719 126.994 45.6641 127.012C45.5563 127.031 45.4495 127.04 45.3437 127.04C45.1416 127.04 44.955 127.007 44.7837 126.939C44.6144 126.87 44.4671 126.77 44.3421 126.639C44.2189 126.506 44.1227 126.343 44.0534 126.148C43.9841 125.954 43.9495 125.731 43.9495 125.479C43.9495 125.275 43.9803 125.084 44.0418 124.907C44.1054 124.73 44.1958 124.577 44.3132 124.448C44.4306 124.317 44.5739 124.215 44.7433 124.142C44.9126 124.067 45.1032 124.03 45.3148 124.03C45.49 124.03 45.6516 124.06 45.7998 124.119C45.9499 124.177 46.0788 124.262 46.1866 124.373C46.2963 124.483 46.3819 124.62 46.4435 124.783C46.5051 124.945 46.5359 125.129 46.5359 125.337C46.5359 125.418 46.5272 125.472 46.5099 125.499C46.4926 125.526 46.4599 125.539 46.4117 125.539H44.4575C44.4633 125.724 44.4883 125.885 44.5326 126.021C44.5788 126.158 44.6423 126.273 44.7231 126.365C44.8039 126.455 44.9001 126.524 45.0117 126.57C45.1234 126.614 45.2484 126.636 45.387 126.636C45.5159 126.636 45.6266 126.622 45.719 126.593C45.8133 126.562 45.8941 126.529 45.9614 126.495C46.0288 126.46 46.0846 126.428 46.1289 126.4C46.175 126.369 46.2145 126.353 46.2472 126.353C46.2895 126.353 46.3223 126.37 46.3454 126.402L46.4897 126.59ZM48.8701 124.558C48.847 124.6 48.8114 124.621 48.7633 124.621C48.7344 124.621 48.7017 124.611 48.6651 124.59C48.6286 124.569 48.5834 124.545 48.5295 124.52C48.4775 124.493 48.415 124.469 48.3418 124.448C48.2687 124.425 48.1821 124.414 48.082 124.414C47.9954 124.414 47.9175 124.425 47.8482 124.448C47.779 124.469 47.7193 124.499 47.6693 124.538C47.6212 124.576 47.5836 124.621 47.5567 124.673C47.5317 124.723 47.5192 124.778 47.5192 124.838C47.5192 124.913 47.5403 124.976 47.5827 125.026C47.6269 125.076 47.6847 125.119 47.7559 125.155C47.8271 125.192 47.9079 125.225 47.9983 125.254C48.0888 125.281 48.1812 125.31 48.2754 125.343C48.3717 125.374 48.465 125.409 48.5554 125.447C48.6459 125.485 48.7267 125.534 48.7979 125.591C48.8691 125.649 48.9259 125.72 48.9682 125.805C49.0125 125.888 49.0346 125.988 49.0346 126.105C49.0346 126.24 49.0106 126.365 48.9625 126.48C48.9143 126.594 48.8431 126.693 48.7489 126.778C48.6546 126.86 48.5391 126.926 48.4025 126.974C48.2658 127.022 48.108 127.046 47.9291 127.046C47.7251 127.046 47.5403 127.013 47.3748 126.948C47.2093 126.881 47.0689 126.795 46.9534 126.691L47.0746 126.495C47.09 126.47 47.1083 126.451 47.1295 126.437C47.1506 126.424 47.1776 126.417 47.2103 126.417C47.2449 126.417 47.2815 126.43 47.32 126.457C47.3585 126.484 47.4047 126.514 47.4585 126.547C47.5143 126.58 47.5817 126.609 47.6606 126.636C47.7395 126.663 47.8376 126.677 47.955 126.677C48.0551 126.677 48.1427 126.664 48.2177 126.639C48.2928 126.612 48.3553 126.577 48.4053 126.532C48.4554 126.488 48.4919 126.437 48.515 126.379C48.5401 126.322 48.5526 126.26 48.5526 126.195C48.5526 126.114 48.5304 126.047 48.4862 125.995C48.4438 125.942 48.3871 125.896 48.3159 125.86C48.2447 125.821 48.1629 125.789 48.0705 125.762C47.9801 125.733 47.8867 125.703 47.7905 125.672C47.6962 125.641 47.6029 125.607 47.5105 125.568C47.4201 125.528 47.3392 125.478 47.268 125.418C47.1968 125.358 47.1391 125.285 47.0948 125.199C47.0525 125.11 47.0313 125.003 47.0313 124.878C47.0313 124.767 47.0544 124.66 47.1006 124.558C47.1468 124.454 47.2141 124.364 47.3027 124.287C47.3912 124.208 47.4999 124.145 47.6289 124.099C47.7578 124.053 47.905 124.03 48.0705 124.03C48.2629 124.03 48.4352 124.06 48.5872 124.122C48.7412 124.182 48.8739 124.264 48.9856 124.37L48.8701 124.558ZM51.3677 124.558C51.3446 124.6 51.309 124.621 51.2609 124.621C51.232 124.621 51.1993 124.611 51.1627 124.59C51.1262 124.569 51.0809 124.545 51.0271 124.52C50.9751 124.493 50.9126 124.469 50.8394 124.448C50.7663 124.425 50.6797 124.414 50.5796 124.414C50.493 124.414 50.4151 124.425 50.3458 124.448C50.2765 124.469 50.2169 124.499 50.1668 124.538C50.1187 124.576 50.0812 124.621 50.0543 124.673C50.0293 124.723 50.0167 124.778 50.0167 124.838C50.0167 124.913 50.0379 124.976 50.0802 125.026C50.1245 125.076 50.1822 125.119 50.2534 125.155C50.3246 125.192 50.4055 125.225 50.4959 125.254C50.5864 125.281 50.6787 125.31 50.773 125.343C50.8693 125.374 50.9626 125.409 51.053 125.447C51.1435 125.485 51.2243 125.534 51.2955 125.591C51.3667 125.649 51.4235 125.72 51.4658 125.805C51.5101 125.888 51.5322 125.988 51.5322 126.105C51.5322 126.24 51.5082 126.365 51.46 126.48C51.4119 126.594 51.3407 126.693 51.2464 126.778C51.1521 126.86 51.0367 126.926 50.9 126.974C50.7634 127.022 50.6056 127.046 50.4266 127.046C50.2227 127.046 50.0379 127.013 49.8724 126.948C49.7069 126.881 49.5664 126.795 49.451 126.691L49.5722 126.495C49.5876 126.47 49.6059 126.451 49.6271 126.437C49.6482 126.424 49.6752 126.417 49.7079 126.417C49.7425 126.417 49.7791 126.43 49.8176 126.457C49.8561 126.484 49.9022 126.514 49.9561 126.547C50.0119 126.58 50.0793 126.609 50.1582 126.636C50.2371 126.663 50.3352 126.677 50.4526 126.677C50.5527 126.677 50.6402 126.664 50.7153 126.639C50.7904 126.612 50.8529 126.577 50.9029 126.532C50.953 126.488 50.9895 126.437 51.0126 126.379C51.0376 126.322 51.0501 126.26 51.0501 126.195C51.0501 126.114 51.028 126.047 50.9838 125.995C50.9414 125.942 50.8846 125.896 50.8134 125.86C50.7422 125.821 50.6605 125.789 50.5681 125.762C50.4776 125.733 50.3843 125.703 50.2881 125.672C50.1938 125.641 50.1005 125.607 50.0081 125.568C49.9176 125.528 49.8368 125.478 49.7656 125.418C49.6944 125.358 49.6367 125.285 49.5924 125.199C49.5501 125.11 49.5289 125.003 49.5289 124.878C49.5289 124.767 49.552 124.66 49.5982 124.558C49.6444 124.454 49.7117 124.364 49.8002 124.287C49.8888 124.208 49.9975 124.145 50.1264 124.099C50.2554 124.053 50.4026 124.03 50.5681 124.03C50.7605 124.03 50.9328 124.06 51.0848 124.122C51.2387 124.182 51.3715 124.264 51.4831 124.37L51.3677 124.558Z" fill="#000246"/>
<circle cx="21" cy="120" r="6" fill="#22C55E"/>
<path d="M137.996 116.878V114.452C137.996 114.381 137.999 114.303 138.005 114.218C138.01 114.133 138.018 114.047 138.029 113.959L135.887 116.878H137.996ZM139.528 116.878V117.297C139.528 117.34 139.514 117.377 139.486 117.407C139.462 117.437 139.422 117.453 139.367 117.453H138.637V119H137.996V117.453H135.386C135.331 117.453 135.283 117.437 135.242 117.407C135.204 117.375 135.179 117.335 135.168 117.288L135.094 116.915L137.955 113.118H138.637V116.878H139.528ZM141.248 115.339C141.555 115.273 141.836 115.24 142.094 115.24C142.4 115.24 142.671 115.285 142.906 115.376C143.142 115.466 143.337 115.59 143.493 115.749C143.652 115.908 143.771 116.095 143.85 116.311C143.933 116.528 143.974 116.763 143.974 117.017C143.974 117.329 143.919 117.611 143.809 117.863C143.703 118.115 143.554 118.331 143.362 118.512C143.173 118.689 142.95 118.826 142.693 118.922C142.436 119.018 142.158 119.066 141.86 119.066C141.687 119.066 141.522 119.048 141.363 119.012C141.204 118.979 141.055 118.934 140.916 118.877C140.779 118.819 140.652 118.754 140.534 118.68C140.416 118.606 140.312 118.528 140.222 118.446L140.448 118.134C140.497 118.063 140.561 118.027 140.641 118.027C140.695 118.027 140.757 118.049 140.825 118.093C140.894 118.134 140.977 118.18 141.076 118.232C141.174 118.284 141.289 118.332 141.42 118.376C141.555 118.417 141.713 118.438 141.897 118.438C142.102 118.438 142.287 118.405 142.451 118.339C142.615 118.273 142.756 118.18 142.874 118.06C142.991 117.937 143.082 117.79 143.144 117.621C143.207 117.451 143.239 117.261 143.239 117.05C143.239 116.867 143.211 116.701 143.157 116.554C143.105 116.406 143.024 116.28 142.915 116.176C142.808 116.072 142.674 115.991 142.512 115.934C142.351 115.876 142.162 115.848 141.946 115.848C141.798 115.848 141.643 115.86 141.482 115.885C141.323 115.909 141.16 115.949 140.994 116.004L140.534 115.868L141.006 113.118H143.793V113.438C143.793 113.542 143.76 113.628 143.694 113.697C143.632 113.762 143.522 113.795 143.366 113.795H141.519L141.248 115.339ZM147.488 114.538C147.488 114.768 147.452 114.975 147.381 115.158C147.31 115.339 147.214 115.492 147.094 115.618C146.976 115.741 146.838 115.835 146.679 115.901C146.523 115.967 146.358 115.999 146.183 115.999C145.999 115.999 145.828 115.967 145.67 115.901C145.511 115.835 145.373 115.741 145.255 115.618C145.14 115.492 145.05 115.339 144.984 115.158C144.918 114.975 144.886 114.768 144.886 114.538C144.886 114.303 144.918 114.093 144.984 113.91C145.05 113.727 145.14 113.572 145.255 113.446C145.373 113.32 145.511 113.225 145.67 113.159C145.828 113.093 145.999 113.06 146.183 113.06C146.369 113.06 146.541 113.093 146.7 113.159C146.859 113.225 146.997 113.32 147.114 113.446C147.232 113.572 147.324 113.727 147.389 113.91C147.455 114.093 147.488 114.303 147.488 114.538ZM146.921 114.538C146.921 114.358 146.902 114.204 146.864 114.078C146.826 113.953 146.772 113.85 146.704 113.771C146.638 113.688 146.56 113.63 146.47 113.594C146.38 113.558 146.284 113.541 146.183 113.541C146.081 113.541 145.987 113.558 145.899 113.594C145.812 113.63 145.735 113.688 145.67 113.771C145.604 113.85 145.552 113.953 145.514 114.078C145.475 114.204 145.456 114.358 145.456 114.538C145.456 114.716 145.475 114.868 145.514 114.994C145.552 115.117 145.604 115.218 145.67 115.298C145.735 115.374 145.812 115.43 145.899 115.466C145.987 115.499 146.081 115.515 146.183 115.515C146.284 115.515 146.38 115.499 146.47 115.466C146.56 115.43 146.638 115.374 146.704 115.298C146.772 115.218 146.826 115.117 146.864 114.994C146.902 114.868 146.921 114.716 146.921 114.538ZM149.569 113.241C149.596 113.208 149.628 113.179 149.663 113.155C149.702 113.13 149.752 113.118 149.815 113.118H150.345L146.043 118.881C146.018 118.917 145.987 118.945 145.949 118.967C145.91 118.989 145.864 119 145.809 119H145.271L149.569 113.241ZM150.743 117.613C150.743 117.842 150.707 118.048 150.636 118.228C150.565 118.409 150.469 118.562 150.349 118.688C150.231 118.811 150.093 118.906 149.934 118.971C149.778 119.037 149.613 119.07 149.438 119.07C149.252 119.07 149.079 119.037 148.92 118.971C148.764 118.906 148.628 118.811 148.51 118.688C148.395 118.562 148.305 118.409 148.239 118.228C148.173 118.048 148.141 117.842 148.141 117.613C148.141 117.377 148.173 117.168 148.239 116.985C148.305 116.798 148.395 116.643 148.51 116.517C148.628 116.391 148.764 116.295 148.92 116.229C149.079 116.164 149.252 116.131 149.438 116.131C149.621 116.131 149.792 116.164 149.951 116.229C150.112 116.295 150.25 116.391 150.365 116.517C150.483 116.643 150.575 116.798 150.64 116.985C150.709 117.168 150.743 117.377 150.743 117.613ZM150.177 117.613C150.177 117.432 150.157 117.279 150.119 117.153C150.081 117.024 150.027 116.92 149.959 116.841C149.893 116.762 149.815 116.704 149.725 116.669C149.635 116.633 149.539 116.615 149.438 116.615C149.336 116.615 149.241 116.633 149.15 116.669C149.063 116.704 148.986 116.762 148.92 116.841C148.855 116.92 148.803 117.024 148.764 117.153C148.729 117.279 148.711 117.432 148.711 117.613C148.711 117.79 148.729 117.941 148.764 118.064C148.803 118.187 148.855 118.289 148.92 118.368C148.986 118.444 149.063 118.501 149.15 118.536C149.241 118.569 149.336 118.585 149.438 118.585C149.539 118.585 149.635 118.569 149.725 118.536C149.815 118.501 149.893 118.444 149.959 118.368C150.027 118.289 150.081 118.187 150.119 118.064C150.157 117.941 150.177 117.79 150.177 117.613Z" fill="#000246"/>
<path d="M136.088 123.32V124.766H137.788V125.222H136.088V127H135.528V122.864H138.077V123.32H136.088ZM139.845 125.684C139.608 125.691 139.406 125.711 139.238 125.741C139.073 125.77 138.937 125.809 138.831 125.857C138.727 125.905 138.651 125.962 138.603 126.027C138.557 126.093 138.534 126.166 138.534 126.247C138.534 126.324 138.547 126.39 138.572 126.446C138.597 126.502 138.63 126.548 138.673 126.584C138.717 126.619 138.768 126.645 138.826 126.662C138.885 126.678 138.949 126.685 139.016 126.685C139.107 126.685 139.189 126.677 139.264 126.659C139.339 126.64 139.41 126.613 139.475 126.579C139.542 126.544 139.606 126.503 139.666 126.454C139.727 126.406 139.787 126.351 139.845 126.29V125.684ZM138.185 124.489C138.346 124.333 138.521 124.216 138.707 124.139C138.894 124.062 139.101 124.024 139.328 124.024C139.491 124.024 139.637 124.051 139.764 124.105C139.891 124.159 139.998 124.234 140.084 124.33C140.171 124.426 140.236 124.543 140.28 124.679C140.325 124.816 140.347 124.966 140.347 125.129V127H140.119C140.069 127 140.03 126.992 140.003 126.977C139.976 126.96 139.955 126.927 139.94 126.879L139.882 126.602C139.805 126.673 139.73 126.736 139.657 126.792C139.584 126.846 139.507 126.892 139.426 126.931C139.345 126.967 139.259 126.995 139.166 127.014C139.076 127.036 138.975 127.046 138.863 127.046C138.75 127.046 138.643 127.031 138.543 127C138.443 126.967 138.355 126.919 138.28 126.856C138.207 126.792 138.148 126.712 138.104 126.616C138.062 126.518 138.04 126.402 138.04 126.27C138.04 126.154 138.072 126.044 138.136 125.938C138.199 125.83 138.302 125.735 138.445 125.652C138.587 125.569 138.773 125.502 139.002 125.45C139.231 125.396 139.512 125.365 139.845 125.358V125.129C139.845 124.902 139.795 124.731 139.697 124.616C139.599 124.498 139.456 124.44 139.267 124.44C139.14 124.44 139.033 124.456 138.947 124.489C138.862 124.519 138.788 124.555 138.725 124.595C138.663 124.634 138.609 124.67 138.563 124.702C138.519 124.733 138.474 124.748 138.43 124.748C138.395 124.748 138.366 124.74 138.341 124.722C138.316 124.703 138.294 124.68 138.277 124.653L138.185 124.489ZM141.672 124.076V127H141.158V124.076H141.672ZM141.782 123.158C141.782 123.208 141.771 123.255 141.75 123.299C141.731 123.342 141.704 123.38 141.669 123.415C141.637 123.448 141.597 123.474 141.551 123.493C141.507 123.512 141.459 123.522 141.409 123.522C141.359 123.522 141.312 123.512 141.268 123.493C141.226 123.474 141.188 123.448 141.155 123.415C141.123 123.38 141.097 123.342 141.078 123.299C141.058 123.255 141.049 123.208 141.049 123.158C141.049 123.108 141.058 123.061 141.078 123.016C141.097 122.97 141.123 122.931 141.155 122.898C141.188 122.864 141.226 122.837 141.268 122.817C141.312 122.798 141.359 122.788 141.409 122.788C141.459 122.788 141.507 122.798 141.551 122.817C141.597 122.837 141.637 122.864 141.669 122.898C141.704 122.931 141.731 122.97 141.75 123.016C141.771 123.061 141.782 123.108 141.782 123.158ZM143.048 122.748V127H142.534V122.748H143.048ZM146.285 124.076V127H145.979C145.906 127 145.86 126.964 145.841 126.893L145.8 126.579C145.673 126.719 145.531 126.833 145.373 126.919C145.215 127.004 145.034 127.046 144.83 127.046C144.671 127.046 144.529 127.02 144.406 126.968C144.285 126.914 144.183 126.839 144.1 126.743C144.017 126.647 143.955 126.53 143.913 126.394C143.872 126.257 143.852 126.106 143.852 125.941V124.076H144.366V125.941C144.366 126.162 144.416 126.333 144.516 126.454C144.618 126.576 144.773 126.636 144.981 126.636C145.133 126.636 145.274 126.601 145.405 126.529C145.538 126.456 145.66 126.356 145.771 126.229V124.076H146.285ZM147.588 124.662C147.68 124.462 147.794 124.306 147.928 124.194C148.063 124.081 148.228 124.024 148.422 124.024C148.484 124.024 148.542 124.031 148.598 124.044C148.656 124.058 148.707 124.079 148.751 124.108L148.714 124.492C148.702 124.54 148.673 124.564 148.627 124.564C148.6 124.564 148.561 124.558 148.509 124.546C148.457 124.535 148.398 124.529 148.333 124.529C148.24 124.529 148.157 124.543 148.084 124.569C148.013 124.596 147.949 124.637 147.891 124.691C147.835 124.743 147.784 124.808 147.738 124.887C147.694 124.964 147.653 125.053 147.617 125.153V127H147.1V124.076H147.394C147.45 124.076 147.489 124.086 147.51 124.108C147.531 124.129 147.545 124.165 147.553 124.217L147.588 124.662ZM151.042 125.219C151.042 125.1 151.024 124.991 150.99 124.893C150.957 124.793 150.908 124.707 150.842 124.636C150.779 124.563 150.701 124.507 150.609 124.468C150.516 124.428 150.411 124.408 150.294 124.408C150.048 124.408 149.852 124.48 149.708 124.624C149.566 124.767 149.477 124.965 149.442 125.219H151.042ZM151.457 126.59C151.394 126.667 151.318 126.734 151.229 126.792C151.141 126.848 151.045 126.894 150.943 126.931C150.843 126.967 150.74 126.994 150.632 127.012C150.524 127.031 150.417 127.04 150.311 127.04C150.109 127.04 149.923 127.007 149.751 126.939C149.582 126.87 149.435 126.77 149.31 126.639C149.187 126.506 149.09 126.343 149.021 126.148C148.952 125.954 148.917 125.731 148.917 125.479C148.917 125.275 148.948 125.084 149.009 124.907C149.073 124.73 149.163 124.577 149.281 124.448C149.398 124.317 149.542 124.215 149.711 124.142C149.88 124.067 150.071 124.03 150.282 124.03C150.458 124.03 150.619 124.06 150.767 124.119C150.918 124.177 151.046 124.262 151.154 124.373C151.264 124.483 151.35 124.62 151.411 124.783C151.473 124.945 151.503 125.129 151.503 125.337C151.503 125.418 151.495 125.472 151.478 125.499C151.46 125.526 151.427 125.539 151.379 125.539H149.425C149.431 125.724 149.456 125.885 149.5 126.021C149.546 126.158 149.61 126.273 149.691 126.365C149.772 126.455 149.868 126.524 149.979 126.57C150.091 126.614 150.216 126.636 150.355 126.636C150.484 126.636 150.594 126.622 150.687 126.593C150.781 126.562 150.862 126.529 150.929 126.495C150.996 126.46 151.052 126.428 151.096 126.4C151.143 126.369 151.182 126.353 151.215 126.353C151.257 126.353 151.29 126.37 151.313 126.402L151.457 126.59Z" fill="#000246"/>
<circle cx="124" cy="120" r="6" fill="#E5E7EB"/>
<rect x="118.289" y="111.289" width="36.4227" height="16.4227" stroke="#E5E7EB" stroke-width="0.57732"/>
<defs>
<filter id="filter0_d_2859_517" x="91.2845" y="25" width="23.4309" height="23.4309" filterUnits="userSpaceOnUse" color-interpolation-filters="sRGB">
<feFlood flood-opacity="0" result="BackgroundImageFix"/>
<feColorMatrix in="SourceAlpha" type="matrix" values="0 0 0 0 0 0 0 0 0 0 0 0 0 0 0 0 0 0 127 0" result="hardAlpha"/>
<feOffset dy="2.71547"/>
<feGaussianBlur stdDeviation="1.35773"/>
<feComposite in2="hardAlpha" operator="out"/>
<feColorMatrix type="matrix" values="0 0 0 0 0.0509804 0 0 0 0 0.0392157 0 0 0 0 0.172549 0 0 0 0.08 0"/>
<feBlend mode="normal" in2="BackgroundImageFix" result="effect1_dropShadow_2859_517"/>
<feBlend mode="normal" in="SourceGraphic" in2="effect1_dropShadow_2859_517" result="shape"/>
</filter>
</defs>
</svg>
