<svg xmlns="http://www.w3.org/2000/svg" width="637" height="544" fill="none" viewBox="0 0 637 544">
  <mask id="b" width="637" height="544" x="0" y="0" maskUnits="userSpaceOnUse" style="mask-type:alpha">
    <path fill="url(#a)" d="M21 78.5 65.5.5l571-.5-1.5 542s-241 3.5-387.5-1c-7.284-2.983-11.198-4.514-18.5-8l-.604-.288c-6.219-2.967-10.382-4.954-16.396-9.212-9.128-6.463-20.5-20-20.5-20-31-53.5-76.5-133-76.5-133L6.5 179.5s-3.725-9.269-5-15.5C.36 158.423 0 149.5 0 149.5s.262-22.059 4-35.5c4.118-14.81 17-35.5 17-35.5Z"/>
  </mask>
  <g mask="url(#b)">
    <path fill="url(#c)" d="M-91-52h744v585H-91z"/>
    <ellipse cx="100" cy="67.5" fill="url(#d)" rx="113" ry="112.5"/>
    <ellipse cx="619.186" cy="216.586" fill="url(#e)" rx="151.5" ry="156" transform="rotate(-177.2 619.186 216.586)"/>
    <ellipse cx="260.702" cy="324.329" fill="url(#f)" rx="113" ry="112.5" transform="rotate(166.801 260.702 324.329)"/>
  </g>
  <defs>
    <linearGradient id="a" x1="0" x2="660" y1="93" y2="488" gradientUnits="userSpaceOnUse">
      <stop stop-color="#6B3A1F"/>
      <stop offset="1" stop-color="#966647"/>
    </linearGradient>
    <linearGradient id="c" x1="158.5" x2="720.5" y1="-52" y2="722.5" gradientUnits="userSpaceOnUse">
      <stop stop-color="#739522"/>
      <stop offset="1" stop-color="#71976B"/>
    </linearGradient>
    <linearGradient id="d" x1="537.5" x2="32" y1="499" y2="-12" gradientUnits="userSpaceOnUse">
      <stop stop-color="#D9D9D9"/>
      <stop offset="1" stop-color="#D9D9D9" stop-opacity="0"/>
    </linearGradient>
    <linearGradient id="e" x1="1389.08" x2="481.499" y1="1814.57" y2="131.43" gradientUnits="userSpaceOnUse">
      <stop offset=".442" stop-color="#D9D9D9"/>
      <stop offset="1" stop-color="#D9D9D9" stop-opacity="0"/>
    </linearGradient>
    <linearGradient id="f" x1="834.947" x2="192.702" y1="1476.72" y2="244.829" gradientUnits="userSpaceOnUse">
      <stop offset=".442" stop-color="#D9D9D9"/>
      <stop offset="1" stop-color="#D9D9D9" stop-opacity="0"/>
    </linearGradient>
  </defs>
</svg>
