<svg width="344" height="124" viewBox="0 0 344 124" fill="none" xmlns="http://www.w3.org/2000/svg">
  <path
    d="M297.68 0.880493H45.249C20.6276 0.880493 0.667969 20.8401 0.667969 45.4615V45.4625C0.667969 70.0839 20.6276 90.0435 45.249 90.0435H297.68C322.301 90.0435 342.261 70.0839 342.261 45.4625V45.4615C342.261 20.8401 322.301 0.880493 297.68 0.880493Z"
    fill="white" />
  <path
    d="M297.68 90.9235H45.2488C33.2286 90.8671 21.7199 86.0526 13.2402 77.533C4.76053 69.0135 0 57.4823 0 45.462C0 33.4417 4.76053 21.9106 13.2402 13.391C21.7199 4.87142 33.2286 0.0568756 45.2488 0.000500043H297.68C303.668 -0.0275842 309.602 1.12758 315.143 3.39965C320.683 5.67172 325.72 9.01593 329.964 13.2402C334.208 17.4645 337.576 22.4856 339.874 28.0152C342.172 33.5448 343.355 39.4739 343.355 45.462C343.355 51.4501 342.172 57.3792 339.874 62.9088C337.576 68.4384 334.208 73.4595 329.964 77.6838C325.72 81.9081 320.683 85.2523 315.143 87.5243C309.602 89.7964 303.668 90.9516 297.68 90.9235ZM45.2488 1.7605C33.6588 1.7605 22.5436 6.36459 14.3482 14.5599C6.1529 22.7553 1.5488 33.8705 1.5488 45.4605C1.5488 57.0505 6.1529 68.1657 14.3482 76.3611C22.5436 84.5564 33.6588 89.1605 45.2488 89.1605H297.68C309.27 89.1605 320.385 84.5564 328.58 76.3611C336.776 68.1657 341.38 57.0505 341.38 45.4605C341.38 33.8705 336.776 22.7553 328.58 14.5599C320.385 6.36459 309.27 1.7605 297.68 1.7605H45.2488Z"
    fill="currentColor" />
  <path
    d="M49.651 22L57.165 36.868L73.653 39.407L61.858 50.801L64.837 67.089L50.032 59.263L35.385 66.79L38.031 50.559L26 38.924L42.439 36.719L49.651 22Z"
    fill="currentColor" />
  <path
    d="M110.876 22L118.39 36.868L134.878 39.407L123.083 50.801L126.062 67.089L111.257 59.263L96.6101 66.79L99.2561 50.559L87.2251 38.924L103.665 36.719L110.876 22Z"
    fill="currentColor" />
  <path
    d="M172.101 22L179.616 36.868L196.104 39.407L184.308 50.801L187.287 67.089L172.483 59.263L157.836 66.79L160.481 50.559L148.45 38.924L164.89 36.719L172.101 22Z"
    fill="currentColor" />
  <path
    d="M233.326 22L240.841 36.868L257.329 39.407L245.533 50.801L248.512 67.089L233.708 59.263L219.061 66.79L221.707 50.559L209.675 38.924L226.115 36.719L233.326 22Z"
    fill="currentColor" />
  <path opacity="0.2"
    d="M294.552 22L302.066 36.868L318.554 39.407L306.759 50.801L309.738 67.089L294.933 59.263L280.286 66.79L282.932 50.559L270.901 38.924L287.34 36.719L294.552 22Z"
    fill="currentColor" />
  <path
    d="M262 86.451L284.614 80.113L292.625 58L305.166 77.423L328.507 77.746L313.644 96.088L320.059 118.401L298.332 110.313L278.956 123.78L280.39 100.44L262 86.451Z"
    fill="currentColor" />
</svg>