<svg xmlns="http://www.w3.org/2000/svg" width="60" height="60" fill="none" viewBox="0 0 60 60">
  <g class="grid-2_svgrepo.com">
    <g class="Page-1">
      <g class="Icon-Set">
        <path fill="currentColor" fill-rule="evenodd" d="M30 33.75c-2.07 0-3.75-1.68-3.75-3.75 0-2.07 1.68-3.75 3.75-3.75 2.07 0 3.75 1.68 3.75 3.75 0 2.07-1.68 3.75-3.75 3.75Zm0-11.25a7.5 7.5 0 1 0 0 15 7.5 7.5 0 0 0 0-15Zm0 30c-2.07 0-3.75-1.68-3.75-3.75 0-2.07 1.68-3.75 3.75-3.75 2.07 0 3.75 1.68 3.75 3.75 0 2.07-1.68 3.75-3.75 3.75Zm0-11.25a7.5 7.5 0 1 0 0 15 7.5 7.5 0 0 0 0-15ZM30 15c-2.07 0-3.75-1.68-3.75-3.75 0-2.07 1.68-3.75 3.75-3.75 2.07 0 3.75 1.68 3.75 3.75 0 2.07-1.68 3.75-3.75 3.75Zm0-11.25a7.5 7.5 0 1 0 0 15 7.5 7.5 0 0 0 0-15Zm22.5 30c-2.07 0-3.75-1.68-3.75-3.75 0-2.07 1.68-3.75 3.75-3.75 2.07 0 3.75 1.68 3.75 3.75 0 2.07-1.68 3.75-3.75 3.75Zm0-11.25a7.5 7.5 0 1 0 0 15 7.5 7.5 0 0 0 0-15ZM7.5 15c-2.07 0-3.75-1.68-3.75-3.75 0-2.07 1.68-3.75 3.75-3.75 2.07 0 3.75 1.68 3.75 3.75 0 2.07-1.68 3.75-3.75 3.75Zm0-11.25a7.5 7.5 0 1 0 0 15 7.5 7.5 0 0 0 0-15Zm45 48.75c-2.07 0-3.75-1.68-3.75-3.75 0-2.07 1.68-3.75 3.75-3.75 2.07 0 3.75 1.68 3.75 3.75 0 2.07-1.68 3.75-3.75 3.75Zm0-11.25a7.5 7.5 0 1 0 0 15 7.5 7.5 0 0 0 0-15ZM7.5 52.5c-2.07 0-3.75-1.68-3.75-3.75C3.75 46.68 5.43 45 7.5 45c2.07 0 3.75 1.68 3.75 3.75 0 2.07-1.68 3.75-3.75 3.75Zm0-11.25a7.5 7.5 0 1 0 0 15 7.5 7.5 0 0 0 0-15Zm45-33.75c2.07 0 3.75 1.68 3.75 3.75 0 2.07-1.68 3.75-3.75 3.75-2.07 0-3.75-1.68-3.75-3.75 0-2.07 1.68-3.75 3.75-3.75Zm0 11.25a7.5 7.5 0 1 0 0-15 7.5 7.5 0 0 0 0 15Zm-45 15c-2.07 0-3.75-1.68-3.75-3.75 0-2.07 1.68-3.75 3.75-3.75 2.07 0 3.75 1.68 3.75 3.75 0 2.07-1.68 3.75-3.75 3.75Zm0-11.25a7.5 7.5 0 1 0 0 15 7.5 7.5 0 0 0 0-15Z" class="grid-2" clip-rule="evenodd"/>
      </g>
    </g>
  </g>
</svg>
