<svg xmlns="http://www.w3.org/2000/svg" width="1024" height="1024" fill="none" viewBox="0 0 1024 1024">
  <g class="Interest">
    <path fill="currentColor"
      d="M737.391 440.697 598.285 579.809l14.142 14.142 139.107-139.112-14.143-14.142ZM624.42 504.27c-20.66 0-37.46-16.8-37.46-37.46s16.8-37.46 37.46-37.46 37.46 16.8 37.46 37.46-16.81 37.46-37.46 37.46Zm0-54.91c-9.63 0-17.46 7.83-17.46 17.46s7.83 17.46 17.46 17.46 17.46-7.83 17.46-17.46-7.84-17.46-17.46-17.46Zm101 155.92c-20.65 0-37.46-16.8-37.46-37.46s16.8-37.46 37.46-37.46 37.46 16.8 37.46 37.46-16.8 37.46-37.46 37.46Zm0-54.92c-9.63 0-17.46 7.83-17.46 17.46s7.83 17.46 17.46 17.46 17.46-7.83 17.46-17.46-7.83-17.46-17.46-17.46ZM363.49 490.2h-28.82c-25.94 0-47.05-21.11-47.05-47.05h20c0 14.92 12.13 27.05 27.05 27.05h28.82c14.92 0 27.05-12.13 27.05-27.05v-2.06c0-14.92-12.13-27.05-27.05-27.05h-28.82c-25.94 0-47.05-21.11-47.05-47.05v-2.06c0-25.94 21.11-47.05 47.05-47.05h28.82c25.94 0 47.05 21.11 47.05 47.05h-20c0-14.92-12.13-27.05-27.05-27.05h-28.82c-14.92 0-27.05 12.13-27.05 27.05v2.06c0 14.92 12.13 27.05 27.05 27.05h28.82c25.94 0 47.05 21.11 47.05 47.05v2.06c0 25.95-21.1 47.05-47.05 47.05Z"
      class="Vector" />
    <path fill="currentColor"
      d="M359.08 480.2h-20v35.09h20V480.2Zm0-187.41h-20v35.09h20v-35.09Zm342.49 522.94a9.99 9.99 0 0 1-9.99-10V713.1H497.12c-22.09 0-40.07-17.96-40.07-40.05V361.97c0-22.29 18.14-40.43 40.43-40.43h354.87c22.29 0 40.43 18.14 40.43 40.43v310.7c0 22.29-18.14 40.43-40.43 40.43h-44.01l-99.7 99.71a9.993 9.993 0 0 1-7.07 2.92ZM497.48 341.54c-11.26 0-20.43 9.16-20.43 20.43v311.08c0 11.05 9 20.05 20.07 20.05h204.45c5.52 0 10 4.48 10 10v78.49l85.56-85.56a9.99 9.99 0 0 1 7.07-2.93h48.16c11.26 0 20.43-9.16 20.43-20.43v-310.7c0-11.26-9.16-20.43-20.43-20.43H497.48Z"
      class="Vector" />
    <path fill="currentColor"
      d="M320.98 702.46c-2.6 0-5.16-1.02-7.07-2.93l-99.71-99.71h-42.56c-22.29 0-40.43-18.14-40.43-40.43v-310.7c0-22.29 18.14-40.43 40.43-40.43h354.87c22.29 0 40.43 18.14 40.43 40.43v82.85c0 5.52-4.48 10-10 10h-59.47c-11.26 0-20.43 9.16-20.43 20.43v227.86c0 5.52-4.48 10-10 10H330.98v92.64c0 4.04-2.44 7.69-6.17 9.24-1.24.5-2.54.75-3.83.75ZM171.65 228.27c-11.26 0-20.43 9.16-20.43 20.43v310.7c0 11.26 9.16 20.43 20.43 20.43h46.7c2.65 0 5.2 1.05 7.07 2.93l85.57 85.57v-78.49c0-5.52 4.48-10 10-10h136.07V361.97c0-22.29 18.14-40.43 40.43-40.43h49.47v-72.85c0-11.26-9.16-20.43-20.43-20.43H171.65v.01Zm533.248-2.335h-17.197v14.954c0 .705-.323 1.382-.899 1.881-.576.499-1.357.78-2.172.78-.814 0-1.595-.281-2.171-.78-.576-.499-.9-1.176-.9-1.881v-14.954h-17.258c-.815 0-1.596-.28-2.172-.779-.575-.499-.899-1.176-.899-1.881 0-.706.324-1.383.899-1.882.576-.499 1.357-.779 2.172-.779h17.258v-14.953c0-.706.324-1.383.9-1.882.576-.499 1.357-.779 2.171-.779.815 0 1.596.28 2.172.779.576.499.899 1.176.899 1.882v14.953h17.197c.815 0 1.596.28 2.172.779.576.499.899 1.176.899 1.882 0 .705-.323 1.382-.899 1.881-.576.499-1.357.779-2.172.779Zm-103.827 0c-.815 0-1.596-.28-2.172-.779-.575-.499-.899-1.176-.899-1.881 0-.706.324-1.383.899-1.882.576-.499 1.357-.779 2.172-.779h40.653c.814 0 1.595.28 2.171.779.576.499.9 1.176.9 1.882 0 .705-.324 1.382-.9 1.881-.576.499-1.357.779-2.171.779h-40.653Zm63.205 43.743c-.814 0-1.595-.28-2.171-.779-.576-.499-.9-1.176-.9-1.882s.324-1.382.9-1.881c.576-.499 1.357-.78 2.171-.78h40.653c.815 0 1.596.281 2.172.78.575.499.899 1.175.899 1.881s-.324 1.383-.899 1.882c-.576.499-1.357.779-2.172.779h-40.653Zm0 22.036c-.814 0-1.595-.28-2.171-.779-.576-.499-.9-1.176-.9-1.882 0-.705.324-1.382.9-1.881.576-.499 1.357-.779 2.171-.779h40.653c.815 0 1.596.28 2.172.779.575.499.899 1.176.899 1.881 0 .706-.324 1.383-.899 1.882-.576.499-1.357.779-2.172.779h-40.653Zm-26.323-3.092c.499.512.757 1.169.721 1.838-.035.67-.361 1.303-.911 1.774-.551.471-1.287.744-2.06.765a3.371 3.371 0 0 1-2.111-.652l-12.161-10.536a2127.536 2127.536 0 0 0-12.222 10.536 3.371 3.371 0 0 1-2.111.652c-.773-.021-1.509-.294-2.06-.765-.551-.471-.876-1.104-.912-1.774-.035-.669.223-1.326.722-1.838l12.222-10.589-12.222-10.59c-.499-.512-.757-1.169-.722-1.838.036-.67.361-1.303.912-1.774.551-.47 1.287-.744 2.06-.765a3.371 3.371 0 0 1 2.111.652l3.562 3.086 8.599 7.45c4.115-3.512 8.168-7.024 12.222-10.536a3.371 3.371 0 0 1 2.111-.652c.773.021 1.509.295 2.06.765.55.471.876 1.104.911 1.774.036.669-.222 1.326-.721 1.838l-12.223 10.59 12.223 10.589Z"
      class="Vector" />
  </g>
</svg>