<svg width="512" height="512" viewBox="0 0 512 512" fill="none" xmlns="http://www.w3.org/2000/svg">
  <rect width="512" height="512" rx="85" fill="#9F2421" />
  <path
    d="M256.121 135.445C321.799 135.392 375.081 189.382 375.028 255.931C374.974 322.479 321.606 376.554 255.928 376.607C190.25 376.66 136.968 322.67 137.021 256.122C137.075 189.573 190.444 135.498 256.121 135.445Z"
    stroke="white" stroke-width="17" />
  <path
    d="M329.46 255.611C329.456 261.42 324.733 266.141 318.921 266.146L188.598 266.25C182.786 266.255 178.071 261.542 178.076 255.732C178.08 249.923 182.803 245.202 188.615 245.198L318.938 245.093C324.75 245.088 329.465 249.801 329.46 255.611Z"
    fill="white" />
  <path
    d="M327.083 261.516C323.737 265.796 317.196 266.284 312.485 262.607L263.205 224.136C258.495 220.459 257.387 213.999 260.733 209.72C264.078 205.441 270.62 204.952 275.33 208.629L324.61 247.1C329.32 250.777 330.428 257.237 327.083 261.516Z"
    fill="white" />
  <path
    d="M327.204 250.265C330.543 254.539 329.425 261.001 324.708 264.686L275.367 303.236C270.65 306.921 264.11 306.443 260.771 302.169C257.432 297.895 258.55 291.433 263.267 287.748L312.608 249.199C317.325 245.514 323.865 245.992 327.204 250.265Z"
    fill="white" />
</svg>