<svg width="128" height="128" viewBox="0 0 128 128" fill="none" xmlns="http://www.w3.org/2000/svg">
<path d="M127.13 127.13L127.13 0L-0.000114441 0L-0.000114441 127.13L127.13 127.13Z" fill="white"/>
<path d="M75.5199 40.42C75.5199 40.6519 75.7079 40.84 75.9399 40.84C76.1718 40.84 76.3599 40.6519 76.3599 40.42C76.3599 40.188 76.1718 40 75.9399 40C75.7079 40 75.5199 40.188 75.5199 40.42Z" fill="#414042"/>
<path d="M75.5897 49.72C75.5897 49.952 75.7777 50.14 76.0097 50.14C76.2417 50.14 76.4297 49.952 76.4297 49.72C76.4297 49.4881 76.2417 49.3 76.0097 49.3C75.7777 49.3 75.5897 49.4881 75.5897 49.72Z" fill="#414042"/>
<path d="M72.8495 45.0701C72.8495 45.3021 73.0376 45.4901 73.2695 45.4901C73.5015 45.4901 73.6895 45.3021 73.6895 45.0701C73.6895 44.8382 73.5015 44.6501 73.2695 44.6501C73.0376 44.6501 72.8495 44.8382 72.8495 45.0701Z" fill="#414042"/>
<path d="M70.0995 40.42C70.0995 40.6519 70.2876 40.84 70.5195 40.84C70.7515 40.84 70.9395 40.6519 70.9395 40.42C70.9395 40.188 70.7515 40 70.5195 40C70.2876 40 70.0995 40.188 70.0995 40.42Z" fill="#414042"/>
<path d="M77.9695 63.67C77.9695 64.1505 78.3591 64.54 78.8395 64.54C79.32 64.54 79.7095 64.1505 79.7095 63.67C79.7095 63.1896 79.32 62.8 78.8395 62.8C78.3591 62.8 77.9695 63.1896 77.9695 63.67Z" fill="#414042"/>
<path d="M75.2195 59.0201C75.2195 59.5006 75.6091 59.8901 76.0895 59.8901C76.57 59.8901 76.9595 59.5006 76.9595 59.0201C76.9595 58.5397 76.57 58.1501 76.0895 58.1501C75.6091 58.1501 75.2195 58.5397 75.2195 59.0201Z" fill="#414042"/>
<path d="M72.4695 54.37C72.4695 54.8505 72.8591 55.24 73.3395 55.24C73.82 55.24 74.2095 54.8505 74.2095 54.37C74.2095 53.8895 73.82 53.5 73.3395 53.5C72.8591 53.5 72.4695 53.8895 72.4695 54.37Z" fill="#414042"/>
<path d="M69.7195 49.7201C69.7195 50.2006 70.1091 50.5901 70.5895 50.5901C71.07 50.5901 71.4595 50.2006 71.4595 49.7201C71.4595 49.2396 71.07 48.8501 70.5895 48.8501C70.1091 48.8501 69.7195 49.2396 69.7195 49.7201Z" fill="#414042"/>
<path d="M66.9797 45.0702C66.9797 45.5507 67.3693 45.9402 67.8497 45.9402C68.3302 45.9402 68.7197 45.5507 68.7197 45.0702C68.7197 44.5897 68.3302 44.2002 67.8497 44.2002C67.3693 44.2002 66.9797 44.5897 66.9797 45.0702Z" fill="#414042"/>
<path d="M64.68 40.42C64.68 40.6519 64.868 40.84 65.1 40.84C65.332 40.84 65.52 40.6519 65.52 40.42C65.52 40.188 65.332 40 65.1 40C64.868 40 64.68 40.188 64.68 40.42Z" fill="#414042"/>
<path d="M71.6797 63.6702C71.6797 64.6311 72.4587 65.4102 73.4197 65.4102C74.3807 65.4102 75.1597 64.6311 75.1597 63.6702C75.1597 62.7092 74.3807 61.9302 73.4197 61.9302C72.4587 61.9302 71.6797 62.7092 71.6797 63.6702Z" fill="#414042"/>
<path d="M68.9297 59.0203C68.9297 59.9812 69.7087 60.7603 70.6697 60.7603C71.6307 60.7603 72.4097 59.9812 72.4097 59.0203C72.4097 58.0593 71.6307 57.2803 70.6697 57.2803C69.7087 57.2803 68.9297 58.0593 68.9297 59.0203Z" fill="#414042"/>
<path d="M66.1797 54.3701C66.1797 55.3311 66.9587 56.1101 67.9197 56.1101C68.8807 56.1101 69.6597 55.3311 69.6597 54.3701C69.6597 53.4092 68.8807 52.6301 67.9197 52.6301C66.9587 52.6301 66.1797 53.4092 66.1797 54.3701Z" fill="#414042"/>
<path d="M63.4399 49.72C63.4399 50.6809 64.2189 51.46 65.1799 51.46C66.1409 51.46 66.9199 50.6809 66.9199 49.72C66.9199 48.759 66.1409 47.98 65.1799 47.98C64.2189 47.98 63.4399 48.759 63.4399 49.72Z" fill="#414042"/>
<path d="M61.5598 45.0702C61.5598 45.5507 61.9493 45.9402 62.4298 45.9402C62.9103 45.9402 63.2998 45.5507 63.2998 45.0702C63.2998 44.5897 62.9103 44.2002 62.4298 44.2002C61.9493 44.2002 61.5598 44.5897 61.5598 45.0702Z" fill="#414042"/>
<path d="M59.2601 40.42C59.2601 40.6519 59.4481 40.84 59.6801 40.84C59.912 40.84 60.1001 40.6519 60.1001 40.42C60.1001 40.188 59.912 40 59.6801 40C59.4481 40 59.2601 40.188 59.2601 40.42Z" fill="#414042"/>
<path d="M66.2597 63.6702C66.2597 64.6311 67.0387 65.4102 67.9997 65.4102C68.9606 65.4102 69.7397 64.6311 69.7397 63.6702C69.7397 62.7092 68.9606 61.9302 67.9997 61.9302C67.0387 61.9302 66.2597 62.7092 66.2597 63.6702Z" fill="#414042"/>
<path d="M63.5097 59.0203C63.5097 59.9812 64.2887 60.7603 65.2497 60.7603C66.2106 60.7603 66.9897 59.9812 66.9897 59.0203C66.9897 58.0593 66.2106 57.2803 65.2497 57.2803C64.2887 57.2803 63.5097 58.0593 63.5097 59.0203Z" fill="#414042"/>
<path d="M60.77 54.3701C60.77 55.3311 61.549 56.1101 62.51 56.1101C63.4709 56.1101 64.25 55.3311 64.25 54.3701C64.25 53.4092 63.4709 52.6301 62.51 52.6301C61.549 52.6301 60.77 53.4092 60.77 54.3701Z" fill="#414042"/>
<path d="M58.02 49.72C58.02 50.6809 58.799 51.46 59.76 51.46C60.7209 51.46 61.5 50.6809 61.5 49.72C61.5 48.759 60.7209 47.98 59.76 47.98C58.799 47.98 58.02 48.759 58.02 49.72Z" fill="#414042"/>
<path d="M56.1399 45.0702C56.1399 45.5507 56.5294 45.9402 57.0099 45.9402C57.4904 45.9402 57.8799 45.5507 57.8799 45.0702C57.8799 44.5897 57.4904 44.2002 57.0099 44.2002C56.5294 44.2002 56.1399 44.5897 56.1399 45.0702Z" fill="#414042"/>
<path d="M53.8397 40.42C53.8397 40.6519 54.0277 40.84 54.2597 40.84C54.4917 40.84 54.6797 40.6519 54.6797 40.42C54.6797 40.188 54.4917 40 54.2597 40C54.0277 40 53.8397 40.188 53.8397 40.42Z" fill="#414042"/>
<path d="M61.7097 63.67C61.7097 64.1505 62.0992 64.54 62.5797 64.54C63.0602 64.54 63.4497 64.1505 63.4497 63.67C63.4497 63.1896 63.0602 62.8 62.5797 62.8C62.0992 62.8 61.7097 63.1896 61.7097 63.67Z" fill="#414042"/>
<path d="M58.9695 59.0201C58.9695 59.5006 59.3591 59.8901 59.8395 59.8901C60.32 59.8901 60.7095 59.5006 60.7095 59.0201C60.7095 58.5397 60.32 58.1501 59.8395 58.1501C59.3591 58.1501 58.9695 58.5397 58.9695 59.0201Z" fill="#414042"/>
<path d="M56.2195 54.37C56.2195 54.8505 56.6091 55.24 57.0895 55.24C57.57 55.24 57.9595 54.8505 57.9595 54.37C57.9595 53.8895 57.57 53.5 57.0895 53.5C56.6091 53.5 56.2195 53.8895 56.2195 54.37Z" fill="#414042"/>
<path d="M53.4695 49.7201C53.4695 50.2006 53.8591 50.5901 54.3395 50.5901C54.82 50.5901 55.2095 50.2006 55.2095 49.7201C55.2095 49.2396 54.82 48.8501 54.3395 48.8501C53.8591 48.8501 53.4695 49.2396 53.4695 49.7201Z" fill="#414042"/>
<path d="M51.1698 45.0701C51.1698 45.3021 51.3578 45.4901 51.5898 45.4901C51.8217 45.4901 52.0098 45.3021 52.0098 45.0701C52.0098 44.8382 51.8217 44.6501 51.5898 44.6501C51.3578 44.6501 51.1698 44.8382 51.1698 45.0701Z" fill="#414042"/>
<path d="M48.4198 40.42C48.4198 40.6519 48.6078 40.84 48.8398 40.84C49.0717 40.84 49.2598 40.6519 49.2598 40.42C49.2598 40.188 49.0717 40 48.8398 40C48.6078 40 48.4198 40.188 48.4198 40.42Z" fill="#414042"/>
<path d="M56.7498 63.67C56.7498 63.9019 56.9378 64.09 57.1698 64.09C57.4017 64.09 57.5898 63.9019 57.5898 63.67C57.5898 63.438 57.4017 63.25 57.1698 63.25C56.9378 63.25 56.7498 63.438 56.7498 63.67Z" fill="#414042"/>
<path d="M53.9998 59.0201C53.9998 59.2521 54.1878 59.4401 54.4198 59.4401C54.6517 59.4401 54.8398 59.2521 54.8398 59.0201C54.8398 58.7882 54.6517 58.6001 54.4198 58.6001C54.1878 58.6001 53.9998 58.7882 53.9998 59.0201Z" fill="#414042"/>
<path d="M51.2498 54.3702C51.2498 54.6022 51.4378 54.7902 51.6698 54.7902C51.9017 54.7902 52.0898 54.6022 52.0898 54.3702C52.0898 54.1382 51.9017 53.9502 51.6698 53.9502C51.4378 53.9502 51.2498 54.1382 51.2498 54.3702Z" fill="#414042"/>
<path d="M48.4998 49.72C48.4998 49.952 48.6878 50.14 48.9198 50.14C49.1517 50.14 49.3398 49.952 49.3398 49.72C49.3398 49.4881 49.1517 49.3 48.9198 49.3C48.6878 49.3 48.4998 49.4881 48.4998 49.72Z" fill="#414042"/>
<path d="M45.7498 45.0701C45.7498 45.3021 45.9378 45.4901 46.1698 45.4901C46.4017 45.4901 46.5898 45.3021 46.5898 45.0701C46.5898 44.8382 46.4017 44.6501 46.1698 44.6501C45.9378 44.6501 45.7498 44.8382 45.7498 45.0701Z" fill="#414042"/>
<path d="M51.3299 63.67C51.3299 63.9019 51.5179 64.09 51.7499 64.09C51.9819 64.09 52.1699 63.9019 52.1699 63.67C52.1699 63.438 51.9819 63.25 51.7499 63.25C51.5179 63.25 51.3299 63.438 51.3299 63.67Z" fill="#414042"/>
<path d="M48.5799 59.0201C48.5799 59.2521 48.7679 59.4401 48.9999 59.4401C49.2319 59.4401 49.4199 59.2521 49.4199 59.0201C49.4199 58.7882 49.2319 58.6001 48.9999 58.6001C48.7679 58.6001 48.5799 58.7882 48.5799 59.0201Z" fill="#414042"/>
<path d="M45.8299 54.3702C45.8299 54.6022 46.0179 54.7902 46.2499 54.7902C46.4819 54.7902 46.6699 54.6022 46.6699 54.3702C46.6699 54.1382 46.4819 53.9502 46.2499 53.9502C46.0179 53.9502 45.8299 54.1382 45.8299 54.3702Z" fill="#414042"/>
<path d="M43.0799 49.72C43.0799 49.952 43.2679 50.14 43.4999 50.14C43.7319 50.14 43.9199 49.952 43.9199 49.72C43.9199 49.4881 43.7319 49.3 43.4999 49.3C43.2679 49.3 43.0799 49.4881 43.0799 49.72Z" fill="#414042"/>
<path d="M45.91 63.67C45.91 63.9019 46.098 64.09 46.33 64.09C46.5619 64.09 46.75 63.9019 46.75 63.67C46.75 63.438 46.5619 63.25 46.33 63.25C46.098 63.25 45.91 63.438 45.91 63.67Z" fill="#414042"/>
<path d="M43.16 59.0201C43.16 59.2521 43.348 59.4401 43.58 59.4401C43.8119 59.4401 44 59.2521 44 59.0201C44 58.7882 43.8119 58.6001 43.58 58.6001C43.348 58.6001 43.16 58.7882 43.16 59.0201Z" fill="#414042"/>
<path d="M40.41 54.3702C40.41 54.6022 40.598 54.7902 40.83 54.7902C41.0619 54.7902 41.25 54.6022 41.25 54.3702C41.25 54.1382 41.0619 53.9502 40.83 53.9502C40.598 53.9502 40.41 54.1382 40.41 54.3702Z" fill="#414042"/>
<path d="M40.4901 63.67C40.4901 63.9019 40.6781 64.09 40.9101 64.09C41.142 64.09 41.3301 63.9019 41.3301 63.67C41.3301 63.438 41.142 63.25 40.9101 63.25C40.6781 63.25 40.4901 63.438 40.4901 63.67Z" fill="#414042"/>
<path d="M37.7401 59.0201C37.7401 59.2521 37.9281 59.4401 38.1601 59.4401C38.392 59.4401 38.5801 59.2521 38.5801 59.0201C38.5801 58.7882 38.392 58.6001 38.1601 58.6001C37.9281 58.6001 37.7401 58.7882 37.7401 59.0201Z" fill="#414042"/>
<path d="M35.0697 63.67C35.0697 63.9019 35.2577 64.09 35.4897 64.09C35.7216 64.09 35.9097 63.9019 35.9097 63.67C35.9097 63.438 35.7216 63.25 35.4897 63.25C35.2577 63.25 35.0697 63.438 35.0697 63.67Z" fill="#414042"/>
<path d="M75.5199 86.86C75.5199 87.0919 75.7079 87.28 75.9399 87.28C76.1718 87.28 76.3599 87.0919 76.3599 86.86C76.3599 86.628 76.1718 86.4399 75.9399 86.4399C75.7079 86.4399 75.5199 86.628 75.5199 86.86Z" fill="#414042"/>
<path d="M75.5897 77.5501C75.5897 77.7821 75.7777 77.9701 76.0097 77.9701C76.2417 77.9701 76.4297 77.7821 76.4297 77.5501C76.4297 77.3182 76.2417 77.1301 76.0097 77.1301C75.7777 77.1301 75.5897 77.3182 75.5897 77.5501Z" fill="#414042"/>
<path d="M72.8495 82.2101C72.8495 82.442 73.0376 82.63 73.2695 82.63C73.5015 82.63 73.6895 82.442 73.6895 82.2101C73.6895 81.9781 73.5015 81.79 73.2695 81.79C73.0376 81.79 72.8495 81.9781 72.8495 82.2101Z" fill="#414042"/>
<path d="M70.0995 86.86C70.0995 87.0919 70.2876 87.28 70.5195 87.28C70.7515 87.28 70.9395 87.0919 70.9395 86.86C70.9395 86.628 70.7515 86.4399 70.5195 86.4399C70.2876 86.4399 70.0995 86.628 70.0995 86.86Z" fill="#414042"/>
<path d="M77.9695 63.6C77.9695 64.0805 78.3591 64.47 78.8395 64.47C79.32 64.47 79.7095 64.0805 79.7095 63.6C79.7095 63.1195 79.32 62.73 78.8395 62.73C78.3591 62.73 77.9695 63.1195 77.9695 63.6Z" fill="#414042"/>
<path d="M75.2195 68.2502C75.2195 68.7306 75.6091 69.1201 76.0895 69.1201C76.57 69.1201 76.9595 68.7306 76.9595 68.2502C76.9595 67.7697 76.57 67.3801 76.0895 67.3801C75.6091 67.3801 75.2195 67.7697 75.2195 68.2502Z" fill="#414042"/>
<path d="M72.4695 72.9003C72.4695 73.3808 72.8591 73.7703 73.3395 73.7703C73.82 73.7703 74.2095 73.3808 74.2095 72.9003C74.2095 72.4198 73.82 72.0303 73.3395 72.0303C72.8591 72.0303 72.4695 72.4198 72.4695 72.9003Z" fill="#414042"/>
<path d="M69.7195 77.5502C69.7195 78.0307 70.1091 78.4202 70.5895 78.4202C71.07 78.4202 71.4595 78.0307 71.4595 77.5502C71.4595 77.0697 71.07 76.6802 70.5895 76.6802C70.1091 76.6802 69.7195 77.0697 69.7195 77.5502Z" fill="#414042"/>
<path d="M66.9797 82.2101C66.9797 82.6906 67.3693 83.0801 67.8497 83.0801C68.3302 83.0801 68.7197 82.6906 68.7197 82.2101C68.7197 81.7296 68.3302 81.3401 67.8497 81.3401C67.3693 81.3401 66.9797 81.7296 66.9797 82.2101Z" fill="#414042"/>
<path d="M64.68 86.86C64.68 87.0919 64.868 87.28 65.1 87.28C65.332 87.28 65.52 87.0919 65.52 86.86C65.52 86.628 65.332 86.4399 65.1 86.4399C64.868 86.4399 64.68 86.628 64.68 86.86Z" fill="#414042"/>
<path d="M71.6797 63.6001C71.6797 64.5611 72.4587 65.3401 73.4197 65.3401C74.3807 65.3401 75.1597 64.5611 75.1597 63.6001C75.1597 62.6391 74.3807 61.8601 73.4197 61.8601C72.4587 61.8601 71.6797 62.6391 71.6797 63.6001Z" fill="#414042"/>
<path d="M68.9297 68.2503C68.9297 69.2113 69.7087 69.9903 70.6697 69.9903C71.6307 69.9903 72.4097 69.2113 72.4097 68.2503C72.4097 67.2893 71.6307 66.5103 70.6697 66.5103C69.7087 66.5103 68.9297 67.2893 68.9297 68.2503Z" fill="#414042"/>
<path d="M66.1797 72.9002C66.1797 73.8612 66.9587 74.6402 67.9197 74.6402C68.8807 74.6402 69.6597 73.8612 69.6597 72.9002C69.6597 71.9392 68.8807 71.1602 67.9197 71.1602C66.9587 71.1602 66.1797 71.9392 66.1797 72.9002Z" fill="#414042"/>
<path d="M63.4399 77.55C63.4399 78.511 64.2189 79.29 65.1799 79.29C66.1409 79.29 66.9199 78.511 66.9199 77.55C66.9199 76.5891 66.1409 75.8101 65.1799 75.8101C64.2189 75.8101 63.4399 76.5891 63.4399 77.55Z" fill="#414042"/>
<path d="M61.5598 82.2101C61.5598 82.6906 61.9493 83.0801 62.4298 83.0801C62.9103 83.0801 63.2998 82.6906 63.2998 82.2101C63.2998 81.7296 62.9103 81.3401 62.4298 81.3401C61.9493 81.3401 61.5598 81.7296 61.5598 82.2101Z" fill="#414042"/>
<path d="M59.2601 86.86C59.2601 87.0919 59.4481 87.28 59.6801 87.28C59.912 87.28 60.1001 87.0919 60.1001 86.86C60.1001 86.628 59.912 86.4399 59.6801 86.4399C59.4481 86.4399 59.2601 86.628 59.2601 86.86Z" fill="#414042"/>
<path d="M66.2597 63.6001C66.2597 64.5611 67.0387 65.3401 67.9997 65.3401C68.9606 65.3401 69.7397 64.5611 69.7397 63.6001C69.7397 62.6391 68.9606 61.8601 67.9997 61.8601C67.0387 61.8601 66.2597 62.6391 66.2597 63.6001Z" fill="#414042"/>
<path d="M63.5097 68.2503C63.5097 69.2113 64.2887 69.9903 65.2497 69.9903C66.2106 69.9903 66.9897 69.2113 66.9897 68.2503C66.9897 67.2893 66.2106 66.5103 65.2497 66.5103C64.2887 66.5103 63.5097 67.2893 63.5097 68.2503Z" fill="#414042"/>
<path d="M60.77 72.9002C60.77 73.8612 61.549 74.6402 62.51 74.6402C63.4709 74.6402 64.25 73.8612 64.25 72.9002C64.25 71.9392 63.4709 71.1602 62.51 71.1602C61.549 71.1602 60.77 71.9392 60.77 72.9002Z" fill="#414042"/>
<path d="M58.02 77.55C58.02 78.511 58.799 79.29 59.76 79.29C60.7209 79.29 61.5 78.511 61.5 77.55C61.5 76.5891 60.7209 75.8101 59.76 75.8101C58.799 75.8101 58.02 76.5891 58.02 77.55Z" fill="#414042"/>
<path d="M56.1399 82.2101C56.1399 82.6906 56.5294 83.0801 57.0099 83.0801C57.4904 83.0801 57.8799 82.6906 57.8799 82.2101C57.8799 81.7296 57.4904 81.3401 57.0099 81.3401C56.5294 81.3401 56.1399 81.7296 56.1399 82.2101Z" fill="#414042"/>
<path d="M53.8397 86.86C53.8397 87.0919 54.0277 87.28 54.2597 87.28C54.4917 87.28 54.6797 87.0919 54.6797 86.86C54.6797 86.628 54.4917 86.4399 54.2597 86.4399C54.0277 86.4399 53.8397 86.628 53.8397 86.86Z" fill="#414042"/>
<path d="M61.7097 63.6C61.7097 64.0805 62.0992 64.47 62.5797 64.47C63.0602 64.47 63.4497 64.0805 63.4497 63.6C63.4497 63.1195 63.0602 62.73 62.5797 62.73C62.0992 62.73 61.7097 63.1195 61.7097 63.6Z" fill="#414042"/>
<path d="M58.9695 68.2502C58.9695 68.7306 59.3591 69.1201 59.8395 69.1201C60.32 69.1201 60.7095 68.7306 60.7095 68.2502C60.7095 67.7697 60.32 67.3801 59.8395 67.3801C59.3591 67.3801 58.9695 67.7697 58.9695 68.2502Z" fill="#414042"/>
<path d="M56.2195 72.9003C56.2195 73.3808 56.6091 73.7703 57.0895 73.7703C57.57 73.7703 57.9595 73.3808 57.9595 72.9003C57.9595 72.4198 57.57 72.0303 57.0895 72.0303C56.6091 72.0303 56.2195 72.4198 56.2195 72.9003Z" fill="#414042"/>
<path d="M53.4695 77.5502C53.4695 78.0307 53.8591 78.4202 54.3395 78.4202C54.82 78.4202 55.2095 78.0307 55.2095 77.5502C55.2095 77.0697 54.82 76.6802 54.3395 76.6802C53.8591 76.6802 53.4695 77.0697 53.4695 77.5502Z" fill="#414042"/>
<path d="M51.1698 82.2101C51.1698 82.442 51.3578 82.63 51.5898 82.63C51.8217 82.63 52.0098 82.442 52.0098 82.2101C52.0098 81.9781 51.8217 81.79 51.5898 81.79C51.3578 81.79 51.1698 81.9781 51.1698 82.2101Z" fill="#414042"/>
<path d="M48.4198 86.86C48.4198 87.0919 48.6078 87.28 48.8398 87.28C49.0717 87.28 49.2598 87.0919 49.2598 86.86C49.2598 86.628 49.0717 86.4399 48.8398 86.4399C48.6078 86.4399 48.4198 86.628 48.4198 86.86Z" fill="#414042"/>
<path d="M56.7498 63.6002C56.7498 63.8321 56.9378 64.0202 57.1698 64.0202C57.4017 64.0202 57.5898 63.8321 57.5898 63.6002C57.5898 63.3682 57.4017 63.1802 57.1698 63.1802C56.9378 63.1802 56.7498 63.3682 56.7498 63.6002Z" fill="#414042"/>
<path d="M53.9998 68.2501C53.9998 68.4821 54.1878 68.6701 54.4198 68.6701C54.6517 68.6701 54.8398 68.4821 54.8398 68.2501C54.8398 68.0181 54.6517 67.8301 54.4198 67.8301C54.1878 67.8301 53.9998 68.0181 53.9998 68.2501Z" fill="#414042"/>
<path d="M51.2498 72.9C51.2498 73.132 51.4378 73.32 51.6698 73.32C51.9017 73.32 52.0898 73.132 52.0898 72.9C52.0898 72.668 51.9017 72.48 51.6698 72.48C51.4378 72.48 51.2498 72.668 51.2498 72.9Z" fill="#414042"/>
<path d="M48.4998 77.5501C48.4998 77.7821 48.6878 77.9701 48.9198 77.9701C49.1517 77.9701 49.3398 77.7821 49.3398 77.5501C49.3398 77.3182 49.1517 77.1301 48.9198 77.1301C48.6878 77.1301 48.4998 77.3182 48.4998 77.5501Z" fill="#414042"/>
<path d="M45.7498 82.2101C45.7498 82.442 45.9378 82.63 46.1698 82.63C46.4017 82.63 46.5898 82.442 46.5898 82.2101C46.5898 81.9781 46.4017 81.79 46.1698 81.79C45.9378 81.79 45.7498 81.9781 45.7498 82.2101Z" fill="#414042"/>
<path d="M51.3299 63.6002C51.3299 63.8321 51.5179 64.0202 51.7499 64.0202C51.9819 64.0202 52.1699 63.8321 52.1699 63.6002C52.1699 63.3682 51.9819 63.1802 51.7499 63.1802C51.5179 63.1802 51.3299 63.3682 51.3299 63.6002Z" fill="#414042"/>
<path d="M48.5799 68.2501C48.5799 68.4821 48.7679 68.6701 48.9999 68.6701C49.2319 68.6701 49.4199 68.4821 49.4199 68.2501C49.4199 68.0181 49.2319 67.8301 48.9999 67.8301C48.7679 67.8301 48.5799 68.0181 48.5799 68.2501Z" fill="#414042"/>
<path d="M45.8299 72.9C45.8299 73.132 46.0179 73.32 46.2499 73.32C46.4819 73.32 46.6699 73.132 46.6699 72.9C46.6699 72.668 46.4819 72.48 46.2499 72.48C46.0179 72.48 45.8299 72.668 45.8299 72.9Z" fill="#414042"/>
<path d="M43.0799 77.5501C43.0799 77.7821 43.2679 77.9701 43.4999 77.9701C43.7319 77.9701 43.9199 77.7821 43.9199 77.5501C43.9199 77.3182 43.7319 77.1301 43.4999 77.1301C43.2679 77.1301 43.0799 77.3182 43.0799 77.5501Z" fill="#414042"/>
<path d="M45.91 63.6002C45.91 63.8321 46.098 64.0202 46.33 64.0202C46.5619 64.0202 46.75 63.8321 46.75 63.6002C46.75 63.3682 46.5619 63.1802 46.33 63.1802C46.098 63.1802 45.91 63.3682 45.91 63.6002Z" fill="#414042"/>
<path d="M43.16 68.2501C43.16 68.4821 43.348 68.6701 43.58 68.6701C43.8119 68.6701 44 68.4821 44 68.2501C44 68.0181 43.8119 67.8301 43.58 67.8301C43.348 67.8301 43.16 68.0181 43.16 68.2501Z" fill="#414042"/>
<path d="M40.41 72.9C40.41 73.132 40.598 73.32 40.83 73.32C41.0619 73.32 41.25 73.132 41.25 72.9C41.25 72.668 41.0619 72.48 40.83 72.48C40.598 72.48 40.41 72.668 40.41 72.9Z" fill="#414042"/>
<path d="M40.4901 63.6002C40.4901 63.8321 40.6781 64.0202 40.9101 64.0202C41.142 64.0202 41.3301 63.8321 41.3301 63.6002C41.3301 63.3682 41.142 63.1802 40.9101 63.1802C40.6781 63.1802 40.4901 63.3682 40.4901 63.6002Z" fill="#414042"/>
<path d="M37.7401 68.2501C37.7401 68.4821 37.9281 68.6701 38.1601 68.6701C38.392 68.6701 38.5801 68.4821 38.5801 68.2501C38.5801 68.0181 38.392 67.8301 38.1601 67.8301C37.9281 67.8301 37.7401 68.0181 37.7401 68.2501Z" fill="#414042"/>
<path d="M35.0697 63.6002C35.0697 63.8321 35.2577 64.0202 35.4897 64.0202C35.7216 64.0202 35.9097 63.8321 35.9097 63.6002C35.9097 63.3682 35.7216 63.1802 35.4897 63.1802C35.2577 63.1802 35.0697 63.3682 35.0697 63.6002Z" fill="#414042"/>
<path d="M90.2899 63.1202C90.2899 63.3521 90.4779 63.5402 90.7099 63.5402C90.9418 63.5402 91.1299 63.3521 91.1299 63.1202C91.1299 62.8882 90.9418 62.7002 90.7099 62.7002C90.4779 62.7002 90.2899 62.8882 90.2899 63.1202Z" fill="#414042"/>
<path d="M87.5399 58.4701C87.5399 58.702 87.7279 58.89 87.9599 58.89C88.1918 58.89 88.3799 58.702 88.3799 58.4701C88.3799 58.2381 88.1918 58.05 87.9599 58.05C87.7279 58.05 87.5399 58.2381 87.5399 58.4701Z" fill="#414042"/>
<path d="M84.7899 53.8199C84.7899 54.0519 84.9779 54.2399 85.2099 54.2399C85.4418 54.2399 85.6299 54.0519 85.6299 53.8199C85.6299 53.588 85.4418 53.3999 85.2099 53.3999C84.9779 53.3999 84.7899 53.588 84.7899 53.8199Z" fill="#414042"/>
<path d="M82.0399 49.17C82.0399 49.4019 82.2279 49.59 82.4599 49.59C82.6918 49.59 82.8799 49.4019 82.8799 49.17C82.8799 48.938 82.6918 48.75 82.4599 48.75C82.2279 48.75 82.0399 48.938 82.0399 49.17Z" fill="#414042"/>
<path d="M79.2899 44.5201C79.2899 44.752 79.4779 44.9401 79.7099 44.9401C79.9418 44.9401 80.1299 44.752 80.1299 44.5201C80.1299 44.2881 79.9418 44.1001 79.7099 44.1001C79.4779 44.1001 79.2899 44.2881 79.2899 44.5201Z" fill="#414042"/>
<path d="M84.8695 63.1202C84.8695 63.3521 85.0576 63.5402 85.2895 63.5402C85.5215 63.5402 85.7095 63.3521 85.7095 63.1202C85.7095 62.8882 85.5215 62.7002 85.2895 62.7002C85.0576 62.7002 84.8695 62.8882 84.8695 63.1202Z" fill="#414042"/>
<path d="M82.1195 58.4701C82.1195 58.702 82.3076 58.89 82.5395 58.89C82.7715 58.89 82.9595 58.702 82.9595 58.4701C82.9595 58.2381 82.7715 58.05 82.5395 58.05C82.3076 58.05 82.1195 58.2381 82.1195 58.4701Z" fill="#414042"/>
<path d="M79.3695 53.8199C79.3695 54.0519 79.5576 54.2399 79.7895 54.2399C80.0215 54.2399 80.2095 54.0519 80.2095 53.8199C80.2095 53.588 80.0215 53.3999 79.7895 53.3999C79.5576 53.3999 79.3695 53.588 79.3695 53.8199Z" fill="#414042"/>
<path d="M90.2899 63.0501C90.2899 63.2821 90.4779 63.4701 90.7099 63.4701C90.9418 63.4701 91.1299 63.2821 91.1299 63.0501C91.1299 62.8182 90.9418 62.6301 90.7099 62.6301C90.4779 62.6301 90.2899 62.8182 90.2899 63.0501Z" fill="#414042"/>
<path d="M87.5399 67.7C87.5399 67.932 87.7279 68.12 87.9599 68.12C88.1918 68.12 88.3799 67.932 88.3799 67.7C88.3799 67.4681 88.1918 67.28 87.9599 67.28C87.7279 67.28 87.5399 67.4681 87.5399 67.7Z" fill="#414042"/>
<path d="M84.7899 72.3502C84.7899 72.5821 84.9779 72.7702 85.2099 72.7702C85.4418 72.7702 85.6299 72.5821 85.6299 72.3502C85.6299 72.1182 85.4418 71.9302 85.2099 71.9302C84.9779 71.9302 84.7899 72.1182 84.7899 72.3502Z" fill="#414042"/>
<path d="M82.0399 77.0001C82.0399 77.2321 82.2279 77.4201 82.4599 77.4201C82.6918 77.4201 82.8799 77.2321 82.8799 77.0001C82.8799 76.7681 82.6918 76.5801 82.4599 76.5801C82.2279 76.5801 82.0399 76.7681 82.0399 77.0001Z" fill="#414042"/>
<path d="M79.2899 81.66C79.2899 81.892 79.4779 82.08 79.7099 82.08C79.9418 82.08 80.1299 81.892 80.1299 81.66C80.1299 81.428 79.9418 81.24 79.7099 81.24C79.4779 81.24 79.2899 81.428 79.2899 81.66Z" fill="#414042"/>
<path d="M84.8695 63.0501C84.8695 63.2821 85.0576 63.4701 85.2895 63.4701C85.5215 63.4701 85.7095 63.2821 85.7095 63.0501C85.7095 62.8182 85.5215 62.6301 85.2895 62.6301C85.0576 62.6301 84.8695 62.8182 84.8695 63.0501Z" fill="#414042"/>
<path d="M82.1195 67.7C82.1195 67.932 82.3076 68.12 82.5395 68.12C82.7715 68.12 82.9595 67.932 82.9595 67.7C82.9595 67.4681 82.7715 67.28 82.5395 67.28C82.3076 67.28 82.1195 67.4681 82.1195 67.7Z" fill="#414042"/>
<path d="M79.3695 72.3502C79.3695 72.5821 79.5576 72.7702 79.7895 72.7702C80.0215 72.7702 80.2095 72.5821 80.2095 72.3502C80.2095 72.1182 80.0215 71.9302 79.7895 71.9302C79.5576 71.9302 79.3695 72.1182 79.3695 72.3502Z" fill="#414042"/>
</svg>
