<svg width="512" height="513" viewBox="0 0 512 513" fill="none" xmlns="http://www.w3.org/2000/svg">
  <g clip-path="url(#clip0_289_2437)">
    <mask id="mask0_289_2437" style="mask-type:luminance" maskUnits="userSpaceOnUse" x="0" y="0" width="512"
      height="513">
      <path d="M512 0.5H0V512.5H512V0.5Z" fill="white" />
    </mask>
    <g mask="url(#mask0_289_2437)">
      <mask id="mask1_289_2437" style="mask-type:luminance" maskUnits="userSpaceOnUse" x="21" y="-3" width="513"
        height="513">
        <path d="M21.918 -2.5H533.918V509.5H21.918V-2.5Z" fill="white" />
      </mask>
      <g mask="url(#mask1_289_2437)">
        <path
          d="M367.293 281.43C367.293 290.773 359.707 298.359 350.363 298.359H140.847C131.504 298.359 123.918 290.773 123.918 281.43C123.918 272.087 131.504 264.5 140.847 264.5H350.363C359.707 264.5 367.293 272.087 367.293 281.43Z"
          fill="#FF4B12" />
        <path
          d="M363.474 290.925C358.1 297.803 347.585 298.58 340.007 292.66L260.732 230.723C253.155 224.803 251.365 214.412 256.738 207.534C262.112 200.656 272.627 199.879 280.205 205.8L359.48 267.736C367.057 273.656 368.847 284.047 363.474 290.925Z"
          fill="#FF4B12" />
        <path
          d="M363.657 272.83C369.031 279.708 367.241 290.099 359.663 296.02L280.388 357.956C272.811 363.876 262.295 363.099 256.922 356.221C251.548 349.343 253.338 338.952 260.916 333.032L340.191 271.096C347.768 265.175 358.284 265.953 363.657 272.83Z"
          fill="#FF4B12" />
      </g>
      <path
        d="M257.266 84.3833C362.854 84.3833 448.583 171.284 448.583 278.314C448.583 385.345 362.854 472.245 257.266 472.245C151.678 472.245 65.9492 385.345 65.9492 278.314C65.9492 171.284 151.678 84.3833 257.266 84.3833Z"
        stroke="#D25240" stroke-width="10.4351" />
    </g>
  </g>
  <defs>
    <clipPath id="clip0_289_2437">
      <rect width="512" height="512" fill="white" transform="translate(0 0.5)" />
    </clipPath>
  </defs>
</svg>