<svg xmlns="http://www.w3.org/2000/svg" width="769" height="592" fill="none" viewBox="0 0 769 592">
  <path stroke="currentColor" stroke-linejoin="round" stroke-width="26.361"
    d="M754.955 364.68S620.001 565.999 403.672 578.062C134.427 593.077 14.001 365.999 13.254 364.68c0 0 132.746-214.68 374.748-214.231 238.003.441 369.999 215.55 366.953 214.231Z" />
  <path stroke="currentColor" opacity="0.9" stroke-linecap="round" stroke-miterlimit="10" stroke-width="26.489"
    d="M24 121c20.878 25.236 81.081 98.176 95 115m75-184c7.702 13.699 70 120 70 120M386 14l-1.906 134.384M576.885 43.006c-26.329 45.052-70 120-70 120M732 107l-95 115" />
  <path fill="currentColor" opacity="1"
    d="M538.988 368.994c0 92.228-74.766 166.994-166.994 166.994-92.229 0-166.994-74.766-166.994-166.994C205 276.765 279.765 202 371.994 202c92.228 0 166.994 74.765 166.994 166.994Z" />
</svg>