<svg xmlns="http://www.w3.org/2000/svg" width="28" height="21" fill="none" viewBox="0 0 28 21">
  <path fill="currentColor" d="M24.952 9.335c-1.423 2.36-4.463 3.152-6.76 1.762a4.779 4.779 0 0 1-2.047-2.533.492.492 0 0 1 .34-.633l.308-.08a.464.464 0 0 1 .557.291c.267.75.78 1.41 1.506 1.85 1.71 1.035 3.953.453 5.015-1.3 1.062-1.754.538-4.012-1.172-5.047a3.556 3.556 0 0 0-2.64-.422l.323 1.392c.064.276-.236.501-.476.356l-2.444-1.48a.319.319 0 0 1-.102-.439L18.878.545c.15-.246.514-.193.578.083l.314 1.354a4.794 4.794 0 0 1 3.598.56c2.3 1.392 3.008 4.432 1.584 6.793Zm-3.864-.483.297-.118a.492.492 0 0 0 .28-.623l-.353-.96 1.09-1.8a.478.478 0 0 0-.153-.659l-.269-.162a.478.478 0 0 0-.654.17l-1.417 2.339.569 1.543c.09.247.364.368.61.27Z"/>
  <path fill="currentColor" fill-opacity=".3" fill-rule="evenodd" d="M24.473 10.985v6.087a3.06 3.06 0 0 1-3.059 3.06H3.059A3.06 3.06 0 0 1 0 17.071V6.059A3.06 3.06 0 0 1 3.06 3h13.31c-.333.37-.615.781-.835 1.224H3.06a1.835 1.835 0 0 0-1.835 1.835v.612h13.779c.014.422.08.831.192 1.224H1.224v1.223h14.498c.266.45.598.861.984 1.224H1.224v6.73c0 1.014.821 1.835 1.835 1.835h18.355a1.835 1.835 0 0 0 1.835-1.835V11.6a6.17 6.17 0 0 0 1.224-.615Zm-9.072 5.982a2.449 2.449 0 0 0 2.954.39 2.447 2.447 0 1 0 0-4.24 2.448 2.448 0 0 0-2.954 3.85Zm1.73-1.73c0 .43.111.834.306 1.185a1.225 1.225 0 0 1-1.171-2.05 1.225 1.225 0 0 1 1.17-.32 2.436 2.436 0 0 0-.305 1.185Zm3.671 0a1.224 1.224 0 1 1-2.447 0 1.224 1.224 0 0 1 2.447 0Z" clip-rule="evenodd"/>
</svg>
