<svg xmlns="http://www.w3.org/2000/svg" width="34" height="33" fill="none" viewBox="0 0 34 33">
  <g class="Vector">
    <g class="Icons-1">
      <rect width="34" height="33" fill="#9F2421" class="Rectangle 4363" rx="8"/>
      <path stroke="#fff" stroke-linecap="round" stroke-linejoin="round" stroke-width="1.5" d="M24 16a7 7 0 1 1-14 0 7 7 0 0 1 14 0Z" class="Vector" clip-rule="evenodd"/>
      <path fill="#fff" d="M17 18.821a.75.75 0 0 0 0 1.5v-1.5ZM15.5 15l.523-.538a.76.76 0 0 0-.094-.077l-.43.615Zm-.5-1 .75.026a.75.75 0 0 0 0-.026H15Zm2-.821a.75.75 0 0 0 0-1.5v1.5Zm-.03 7.142a.75.75 0 0 0 .06-1.498l-.06 1.498Zm-1.227-3.034a.75.75 0 0 0-1.486-.2l1.486.2Zm2.007 2.284a.75.75 0 0 0-1.5 0h1.5ZM16.25 21a.75.75 0 0 0 1.5 0h-1.5Zm.708-9.32a.75.75 0 1 0 .084 1.498l-.084-1.498Zm1.559 1.366-.553.507.553-.507Zm-.26 1.458a.75.75 0 1 0 1.485.214l-1.484-.214Zm-2.007-2.075a.75.75 0 0 0 1.5 0h-1.5ZM17.75 11a.75.75 0 0 0-1.5 0h1.5ZM17 20.321c.424 0 1.062-.096 1.623-.417.597-.342 1.127-.963 1.127-1.923h-1.5c0 .312-.137.486-.373.621a1.911 1.911 0 0 1-.877.219v1.5Zm2.75-2.34c0-.588-.185-1.068-.519-1.454-.31-.357-.714-.595-1.074-.78-.78-.403-1.49-.658-2.134-1.285l-1.046 1.076c.855.83 1.895 1.233 2.491 1.541.328.17.516.3.629.43.088.101.153.228.153.472h1.5Zm-3.821-3.596a.42.42 0 0 1-.18-.36l-1.499-.05a1.92 1.92 0 0 0 .82 1.64l.859-1.23Zm-.18-.385c0-.261.058-.404.106-.482a.523.523 0 0 1 .226-.193c.246-.121.587-.146.919-.146v-1.5c-.335 0-.994.01-1.582.3a2.02 2.02 0 0 0-.836.747c-.222.357-.332.785-.332 1.274h1.5Zm1.282 4.823a1.355 1.355 0 0 1-.983-.484l-1.15.964a2.855 2.855 0 0 0 2.071 1.018l.062-1.498Zm-.983-.484a1.355 1.355 0 0 1-.305-1.052l-1.486-.2a2.855 2.855 0 0 0 .641 2.216l1.15-.964Zm.202 1.232V21h1.5v-1.429h-1.5Zm.792-6.393c.348-.02.687.118.922.375l1.106-1.014a2.662 2.662 0 0 0-2.112-.859l.084 1.498Zm.922.375c.236.257.343.606.294.95l1.484.215a2.661 2.661 0 0 0-.672-2.179l-1.106 1.014Zm-.214-1.124V11h-1.5v1.429h1.5Z" class="Vector-2"/>
    </g>
  </g>
</svg>
