<svg xmlns="http://www.w3.org/2000/svg" width="34" height="33" fill="none" viewBox="0 0 34 33">
  <g class="Vector">
    <g class="Group 37376">
      <path fill="#9F2421" d="M0 8a8 8 0 0 1 8-8h18a8 8 0 0 1 8 8v17a8 8 0 0 1-8 8H8a8 8 0 0 1-8-8V8Z" class="Rectangle 4364"/>
      <path stroke="#fff" stroke-linecap="round" stroke-linejoin="round" stroke-width="1.5" d="m14.085 21.982-1.767.9a.22.22 0 0 1-.318-.2V9.955A.936.936 0 0 1 12.916 9h9.167c.517.01.927.438.916.955v12.727a.22.22 0 0 1-.318.2l-1.767-.9a.216.216 0 0 0-.22.014l-1.422.966a.217.217 0 0 1-.244 0l-1.406-.955a.217.217 0 0 0-.244 0l-1.406.955a.217.217 0 0 1-.244 0L14.305 22a.216.216 0 0 0-.22-.018Z" class="Vector-10" clip-rule="evenodd"/>
      <path fill="#fff" d="M14.999 17.25a.75.75 0 0 0 0 1.5v-1.5Zm4.914 1.5a.75.75 0 0 0 0-1.5v1.5Zm-3.884-4.78a.75.75 0 0 0-1.06 1.06l1.06-1.06Zm.47 1.53-.53.53a.75.75 0 0 0 1.06 0l-.53-.53Zm3.53-2.47a.75.75 0 0 0-1.06-1.06l1.06 1.06ZM15 18.75h4.914v-1.5H15v1.5Zm-.03-3.72 1 1 1.06-1.06-1-1-1.06 1.06Zm2.06 1 3-3-1.06-1.06-3 3 1.06 1.06Z" class="Vector-11"/>
    </g>
  </g>
</svg>
