<!-- <svg xmlns="http://www.w3.org/2000/svg" width="460" height="461" fill="none" viewBox="0 0 460 461">
  <g class="Group 2">
    <path fill="#F0E0C5" d="M460 230c0 127.025-102.975 230-230 230S0 357.025 0 230 102.975 0 230 0s230 102.975 230 230Z" class="Ellipse 1"/>
    <g class="Vector (Traced)">
      <path fill="#621101" fill-rule="evenodd" d="M239.32 90.395c-3.056.656-7.651 2.413-10.211 3.906-4.518 2.635-4.765 2.668-8.447 1.137-17.225-7.163-38.807 1.443-45.164 18.012-1.668 4.346-1.668 4.346-8.366 4.827-15.072 1.081-30.322 15.91-30.322 29.485 0 1.811-1.226 3.662-3.979 6.007-9.374 7.987-13.559 25.628-8.814 37.157 1.425 3.463 1.578 5.072.759 8.005-3.294 11.804 1.376 25.211 10.985 31.54 2.902 1.912 3.986 3.418 4.529 6.299 1.719 9.12 12.052 19.237 19.756 19.341 1.007.014 2.298 1.825 3.401 4.775 2.676 7.15 8.38 18.269 11.626 22.663 2.884 3.903 2.884 3.903-3.438 7.068-16.66 8.343-18.326 11.359-19.09 34.557-.558 16.967-1.7 27.294-3.705 33.53-.943 2.931-1.592 3.198-23.658 9.74-36.316 10.767-57.37 21.976-53.788 28.638 1.721 3.2 19.637 17.639 32.692 26.347 89.337 59.589 213.571 47.103 288.403-28.986 11.458-11.65 3.023-16.476-47.875-27.401-24.916-5.347-24.916-5.347-26.793-11.391-2.351-7.571-6.346-25.23-9.622-42.538-3.337-17.628-6.506-21.58-21.518-26.842-6.776-2.375-6.657-1.979-2.709-8.931 1.903-3.351 3.735-6.955 4.071-8.01.455-1.425 1.879-2.066 5.546-2.498 9.693-1.143 17.504-6.745 22.061-15.822 1.912-3.809 4.474-7.08 6.927-8.849 12.685-9.146 17.592-25.177 12.143-39.67-1.962-5.221-2.011-5.906-.599-8.293 10.835-18.318-3.159-50.13-22.051-50.13-.9 0-1.348-1.318-1.348-3.965 0-14.032-14.15-28.974-29.109-30.737-4.121-.486-4.987-1.009-6.6-3.991-4.609-8.519-20.981-17.52-29.567-16.255-.313.045-3.069.62-6.126 1.275Zm9.122 80.192c17.947 4.607 29.186 15.962 34.661 35.017 2.209 7.687 2.735 8.269 8.214 9.087 11.836 1.766 16.713 14.39 9.222 23.87-2.954 3.737-4.157 3.135-2.347-1.177 1.89-4.501 1.195-8.063-1.788-9.161-5.677-2.09-8.011 1.59-12.306 19.405-17.673 73.295-90.477 73.455-113.555.249-4.919-15.605-7.003-18.716-11.569-17.274-3.511 1.109-4.439 4.141-2.639 8.619 1.944 4.836 1.947 4.979.098 4.273-1.993-.761-5.17-6.105-6.027-10.139-1.475-6.939 6.437-16.246 13.811-16.246 3.387 0 4.267-1.324 6.309-9.505 7.805-31.264 40.259-46.683 77.916-37.018Zm13.034 142.067c.68 3.295 2.475 10.101 3.99 15.125 9.432 31.271-3.43 48.912-35.668 48.919-20.275.005-20.972-.357-23.627-12.269-5.133-23.03-4.904-22.498-10.626-24.547-5.086-1.819-5.086-1.819-1.83-13.663 1.792-6.513 3.566-13.9 3.945-16.412.689-4.569.689-4.569 5.587-2.098 14.536 7.331 34.903 7.153 49.939-.438 6.56-3.312 6.487-3.359 8.29 5.383Zm39.505 19.274c.973 4.816 3.372 14.693 5.329 21.952 4.954 18.364-.184 27.206-21.903 37.698-15.716 7.591-14.712 13.924-6.814-42.982 1.122-8.095 1.122-8.095 7.605-12.337 3.565-2.333 7.939-6.214 9.72-8.625 4.216-5.705 4.013-5.849 6.063 4.294Zm-119.643 13.634c3.984 1.893 7.943 3.659 8.797 3.924 1.618.502 12.963 47.123 11.759 48.321-1.042 1.038-16.118-3.631-22.286-6.901-12.038-6.383-24.305-20.84-21.737-25.618 1.635-3.04 3.857-14.696 4.639-24.331.709-8.732.709-8.732 6.148-3.785 2.99 2.721 8.697 6.497 12.68 8.39Zm191.712 39.221c11.401 3.476 11.347 3.182 2.099 11.294-26.53 23.268-56.377 39.061-90.061 47.655-16.289 4.156-25.166 5.389-24.451 3.398.274-.762 2.256-9.6 4.407-19.64 3.909-18.256 3.909-18.256 9.446-19.858 17.904-5.181 36.797-18.802 43.08-31.059 2.147-4.189 26.756-.548 55.48 8.21Zm-224.465-9.33c6.829 14.782 26.64 28.359 47.499 32.553 11.326 2.278 28.911 42.241 18.587 42.241-37.42 0-108.086-29.469-127.999-53.377-2.035-2.445 14.842-10.146 36.566-16.687 9.4-2.83 18.221-5.523 19.603-5.985 3.924-1.309 4.631-1.154 5.744 1.255Zm112.29 16.838c-1.35 9.741-11.042 56.859-11.864 57.677-11.598 11.544-26.169-10.737-36.342-55.574-2.028-8.938-2.668-8.381 8.119-7.067 13.018 1.585 30.596-1.086 39.391-5.984 2.472-1.378 2.451-1.716.696 10.948Z" clip-rule="evenodd"/>
      <path fill="#906700" d="M248.442 170.587c17.947 4.607 29.186 15.962 34.661 35.017 2.209 7.687 2.735 8.269 8.214 9.087 11.836 1.766 16.713 14.39 9.222 23.87-2.954 3.737-4.157 3.135-2.347-1.177 1.89-4.501 1.195-8.063-1.788-9.161-5.677-2.09-8.011 1.59-12.306 19.405-17.673 73.295-90.477 73.455-113.555.249-4.919-15.605-7.003-18.716-11.569-17.274-3.511 1.109-4.439 4.141-2.639 8.619 1.944 4.836 1.947 4.979.098 4.273-1.993-.761-5.17-6.105-6.027-10.139-1.475-6.939 6.437-16.246 13.811-16.246 3.387 0 4.267-1.324 6.309-9.505 7.805-31.264 40.259-46.683 77.916-37.018Z"/>
      <path fill="#906700" d="M261.476 312.654c.68 3.295 2.475 10.101 3.99 15.125 9.432 31.271-3.43 48.912-35.668 48.919-20.275.005-20.972-.357-23.627-12.269-5.133-23.03-4.904-22.498-10.626-24.547-5.086-1.819-5.086-1.819-1.83-13.663 1.792-6.513 3.566-13.9 3.945-16.412.689-4.569.689-4.569 5.587-2.098 14.536 7.331 34.903 7.153 49.939-.438 6.56-3.312 6.487-3.359 8.29 5.383Z"/>
      <path fill="#906700" fill-opacity=".7" d="M181.338 345.562c3.984 1.893 7.943 3.659 8.797 3.924 1.618.502 12.963 47.123 11.759 48.321-1.042 1.038-16.118-3.631-22.286-6.901-12.038-6.383-24.305-20.84-21.737-25.618 1.635-3.04 3.857-14.696 4.639-24.331.709-8.732.709-8.732 6.148-3.785 2.99 2.721 8.697 6.497 12.68 8.39Z"/>
      <path fill="#AD8C3B" d="M300.981 331.928c.973 4.816 3.372 14.693 5.329 21.952 4.954 18.364-.184 27.206-21.903 37.698-15.716 7.591-14.712 13.924-6.814-42.982 1.122-8.095 1.122-8.095 7.605-12.337 3.565-2.333 7.939-6.214 9.72-8.625 4.216-5.705 4.013-5.849 6.063 4.294Zm-152.396 43.525c6.829 14.782 26.64 28.359 47.499 32.553 11.326 2.278 28.911 42.241 18.587 42.241-37.42 0-108.086-29.469-127.999-53.377-2.035-2.445 14.842-10.146 36.566-16.687 9.4-2.83 18.221-5.523 19.603-5.985 3.924-1.309 4.631-1.154 5.744 1.255Zm224.465 9.33c11.401 3.476 11.347 3.182 2.099 11.294-26.53 23.268-56.377 39.061-90.061 47.655-16.289 4.156-25.166 5.389-24.451 3.398.274-.762 2.256-9.6 4.407-19.64 3.909-18.256 3.909-18.256 9.446-19.858 17.904-5.181 36.797-18.802 43.08-31.059 2.147-4.189 26.756-.548 55.48 8.21Z"/>
      <path fill="#FAFAFA" d="M260.875 392.291c-1.35 9.741-11.042 56.859-11.864 57.677-11.598 11.544-26.169-10.737-36.342-55.574-2.028-8.938-2.668-8.381 8.119-7.067 13.018 1.585 30.596-1.086 39.391-5.984 2.472-1.378 2.451-1.716.696 10.948Z"/>
    </g>
  </g>
</svg> -->



<svg xmlns="http://www.w3.org/2000/svg" width="460" height="461" fill="none" viewBox="0 0 460 461">
  <g class="Group 2">
    <path fill="#F0E0C5" d="M460 230c0 127.025-102.975 230-230 230S0 357.025 0 230 102.975 0 230 0s230 102.975 230 230Z" class="Ellipse 1"/>
    <g class="Vector (Traced)">
      <path fill="#621101" fill-rule="evenodd" d="M239.32 90.395c-3.056.656-7.651 2.413-10.211 3.906-4.518 2.635-4.765 2.668-8.447 1.137-17.225-7.163-38.807 1.443-45.164 18.012-1.668 4.346-1.668 4.346-8.366 4.827-15.072 1.081-30.322 15.91-30.322 29.485 0 1.811-1.226 3.662-3.979 6.007-9.374 7.987-13.559 25.628-8.814 37.157 1.425 3.463 1.578 5.072.759 8.005-3.294 11.804 1.376 25.211 10.985 31.54 2.902 1.912 3.986 3.418 4.529 6.299 1.719 9.12 12.052 19.237 19.756 19.341 1.007.014 2.298 1.825 3.401 4.775 2.676 7.15 8.38 18.269 11.626 22.663 2.884 3.903 2.884 3.903-3.438 7.068-16.66 8.343-18.326 11.359-19.09 34.557-.558 16.967-1.7 27.294-3.705 33.53-.943 2.931-1.592 3.198-23.658 9.74-36.316 10.767-57.37 21.976-53.788 28.638 1.721 3.2 19.637 17.639 32.692 26.347 89.337 59.589 213.571 47.103 288.403-28.986 11.458-11.65 3.023-16.476-47.875-27.401-24.916-5.347-24.916-5.347-26.793-11.391-2.351-7.571-6.346-25.23-9.622-42.538-3.337-17.628-6.506-21.58-21.518-26.842-6.776-2.375-6.657-1.979-2.709-8.931 1.903-3.351 3.735-6.955 4.071-8.01.455-1.425 1.879-2.066 5.546-2.498 9.693-1.143 17.504-6.745 22.061-15.822 1.912-3.809 4.474-7.08 6.927-8.849 12.685-9.146 17.592-25.177 12.143-39.67-1.962-5.221-2.011-5.906-.599-8.293 10.835-18.318-3.159-50.13-22.051-50.13-.9 0-1.348-1.318-1.348-3.965 0-14.032-14.15-28.974-29.109-30.737-4.121-.486-4.987-1.009-6.6-3.991-4.609-8.519-20.981-17.52-29.567-16.255-.313.045-3.069.62-6.126 1.275Zm9.122 80.192c17.947 4.607 29.186 15.962 34.661 35.017 2.209 7.687 2.735 8.269 8.214 9.087 11.836 1.766 16.713 14.39 9.222 23.87-2.954 3.737-4.157 3.135-2.347-1.177 1.89-4.501 1.195-8.063-1.788-9.161-5.677-2.09-8.011 1.59-12.306 19.405-17.673 73.295-90.477 73.455-113.555.249-4.919-15.605-7.003-18.716-11.569-17.274-3.511 1.109-4.439 4.141-2.639 8.619 1.944 4.836 1.947 4.979.098 4.273-1.993-.761-5.17-6.105-6.027-10.139-1.475-6.939 6.437-16.246 13.811-16.246 3.387 0 4.267-1.324 6.309-9.505 7.805-31.264 40.259-46.683 77.916-37.018Zm13.034 142.067c.68 3.295 2.475 10.101 3.99 15.125 9.432 31.271-3.43 48.912-35.668 48.919-20.275.005-20.972-.357-23.627-12.269-5.133-23.03-4.904-22.498-10.626-24.547-5.086-1.819-5.086-1.819-1.83-13.663 1.792-6.513 3.566-13.9 3.945-16.412.689-4.569.689-4.569 5.587-2.098 14.536 7.331 34.903 7.153 49.939-.438 6.56-3.312 6.487-3.359 8.29 5.383Zm39.505 19.274c.973 4.816 3.372 14.693 5.329 21.952 4.954 18.364-.184 27.206-21.903 37.698-15.716 7.591-14.712 13.924-6.814-42.982 1.122-8.095 1.122-8.095 7.605-12.337 3.565-2.333 7.939-6.214 9.72-8.625 4.216-5.705 4.013-5.849 6.063 4.294Zm-119.643 13.634c3.984 1.893 7.943 3.659 8.797 3.924 1.618.502 12.963 47.123 11.759 48.321-1.042 1.038-16.118-3.631-22.286-6.901-12.038-6.383-24.305-20.84-21.737-25.618 1.635-3.04 3.857-14.696 4.639-24.331.709-8.732.709-8.732 6.148-3.785 2.99 2.721 8.697 6.497 12.68 8.39Zm191.712 39.221c11.401 3.476 11.347 3.182 2.099 11.294-26.53 23.268-56.377 39.061-90.061 47.655-16.289 4.156-25.166 5.389-24.451 3.398.274-.762 2.256-9.6 4.407-19.64 3.909-18.256 3.909-18.256 9.446-19.858 17.904-5.181 36.797-18.802 43.08-31.059 2.147-4.189 26.756-.548 55.48 8.21Zm-224.465-9.33c6.829 14.782 26.64 28.359 47.499 32.553 11.326 2.278 28.911 42.241 18.587 42.241-37.42 0-108.086-29.469-127.999-53.377-2.035-2.445 14.842-10.146 36.566-16.687 9.4-2.83 18.221-5.523 19.603-5.985 3.924-1.309 4.631-1.154 5.744 1.255Zm112.29 16.838c-1.35 9.741-11.042 56.859-11.864 57.677-11.598 11.544-26.169-10.737-36.342-55.574-2.028-8.938-2.668-8.381 8.119-7.067 13.018 1.585 30.596-1.086 39.391-5.984 2.472-1.378 2.451-1.716.696 10.948Z" clip-rule="evenodd"/>
      <path fill="#906700" fill-opacity=".7" d="M181.338 345.562c3.984 1.893 7.943 3.659 8.797 3.924 1.618.502 12.963 47.123 11.759 48.321-1.042 1.038-16.118-3.631-22.286-6.901-12.038-6.383-24.305-20.84-21.737-25.618 1.635-3.04 3.857-14.696 4.639-24.331.709-8.732.709-8.732 6.148-3.785 2.99 2.721 8.697 6.497 12.68 8.39Z"/>
      <path fill="#AD8C3B" d="M300.981 331.928c.973 4.816 3.372 14.693 5.329 21.952 4.954 18.364-.184 27.206-21.903 37.698-15.716 7.591-14.712 13.924-6.814-42.982 1.122-8.095 1.122-8.095 7.605-12.337 3.565-2.333 7.939-6.214 9.72-8.625 4.216-5.705 4.013-5.849 6.063 4.294Zm-152.396 43.525c6.829 14.782 26.64 28.359 47.499 32.553 11.326 2.278 28.911 42.241 18.587 42.241-37.42 0-108.086-29.469-127.999-53.377-2.035-2.445 14.842-10.146 36.566-16.687 9.4-2.83 18.221-5.523 19.603-5.985 3.924-1.309 4.631-1.154 5.744 1.255Zm224.465 9.33c11.401 3.476 11.347 3.182 2.099 11.294-26.53 23.268-56.377 39.061-90.061 47.655-16.289 4.156-25.166 5.389-24.451 3.398.274-.762 2.256-9.6 4.407-19.64 3.909-18.256 3.909-18.256 9.446-19.858 17.904-5.181 36.797-18.802 43.08-31.059 2.147-4.189 26.756-.548 55.48 8.21Z"/>
      <path fill="#FAFAFA" d="M260.875 392.291c-1.35 9.741-11.042 56.859-11.864 57.677-11.598 11.544-26.169-10.737-36.342-55.574-2.028-8.938-2.668-8.381 8.119-7.067 13.018 1.585 30.596-1.086 39.391-5.984 2.472-1.378 2.451-1.716.696 10.948Z"/>
      <path fill="#C6C5C5" d="M261.476 312.654c.68 3.295 2.475 10.101 3.99 15.125 9.432 31.271-3.43 48.912-35.668 48.919-20.275.005-20.972-.357-23.627-12.269-5.133-23.03-4.904-22.498-10.626-24.547-5.086-1.819-5.086-1.819-1.83-13.663 1.792-6.513 3.566-13.9 3.945-16.412.689-4.569.689-4.569 5.587-2.098 14.536 7.331 34.903 7.153 49.939-.438 6.56-3.312 6.487-3.359 8.29 5.383Z"/>
      <path fill="#C6C5C5" d="M248.442 170.587c17.947 4.607 29.186 15.962 34.661 35.017 2.209 7.687 2.735 8.269 8.214 9.087 11.836 1.766 16.713 14.39 9.222 23.87-2.954 3.737-4.157 3.135-2.347-1.177 1.89-4.501 1.195-8.063-1.788-9.161-5.677-2.09-8.011 1.59-12.306 19.405-17.673 73.295-90.477 73.455-113.555.249-4.919-15.605-7.003-18.716-11.569-17.274-3.511 1.109-4.439 4.141-2.639 8.619 1.944 4.836 1.947 4.979.098 4.273-1.993-.761-5.17-6.105-6.027-10.139-1.475-6.939 6.437-16.246 13.811-16.246 3.387 0 4.267-1.324 6.309-9.505 7.805-31.264 40.259-46.683 77.916-37.018Z"/>
    </g>
  </g>
</svg>
