<svg width="1000" height="1000" viewBox="0 0 1000 1000" fill="none" xmlns="http://www.w3.org/2000/svg">
  <g clip-path="url(#clip0_269_2438)">
    <mask id="mask0_269_2438" style="mask-type:luminance" maskUnits="userSpaceOnUse" x="0" y="0" width="1000"
      height="1000">
      <path d="M1000 0H0V1000H1000V0Z" fill="white" />
    </mask>
    <g mask="url(#mask0_269_2438)">
      <path
        d="M499.286 136.658C422.514 136.658 406.18 198.211 369.174 213.539C332.168 228.868 277.094 196.893 222.807 251.18C168.521 305.466 200.496 360.54 185.167 397.546C169.839 434.552 108.286 450.886 108.286 527.658C108.286 604.431 169.839 620.764 185.167 657.771C200.496 694.777 168.521 749.851 222.807 804.137C277.094 858.424 332.167 826.449 369.174 841.778C406.18 857.106 422.513 918.658 499.286 918.658C576.059 918.659 592.392 857.106 629.398 841.778C666.405 826.449 721.478 858.424 775.765 804.137C830.051 749.851 798.077 694.777 813.405 657.771C828.734 620.765 890.286 604.431 890.286 527.659C890.286 450.886 828.734 434.552 813.405 397.546C798.077 360.54 830.051 305.466 775.765 251.18C721.479 196.893 666.405 228.868 629.399 213.539C592.392 198.211 576.059 136.658 499.286 136.658Z"
        fill="#0A8549" />
      <path d="M307.75 521.531L439.017 652.798C442.476 656.257 448.085 656.257 451.545 652.798L724.248 380.093"
        stroke="white" stroke-width="55" stroke-linecap="round" stroke-linejoin="round" />
    </g>
  </g>
  <defs>
    <clipPath id="clip0_269_2438">
      <rect width="1000" height="1000" fill="white" />
    </clipPath>
  </defs>
</svg>