<svg xmlns="http://www.w3.org/2000/svg" width="24" height="24" fill="none" viewBox="0 0 24 24">
  <path fill="#25D366" fill-rule="evenodd" d="M20.4 3.45C18.15 1.2 15.15 0 12 0 5.4 0 0 5.4 0 12c0 2.1.6 4.2 1.65 6L0 24l6.3-1.65c1.8.9 3.75 1.5 5.7 1.5 6.6 0 12-5.4 12-12 0-3.15-1.35-6.15-3.6-8.4ZM12 21.9c-1.8 0-3.6-.45-5.1-1.35l-.3-.15-3.75 1.05 1.05-3.6-.3-.45c-1.05-1.65-1.5-3.45-1.5-5.25 0-5.4 4.5-9.9 9.9-9.9 2.7 0 5.1 1.05 7.05 2.85C21 7.05 21.9 9.45 21.9 12.15c0 5.25-4.35 9.75-9.9 9.75Zm5.4-7.5c-.3-.15-1.8-.9-2.1-.9-.3-.15-.45-.15-.6.15-.15.3-.75.9-.9 1.2-.15.15-.3.15-.6.15-.3-.15-1.2-.45-2.4-1.5-.9-.75-1.5-1.8-1.65-2.1-.15-.3 0-.45.15-.6l.45-.45c.15-.15.15-.3.3-.45.15-.15 0-.3 0-.45 0-.15-.6-1.65-.9-2.25-.15-.45-.45-.45-.6-.45h-.6c-.15 0-.45 0-.75.3S6.15 8.1 6.15 9.6c0 1.5 1.05 2.85 1.2 3.15.15.15 2.1 3.3 5.1 4.5 2.55 1.05 3 .75 3.6.75.6 0 1.8-.75 1.95-1.35.3-.75.3-1.35.15-1.35-.15-.75-.45-.75-.75-.9Z" clip-rule="evenodd"/>
</svg>
