<svg width="255" height="188" viewBox="0 0 255 188" fill="none" xmlns="http://www.w3.org/2000/svg">
<path fill-rule="evenodd" clip-rule="evenodd" d="M96.419 35.2738C96.308 35.2474 96.1972 35.2157 96.0915 35.184C94.665 34.7138 92.6783 33.8314 90.3113 32.9227C84.4942 30.6825 76.4951 28.3471 68.7336 30.9202C63.5188 32.6479 58.378 36.5683 54.0826 44.2874C52.096 47.8696 52.0695 51.8269 53.2001 55.6944C54.801 61.1945 58.7531 66.4991 62.2402 70.0865C63.6403 71.5237 66.9003 73.8326 68.9925 75.5973C11.0169 72.8288 -24.208 146.845 22.5349 186.82C23.0897 187.295 23.9244 187.227 24.3999 186.677C24.8701 186.122 24.8068 185.288 24.2521 184.812C-21.0643 146.052 14.0813 73.9541 70.7783 78.3553C71.8138 78.4345 72.3792 78.0964 72.6486 77.8163C73.0396 77.4042 73.2193 76.86 72.9816 76.1572C72.8019 75.6342 72.0622 74.7413 70.9262 73.7744C68.8921 72.0361 65.5477 69.6956 64.1317 68.2426C60.9088 64.9299 57.2156 60.0427 55.7362 54.96C54.8063 51.7741 54.7588 48.5142 56.3914 45.5713C60.2694 38.5971 64.8555 34.9885 69.5683 33.4246C76.6957 31.0628 84.024 33.3347 89.3656 35.3847C92.2134 36.4837 94.5328 37.5298 96.0227 37.9155C97.0213 38.1744 97.7821 38.1374 98.2682 37.9367C98.5165 37.831 99.008 37.5351 99.1242 36.7743C99.2352 36.0346 98.8389 32.7008 98.8336 32.1407C98.7438 16.8239 109.728 6.80106 124.152 3.90571C148.324 -0.94452 162.695 10.7056 164.475 25.3884C166.034 38.2273 158.014 53.0897 138.951 61.0254C138.328 61.2156 137.699 61.4059 137.07 61.5908C134.946 62.2195 129.451 63.963 128.717 64.2906C127.692 64.745 127.856 65.7118 127.887 65.8545C127.972 66.1979 128.183 66.6946 128.912 66.8426C128.981 66.8584 129.346 66.8901 130.033 66.721C133.578 65.8387 136.853 64.7555 139.865 63.5086C143.141 62.5154 146.401 61.4957 149.724 60.6556C163.361 57.2161 177.42 54.511 191.522 56.0484C207.61 57.7973 228.189 66.2719 240.706 78.8625C246.834 85.0283 251.024 92.1768 251.669 100.033C252.319 107.885 249.402 116.396 241.498 125.294C241.012 125.838 241.065 126.673 241.609 127.159C242.153 127.645 242.988 127.592 243.474 127.048C251.975 117.474 254.997 108.265 254.3 99.8167C253.608 91.3684 249.17 83.6334 242.576 77.0027C229.652 64 208.418 55.2294 191.807 53.4224C177.874 51.9061 163.989 54.4 150.495 57.7391C163.26 48.8048 168.443 36.1561 167.096 25.0714C165.168 9.15224 149.835 -3.9402 123.629 1.31686C107.932 4.46581 96.0967 15.4818 96.1918 32.1564C96.1971 32.484 96.3239 34.1378 96.419 35.2738Z" fill="black"/>
</svg>
