<svg width="257" height="153" viewBox="0 0 257 153" fill="none" xmlns="http://www.w3.org/2000/svg">
<path fill-rule="evenodd" clip-rule="evenodd" d="M185.105 144.742C207.915 145.292 231.225 144.192 253.035 151.992C254.335 152.452 255.765 151.782 256.235 150.482C256.695 149.182 256.025 147.752 254.725 147.282C232.405 139.302 208.565 140.302 185.225 139.742C183.845 139.702 182.695 140.802 182.665 142.182C182.625 143.562 183.725 144.702 185.105 144.742Z" fill="black"/>
<path fill-rule="evenodd" clip-rule="evenodd" d="M183.056 111.625C190.166 105.083 197.926 100.182 207.306 97.753C208.646 97.407 209.446 96.0419 209.106 94.7059C208.756 93.3699 207.386 92.567 206.056 92.913C195.856 95.553 187.406 100.835 179.676 107.944C178.656 108.878 178.586 110.461 179.526 111.477C180.456 112.492 182.046 112.559 183.056 111.625Z" fill="black"/>
<path fill-rule="evenodd" clip-rule="evenodd" d="M163.276 40.2019C166.536 29.0269 172.957 20.2849 182.797 13.9719C183.957 13.2269 184.297 11.679 183.547 10.518C182.807 9.35697 181.256 9.01894 180.096 9.76394C169.206 16.7539 162.086 26.4279 158.476 38.8009C158.086 40.1249 158.857 41.515 160.177 41.901C161.507 42.288 162.896 41.5259 163.276 40.2019Z" fill="black"/>
<path fill-rule="evenodd" clip-rule="evenodd" d="M50.9253 25.0359C48.9853 27.3189 47.2453 29.7789 45.7653 32.3979C45.1053 33.5639 43.9453 36.0419 43.7653 38.1669C43.5653 40.4309 44.3352 42.341 46.3152 43.347C48.9452 44.681 51.0453 44.542 52.6653 43.735C54.2253 42.96 55.4452 41.4369 56.2152 39.3949C57.6852 35.4919 57.4652 29.527 56.6952 26.123C58.7652 23.987 61.0352 22.0499 63.4652 20.3279C81.5652 7.50292 108.115 12.2319 128.545 31.4079C135.695 38.1219 139.135 52.2219 140.925 67.4349C143.715 91.1219 142.125 117.578 141.905 125.329C141.855 127.243 142.035 128.379 142.135 128.606C142.605 129.722 143.435 130.012 144.015 130.122C144.855 130.272 145.525 130.112 146.065 129.832C146.795 129.448 147.395 128.772 147.675 127.729C147.825 127.153 147.865 126.351 147.845 125.496C147.825 124.903 147.705 124.255 147.825 123.83C148.605 121.108 149.545 118.45 150.465 115.773C153.535 106.774 157.505 98.341 161.915 89.918C175.925 63.154 189.475 34.8749 212.445 14.4839C213.475 13.5689 213.575 11.9869 212.655 10.9549C211.745 9.92294 210.165 9.82892 209.125 10.7449C185.695 31.5389 171.775 60.3049 157.485 87.5989C153.735 94.7639 150.295 101.939 147.435 109.444C147.725 96.168 147.615 77.7909 145.185 61.5309C143.025 47.0699 138.915 34.2899 131.965 27.7629C109.585 6.75592 80.3952 2.19895 60.5752 16.2489C58.4552 17.7529 56.4353 19.407 54.5553 21.201C44.1853 2.47597 21.9852 -5.02908 2.36523 3.92692C1.10523 4.49992 0.555236 5.98394 1.12524 7.23894C1.70524 8.49394 3.18518 9.04796 4.44518 8.47496C22.1252 0.404959 42.1753 7.60693 50.9253 25.0359ZM52.3752 31.3049C51.5652 32.4489 50.8152 33.6349 50.1152 34.8609C49.7452 35.5189 49.1052 36.784 48.8352 38.022C48.7752 38.312 48.7653 38.7659 48.7653 38.9759C49.4552 39.3159 49.9952 39.48 50.4352 39.259C50.9852 38.987 51.2653 38.3469 51.5353 37.6319C52.2153 35.8379 52.4352 33.4599 52.3752 31.3049Z" fill="black"/>
</svg>
