<svg width="232" height="196" viewBox="0 0 232 196" fill="none" xmlns="http://www.w3.org/2000/svg">
<path fill-rule="evenodd" clip-rule="evenodd" d="M137.244 46.6004C133.014 43.1507 128.337 40.1505 123.494 37.7115C114.022 32.9405 99.8028 28.6461 86.6368 28.5245C77.6121 28.4411 69.0863 30.3305 62.7896 35.1961C50.7962 44.4634 48.3264 60.4715 51.7532 77.1044C54.2527 89.2355 59.8647 101.682 66.9524 111.9C58.9015 107.3 48.4906 103.034 38.3804 101.984C27.0471 100.799 16.1052 103.608 8.96249 114.068C-5.96382 135.932 1.51106 157.086 17.726 172.355C33.6557 187.353 58.0846 196.559 77.3645 194.985C78.3839 194.898 79.1434 194.003 79.0601 192.984C78.9767 191.966 78.082 191.206 77.0632 191.293C58.6928 192.787 35.4438 183.951 20.2662 169.657C5.37444 155.635 -1.68613 136.234 12.0219 116.161C18.3132 106.948 28.0134 104.621 37.9964 105.664C48.3819 106.751 59.0892 111.437 66.9481 116.192C69.0765 117.476 71.2234 118.748 73.353 120.051C79.065 126.454 85.3272 131.276 91.4758 133.61C93.0028 134.184 93.7054 133.184 93.8888 132.894C94.1395 132.499 94.3822 131.863 93.9777 131.041C93.9018 130.887 93.7147 130.597 93.3819 130.276C92.9268 129.844 91.9136 129.047 91.4931 128.658C89.7581 127.04 87.8557 125.552 85.9836 124.107C82.7296 121.588 79.2731 119.347 75.7647 117.192C75.2628 116.618 74.7663 116.037 74.2748 115.445C65.4792 104.806 58.2673 90.3637 55.3814 76.3574C52.2632 61.2217 54.1415 46.5603 65.055 38.1277C70.7356 33.7382 78.4611 32.1539 86.6029 32.2292C99.1866 32.3453 112.775 36.46 121.827 41.0199C127.357 43.8052 132.662 47.3574 137.272 51.4987C138.802 52.8731 140.198 54.4328 141.536 55.9944C141.683 56.166 141.885 56.4198 142.111 56.7106C142.695 57.5831 143.312 58.4234 143.964 59.2292C144.307 59.6534 144.542 59.8046 144.584 59.8318C145.704 60.5474 146.5 59.9467 146.838 59.6355C146.939 59.5429 147.955 58.5488 147.129 57.241C146.961 56.9761 145.915 55.5584 145.081 54.4909C138.902 45.1815 136.978 32.0798 139.707 21.4454C141.438 14.704 145.049 8.94317 150.772 5.93679C154.578 3.9381 159.299 3.1774 164.963 4.08568C178.623 6.2764 190.064 14.0705 200.246 23.6657C210.662 33.4814 219.759 45.1908 228.475 54.9885C229.154 55.7523 230.326 55.8208 231.09 55.141C231.854 54.4618 231.922 53.2899 231.243 52.5261C222.459 42.6524 213.283 30.8615 202.787 20.9693C192.056 10.8573 179.946 2.73654 165.55 0.427879C158.96 -0.629201 153.477 0.331585 149.05 2.65691C142.424 6.13688 138.122 12.7195 136.119 20.5241C134.026 28.6801 134.46 38.1598 137.244 46.6004Z" fill="black"/>
</svg>
