<svg width="131" height="131" viewBox="0 0 131 131" fill="none" xmlns="http://www.w3.org/2000/svg">
<g clip-path="url(#clip0_406_128531)">
<path fill-rule="evenodd" clip-rule="evenodd" d="M126.816 5.99524C117.886 67.1205 63.0403 96.8109 5.78434 103.562C4.80115 103.68 4.09424 104.572 4.21205 105.555C4.32985 106.539 5.22237 107.245 6.20556 107.128C65.0654 100.191 121.189 69.3496 130.368 6.51171C130.513 5.53305 129.833 4.62236 128.85 4.47737C127.872 4.33239 126.961 5.01205 126.816 5.99524Z" fill="black"/>
<path fill-rule="evenodd" clip-rule="evenodd" d="M7.07053 105.219C9.61685 103.357 12.8383 101.055 13.1962 100.783C22.8967 93.4161 30.9344 84.939 38.0115 74.9939C38.5869 74.1874 38.3965 73.0637 37.59 72.4883C36.7836 71.9129 35.66 72.1033 35.0846 72.9098C28.2249 82.5559 20.432 90.7793 11.0215 97.9244C10.4733 98.3412 3.22838 103.511 1.84195 104.666C1.27107 105.137 1.09449 105.581 1.06278 105.69C0.872481 106.261 0.985716 106.71 1.13976 107.036C1.31647 107.403 1.75584 107.937 2.60763 108.209C3.5002 108.49 5.48479 108.617 5.98318 108.69C13.4998 109.804 21.9861 110.393 29.7111 112.532C37.0782 114.571 43.7611 118.023 48.0472 124.942C48.5683 125.784 49.6783 126.043 50.521 125.522C51.3638 125.001 51.6221 123.89 51.1011 123.048C46.3075 115.314 38.904 111.349 30.6715 109.07C22.9918 106.945 14.5826 106.302 7.07053 105.219Z" fill="black"/>
</g>
<defs>
<clipPath id="clip0_406_128531">
<rect width="130" height="130" fill="white" transform="translate(0.900391 0.149414)"/>
</clipPath>
</defs>
</svg>
