<svg width="94" height="211" viewBox="0 0 94 211" fill="none" xmlns="http://www.w3.org/2000/svg">
<path fill-rule="evenodd" clip-rule="evenodd" d="M71.8379 50.3503L71.7572 50.4757C71.3945 50.9906 71.014 51.5055 70.8035 51.8816C67.9424 57.0128 63.0081 61.4768 58.5037 65.1618C47.7219 73.9735 37.4147 83.3629 27.3 92.9358C24.4657 95.6178 21.9629 98.6447 19.3122 101.501C18.5286 102.348 17.7629 103.203 16.9928 104.058C16.6614 104.434 15.7796 105.039 15.399 105.428C15.1214 105.706 14.987 105.979 14.9333 106.158C14.8079 106.615 14.9243 106.977 15.1705 107.264C15.3272 107.452 15.6228 107.712 16.2138 107.707C22.4286 107.64 30.5955 104.662 39.1341 100.642C51.6756 94.7357 65.0499 86.6091 74.0899 82.6868C76.4675 81.657 80.9496 78.7243 85.0734 76.6825C86.9002 75.7736 88.6375 75.0169 90.0345 74.7796C89.1972 75.5587 88.0642 76.4317 87.5135 77.0272C85.1359 79.6018 82.369 81.8003 79.8482 84.2271C72.1782 91.606 53.5382 118.547 48.1114 127.793C43.719 135.271 22.7777 180.184 20.8927 208.944C20.8524 209.561 21.3181 210.094 21.936 210.134C22.5539 210.175 23.0868 209.705 23.1271 209.091C24.9897 180.677 45.7026 136.314 50.0413 128.926C55.4098 119.783 73.817 93.1329 81.3974 85.8435C83.954 83.3853 86.748 81.151 89.1569 78.5451C90.0256 77.6049 92.1881 75.9796 92.806 75.0035C93.1553 74.4527 93.1866 73.9467 93.0791 73.584C92.9448 73.1408 92.609 72.6662 91.7448 72.5274C90.3299 72.3035 88.3419 72.7915 86.1479 73.7184C81.5809 75.6527 75.9617 79.4361 73.199 80.6361C64.1455 84.5629 50.7444 92.6986 38.1805 98.6178C31.1777 101.913 24.4523 104.533 18.9226 105.262C19.5942 104.51 20.2704 103.767 20.9554 103.024C23.5703 100.198 26.0374 97.2119 28.8359 94.5612C38.9147 85.0286 49.1816 75.6706 59.9187 66.8947C64.6335 63.0395 69.7648 58.3381 72.7602 52.9741C73.1811 52.2174 74.2782 50.8741 74.5021 50.113C74.6453 49.6249 74.578 49.213 74.4168 48.913C74.2243 48.5414 73.875 48.2055 73.1944 48.1518C70.4094 47.9234 65.7127 48.7652 60.2322 50.1801C47.7847 53.3994 31.1732 59.5202 24.2733 61.741C19.6391 63.2321 15.0408 64.9201 10.3618 66.2634C10.129 66.3305 5.58866 67.2394 3.42603 67.6693C3.86035 66.4111 4.75593 64.7141 5.85739 62.7933C9.73491 56.0457 16.4198 46.8757 18.4123 44.0683C22.2316 38.6819 26.1806 33.4074 29.8746 27.9314C35.7043 19.2898 41.243 10.4692 47.1668 1.89026C47.5205 1.38431 47.3907 0.685827 46.8847 0.336582C46.3743 -0.017141 45.6758 0.112654 45.3266 0.618612C39.3939 9.20199 33.8506 18.0316 28.0165 26.6822C24.3359 32.1402 20.3958 37.4013 16.5855 42.7743C14.5751 45.6085 7.83194 54.8681 3.9186 61.6784C2.12312 64.7992 0.949907 67.4678 0.900654 68.8871C0.891699 69.2811 1.10668 70.0782 2.19471 70.1319C3.58722 70.1991 10.6483 68.511 10.9796 68.417C15.681 67.0648 20.3017 65.3678 24.9583 63.8723C31.8357 61.6605 48.3892 55.5576 60.7919 52.3517C65.256 51.1965 69.1648 50.404 71.8379 50.3503Z" fill="black"/>
</svg>
