<svg width="198" height="167" viewBox="0 0 198 167" fill="none" xmlns="http://www.w3.org/2000/svg">
<path fill-rule="evenodd" clip-rule="evenodd" d="M143.844 18.6805C153.401 19.1699 160.997 24 168.593 29.4236C193.506 47.2343 201.838 74.8685 184.767 102.024C158.221 144.136 96.3883 171.697 48.442 158.977C37.8235 156.174 23.4478 153.703 12.9111 140.014C3.10944 127.285 3.51784 112.153 8.01026 98.1443C12.5844 83.7808 21.4058 70.5612 28.4303 62.0636C59.1421 24.9886 120.647 -8.70749 176.272 9.05683C177.415 9.39911 178.559 8.81048 178.885 7.74218C179.212 6.67388 178.64 5.52835 177.578 5.18607C120.32 -13.0961 56.8547 21.3236 25.2445 59.479C16.5047 70.075 5.07009 87.7629 1.80288 106.064C-0.402488 118.572 1.14912 131.358 9.64386 142.481C20.8341 157.063 36.1084 159.919 47.3803 162.905C96.8785 176.042 160.834 147.675 188.197 104.183C206.575 74.9954 197.753 45.2651 170.962 26.1211C162.794 20.2366 154.463 15.1512 144.089 14.6211C142.946 14.5634 141.966 15.426 141.966 16.5463C141.884 17.6666 142.782 18.6227 143.844 18.6805Z" fill="black"/>
</svg>
