<svg width="122" height="198" viewBox="0 0 122 198" fill="none" xmlns="http://www.w3.org/2000/svg">
<path fill-rule="evenodd" clip-rule="evenodd" d="M93.8021 50.2439C76.3952 38.2036 57.2318 36.9798 35.8252 38.0553C32.2107 38.2376 23.404 39.0009 16.816 41.5506C12.1569 43.3523 8.63786 46.0966 8.39751 49.9689C8.18489 53.3529 10.382 55.9921 13.8363 57.9514C21.3364 62.207 34.8237 63.3164 38.9651 63.3103C57.62 63.2763 76.4198 59.2618 93.6172 52.0023C94.6772 52.7564 95.7341 53.5537 96.7849 54.3943C99.9464 56.9316 103.453 60.2755 105.89 64.0983C108.26 67.813 109.625 71.9851 108.565 76.2994C106.356 85.3018 96.6 92.1904 84.564 97.3143C81.9417 98.433 79.2115 99.4622 76.4198 100.411C74.8051 99.3046 72.9686 98.2878 70.9564 97.3575C55.346 90.1383 29.3758 87.9071 21.5275 88.2964C18.0331 88.4695 11.5992 88.7012 6.91541 90.7162C3.56591 92.1563 1.09762 94.4927 0.909655 98.2012C0.740177 101.505 2.9095 104.005 6.31139 105.813C13.6575 109.716 26.8398 110.412 31.1291 110.374C40.8818 110.294 59.4812 107.68 76.1979 102.114C79.3872 104.419 81.501 107.111 81.8985 110.282C82.4532 114.692 79.2516 118.737 74.3491 122.356C72.87 123.447 71.2368 124.498 69.4958 125.496C69.3325 125.45 69.1723 125.406 69.0089 125.36C55.8852 121.729 39.2579 121.562 31.9303 122.134C28.624 122.39 22.6676 123.271 18.4337 125.598C15.4139 127.261 13.2693 129.656 13.2816 132.975C13.2939 136.384 15.8699 138.259 19.3365 139.153C24.0665 140.367 30.442 139.761 32.8085 139.52C39.4736 138.847 57.1394 134.183 69.6838 127.162C73.514 128.296 76.9991 129.748 79.7755 131.606C82.709 133.562 84.8506 135.966 85.7164 138.936C87.8457 146.264 82.3915 152.42 74.4076 157.25C71.9764 158.721 69.3079 160.066 66.5254 161.274C64.4516 159.052 61.4719 157.222 57.9806 155.791C49.7532 152.423 38.6909 151.218 30.519 151.938C27.6995 152.185 22.8463 152.88 19.4722 154.84C17.0317 156.255 15.3523 158.319 15.4786 161.249C15.6296 164.809 18.027 167.01 21.2871 168.323C25.8229 170.147 32.0505 170.233 35.3384 170.31C41.794 170.459 54.7328 167.887 66.1032 163.128C66.8674 164.108 67.4374 165.165 67.7764 166.308C69.0583 170.61 66.9968 175.972 59.8849 182.613C56.4399 185.827 52.6683 188.674 48.4344 190.747C42.3332 193.739 35.9947 195.315 29.3419 196.465C28.9228 196.539 28.6394 196.937 28.7133 197.358C28.7842 197.778 29.1848 198.062 29.6038 197.988C36.4014 196.814 42.8786 195.191 49.1123 192.135C53.4817 189.993 57.3797 187.06 60.9356 183.744C68.6762 176.516 70.6483 170.548 69.2555 165.866C68.898 164.67 68.3187 163.552 67.5514 162.507C70.2508 161.32 72.8361 160.007 75.2026 158.573C83.8768 153.325 89.5096 146.461 87.1955 138.504C85.4853 132.626 79.3194 128.651 71.4957 126.108C72.8299 125.298 74.0933 124.464 75.2611 123.602C80.6968 119.59 84.0432 114.976 83.43 110.09C83.0202 106.836 81.0204 103.983 77.9297 101.523C80.4041 100.661 82.8292 99.7341 85.1679 98.7359C97.7155 93.3926 107.758 86.0558 110.063 76.6671C110.996 72.8659 110.254 69.1605 108.58 65.7332C106.137 60.7421 101.694 56.3537 97.7462 53.1891C96.9266 52.5308 96.1008 51.8973 95.2719 51.2916C97.1793 50.4572 99.0682 49.5857 100.932 48.6709C105.545 46.4118 110.996 43.5068 115.175 39.6283C118.028 36.9767 120.29 33.8739 121.338 30.2241C122.844 24.9982 121.177 20.548 118.096 16.8796C115.116 13.3287 110.796 10.5195 106.864 8.45508C89.6545 -0.58134 69.3726 -3.08459 51.0505 4.44062C50.6592 4.60132 50.4712 5.05252 50.6314 5.4481C50.7916 5.84058 51.2415 6.03222 51.636 5.86843C69.5297 -1.48062 89.3401 0.99785 106.149 9.82413C109.915 11.7989 114.062 14.4752 116.919 17.8747C119.67 21.1537 121.205 25.1218 119.858 29.7945C118.638 34.0346 115.625 37.4588 112.019 40.2865C108.328 43.1823 104.008 45.4476 100.255 47.2833C98.1315 48.3217 95.9776 49.3106 93.8021 50.2439ZM65.0185 161.914C63.1111 160.025 60.455 158.474 57.3982 157.222C49.3865 153.94 38.6139 152.775 30.6546 153.477C27.9984 153.712 23.4194 154.33 20.2455 156.175C18.3197 157.293 16.9176 158.873 17.0162 161.184C17.1426 164.095 19.1948 165.814 21.8633 166.889C26.2235 168.641 32.2138 168.691 35.3753 168.765C41.6059 168.907 54.0025 166.45 65.0185 161.914ZM67.5545 126.568C54.7913 123.262 39.0792 123.126 32.0474 123.673C28.8982 123.917 23.2099 124.733 19.1732 126.955C16.6803 128.324 14.81 130.227 14.8223 132.969C14.8315 135.642 17.0008 136.955 19.7186 137.654C24.2606 138.822 30.3834 138.213 32.6544 137.984C38.9682 137.345 55.346 133.064 67.5545 126.568ZM74.5647 101.023C73.2706 100.219 71.8408 99.4683 70.3125 98.7606C54.93 91.6464 29.3358 89.4554 21.6045 89.8386C18.2365 90.0054 12.0367 90.197 7.52244 92.1378C4.73992 93.3307 2.60451 95.2004 2.44735 98.2816C2.35799 100.046 3.14679 101.499 4.48104 102.707C5.92623 104.021 7.99078 105.043 10.3357 105.859C17.6017 108.387 27.5393 108.86 31.1168 108.829C40.5428 108.752 58.3288 106.277 74.5647 101.023ZM92.1073 50.9609C75.2119 39.6437 56.6155 38.5559 35.9022 39.5974C32.3802 39.7766 23.7923 40.5091 17.3706 42.9907C15.2968 43.7942 13.451 44.7738 12.1014 45.9946C10.8503 47.1287 10.0337 48.4639 9.93513 50.0647C9.82112 51.8973 10.6223 53.4301 11.9874 54.7281C13.4634 56.1281 15.5741 57.253 17.9715 58.1678C25.3854 60.9956 35.5109 61.7712 38.9621 61.765C57.0839 61.7311 75.3475 57.8989 92.1073 50.9609Z" fill="black"/>
</svg>
