<svg width="666" height="41" viewBox="0 0 666 41" fill="none" xmlns="http://www.w3.org/2000/svg">
<path fill-rule="evenodd" clip-rule="evenodd" d="M221.376 3.74873C148.038 2.90441 74.4018 5.99002 3.4171 18.9466C2.15061 19.1768 1.62485 19.6297 1.52123 19.7334C0.914851 20.3474 0.849496 20.9998 0.926253 21.5371C0.972307 21.8633 1.28331 23.2411 2.98347 23.3831C4.15785 23.479 12.4935 22.8074 15.7096 22.6347C30.8499 21.825 45.9597 20.6698 61.0616 19.3342C95.3028 16.3177 129.498 13.7079 163.793 11.3323C183.047 9.99674 202.309 8.89141 221.56 7.98568C267.871 8.52681 314.067 10.6377 359.4 12.8176C341.381 13.9267 324.825 15.0512 311.097 15.7804C287.947 17.0085 264.839 18.4592 241.736 20.3704C229.865 21.3491 218.01 22.4122 206.163 23.6671C204.85 23.8091 201.86 23.955 200.413 24.1277C199.799 24.1967 199.354 24.3081 199.155 24.3848C197.904 24.8684 197.746 25.8585 197.731 26.3574C197.723 26.6606 197.827 28.3147 199.938 28.6371C298.083 43.7659 400.477 26.1656 498.975 40.8722C500.13 41.0449 501.212 40.2466 501.385 39.0876C501.557 37.9324 500.759 36.8501 499.6 36.6774C406.832 22.8266 310.606 37.6369 217.718 26.7643C225.835 25.9775 233.956 25.2675 242.085 24.5959C265.146 22.6885 288.212 21.2416 311.323 20.0135C334.581 18.7816 366.02 16.3752 398.93 14.8593C427.172 16.4328 455.4 18.1982 483.646 19.6949C495.563 20.3243 507.483 20.8463 519.396 21.4872C524.293 21.7482 536.892 22.842 538.719 22.4352C540.139 22.1166 540.481 21.0996 540.565 20.5892C540.654 20.0365 540.6 19.3495 539.955 18.6933C539.756 18.486 539.157 18.0562 537.929 17.7031C504.712 8.18911 450.322 8.33877 399.383 10.6376C388.426 10.0236 377.469 9.44024 366.508 8.91445C341.416 7.70553 316.048 6.49275 290.534 5.53713C362.436 3.76021 434.372 4.27066 506.328 5.55634C536.539 6.09748 617.975 9.35966 650.047 12.2419C649.656 12.6449 649.426 13.2052 649.453 13.8154C649.506 14.9821 650.5 15.8878 651.671 15.8341C658.287 15.5271 662.114 15.1356 663.63 14.7326C664.574 14.4832 665.088 14.084 665.326 13.8231C665.909 13.1937 666.017 12.5182 665.902 11.8773C665.829 11.4781 665.648 11.0406 665.234 10.6376C664.958 10.3613 664.282 9.93917 663.131 9.65133C650.523 6.51582 542.377 1.96026 506.405 1.31551C411.345 -0.38082 316.324 -0.726192 221.376 3.74873ZM512.215 16.8664C493.64 14.345 471.864 13.4585 449.148 13.516C460.719 14.1876 472.294 14.8439 483.873 15.458C493.318 15.9607 502.766 16.3906 512.215 16.8664ZM133.766 9.22534C109.395 11.0214 85.0518 12.9634 60.6892 15.1126C57.8761 15.3582 55.0668 15.6 52.2536 15.8379C79.1953 12.5374 106.417 10.4381 133.766 9.22534Z" fill="black"/>
</svg>
