<svg width="751" height="36" viewBox="0 0 751 36" fill="none" xmlns="http://www.w3.org/2000/svg">
<path fill-rule="evenodd" clip-rule="evenodd" d="M133.514 12.8204C125.316 14.3549 117.621 16.5764 110.681 19.6911C109.925 20.0346 109.696 20.5154 109.628 20.7216C109.513 21.088 109.559 21.4317 109.742 21.7523C109.857 21.9584 110.04 22.2104 110.429 22.3707C110.704 22.4852 111.414 22.5767 112.353 22.5538C113.956 22.5309 116.43 22.3478 117.621 22.3478C121.697 22.3936 125.774 22.3705 129.85 22.4392C142.836 22.6682 145.103 22.8514 161.798 22.714C181.288 22.5537 200.824 22.2789 220.336 21.8667C158.318 25.302 96.3903 29.3099 34.7837 33.0429C34.0966 33.0887 33.5699 33.6843 33.6157 34.3714C33.6386 35.0814 34.2568 35.6082 34.9439 35.5624C178.7 26.8596 324.037 16.5993 468.893 15.9351C476.038 16.0954 483.16 16.2556 490.26 16.4159C533.156 17.4236 576.074 18.6375 618.924 20.5155C632.871 21.1339 646.819 21.8209 660.789 22.4621C664.911 22.6454 669.057 22.8285 673.202 23.0118C676.546 23.1492 685.157 23.6531 686.37 23.676C687.47 23.6989 687.745 22.7143 687.768 22.6685C687.836 22.3478 687.79 21.9812 687.516 21.6377C687.447 21.5461 687.264 21.2943 686.851 21.1798C686.783 21.1798 686.462 21.1338 685.798 21.0651C651.353 18.2482 616.817 16.3015 582.212 15.0648C586.861 15.1106 591.51 15.1336 596.159 15.1794C632.001 15.4542 667.934 16.439 703.753 15.1794C711.906 14.9046 720.082 14.5838 728.213 14.1945C733.686 13.9426 747.771 14.2633 749.763 13.6678C750.679 13.4159 750.885 12.7746 750.908 12.4539C750.931 12.0875 750.863 11.6753 750.45 11.3088C750.267 11.1256 749.695 10.828 748.618 10.599C713.464 2.9726 672.331 5.12524 636.536 2.99535C539.316 -2.84469 442.44 1.04883 345.244 4.59866C261.354 7.66754 177.463 7.82781 93.619 11.996C62.9302 13.5075 31.2797 11.7671 1.02608 17.5384C0.339013 17.6758 -0.0962711 18.3168 0.0182392 19.0039C0.155652 19.691 0.819868 20.1491 1.50693 20.0117C31.6231 14.2633 63.1593 16.0267 93.7336 14.5152C106.994 13.851 120.254 13.3014 133.514 12.8204ZM392.88 14.5152C341.511 13.7136 290.142 13.3013 238.727 13.5532C203.458 13.7135 152.065 7.00344 117.025 19.8286C117.277 19.8286 117.483 19.8286 117.666 19.8286C121.743 19.8744 125.819 19.8284 129.896 19.92C142.859 20.1491 145.126 20.3323 161.776 20.1948C204.351 19.8284 247.04 18.9125 289.592 17.4926C324.06 16.3475 358.482 15.3167 392.88 14.5152ZM740.373 11.5607C707.143 5.74358 669.469 7.48438 636.375 5.5148C539.247 -0.325236 442.44 3.56801 345.336 7.11784C301.936 8.72098 258.56 9.52251 215.206 10.5073C223.52 10.8279 231.467 11.0569 238.727 11.034C312.219 10.6676 385.689 11.6525 459.182 13.2099C504.826 12.5228 550.47 12.2709 596.182 12.6373C632.001 12.935 667.865 13.897 703.684 12.6602C711.815 12.3854 719.968 12.0647 728.098 11.6753C730.869 11.5608 735.885 11.5836 740.373 11.5607Z" fill="black"/>
</svg>
