<svg width="611" height="48" viewBox="0 0 611 48" fill="none" xmlns="http://www.w3.org/2000/svg">
<path fill-rule="evenodd" clip-rule="evenodd" d="M225.847 19.0395C222.116 19.8388 218.407 20.6875 214.72 21.589C213.378 21.9167 212.557 23.2707 212.883 24.6115L212.901 24.6643C192.931 25.0099 172.966 25.5461 153.01 26.2781C124.182 27.3365 95.1711 29.0792 66.442 31.7871C38.0507 34.463 30.207 35.1512 5.7806 39.627C5.08205 39.7549 3.73448 39.7469 3.00949 39.9497C2.32006 40.1423 1.82653 40.478 1.50961 40.8066C1.10365 41.2232 0.870169 41.7028 0.77126 42.2278C0.666616 42.7999 0.697784 43.499 1.18851 44.2798C2.5729 46.4715 4.81094 47.0733 7.54058 46.611C9.8892 46.213 12.7286 44.8027 14.9534 44.6416C51.9898 41.9624 89.0011 38.9915 126.041 36.366C182.746 32.347 239.278 30.4512 295.82 29.3167C355.263 29.8357 414.677 31.9842 473.988 35.6368C512.616 38.014 551.163 41.5446 589.741 44.633C589.713 44.8028 589.707 44.9801 589.715 45.161C589.799 46.5385 590.989 47.5882 592.367 47.5043C593.762 47.4191 606.215 47.0636 608.511 46.4974C609.826 46.173 610.34 45.3609 610.511 45.0132C610.974 44.0596 611.001 43.0235 609.969 42.0352C609.765 41.8455 609.385 41.5322 608.686 41.3322C608.088 41.1568 606.607 40.9351 603.917 40.731C560.709 37.417 517.554 33.31 474.297 30.6436C454.985 29.4571 435.662 28.4256 416.323 27.5631C442.571 27.2198 468.829 26.8305 495.128 26.2613C496.261 26.2401 496.81 26.0561 496.912 26.0126C498.355 25.3888 498.456 24.2477 498.428 23.601C498.421 23.3702 498.227 21.4652 496.108 21.1979C494.868 21.0408 485.91 20.736 482.464 20.5537C465.904 19.6622 466.29 19.8027 449.348 19.0335C412.094 17.3469 374.893 16.2267 337.593 15.3221C322.722 14.962 307.851 14.6727 292.976 14.4611C335.845 10.8061 379.599 10.9503 421.297 10.4962C442.808 10.2624 464.324 10.1625 485.834 10.4377C495.468 10.5612 505.1 10.8464 514.733 11.018C517.726 11.0711 520.71 11.1941 523.7 11.265C524.054 11.273 528.692 11.3107 529.453 11.294C531.446 11.2505 531.905 9.47572 531.923 9.40462C532.008 9.07064 532.338 6.68271 529.863 6.31456C494.097 0.994552 456.601 2.24618 420.475 1.38324C357.247 -0.127342 293.85 0.206523 230.623 2.17803C202.657 3.04977 174.781 4.86499 146.854 6.67109C132.907 7.57324 118.922 8.52926 105.108 10.7293C103.722 10.9503 100.581 11.1777 99.057 11.4398C98.2818 11.5736 97.7297 11.7846 97.4768 11.9286C96.3689 12.5536 96.1482 13.4727 96.1303 14.1172C96.1192 14.6002 96.2214 16.3007 98.5035 16.82C131.112 24.2495 167.3 19.459 200.415 19.174C208.892 19.1009 217.366 19.0566 225.847 19.0395ZM253.46 19.0804C243.637 20.5827 233.912 22.3662 224.323 24.4884C248.164 24.1627 272.005 24.1082 295.856 24.317C335.203 23.5276 374.55 23.1057 413.944 22.5933C388.472 21.6596 362.993 20.9397 337.471 20.3212C309.477 19.6423 281.47 19.2166 253.46 19.0804ZM389.798 5.79533C336.801 5.02326 283.73 5.52417 230.781 7.17533C202.866 8.04581 175.048 9.8582 147.176 11.6609C136.208 12.3702 125.211 13.1094 114.299 14.4774C142.491 17.946 172.531 14.4135 200.374 14.1742C217.958 14.0229 235.551 13.9935 253.138 14.0783C297.857 7.28863 344.572 6.25841 389.798 5.79533Z" fill="black"/>
</svg>
