<svg width="702" height="41" viewBox="0 0 702 41" fill="none" xmlns="http://www.w3.org/2000/svg">
<path fill-rule="evenodd" clip-rule="evenodd" d="M298.272 4.18976C265.378 5.50641 232.87 7.12537 201.169 8.8953C156.293 11.3991 111.434 13.9893 66.8457 18.0903C52.8103 19.3854 38.5572 20.2056 24.6095 21.8244C15.8541 22.8389 4.24451 24.2848 2.7209 24.587C1.92399 24.7597 1.57633 25.0189 1.46399 25.1053C0.674098 25.7096 0.818223 26.2922 1.26407 26.7455C1.44311 26.9397 1.89585 27.4148 3.15265 27.4795C87.2038 31.9043 173.151 23.2706 257.304 22.364C403.24 20.8099 553.599 26.9831 698.377 40.4518C699.641 40.5597 700.87 40.02 701.045 39.2214C701.256 38.4443 700.343 37.6888 699.079 37.5809C554.056 24.0906 403.45 17.8958 257.233 19.4715C178.806 20.3133 98.8309 27.8896 20.295 25.2995C22.0994 25.0836 23.8689 24.8677 25.4838 24.6734C39.3753 23.0546 53.5686 22.256 67.5479 20.961C112.041 16.8599 156.809 14.2698 201.625 11.7875C257.233 8.67938 315.264 6.00288 373.751 4.75098C394.674 4.94524 415.527 5.13958 436.38 5.37701C481.491 5.89504 526.814 7.40597 571.82 9.43491C585.371 10.0609 598.921 10.7083 612.472 11.2695C616.966 11.4638 628.551 12.0249 630.166 11.9817C632.167 11.9386 632.553 10.9026 632.588 10.7299C632.693 10.3414 632.623 9.80176 631.64 9.34849C631.535 9.28373 630.903 9.06775 629.499 8.93824C547.666 1.29733 460.287 0.0240468 373.821 1.85873C282.615 1.0601 191.058 0.714593 100.084 0.347656C98.7819 0.347656 97.7181 0.995286 97.7076 1.79391C97.7006 2.59254 98.7501 3.24019 100.053 3.26177C165.926 3.52079 232.132 3.77965 298.272 4.18976Z" fill="black"/>
</svg>
